<svg xmlns="http://www.w3.org/2000/svg" viewBox="0 0 1200 800" width="1200" height="800"><g transform="translate(-1.0 -12.0) rotate(0.0 720.5 406.0) scale(0.7505208333333333 0.7518518518518519)"><svg width="1920" height="1080" viewBox="0 0 1920 1080"><path d="M0 0h1920v1080H0z" fill="#aac6fc"/></svg></g><g transform="translate(585.0 26.0) rotate(0.0 200.0 200.0) scale(1.2080942313500451 1.2080942313500451)"><svg width="331.1" height="331.1" viewBox="0 0 331.1 331.1"><g fill="#383a48"><circle cx="326.1" cy="5" r="5"/><circle cx="326.1" cy="29.7" r="5"/><circle cx="326.1" cy="54.4" r="5"/><circle cx="326.1" cy="79.1" r="5"/><circle cx="326.1" cy="103.8" r="5"/><circle cx="326.1" cy="128.5" r="5"/><circle cx="326.1" cy="153.2" r="5"/><circle cx="326.1" cy="177.9" r="5"/><circle cx="326.1" cy="202.6" r="5"/><circle cx="326.1" cy="227.3" r="5"/><circle cx="326.1" cy="252" r="5"/><circle cx="326.1" cy="276.7" r="5"/><circle cx="326.1" cy="301.4" r="5"/><circle cx="326.1" cy="326.1" r="5"/><circle cx="301.4" cy="5" r="5"/><circle cx="301.4" cy="29.7" r="5"/><circle cx="301.4" cy="54.4" r="5"/><circle cx="301.4" cy="79.1" r="5"/><circle cx="301.4" cy="103.8" r="5"/><circle cx="301.4" cy="128.5" r="5"/><circle cx="301.4" cy="153.2" r="5"/><circle cx="301.4" cy="177.9" r="5"/><circle cx="301.4" cy="202.6" r="5"/><circle cx="301.4" cy="227.3" r="5"/><circle cx="301.4" cy="252" r="5"/><circle cx="301.4" cy="276.7" r="5"/><circle cx="301.4" cy="301.4" r="5"/><circle cx="301.4" cy="326.1" r="5"/><circle cx="276.7" cy="5" r="5"/><circle cx="276.7" cy="29.7" r="5"/><circle cx="276.7" cy="54.4" r="5"/><circle cx="276.7" cy="79.1" r="5"/><circle cx="276.7" cy="103.8" r="5"/><circle cx="276.7" cy="128.5" r="5"/><circle cx="276.7" cy="153.2" r="5"/><circle cx="276.7" cy="177.9" r="5"/><circle cx="276.7" cy="202.6" r="5"/><circle cx="276.7" cy="227.3" r="5"/><circle cx="276.7" cy="252" r="5"/><circle cx="276.7" cy="276.7" r="5"/><circle cx="276.7" cy="301.4" r="5"/><circle cx="276.7" cy="326.1" r="5"/><circle cx="252" cy="5" r="5"/><circle cx="252" cy="29.7" r="5"/><circle cx="252" cy="54.4" r="5"/><circle cx="252" cy="79.1" r="5"/><circle cx="252" cy="103.8" r="5"/><circle cx="252" cy="128.5" r="5"/><circle cx="252" cy="153.2" r="5"/><circle cx="252" cy="177.9" r="5"/><circle cx="252" cy="202.6" r="5"/><circle cx="252" cy="227.3" r="5"/><circle cx="252" cy="252" r="5"/><circle cx="252" cy="276.7" r="5"/><circle cx="252" cy="301.4" r="5"/><circle cx="252" cy="326.1" r="5"/><circle cx="227.3" cy="5" r="5"/><circle cx="227.3" cy="29.7" r="5"/><circle cx="227.3" cy="54.4" r="5"/><circle cx="227.3" cy="79.1" r="5"/><circle cx="227.3" cy="103.8" r="5"/><circle cx="227.3" cy="128.5" r="5"/><circle cx="227.3" cy="153.2" r="5"/><circle cx="227.3" cy="177.9" r="5"/><circle cx="227.3" cy="202.6" r="5"/><circle cx="227.3" cy="227.3" r="5"/><circle cx="227.3" cy="252" r="5"/><circle cx="227.3" cy="276.7" r="5"/><circle cx="227.3" cy="301.4" r="5"/><circle cx="227.3" cy="326.1" r="5"/><circle cx="202.6" cy="5" r="5"/><circle cx="202.6" cy="29.7" r="5"/><circle cx="202.6" cy="54.4" r="5"/><circle cx="202.6" cy="79.1" r="5"/><circle cx="202.6" cy="103.8" r="5"/><circle cx="202.6" cy="128.5" r="5"/><circle cx="202.6" cy="153.2" r="5"/><circle cx="202.6" cy="177.9" r="5"/><circle cx="202.6" cy="202.6" r="5"/><circle cx="202.6" cy="227.3" r="5"/><circle cx="202.6" cy="252" r="5"/><circle cx="202.6" cy="276.7" r="5"/><circle cx="202.6" cy="301.4" r="5"/><circle cx="202.6" cy="326.1" r="5"/><circle cx="177.9" cy="5" r="5"/><circle cx="177.9" cy="29.7" r="5"/><circle cx="177.9" cy="54.4" r="5"/><circle cx="177.9" cy="79.1" r="5"/><circle cx="177.9" cy="103.8" r="5"/><circle cx="177.9" cy="128.5" r="5"/><circle cx="177.9" cy="153.2" r="5"/><circle cx="177.9" cy="177.9" r="5"/><circle cx="177.9" cy="202.6" r="5"/><circle cx="177.9" cy="227.3" r="5"/><circle cx="177.9" cy="252" r="5"/><circle cx="177.9" cy="276.7" r="5"/><circle cx="177.9" cy="301.4" r="5"/><circle cx="177.9" cy="326.1" r="5"/><circle cx="153.2" cy="5" r="5"/><circle cx="153.2" cy="29.7" r="5"/><circle cx="153.2" cy="54.4" r="5"/><circle cx="153.2" cy="79.1" r="5"/><circle cx="153.2" cy="103.8" r="5"/><circle cx="153.2" cy="128.5" r="5"/><circle cx="153.2" cy="153.2" r="5"/><circle cx="153.2" cy="177.9" r="5"/><circle cx="153.2" cy="202.6" r="5"/><circle cx="153.2" cy="227.3" r="5"/><circle cx="153.2" cy="252" r="5"/><circle cx="153.2" cy="276.7" r="5"/><circle cx="153.2" cy="301.4" r="5"/><circle cx="153.2" cy="326.1" r="5"/><circle cx="128.5" cy="5" r="5"/><circle cx="128.5" cy="29.7" r="5"/><circle cx="128.5" cy="54.4" r="5"/><circle cx="128.5" cy="79.1" r="5"/><circle cx="128.5" cy="103.8" r="5"/><circle cx="128.5" cy="128.5" r="5"/><circle cx="128.5" cy="153.2" r="5"/><circle cx="128.5" cy="177.9" r="5"/><circle cx="128.5" cy="202.6" r="5"/><circle cx="128.5" cy="227.3" r="5"/><circle cx="128.5" cy="252" r="5"/><circle cx="128.5" cy="276.7" r="5"/><circle cx="128.5" cy="301.4" r="5"/><circle cx="128.5" cy="326.1" r="5"/><circle cx="103.8" cy="5" r="5"/><circle cx="103.8" cy="29.7" r="5"/><circle cx="103.8" cy="54.4" r="5"/><circle cx="103.8" cy="79.1" r="5"/><circle cx="103.8" cy="103.8" r="5"/><circle cx="103.8" cy="128.5" r="5"/><circle cx="103.8" cy="153.2" r="5"/><circle cx="103.8" cy="177.9" r="5"/><circle cx="103.8" cy="202.6" r="5"/><circle cx="103.8" cy="227.3" r="5"/><circle cx="103.8" cy="252" r="5"/><circle cx="103.8" cy="276.7" r="5"/><circle cx="103.8" cy="301.4" r="5"/><circle cx="103.8" cy="326.1" r="5"/><circle cx="79.1" cy="5" r="5"/><circle cx="79.1" cy="29.7" r="5"/><circle cx="79.1" cy="54.4" r="5"/><circle cx="79.1" cy="79.1" r="5"/><circle cx="79.1" cy="103.8" r="5"/><circle cx="79.1" cy="128.5" r="5"/><circle cx="79.1" cy="153.2" r="5"/><circle cx="79.1" cy="177.9" r="5"/><circle cx="79.1" cy="202.6" r="5"/><circle cx="79.1" cy="227.3" r="5"/><circle cx="79.1" cy="252" r="5"/><circle cx="79.1" cy="276.7" r="5"/><circle cx="79.1" cy="301.4" r="5"/><circle cx="79.1" cy="326.1" r="5"/><circle cx="54.4" cy="5" r="5"/><circle cx="54.4" cy="29.7" r="5"/><circle cx="54.4" cy="54.4" r="5"/><circle cx="54.4" cy="79.1" r="5"/><circle cx="54.4" cy="103.8" r="5"/><circle cx="54.4" cy="128.5" r="5"/><circle cx="54.4" cy="153.2" r="5"/><circle cx="54.4" cy="177.9" r="5"/><circle cx="54.4" cy="202.6" r="5"/><circle cx="54.4" cy="227.3" r="5"/><circle cx="54.4" cy="252" r="5"/><circle cx="54.4" cy="276.7" r="5"/><circle cx="54.4" cy="301.4" r="5"/><circle cx="54.4" cy="326.1" r="5"/><circle cx="29.7" cy="5" r="5"/><circle cx="29.7" cy="29.7" r="5"/><circle cx="29.7" cy="54.4" r="5"/><circle cx="29.7" cy="79.1" r="5"/><circle cx="29.7" cy="103.8" r="5"/><circle cx="29.7" cy="128.5" r="5"/><circle cx="29.7" cy="153.2" r="5"/><circle cx="29.7" cy="177.9" r="5"/><circle cx="29.7" cy="202.6" r="5"/><circle cx="29.7" cy="227.3" r="5"/><circle cx="29.7" cy="252" r="5"/><circle cx="29.7" cy="276.7" r="5"/><circle cx="29.7" cy="301.4" r="5"/><circle cx="29.7" cy="326.1" r="5"/><circle cx="5" cy="5" r="5"/><circle cx="5" cy="29.7" r="5"/><circle cx="5" cy="54.4" r="5"/><circle cx="5" cy="79.1" r="5"/><circle cx="5" cy="103.8" r="5"/><circle cx="5" cy="128.5" r="5"/><circle cx="5" cy="153.2" r="5"/><circle cx="5" cy="177.9" r="5"/><circle cx="5" cy="202.6" r="5"/><circle cx="5" cy="227.3" r="5"/><circle cx="5" cy="252" r="5"/><circle cx="5" cy="276.7" r="5"/><circle cx="5" cy="301.4" r="5"/><circle cx="5" cy="326.1" r="5"/></g></svg></g><g transform="translate(-1.0 0.0) rotate(0.0 169.0 202.5) scale(0.7825885621671683 0.7845796203022084)"><svg width="431.9" height="516.2" viewBox="0 0 431.9 516.2"><g fill="#f3f6e6"><path d="M426.9 5H5v506.2s53.5-190.1 187.6-253.1C326.9 195.1 252 58.2 426.9 5z"/><path d="M5 516.2h-.7c-2.5-.3-4.3-2.5-4.3-5V5c0-2.8 2.2-5 5-5h421.9c2.5 0 4.6 1.8 4.9 4.3.4 2.5-1.1 4.8-3.5 5.5-61.8 18.8-61.8 18.8-94 57.1-19.3 23-29.9 49.6-40.2 75.4-17.8 44.6-36.2 90.8-99.4 120.4-29.9 14.1-58.3 35.9-84.2 64.8-20.9 23.3-40.2 51.2-57.5 83C23.4 464.8 9.9 512.1 9.8 512.6c-.6 2.1-2.6 3.6-4.8 3.6zM10 10v470.9c7.2-19.2 18.4-46.2 34.1-75 17.7-32.5 37.5-61.1 58.9-85 26.9-30 56.3-52.7 87.5-67.3 59.6-28 76.5-70.3 94.4-115.1C304 90.5 323.8 41 398.1 10z"/></g></svg></g><g transform="translate(-128.0 291.0) rotate(0.0 373.0 295.5) scale(0.6442141623488774 0.6448445171849427)"><svg width="1158" height="916.5" viewBox="0 0 1158 916.5"><path d="M0 916.5c56.5-127-45.5-239 91.5-337s315 65 383-204C524.7 177 688.5 242.5 688 0h470c.5 242.5-163.3 177-213.5 375.5-68 269-246 106-383 204s-35 210-91.5 337z" fill="#f3f6e6"/><g fill="#bebfc3"><path d="M29.7 874.9h41.9v41.7H29.7zm83.9 0h41.9v41.7h-41.9zm83.8 0h41.9v41.7h-41.9zm83.9 0h41.9v41.7h-41.9zm83.8 0H407v41.7h-41.9zM29.7 791.3h41.9V833H29.7zm83.9 0h41.9V833h-41.9zm83.8 0h41.9V833h-41.9zm83.9 0h41.9V833h-41.9zm83.8 0H407V833h-41.9zM71.6 833.1h41.9v41.7H71.6zm83.9 0h41.9v41.7h-41.9zm83.8 0h41.9v41.7h-41.9zm83.9 0h41.9v41.7h-41.9zm83.9 0H449v41.7h-41.9zM71.6 707.8H29.7v41.7h41.9v41.7h41.9v-41.7H71.6zm42 0h41.9v41.7h-41.9zm83.8 0h41.9v41.7h-41.9zm83.9 0h41.9v41.7h-41.9zm83.8 0H407v41.7h-41.9zm-209.6 41.7h41.9v41.7h-41.9zm83.8 0h41.9v41.7h-41.9zm83.9 0h41.9v41.7h-41.9zm83.9 0H449v41.7h-41.9zM113.6 624.2h41.9v41.7h-41.9zm83.8 0h41.9v41.7h-41.9zm83.9 0h41.9v41.7h-41.9zm83.8 0H407v41.7h-41.9zm83.9 0h41.9v41.7H449zm-293.5 41.7h41.9v41.7h-41.9z"/><path d="M239.3 665.9h41.9v41.7h-41.9zm83.9 0h41.9v41.7h-41.9zm83.9 0H449v41.7h-41.9zm-42-125.3H407v41.7h-41.9zm83.9 0h41.9v41.7H449zm-293.5 41.8h41.9v41.7h-41.9zm83.8 0h41.9v41.7h-41.9zm83.9 0h41.9v41.7h-41.9zm83.9 0H449v41.7h-41.9zM449 457.1h41.9v41.7H449zm125.8 0h-41.9v41.7h41.9v41.7h41.9v-41.7h-41.9zm41.9 0h41.9v41.7h-41.9zm83.9 0v41.7h-41.9v41.7h41.9v-41.7h41.9v-41.7zm83.9 0h41.9v41.7h-41.9zm-293.6 41.7h41.9v41.7h-41.9zm251.6 0h41.9v41.7h-41.9zM532.9 373.5h41.9v41.7h-41.9zm83.8 0h41.9v41.7h-41.9zm83.9 0h41.9v41.7h-41.9zm83.9 0h41.9v41.7h-41.9zm83.8 0h41.9v41.7h-41.9zm-377.4 41.8h41.9V457h-41.9zm83.9 0h41.9V457h-41.9zm83.9 0h41.9V457h-41.9zm83.8 0h41.9V457h-41.9zm83.9 0h41.9V457h-41.9zM574.8 290h-41.9v41.7h41.9v41.7h41.9v-41.7h-41.9zm41.9 0h41.9v41.7h-41.9zm83.9 0v41.7h-41.9v41.7h41.9v-41.7h41.9V290zm83.9 0h41.9v41.7h-41.9zm83.8 41.7h-41.9v41.7h41.9v-41.7h41.9V290h-41.9zm-377.4 0h41.9v41.7h-41.9zm251.6 0h41.9v41.7h-41.9zM616.7 206.4h41.9v41.7h-41.9zm83.9 0h41.9v41.7h-41.9zm83.9 0h41.9v41.7h-41.9zm83.8 0h41.9v41.7h-41.9zm83.9 0h41.9v41.7h-41.9zm-377.4 41.8h41.9v41.7h-41.9zm83.9 0h41.9v41.7h-41.9zm83.8 0h41.9v41.7h-41.9zm83.9 0h41.9v41.7h-41.9zm83.9 0h41.9v41.7h-41.9zM700.6 122.9v41.7h-41.9v41.7h41.9v-41.7h41.9v-41.7zm83.9 0h41.9v41.7h-41.9zm83.8 41.7h-41.9v41.7h41.9v-41.7h41.9v-41.7h-41.9zm125.8-41.7h-41.9v41.7h41.9v41.7h41.9v-41.7h-41.9zm42 0h41.9v41.7h-41.9zm-293.6 41.7h41.9v41.7h-41.9zm167.8 0h41.9v41.7h-41.9zM700.6 39.3h41.9V81h-41.9zm83.9 0h41.9V81h-41.9zm83.8 0h41.9V81h-41.9zm83.9 0h41.9V81h-41.9zm83.9 0h41.9V81h-41.9zM742.5 81.1h41.9v41.7h-41.9zm83.9 0h41.9v41.7h-41.9zm83.9 0h41.9v41.7h-41.9zm83.8 0h41.9v41.7h-41.9zm83.9 0h41.9v41.7H1078zm41.9-41.8V81h30.4c2.8-12.6 4.9-26.4 6.2-41.7zm16.9 83.6h-16.9V153c6.2-9 11.9-18.9 16.9-30.1zm-25.6 41.7H1078v33.2c11.8-10.1 23-20.8 33.2-33.2zm-75.1 41.8v25.4c10.5-8.8 21.2-17 31.5-25.4zm-18.6 41.8h-23.4v24.9c7.5-9.1 15.4-17.3 23.4-24.9zM952.2 290v41.7h6.8c6.7-15.9 14.3-29.6 22.5-41.7zm-41.9 83.4H945c2.2-8.4 4.6-16.4 7.2-23.9v-17.8h-41.9zm0 41.9V457h4.1c6.5-12.1 12.6-25.9 18.2-41.7zm-42 83.5h-41.9v34.6c14.7-4.5 28.7-11.1 41.9-20.9v-13.7h15.9c9.3-9.3 18-20.7 26-34.4v-7.3h-41.9zm-167.7 44.1c14.1-.2 28.1 0 41.9-.1v-2.2h-41.9zM616.7 553c13.8-4 27.8-6.4 41.9-7.9v-4.5h-41.9zm-41.9-12.4h-41.9v41.7h24.8c1.3-.9 2.5-1.9 3.8-2.8 4.4-3.1 8.8-6 13.3-8.6zm-42 41.8h-41.9v41.7H515c5.1-6.9 11-13.8 17.8-20.6zm-41.9 83.5v9.8c.8-3.3 1.7-6.6 2.8-9.8zm-4.8 41.9H449v41.7h37c-.6-14.1-.9-28 .1-41.7zM449 833h39.6c.6-14.1.3-28-.3-41.7H449zm0 83.5h21c6.3-14 10.6-27.9 13.5-41.6H449zM1078 0h41.9v39.2H1078zm-83.9 0h41.9v39.2h-41.9zm-83.8 0h41.9v39.2h-41.9zm-83.9 0h41.9v39.2h-41.9zm-83.9 0h41.9v39.2h-41.9zm-41.9 39.2V0H688c0 14.1-.5 27.1-1.5 39.2zm-33.8 83.6h33.8V81.1h-20.3c-3.5 15.7-8.1 29.5-13.5 41.7zm-25.6 41.8h17.4v-25.4c-5.3 9.3-11.2 17.7-17.4 25.4zm-24.5 41.7v-16.2c-6.2 5.6-12.5 10.9-18.9 16.2zm-41.9 41.8v-23.4c-9.1 7.4-18.3 15-27.2 23.4zm-42 41.8v-26.8c-7.4 8.1-14.5 16.9-21.3 26.8zM489 331.7h1.9v-4.4c-.6 1.4-1.3 2.9-1.9 4.4zm-26.4 83.5h28.3v-41.7H475c-.2.7-.3 1.3-.5 2-3.7 14.4-7.6 27.6-11.9 39.7zM444.4 457h4.6v-9c-1.5 3.1-3 6.1-4.6 9zm-37.3 48.5v35H449v-41.7h-34.8c-2.4 2.3-4.7 4.6-7.1 6.7zm-42 25c-13.4 5-27.4 8-41.9 9.8v.3h41.9zm-41.9 10.1h-3.1c-12.6 1.4-25.6 1.9-38.8 2.1v39.6h41.9zm-83.9 2.2c-13.9.1-27.9.4-41.9 1.5v38h41.9zm-83.8 7.9c-14.2 3.4-28.2 8.3-41.9 15.4v16.3h41.9zm-42 31.7h-26c-5.7 4.3-11 8.6-15.9 12.9v28.8h41.9zm-68.6 41.8c-6.2 8.6-11.2 17.2-15.2 26v15.7h41.9v41.7h41.9v-41.7H71.6v-41.7zm-15.2 83.4v-41.7h-6c-4.3 13.7-6.6 27.6-7.6 41.7zm0 41.9H16c.6 13.7 1.6 27.6 2.2 41.7h11.5zm0 125.3v-41.7H18.6c-.6 13.7-2.1 27.6-5.1 41.7z"/></g></svg></g><g transform="translate(879.0 437.0) rotate(0.0 168.5 181.5) scale(0.4916836883571637 0.49107142857142855)"><svg width="685.4" height="739.2" viewBox="0 0 685.4 739.2"><g fill="#f3f6e6"><path d="M5 734.2h675.4V5c-150 0-156.1 106.9-180.1 190.1S436.8 318 342.6 358.2 79.4 532.7 5 734.2z"/><path d="M680.4 739.2H5c-1.6 0-3.2-.8-4.1-2.1-.9-1.3-1.2-3.1-.6-4.6 42.1-113.9 111.6-199 162.5-250.3 56.8-57.3 123.3-105.3 177.8-128.6 93.9-40.1 131.5-78.9 154.9-159.9 2.9-10.1 5.5-20.4 8.3-31.3C523.1 86.3 544.9 0 680.4 0c2.8 0 5 2.2 5 5v729.2c0 2.8-2.2 5-5 5zm-668.2-10h663.2V10c-123.2 2-142.9 79.7-161.9 154.8-2.7 10.5-5.4 21.3-8.4 31.6-12.6 43.8-29.2 74.5-53.7 99.8-24.1 24.8-57 45.3-106.8 66.5-53.4 22.8-118.7 70-174.6 126.4-49.3 49.7-116.1 131.2-157.8 240.1z"/></g></svg></g><g transform="translate(342.0 402.0) rotate(0.0 -113.0 73.0) scale(-1.1489578037620742 1.1496062992125984)"><svg width="196.7" height="127" viewBox="0 0 196.7 127"><g fill="#383a48"><path d="M180.4 115.7H0v-10h175.4V0h10v110.8a4.93 4.93 0 0 1-5 4.9z"/><circle cx="180.4" cy="110.7" r="11.3"/><path d="M180.4 127a16.3 16.3 0 1 1 16.3-16.3 16.3 16.3 0 0 1-16.3 16.3zm0-22.6a6.3 6.3 0 1 0 6.3 6.3 6.274 6.274 0 0 0-6.3-6.3z"/></g></svg></g><g transform="translate(889.0 236.0) rotate(0.0 110.5 71.5) scale(1.1235383833248602 1.125984251968504)"><svg width="196.7" height="127" viewBox="0 0 196.7 127"><g fill="#383a48"><path d="M180.4 115.7H0v-10h175.4V0h10v110.8a4.93 4.93 0 0 1-5 4.9z"/><circle cx="180.4" cy="110.7" r="11.3"/><path d="M180.4 127a16.3 16.3 0 1 1 16.3-16.3 16.3 16.3 0 0 1-16.3 16.3zm0-22.6a6.3 6.3 0 1 0 6.3 6.3 6.274 6.274 0 0 0-6.3-6.3z"/></g></svg></g><g transform="translate(389.0 647.0) rotate(0.0 95.0 62.0) scale(0.5074786324786326 0.5086136177194421)"><svg width="374.4" height="243.8" viewBox="0 0 374.4 243.8"><path d="M151.9 243.8c-.6 0-1.1 0-1.7-.1-8.1-.9-14.7-7.8-17.8-18.5-2.2-7.6-3.9-15.3-5.1-23-10.3-4.9-22.2-8.2-34.8-9.7-29.3-3.3-59.4 4.1-84.7 20.9-2.3 1.5-5.4.9-6.9-1.4s-.9-5.4 1.4-6.9C29.6 187 62 179 93.7 182.6c11.4 1.3 22.4 4.1 32.2 8.1-2.1-23.4.4-46.6 7.5-68.5 9.9-30.4 28.3-57.7 53.2-79s54.7-35.4 86.3-40.7c33.5-5.6 67.6-1 98.7 13.4 2.5 1.2 3.6 4.1 2.4 6.6s-4.1 3.6-6.6 2.4c-29.3-13.6-61.4-18-92.9-12.7-29.8 5-57.9 18.3-81.4 38.4s-40.8 45.9-50.2 74.5c-7.3 22.5-9.5 46.4-6.4 70.4 9.8 5.3 18.2 12 24.3 19.6 5.7 7.1 7.1 15 3.8 21.2-2.6 4.7-7.4 7.5-12.7 7.5zm-13.3-35.3c.9 4.6 2.1 9.3 3.4 13.9 1.9 6.7 5.4 10.9 9.3 11.3 1.9.2 3.6-.6 4.4-2.1 1.4-2.5.3-6.2-2.8-10.1-3.8-4.8-8.6-9.1-14.3-13z" fill="#383a48"/></svg></g><g transform="translate(435.0 26.0) rotate(0.0 200.0 200.0) scale(1.2080942313500451 1.2080942313500451)"><svg width="331.1" height="331.1" viewBox="0 0 331.1 331.1"><g fill="#383a48"><circle cx="326.1" cy="5" r="5"/><circle cx="326.1" cy="29.7" r="5"/><circle cx="326.1" cy="54.4" r="5"/><circle cx="326.1" cy="79.1" r="5"/><circle cx="326.1" cy="103.8" r="5"/><circle cx="326.1" cy="128.5" r="5"/><circle cx="326.1" cy="153.2" r="5"/><circle cx="326.1" cy="177.9" r="5"/><circle cx="326.1" cy="202.6" r="5"/><circle cx="326.1" cy="227.3" r="5"/><circle cx="326.1" cy="252" r="5"/><circle cx="326.1" cy="276.7" r="5"/><circle cx="326.1" cy="301.4" r="5"/><circle cx="326.1" cy="326.1" r="5"/><circle cx="301.4" cy="5" r="5"/><circle cx="301.4" cy="29.7" r="5"/><circle cx="301.4" cy="54.4" r="5"/><circle cx="301.4" cy="79.1" r="5"/><circle cx="301.4" cy="103.8" r="5"/><circle cx="301.4" cy="128.5" r="5"/><circle cx="301.4" cy="153.2" r="5"/><circle cx="301.4" cy="177.9" r="5"/><circle cx="301.4" cy="202.6" r="5"/><circle cx="301.4" cy="227.3" r="5"/><circle cx="301.4" cy="252" r="5"/><circle cx="301.4" cy="276.7" r="5"/><circle cx="301.4" cy="301.4" r="5"/><circle cx="301.4" cy="326.1" r="5"/><circle cx="276.7" cy="5" r="5"/><circle cx="276.7" cy="29.7" r="5"/><circle cx="276.7" cy="54.4" r="5"/><circle cx="276.7" cy="79.1" r="5"/><circle cx="276.7" cy="103.8" r="5"/><circle cx="276.7" cy="128.5" r="5"/><circle cx="276.7" cy="153.2" r="5"/><circle cx="276.7" cy="177.9" r="5"/><circle cx="276.7" cy="202.6" r="5"/><circle cx="276.7" cy="227.3" r="5"/><circle cx="276.7" cy="252" r="5"/><circle cx="276.7" cy="276.7" r="5"/><circle cx="276.7" cy="301.4" r="5"/><circle cx="276.7" cy="326.1" r="5"/><circle cx="252" cy="5" r="5"/><circle cx="252" cy="29.7" r="5"/><circle cx="252" cy="54.4" r="5"/><circle cx="252" cy="79.1" r="5"/><circle cx="252" cy="103.8" r="5"/><circle cx="252" cy="128.5" r="5"/><circle cx="252" cy="153.2" r="5"/><circle cx="252" cy="177.9" r="5"/><circle cx="252" cy="202.6" r="5"/><circle cx="252" cy="227.3" r="5"/><circle cx="252" cy="252" r="5"/><circle cx="252" cy="276.7" r="5"/><circle cx="252" cy="301.4" r="5"/><circle cx="252" cy="326.1" r="5"/><circle cx="227.3" cy="5" r="5"/><circle cx="227.3" cy="29.7" r="5"/><circle cx="227.3" cy="54.4" r="5"/><circle cx="227.3" cy="79.1" r="5"/><circle cx="227.3" cy="103.8" r="5"/><circle cx="227.3" cy="128.5" r="5"/><circle cx="227.3" cy="153.2" r="5"/><circle cx="227.3" cy="177.9" r="5"/><circle cx="227.3" cy="202.6" r="5"/><circle cx="227.3" cy="227.3" r="5"/><circle cx="227.3" cy="252" r="5"/><circle cx="227.3" cy="276.7" r="5"/><circle cx="227.3" cy="301.4" r="5"/><circle cx="227.3" cy="326.1" r="5"/><circle cx="202.6" cy="5" r="5"/><circle cx="202.6" cy="29.7" r="5"/><circle cx="202.6" cy="54.4" r="5"/><circle cx="202.6" cy="79.1" r="5"/><circle cx="202.6" cy="103.8" r="5"/><circle cx="202.6" cy="128.5" r="5"/><circle cx="202.6" cy="153.2" r="5"/><circle cx="202.6" cy="177.9" r="5"/><circle cx="202.6" cy="202.6" r="5"/><circle cx="202.6" cy="227.3" r="5"/><circle cx="202.6" cy="252" r="5"/><circle cx="202.6" cy="276.7" r="5"/><circle cx="202.6" cy="301.4" r="5"/><circle cx="202.6" cy="326.1" r="5"/><circle cx="177.9" cy="5" r="5"/><circle cx="177.9" cy="29.7" r="5"/><circle cx="177.9" cy="54.4" r="5"/><circle cx="177.9" cy="79.1" r="5"/><circle cx="177.9" cy="103.8" r="5"/><circle cx="177.9" cy="128.5" r="5"/><circle cx="177.9" cy="153.2" r="5"/><circle cx="177.9" cy="177.9" r="5"/><circle cx="177.9" cy="202.6" r="5"/><circle cx="177.9" cy="227.3" r="5"/><circle cx="177.9" cy="252" r="5"/><circle cx="177.9" cy="276.7" r="5"/><circle cx="177.9" cy="301.4" r="5"/><circle cx="177.9" cy="326.1" r="5"/><circle cx="153.2" cy="5" r="5"/><circle cx="153.2" cy="29.7" r="5"/><circle cx="153.2" cy="54.4" r="5"/><circle cx="153.2" cy="79.1" r="5"/><circle cx="153.2" cy="103.8" r="5"/><circle cx="153.2" cy="128.5" r="5"/><circle cx="153.2" cy="153.2" r="5"/><circle cx="153.2" cy="177.9" r="5"/><circle cx="153.2" cy="202.6" r="5"/><circle cx="153.2" cy="227.3" r="5"/><circle cx="153.2" cy="252" r="5"/><circle cx="153.2" cy="276.7" r="5"/><circle cx="153.2" cy="301.4" r="5"/><circle cx="153.2" cy="326.1" r="5"/><circle cx="128.5" cy="5" r="5"/><circle cx="128.5" cy="29.7" r="5"/><circle cx="128.5" cy="54.4" r="5"/><circle cx="128.5" cy="79.1" r="5"/><circle cx="128.5" cy="103.8" r="5"/><circle cx="128.5" cy="128.5" r="5"/><circle cx="128.5" cy="153.2" r="5"/><circle cx="128.5" cy="177.9" r="5"/><circle cx="128.5" cy="202.6" r="5"/><circle cx="128.5" cy="227.3" r="5"/><circle cx="128.5" cy="252" r="5"/><circle cx="128.5" cy="276.7" r="5"/><circle cx="128.5" cy="301.4" r="5"/><circle cx="128.5" cy="326.1" r="5"/><circle cx="103.8" cy="5" r="5"/><circle cx="103.8" cy="29.7" r="5"/><circle cx="103.8" cy="54.4" r="5"/><circle cx="103.8" cy="79.1" r="5"/><circle cx="103.8" cy="103.8" r="5"/><circle cx="103.8" cy="128.5" r="5"/><circle cx="103.8" cy="153.2" r="5"/><circle cx="103.8" cy="177.9" r="5"/><circle cx="103.8" cy="202.6" r="5"/><circle cx="103.8" cy="227.3" r="5"/><circle cx="103.8" cy="252" r="5"/><circle cx="103.8" cy="276.7" r="5"/><circle cx="103.8" cy="301.4" r="5"/><circle cx="103.8" cy="326.1" r="5"/><circle cx="79.1" cy="5" r="5"/><circle cx="79.1" cy="29.7" r="5"/><circle cx="79.1" cy="54.4" r="5"/><circle cx="79.1" cy="79.1" r="5"/><circle cx="79.1" cy="103.8" r="5"/><circle cx="79.1" cy="128.5" r="5"/><circle cx="79.1" cy="153.2" r="5"/><circle cx="79.1" cy="177.9" r="5"/><circle cx="79.1" cy="202.6" r="5"/><circle cx="79.1" cy="227.3" r="5"/><circle cx="79.1" cy="252" r="5"/><circle cx="79.1" cy="276.7" r="5"/><circle cx="79.1" cy="301.4" r="5"/><circle cx="79.1" cy="326.1" r="5"/><circle cx="54.4" cy="5" r="5"/><circle cx="54.4" cy="29.7" r="5"/><circle cx="54.4" cy="54.4" r="5"/><circle cx="54.4" cy="79.1" r="5"/><circle cx="54.4" cy="103.8" r="5"/><circle cx="54.4" cy="128.5" r="5"/><circle cx="54.4" cy="153.2" r="5"/><circle cx="54.4" cy="177.9" r="5"/><circle cx="54.4" cy="202.6" r="5"/><circle cx="54.4" cy="227.3" r="5"/><circle cx="54.4" cy="252" r="5"/><circle cx="54.4" cy="276.7" r="5"/><circle cx="54.4" cy="301.4" r="5"/><circle cx="54.4" cy="326.1" r="5"/><circle cx="29.7" cy="5" r="5"/><circle cx="29.7" cy="29.7" r="5"/><circle cx="29.7" cy="54.4" r="5"/><circle cx="29.7" cy="79.1" r="5"/><circle cx="29.7" cy="103.8" r="5"/><circle cx="29.7" cy="128.5" r="5"/><circle cx="29.7" cy="153.2" r="5"/><circle cx="29.7" cy="177.9" r="5"/><circle cx="29.7" cy="202.6" r="5"/><circle cx="29.7" cy="227.3" r="5"/><circle cx="29.7" cy="252" r="5"/><circle cx="29.7" cy="276.7" r="5"/><circle cx="29.7" cy="301.4" r="5"/><circle cx="29.7" cy="326.1" r="5"/><circle cx="5" cy="5" r="5"/><circle cx="5" cy="29.7" r="5"/><circle cx="5" cy="54.4" r="5"/><circle cx="5" cy="79.1" r="5"/><circle cx="5" cy="103.8" r="5"/><circle cx="5" cy="128.5" r="5"/><circle cx="5" cy="153.2" r="5"/><circle cx="5" cy="177.9" r="5"/><circle cx="5" cy="202.6" r="5"/><circle cx="5" cy="227.3" r="5"/><circle cx="5" cy="252" r="5"/><circle cx="5" cy="276.7" r="5"/><circle cx="5" cy="301.4" r="5"/><circle cx="5" cy="326.1" r="5"/></g></svg></g><g transform="translate(1009.0 75.0) rotate(0.0 84.0 84.0) scale(0.9180327868852459 0.9180327868852459)"><svg width="183" height="183" viewBox="0 0 183 183"><circle cx="91.5" cy="91.5" fill="#f6e049" r="86.5"/><path d="M91.5 183A91.5 91.5 0 1 1 183 91.5 91.608 91.608 0 0 1 91.5 183zm0-173.1A81.5 81.5 0 1 0 173 91.4 81.578 81.578 0 0 0 91.5 9.9z" fill="#383a48"/><circle cx="91.5" cy="67.5" fill="#f3f6e6" r="22.6"/><path d="M91.5 95.1a27.6 27.6 0 1 1 27.6-27.6 27.655 27.655 0 0 1-27.6 27.6zm0-45.1a17.6 17.6 0 1 0 17.6 17.6A17.626 17.626 0 0 0 91.5 50z" fill="#383a48"/><path d="M127.1 134.1h-71v-8.5a35.508 35.508 0 0 1 35.5-35.5 35.508 35.508 0 0 1 35.5 35.5z" fill="#f3f6e6"/><path d="M127.1 139.1h-71a4.951 4.951 0 0 1-5-5v-8.5a40.5 40.5 0 0 1 81 0v8.5a5.015 5.015 0 0 1-5 5zm-66.1-10h61v-3.5a30.5 30.5 0 0 0-61 0z" fill="#383a48"/></svg></g><g transform="translate(412.0 80.0) rotate(0.0 256.5 256.5) scale(1.0599173553719008 1.0599173553719008)"><svg width="484" height="484" viewBox="0 0 484 484"><path d="M5 5h474v474H5z" fill="#f3f6e6"/><path d="M479 484H5c-2.8 0-5-2.2-5-5V5c0-2.8 2.2-5 5-5h474c2.8 0 5 2.2 5 5v474c0 2.8-2.2 5-5 5zM10 474h464V10H10z" fill="#383a48"/><path d="M5 5h474v144H5z" fill="#e0719e"/><path d="M479 154H5c-2.8 0-5-2.2-5-5V5c0-2.8 2.2-5 5-5h474c2.8 0 5 2.2 5 5v144c0 2.8-2.2 5-5 5zM10 144h464V10H10z" fill="#383a48"/><circle cx="53" cy="77" fill="#e0719e" r="15.2"/><path d="M53 97.2c-11.1 0-20.2-9.1-20.2-20.2S41.9 56.8 53 56.8 73.2 65.9 73.2 77 64.1 97.2 53 97.2zm0-30.4c-5.6 0-10.2 4.6-10.2 10.2S47.4 87.2 53 87.2 63.2 82.6 63.2 77 58.6 66.8 53 66.8z" fill="#383a48"/><circle cx="103.3" cy="77" fill="#e0719e" r="15.2"/><path d="M103.3 97.2c-11.1 0-20.2-9.1-20.2-20.2s9.1-20.2 20.2-20.2 20.2 9.1 20.2 20.2-9.1 20.2-20.2 20.2zm0-30.4c-5.6 0-10.2 4.6-10.2 10.2s4.6 10.2 10.2 10.2 10.2-4.6 10.2-10.2-4.6-10.2-10.2-10.2z" fill="#383a48"/><circle cx="153.7" cy="77" fill="#e0719e" r="15.2"/><path d="M153.7 97.2c-11.1 0-20.2-9.1-20.2-20.2s9.1-20.2 20.2-20.2 20.2 9.1 20.2 20.2-9.1 20.2-20.2 20.2zm0-30.4c-5.6 0-10.2 4.6-10.2 10.2s4.6 10.2 10.2 10.2 10.2-4.6 10.2-10.2-4.6-10.2-10.2-10.2z" fill="#383a48"/></svg></g><g transform="translate(287.0 123.0) rotate(0.0 274.0 274.0) scale(1.1322314049586777 1.1322314049586777)"><svg width="484" height="484" viewBox="0 0 484 484"><path d="M5 5h474v474H5z" fill="#f3f6e6"/><path d="M479 484H5c-2.8 0-5-2.2-5-5V5c0-2.8 2.2-5 5-5h474c2.8 0 5 2.2 5 5v474c0 2.8-2.2 5-5 5zM10 474h464V10H10z" fill="#383a48"/><path d="M5 5h474v144H5z" fill="#e0719e"/><path d="M479 154H5c-2.8 0-5-2.2-5-5V5c0-2.8 2.2-5 5-5h474c2.8 0 5 2.2 5 5v144c0 2.8-2.2 5-5 5zM10 144h464V10H10z" fill="#383a48"/><circle cx="53" cy="77" fill="#e0719e" r="15.2"/><path d="M53 97.2c-11.1 0-20.2-9.1-20.2-20.2S41.9 56.8 53 56.8 73.2 65.9 73.2 77 64.1 97.2 53 97.2zm0-30.4c-5.6 0-10.2 4.6-10.2 10.2S47.4 87.2 53 87.2 63.2 82.6 63.2 77 58.6 66.8 53 66.8z" fill="#383a48"/><circle cx="103.3" cy="77" fill="#e0719e" r="15.2"/><path d="M103.3 97.2c-11.1 0-20.2-9.1-20.2-20.2s9.1-20.2 20.2-20.2 20.2 9.1 20.2 20.2-9.1 20.2-20.2 20.2zm0-30.4c-5.6 0-10.2 4.6-10.2 10.2s4.6 10.2 10.2 10.2 10.2-4.6 10.2-10.2-4.6-10.2-10.2-10.2z" fill="#383a48"/><circle cx="153.7" cy="77" fill="#e0719e" r="15.2"/><path d="M153.7 97.2c-11.1 0-20.2-9.1-20.2-20.2s9.1-20.2 20.2-20.2 20.2 9.1 20.2 20.2-9.1 20.2-20.2 20.2zm0-30.4c-5.6 0-10.2 4.6-10.2 10.2s4.6 10.2 10.2 10.2 10.2-4.6 10.2-10.2-4.6-10.2-10.2-10.2z" fill="#383a48"/></svg></g><g transform="translate(34.0 218.0) rotate(0.0 98.0 98.0) scale(0.7010014306151645 0.7010014306151645)"><svg width="279.6" height="279.6" viewBox="0 0 279.6 279.6"><circle cx="139.8" cy="139.7" fill="#7fd6c2" r="134.8"/><path d="M139.8 279.6C62.7 279.6 0 216.9 0 139.8S62.7 0 139.8 0s139.8 62.7 139.8 139.8c.1 77-62.7 139.8-139.8 139.8zm0-269.7a129.8 129.8 0 1 0 129.8 129.8A129.911 129.911 0 0 0 139.8 9.9z" fill="#383a48"/><circle cx="139.8" cy="102.4" fill="#f3f6e6" r="35.2"/><path d="M139.8 142.6a40.2 40.2 0 1 1 40.2-40.2 40.267 40.267 0 0 1-40.2 40.2zm0-70.3a30.2 30.2 0 1 0 30.2 30.2 30.237 30.237 0 0 0-30.2-30.2z" fill="#383a48"/><path d="M195.2 206.2H84.5V193a55.289 55.289 0 0 1 55.3-55.3 55.289 55.289 0 0 1 55.3 55.3z" fill="#f3f6e6"/><path d="M195.2 211.2H84.5a4.951 4.951 0 0 1-5-5V193a60.3 60.3 0 1 1 120.6 0v13.2a4.929 4.929 0 0 1-4.9 5zm-105.7-10h100.7V193a50.3 50.3 0 1 0-100.6 0z" fill="#383a48"/></svg></g><g transform="translate(591.0 350.0) rotate(0.0 71.5 62.0) scale(0.5155010814708003 0.5203524968527067)"><svg width="277.4" height="238.3" viewBox="0 0 277.4 238.3"><path d="M5 120V40.7A35.721 35.721 0 0 1 40.7 5h51.1a35.668 35.668 0 0 1 30 16.4L163.3 86z" fill="#f6e049"/><path d="M5 125a5.045 5.045 0 0 1-5-5V40.7A40.736 40.736 0 0 1 40.7 0h51.1A40.476 40.476 0 0 1 126 18.7l41.5 64.6a5.01 5.01 0 0 1 .4 4.6 5.207 5.207 0 0 1-3.6 3l-158.2 34a4.484 4.484 0 0 1-1.1.1zM40.7 10A30.771 30.771 0 0 0 10 40.7v73.1l145.1-31.2-37.6-58.5A30.626 30.626 0 0 0 91.7 10z" fill="#383a48"/><path d="M215.7 233.3H61.8A56.761 56.761 0 0 1 5 176.5v-74.1a56.761 56.761 0 0 1 56.8-56.8h153.8a56.761 56.761 0 0 1 56.8 56.8v74a56.762 56.762 0 0 1-56.7 56.9z" fill="#f6e049"/><path d="M215.7 238.3H61.8A61.84 61.84 0 0 1 0 176.5v-74.1a61.84 61.84 0 0 1 61.8-61.8h153.8a61.84 61.84 0 0 1 61.8 61.8v74a61.84 61.84 0 0 1-61.7 61.9zM61.8 50.5A51.875 51.875 0 0 0 10 102.3v74.1a51.875 51.875 0 0 0 51.8 51.8h153.8a51.875 51.875 0 0 0 51.8-51.8v-74.1a51.875 51.875 0 0 0-51.8-51.8z" fill="#383a48"/></svg></g><g transform="translate(592.0 503.0) rotate(0.0 75.5 65.0) scale(0.5443403028118241 0.5455308434746118)"><svg width="277.4" height="238.3" viewBox="0 0 277.4 238.3"><path d="M5 120V40.7A35.721 35.721 0 0 1 40.7 5h51.1a35.668 35.668 0 0 1 30 16.4L163.3 86z" fill="#f6e049"/><path d="M5 125a5.045 5.045 0 0 1-5-5V40.7A40.736 40.736 0 0 1 40.7 0h51.1A40.476 40.476 0 0 1 126 18.7l41.5 64.6a5.01 5.01 0 0 1 .4 4.6 5.207 5.207 0 0 1-3.6 3l-158.2 34a4.484 4.484 0 0 1-1.1.1zM40.7 10A30.771 30.771 0 0 0 10 40.7v73.1l145.1-31.2-37.6-58.5A30.626 30.626 0 0 0 91.7 10z" fill="#383a48"/><path d="M215.7 233.3H61.8A56.761 56.761 0 0 1 5 176.5v-74.1a56.761 56.761 0 0 1 56.8-56.8h153.8a56.761 56.761 0 0 1 56.8 56.8v74a56.762 56.762 0 0 1-56.7 56.9z" fill="#f6e049"/><path d="M215.7 238.3H61.8A61.84 61.84 0 0 1 0 176.5v-74.1a61.84 61.84 0 0 1 61.8-61.8h153.8a61.84 61.84 0 0 1 61.8 61.8v74a61.84 61.84 0 0 1-61.7 61.9zM61.8 50.5A51.875 51.875 0 0 0 10 102.3v74.1a51.875 51.875 0 0 0 51.8 51.8h153.8a51.875 51.875 0 0 0 51.8-51.8v-74.1a51.875 51.875 0 0 0-51.8-51.8z" fill="#383a48"/></svg></g><g transform="translate(363.0 345.0) rotate(0.0 72.5 62.5) scale(0.5227108868060563 0.5245488879563575)"><svg width="277.4" height="238.3" viewBox="0 0 277.4 238.3"><path d="M5 120V40.7A35.721 35.721 0 0 1 40.7 5h51.1a35.668 35.668 0 0 1 30 16.4L163.3 86z" fill="#f6e049"/><path d="M5 125a5.045 5.045 0 0 1-5-5V40.7A40.736 40.736 0 0 1 40.7 0h51.1A40.476 40.476 0 0 1 126 18.7l41.5 64.6a5.01 5.01 0 0 1 .4 4.6 5.207 5.207 0 0 1-3.6 3l-158.2 34a4.484 4.484 0 0 1-1.1.1zM40.7 10A30.771 30.771 0 0 0 10 40.7v73.1l145.1-31.2-37.6-58.5A30.626 30.626 0 0 0 91.7 10z" fill="#383a48"/><path d="M215.7 233.3H61.8A56.761 56.761 0 0 1 5 176.5v-74.1a56.761 56.761 0 0 1 56.8-56.8h153.8a56.761 56.761 0 0 1 56.8 56.8v74a56.762 56.762 0 0 1-56.7 56.9z" fill="#f6e049"/><path d="M215.7 238.3H61.8A61.84 61.84 0 0 1 0 176.5v-74.1a61.84 61.84 0 0 1 61.8-61.8h153.8a61.84 61.84 0 0 1 61.8 61.8v74a61.84 61.84 0 0 1-61.7 61.9zM61.8 50.5A51.875 51.875 0 0 0 10 102.3v74.1a51.875 51.875 0 0 0 51.8 51.8h153.8a51.875 51.875 0 0 0 51.8-51.8v-74.1a51.875 51.875 0 0 0-51.8-51.8z" fill="#383a48"/></svg></g><g transform="translate(191.0 74.0) rotate(330.70739869881834 71.5 26.5) scale(0.8854489164086687 0.8848080133555927)"><svg width="161.5" height="59.9" viewBox="0 0 161.5 59.9"><g fill="#383a48"><path d="m-.035 35.348 6.612-7.502 27.832 24.53-6.612 7.503zm133.448-.302L153.12 3.733l8.463 5.326-19.707 31.313zM72.696 1.39l9.896-1.44 4.907 33.746-9.896 1.439z"/></g></svg></g><g transform="translate(589.0 437.0) rotate(28.06907994046671 130.5 130.5) scale(5.326530612244898 5.326530612244898)"><svg width="49" height="49" viewBox="0 0 49 49"><path d="M44 49c-1.3 0-2.6-.5-3.5-1.5l-39-39c-2-2-2-5.1 0-7.1s5.1-2 7.1 0l39 39c2 2 2 5.1 0 7.1-1 1-2.3 1.5-3.6 1.5z" fill="#383a48"/></svg></g><g transform="translate(366.0 505.0) rotate(0.0 72.5 62.5) scale(0.5227108868060563 0.5245488879563575)"><svg width="277.4" height="238.3" viewBox="0 0 277.4 238.3"><path d="M5 120V40.7A35.721 35.721 0 0 1 40.7 5h51.1a35.668 35.668 0 0 1 30 16.4L163.3 86z" fill="#f6e049"/><path d="M5 125a5.045 5.045 0 0 1-5-5V40.7A40.736 40.736 0 0 1 40.7 0h51.1A40.476 40.476 0 0 1 126 18.7l41.5 64.6a5.01 5.01 0 0 1 .4 4.6 5.207 5.207 0 0 1-3.6 3l-158.2 34a4.484 4.484 0 0 1-1.1.1zM40.7 10A30.771 30.771 0 0 0 10 40.7v73.1l145.1-31.2-37.6-58.5A30.626 30.626 0 0 0 91.7 10z" fill="#383a48"/><path d="M215.7 233.3H61.8A56.761 56.761 0 0 1 5 176.5v-74.1a56.761 56.761 0 0 1 56.8-56.8h153.8a56.761 56.761 0 0 1 56.8 56.8v74a56.762 56.762 0 0 1-56.7 56.9z" fill="#f6e049"/><path d="M215.7 238.3H61.8A61.84 61.84 0 0 1 0 176.5v-74.1a61.84 61.84 0 0 1 61.8-61.8h153.8a61.84 61.84 0 0 1 61.8 61.8v74a61.84 61.84 0 0 1-61.7 61.9zM61.8 50.5A51.875 51.875 0 0 0 10 102.3v74.1a51.875 51.875 0 0 0 51.8 51.8h153.8a51.875 51.875 0 0 0 51.8-51.8v-74.1a51.875 51.875 0 0 0-51.8-51.8z" fill="#383a48"/></svg></g><g transform="translate(765.0 591.0) rotate(8.383827020934099 83.0 83.0) scale(3.3877551020408165 3.3877551020408165)"><svg width="49" height="49" viewBox="0 0 49 49"><path d="M44 49c-1.3 0-2.6-.5-3.5-1.5l-39-39c-2-2-2-5.1 0-7.1s5.1-2 7.1 0l39 39c2 2 2 5.1 0 7.1-1 1-2.3 1.5-3.6 1.5z" fill="#383a48"/></svg></g><g transform="translate(680.0 400.0) rotate(0.0 148.0 182.5) scale(0.9936220208123532 0.9967231021299836)"><svg width="297.9" height="366.2" viewBox="0 0 297.9 366.2"><path d="M292.9 173.9 5 5l92.2 320.8 52.7-75.4 84.6 110.8 52.3-40.6-84.2-110.4z" fill="#f3f6e6"/><path d="M234.5 366.2h-.6c-1.3-.2-2.5-.9-3.3-1.9l-80.4-105.4-48.8 69.8c-1.1 1.6-3 2.4-4.9 2.1s-3.5-1.7-4-3.6L.2 6.4c-.6-2 .1-4.1 1.7-5.3C3.5-.2 5.7-.3 7.5.7l287.9 168.9c1.6 1 2.6 2.8 2.5 4.7s-1.4 3.6-3.1 4.3l-84.2 33.9 80.2 105.2c1.7 2.2 1.3 5.3-.9 7l-52.3 40.6c-.9.5-2 .9-3.1.9zm-84.6-120.8c1.6 0 3 .7 4 2l81.5 106.8 44.4-34.5-81.2-106.5c-.9-1.2-1.3-2.9-.8-4.4.4-1.5 1.5-2.7 3-3.3l80.9-32.5L13.3 15.6l85.8 298.7 46.7-66.8c.9-1.3 2.4-2.1 4-2.1z" fill="#383a48"/></svg></g><g transform="translate(295.0 508.0) rotate(0.0 -16.0 19.5) scale(-0.08747949699289229 0.0861878453038674)"><svg width="365.8" height="452.5" viewBox="0 0 365.8 452.5"><g fill="#383a48"><path d="M360.8 226.3c0 122.2-99.1 221.2-221.3 221.2-50.6 0-97.2-17-134.5-45.6V50.6C42.3 22 88.9 5 139.5 5c122.2.1 221.3 99.1 221.3 221.3z"/><path d="M139.5 452.5c-50.2 0-97.8-16.1-137.5-46.6-1.2-.9-2-2.4-2-4V50.6c0-1.6.7-3 2-4C41.7 16.1 89.3 0 139.5 0c60.5 0 117.3 23.6 160 66.3s66.3 99.5 66.3 160c0 60.4-23.5 117.2-66.3 160-42.7 42.7-99.6 66.2-160 66.2zM10 399.4c37.6 28.2 82.3 43.1 129.5 43.1 57.8 0 112.1-22.5 152.9-63.3 40.9-40.8 63.4-95.1 63.4-152.9s-22.5-112.1-63.4-152.9C251.6 32.6 197.3 10 139.5 10 92.3 10 47.6 24.9 10 53.1z"/></g></svg></g><g transform="translate(922.0 345.0) rotate(0.0 13.5 16.5) scale(0.07381082558775287 0.07292817679558011)"><svg width="365.8" height="452.5" viewBox="0 0 365.8 452.5"><g fill="#383a48"><path d="M360.8 226.3c0 122.2-99.1 221.2-221.3 221.2-50.6 0-97.2-17-134.5-45.6V50.6C42.3 22 88.9 5 139.5 5c122.2.1 221.3 99.1 221.3 221.3z"/><path d="M139.5 452.5c-50.2 0-97.8-16.1-137.5-46.6-1.2-.9-2-2.4-2-4V50.6c0-1.6.7-3 2-4C41.7 16.1 89.3 0 139.5 0c60.5 0 117.3 23.6 160 66.3s66.3 99.5 66.3 160c0 60.4-23.5 117.2-66.3 160-42.7 42.7-99.6 66.2-160 66.2zM10 399.4c37.6 28.2 82.3 43.1 129.5 43.1 57.8 0 112.1-22.5 152.9-63.3 40.9-40.8 63.4-95.1 63.4-152.9s-22.5-112.1-63.4-152.9C251.6 32.6 197.3 10 139.5 10 92.3 10 47.6 24.9 10 53.1z"/></g></svg></g><g transform="translate(998.0 458.0) rotate(0.0 140.0 67.0) scale(0.6222222222222222 0.625)"><svg width="450" height="214.4" viewBox="0 0 450 214.4"><path d="M293 214.4c-33.3 0-65.6-8.9-92.8-25.9-26.9-16.8-47.1-40.1-58.7-67.4-4.6-10.9-7.7-22.2-9.2-33.6-19 9.8-39 14-56.9 11.8C47.7 96 12.1 76.3 0 1.6L9.9 0c8.8 54.3 31.9 85.2 66.7 89.4 14.4 1.7 35.9-3 54.7-12.8-.7-15.3 1.3-30.7 6-46 3.5-11.4 11-19.2 20-20.9 6.8-1.3 13.4 1.1 17.7 6.4 5.8 7.2 6.3 18.3 1.1 30.4-5.1 12-18.1 25.4-34.3 35.6 1.2 12 4.2 23.8 9 35.1 10.7 25.4 29.7 47.1 54.8 62.8 31.6 19.7 70.4 27.9 109.5 23 44.7-5.6 89-27.9 128.2-64.6l6.8 7.3c-40.7 38.2-87 61.4-133.8 67.2-7.9 1-15.6 1.5-23.3 1.5zM160.9 19.3c-.6 0-1.2.1-1.7.2-5.3 1-9.9 6.3-12.3 14.1-3.8 12.4-5.7 24.9-5.7 37.3 11.5-7.5 20.9-17.1 25.7-28.3 3.6-8.5 3.7-16 .3-20.2-1.6-2-3.9-3.1-6.3-3.1z" fill="#383a48"/></svg></g></svg>