<svg xmlns="http://www.w3.org/2000/svg" viewBox="0 0 3500 3500" width="3500" height="3500"><g transform="translate(576.0 407.0) rotate(0.0 860.5 939.5) scale(1.051477169626301 1.0513587931139636)"><svg width="1636.745" height="1787.211" viewBox="0 0 1636.745 1787.211"><path d="M1634.245 1643.126c0 78.191-63.393 141.585-141.584 141.585H144.085c-78.191 0-141.585-63.393-141.585-141.585V144.085c0-2.302.054-4.586.164-6.86H1634.08c.11 2.274.164 1505.902.164 1505.902z" fill="#fff"/><path d="M1492.661 1787.211H144.084C64.636 1787.211 0 1722.575 0 1643.126V144.084c0-2.348.057-4.696.167-6.98a2.5 2.5 0 0 1 2.497-2.379h1631.417a2.5 2.5 0 0 1 2.497 2.38c.109 2.269.161 1352.112.167 1506.021 0 79.448-64.636 144.085-144.084 144.085zM5.067 139.725c-.044 1.441-.066 2.9-.066 4.359v1499.042c0 76.691 62.393 139.085 139.084 139.085h1348.576c76.687 0 139.076-62.399 139.084-139.085 0-14.671-.054-1436.175-.156-1503.401z"/><path d="M1634.08 137.225H2.664C6.245 62.212 68.195 2.5 144.085 2.5H1492.66c75.889 0 137.839 59.712 141.42 134.725z" fill="#cad5f3"/><path d="M1634.081 139.725H2.665c-.684 0-1.338-.28-1.81-.774a2.504 2.504 0 0 1-.688-1.845C3.836 60.224 67.052 0 144.084 0h1348.577c77.031 0 140.247 60.224 143.917 137.106a2.504 2.504 0 0 1-.688 1.845 2.504 2.504 0 0 1-1.81.774zm-1628.77-5h1626.123C1626.601 61.768 1566.142 5 1492.661 5H144.084C70.602 5 10.143 61.768 5.311 134.725z" fill="#161616"/><circle cx="295.679" cy="73.326" fill="#92acef" r="25.025"/><path d="M295.679 100.851c-15.178 0-27.525-12.348-27.525-27.525s12.348-27.525 27.525-27.525 27.525 12.348 27.525 27.525-12.348 27.525-27.525 27.525zm0-50.051c-12.421 0-22.525 10.104-22.525 22.525s10.104 22.525 22.525 22.525 22.525-10.104 22.525-22.525S308.1 50.8 295.679 50.8z"/><circle cx="212.027" cy="73.326" fill="#fbb348" r="25.025"/><path d="M212.027 100.851c-15.178 0-27.525-12.348-27.525-27.525s12.348-27.525 27.525-27.525 27.525 12.348 27.525 27.525-12.348 27.525-27.525 27.525zm0-50.051c-12.421 0-22.525 10.104-22.525 22.525s10.104 22.525 22.525 22.525 22.525-10.104 22.525-22.525S224.448 50.8 212.027 50.8z"/><circle cx="128.375" cy="73.326" fill="#ff6996" r="25.025"/><g fill="#111"><path d="M128.374 100.851c-15.178 0-27.525-12.348-27.525-27.525s12.348-27.525 27.525-27.525 27.525 12.348 27.525 27.525-12.348 27.525-27.525 27.525zm0-50.051c-12.421 0-22.525 10.104-22.525 22.525s10.104 22.525 22.525 22.525 22.525-10.104 22.525-22.525S140.795 50.8 128.374 50.8zm1299.005 797.978h-37.338a2.5 2.5 0 1 1 0-5h29.785a.654.654 0 0 1 .099 0h7.454a2.5 2.5 0 1 1 0 5zm-66.878 0h-29.541a2.5 2.5 0 1 1 0-5h29.541a2.5 2.5 0 1 1 0 5zm-59.082 0h-29.54a2.5 2.5 0 1 1 0-5h29.54a2.5 2.5 0 1 1 0 5zm-59.081 0h-29.541a2.5 2.5 0 1 1 0-5h29.541a2.5 2.5 0 1 1 0 5zm-59.081 0h-29.541a2.5 2.5 0 1 1 0-5h29.541a2.5 2.5 0 1 1 0 5zm-59.082 0h-29.54a2.5 2.5 0 1 1 0-5h29.54a2.5 2.5 0 1 1 0 5zm-59.081 0h-29.541a2.5 2.5 0 1 1 0-5h29.541a2.5 2.5 0 1 1 0 5zm-55.878-10.926a2.494 2.494 0 0 1-1.887-.859 34.233 34.233 0 0 1-8.403-22.478v-6.805a2.5 2.5 0 1 1 5 0v6.805c0 7.06 2.547 13.877 7.175 19.196a2.499 2.499 0 0 1-1.885 4.14zm435.984-2.059a2.498 2.498 0 0 1-2.013-3.979c3.701-5.042 5.658-11.023 5.658-17.299v-9.442a2.5 2.5 0 1 1 5 0v9.442c0 7.348-2.292 14.353-6.629 20.258a2.496 2.496 0 0 1-2.017 1.021zm-443.774-55.123a2.5 2.5 0 0 1-2.5-2.5v-29.541a2.5 2.5 0 1 1 5 0v29.541a2.5 2.5 0 0 1-2.5 2.5zm449.92-2.638a2.5 2.5 0 0 1-2.5-2.5v-29.541a2.5 2.5 0 1 1 5 0v29.541a2.5 2.5 0 0 1-2.5 2.5zm-449.92-56.444a2.5 2.5 0 0 1-2.5-2.5v-29.54a2.5 2.5 0 1 1 5 0v29.54a2.5 2.5 0 0 1-2.5 2.5zm449.92-2.638a2.5 2.5 0 0 1-2.5-2.5v-29.54a2.5 2.5 0 1 1 5 0v29.54a2.5 2.5 0 0 1-2.5 2.5zm-449.92-56.443a2.5 2.5 0 0 1-2.5-2.5v-29.541a2.5 2.5 0 1 1 5 0v29.541a2.5 2.5 0 0 1-2.5 2.5zm449.92-2.638a2.5 2.5 0 0 1-2.5-2.5v-29.54a2.5 2.5 0 1 1 5 0v29.54a2.5 2.5 0 0 1-2.5 2.5zm-449.92-56.443a2.5 2.5 0 0 1-2.5-2.5v-29.541a2.5 2.5 0 1 1 5 0v29.541a2.5 2.5 0 0 1-2.5 2.5zm449.92-2.638a2.5 2.5 0 0 1-2.5-2.5v-29.541a2.5 2.5 0 1 1 5 0v29.541a2.5 2.5 0 0 1-2.5 2.5zm-449.92-56.443a2.5 2.5 0 0 1-2.5-2.5v-29.541a2.5 2.5 0 1 1 5 0v29.541a2.5 2.5 0 0 1-2.5 2.5zm446.171-2.013a2.498 2.498 0 0 1-2.205-1.32c-4.352-8.118-12.364-13.776-21.434-15.135-1.365-.205-2.307-1.478-2.103-2.843s1.48-2.299 2.843-2.103c10.623 1.592 20.007 8.215 25.1 17.719a2.5 2.5 0 0 1-2.201 3.682zm-236.312-15.944c-10.708-.285-18.367-2.591-23.492-7.051a2.499 2.499 0 1 1 3.281-3.771c4.215 3.667 10.844 5.571 20.268 5.823l6.213-.026h.01a2.5 2.5 0 0 1 .01 5l-6.289.025zm35.819-.144a2.5 2.5 0 0 1-.01-5l29.541-.118h.01a2.5 2.5 0 0 1 .01 5l-29.541.118zm59.081-.236a2.5 2.5 0 0 1-.01-5l29.541-.119h.01a2.5 2.5 0 0 1 .01 5l-29.541.119zm59.081-.237a2.5 2.5 0 0 1-.01-5l29.54-.118h.01a2.5 2.5 0 0 1 .01 5l-29.54.118zm-184.631-33.196a2.502 2.502 0 0 1-2.477-2.181c-1.483-11.514-5.378-19.288-11.906-23.766a2.499 2.499 0 0 1-.647-3.476 2.497 2.497 0 0 1 3.476-.647c7.77 5.329 12.361 14.242 14.037 27.25a2.5 2.5 0 0 1-2.482 2.82zm-178.171-7.218a2.504 2.504 0 0 1-2.42-3.136c2.729-10.401 10.319-19.021 20.305-23.059a2.5 2.5 0 0 1 1.875 4.635c-8.53 3.449-15.014 10.811-17.344 19.693a2.502 2.502 0 0 1-2.416 1.866zm136.685-23.684h-29.541a2.5 2.5 0 1 1 0-5h29.541a2.5 2.5 0 1 1 0 5zm-59.081 0h-29.541a2.5 2.5 0 1 1 0-5h29.541a2.5 2.5 0 1 1 0 5zm338.013 1124.171h-37.338a2.5 2.5 0 1 1 0-5l29.785-.002c.043.003.085 0 .128.002h7.425a2.5 2.5 0 1 1 0 5zm-66.878 0h-29.541a2.5 2.5 0 1 1 0-5h29.541a2.5 2.5 0 1 1 0 5zm-59.082 0h-29.54a2.5 2.5 0 1 1 0-5h29.54a2.5 2.5 0 1 1 0 5zm-59.081 0h-29.541a2.5 2.5 0 1 1 0-5h29.541a2.5 2.5 0 1 1 0 5zm-59.081 0h-29.541a2.5 2.5 0 1 1 0-5h29.541a2.5 2.5 0 1 1 0 5zm-59.082 0h-29.54a2.5 2.5 0 1 1 0-5h29.54a2.5 2.5 0 1 1 0 5zm-59.081 0h-29.541a2.5 2.5 0 1 1 0-5h29.541a2.5 2.5 0 1 1 0 5zm-55.878-10.926a2.494 2.494 0 0 1-1.887-.859 34.234 34.234 0 0 1-8.403-22.479v-6.804a2.5 2.5 0 1 1 5 0v6.804a29.24 29.24 0 0 0 7.175 19.197 2.499 2.499 0 0 1-1.885 4.14zm435.984-2.058a2.5 2.5 0 0 1-2.014-3.979c3.702-5.042 5.659-11.025 5.659-17.301v-9.44a2.5 2.5 0 1 1 5 0v9.44c0 7.348-2.292 14.354-6.628 20.26a2.499 2.499 0 0 1-2.018 1.021zm-443.774-55.124a2.5 2.5 0 0 1-2.5-2.5v-29.541a2.5 2.5 0 1 1 5 0v29.541a2.5 2.5 0 0 1-2.5 2.5zm449.92-2.638a2.5 2.5 0 0 1-2.5-2.5v-29.54a2.5 2.5 0 1 1 5 0v29.54a2.5 2.5 0 0 1-2.5 2.5zm-449.92-56.443a2.5 2.5 0 0 1-2.5-2.5v-29.541a2.5 2.5 0 1 1 5 0v29.541a2.5 2.5 0 0 1-2.5 2.5zm449.92-2.638a2.5 2.5 0 0 1-2.5-2.5v-29.54a2.5 2.5 0 1 1 5 0v29.54a2.5 2.5 0 0 1-2.5 2.5zm-449.92-56.444a2.5 2.5 0 0 1-2.5-2.5v-29.54a2.5 2.5 0 1 1 5 0v29.54a2.5 2.5 0 0 1-2.5 2.5zm449.92-2.637a2.5 2.5 0 0 1-2.5-2.5v-29.541a2.5 2.5 0 1 1 5 0v29.541a2.5 2.5 0 0 1-2.5 2.5zm-449.92-56.444a2.5 2.5 0 0 1-2.5-2.5v-29.541a2.5 2.5 0 1 1 5 0v29.541a2.5 2.5 0 0 1-2.5 2.5zm449.92-2.637a2.5 2.5 0 0 1-2.5-2.5v-29.541a2.5 2.5 0 1 1 5 0v29.541a2.5 2.5 0 0 1-2.5 2.5zm-449.92-56.444a2.5 2.5 0 0 1-2.5-2.5v-29.541a2.5 2.5 0 1 1 5 0v29.541a2.5 2.5 0 0 1-2.5 2.5zm446.171-2.013a2.497 2.497 0 0 1-2.205-1.319c-4.352-8.118-12.364-13.776-21.434-15.136a2.501 2.501 0 0 1-2.103-2.843 2.51 2.51 0 0 1 2.843-2.103c10.624 1.593 20.007 8.217 25.1 17.72a2.5 2.5 0 0 1-2.201 3.681zm-236.312-15.945c-10.707-.283-18.366-2.588-23.492-7.049a2.499 2.499 0 1 1 3.281-3.771c4.215 3.667 10.845 5.571 20.268 5.821l6.214-.026h.01a2.5 2.5 0 0 1 .01 5l-6.29.025zm35.82-.144a2.5 2.5 0 0 1-.01-5l29.54-.118h.01a2.5 2.5 0 0 1 .01 5l-29.54.118zm59.081-.236a2.5 2.5 0 0 1-.01-5l29.54-.118h.01a2.5 2.5 0 0 1 .01 5l-29.54.118zm59.081-.236a2.5 2.5 0 0 1-.01-5l29.54-.118h.01a2.5 2.5 0 0 1 .01 5l-29.54.118zm-184.634-33.196a2.501 2.501 0 0 1-2.477-2.181c-1.482-11.514-5.377-19.288-11.905-23.766a2.499 2.499 0 0 1-.647-3.476 2.495 2.495 0 0 1 3.476-.647c7.77 5.329 12.361 14.243 14.036 27.25a2.5 2.5 0 0 1-2.482 2.82zm-178.169-7.218a2.504 2.504 0 0 1-2.42-3.136c2.728-10.4 10.318-19.021 20.305-23.06a2.5 2.5 0 1 1 1.875 4.635c-8.53 3.45-15.014 10.813-17.344 19.694a2.502 2.502 0 0 1-2.416 1.866zm136.685-23.684h-29.541a2.5 2.5 0 1 1 0-5h29.541a2.5 2.5 0 1 1 0 5zm-59.082 0h-29.54a2.5 2.5 0 1 1 0-5h29.54a2.5 2.5 0 1 1 0 5z"/></g><path d="M254.272 339.27h347.234v388.213H254.272z" fill="#fff"/><path d="M601.506 729.983H254.272a2.5 2.5 0 0 1-2.5-2.5V339.27a2.5 2.5 0 0 1 2.5-2.5h347.234a2.5 2.5 0 0 1 2.5 2.5v388.213a2.5 2.5 0 0 1-2.5 2.5zm-344.734-5h342.234V341.77H256.772z"/><path d="M295.634 397.007h347.234V785.22H295.634z" fill="#fff"/><path d="M642.868 787.719H295.633a2.5 2.5 0 0 1-2.5-2.5V397.006a2.5 2.5 0 0 1 2.5-2.5h347.234a2.5 2.5 0 0 1 2.5 2.5v388.213a2.5 2.5 0 0 1-2.5 2.5zm-344.734-5h342.234V399.506H298.133v383.213z"/><path d="M640.722 849.599H254.328c-17.542 0-31.763-14.221-31.763-31.763V494.259c0-17.542 14.221-31.763 31.763-31.763H367.58c19.098 0 32.417 7.886 34.58 34.58 1.348 16.635 4.325 29.444 30.254 30.134l208.18-.833c17.592-.07 31.89 14.171 31.89 31.763v259.697c0 17.542-14.221 31.763-31.763 31.763z" fill="#ff6996"/><path d="M640.721 852.099H254.329c-18.893 0-34.264-15.37-34.264-34.263V494.259c0-18.893 15.371-34.264 34.264-34.264h113.252c23.253 0 35.033 11.719 37.072 36.878 1.328 16.402 3.983 27.202 27.828 27.837l208.104-.834h.141c9.126 0 17.706 3.543 24.176 9.987 6.503 6.477 10.084 15.098 10.084 24.275v259.697c0 18.893-15.371 34.263-34.264 34.263zM254.329 464.995c-16.136 0-29.264 13.128-29.264 29.264v323.577c0 16.136 13.128 29.263 29.264 29.263h386.393c16.136 0 29.264-13.127 29.264-29.263V558.139c0-7.838-3.059-15.201-8.612-20.733-5.525-5.503-12.854-8.529-20.648-8.529h-.12l-208.18.833c-27.927-.742-31.354-15.127-32.756-32.432-1.833-22.628-11.43-32.282-32.088-32.282H254.33z" fill="#111"/><path d="M606.102 443.463H473.846a2.5 2.5 0 1 1 0-5h132.256a2.5 2.5 0 1 1 0 5zm0 52H473.846a2.5 2.5 0 1 1 0-5h132.256a2.5 2.5 0 1 1 0 5z"/><circle cx="432.485" cy="440.964" fill="#fbb348" r="12.511"/><path d="M432.485 455.974c-8.277 0-15.011-6.733-15.011-15.011s6.733-15.01 15.011-15.01 15.011 6.733 15.011 15.01-6.733 15.011-15.011 15.011zm0-25.021c-5.52 0-10.011 4.49-10.011 10.01s4.491 10.011 10.011 10.011 10.011-4.491 10.011-10.011-4.491-10.01-10.011-10.01z"/><circle cx="432.485" cy="491.602" fill="#fbb348" r="12.511"/><path d="M432.485 506.613c-8.277 0-15.011-6.733-15.011-15.011s6.733-15.011 15.011-15.011 15.011 6.733 15.011 15.011-6.733 15.011-15.011 15.011zm0-25.021c-5.52 0-10.011 4.491-10.011 10.011s4.491 10.011 10.011 10.011 10.011-4.491 10.011-10.011-4.491-10.011-10.011-10.011z"/><path d="M254.272 1072.336h347.234v388.213H254.272z" fill="#fff"/><path d="M601.506 1463.049H254.272a2.5 2.5 0 0 1-2.5-2.5v-388.213a2.5 2.5 0 0 1 2.5-2.5h347.234a2.5 2.5 0 0 1 2.5 2.5v388.213a2.5 2.5 0 0 1-2.5 2.5zm-344.734-5h342.234v-383.213H256.772z"/><path d="M295.634 1130.073h347.234v388.213H295.634z" fill="#fff"/><path d="M642.868 1520.785H295.633a2.5 2.5 0 0 1-2.5-2.5v-388.213a2.5 2.5 0 0 1 2.5-2.5h347.234a2.5 2.5 0 0 1 2.5 2.5v388.213a2.5 2.5 0 0 1-2.5 2.5zm-344.734-5h342.234v-383.213H298.133v383.213z"/><path d="M640.722 1582.665H254.328c-17.542 0-31.763-14.221-31.763-31.763v-323.577c0-17.542 14.221-31.763 31.763-31.763H367.58c19.098 0 32.417 7.886 34.58 34.58 1.348 16.635 4.325 29.444 30.254 30.134l208.18-.833c17.592-.07 31.89 14.171 31.89 31.763v259.697c0 17.542-14.221 31.763-31.763 31.763z" fill="#fbb348"/><path d="M640.721 1585.165H254.329c-18.893 0-34.264-15.37-34.264-34.263v-323.578c0-18.893 15.371-34.263 34.264-34.263h113.252c23.253 0 35.033 11.719 37.072 36.878 1.328 16.402 3.983 27.202 27.828 27.837l208.104-.834h.141c9.126 0 17.706 3.543 24.176 9.987 6.503 6.477 10.084 15.098 10.084 24.275v259.697c0 18.893-15.371 34.263-34.264 34.263zm-386.393-387.104c-16.136 0-29.264 13.127-29.264 29.263v323.578c0 16.136 13.128 29.263 29.264 29.263h386.393c16.136 0 29.264-13.127 29.264-29.263v-259.697c0-7.838-3.059-15.201-8.612-20.733-5.554-5.531-12.9-8.551-20.769-8.529l-208.18.833c-27.927-.742-31.354-15.127-32.756-32.432-1.833-22.628-11.43-32.282-32.088-32.282H254.328zm351.774-21.531H473.846a2.5 2.5 0 1 1 0-5h132.256a2.5 2.5 0 1 1 0 5z"/><path d="M606.102 1228.53H473.846a2.5 2.5 0 1 1 0-5h132.256a2.5 2.5 0 1 1 0 5z"/><circle cx="432.485" cy="1174.03" fill="#ff6996" r="12.511"/><path d="M432.485 1189.04c-8.277 0-15.011-6.733-15.011-15.011s6.733-15.011 15.011-15.011 15.011 6.733 15.011 15.011-6.733 15.011-15.011 15.011zm0-25.021c-5.52 0-10.011 4.491-10.011 10.011s4.491 10.011 10.011 10.011 10.011-4.491 10.011-10.011-4.491-10.011-10.011-10.011z" fill="#111"/><circle cx="432.485" cy="1224.668" fill="#ff6996" r="12.511"/><path d="M432.485 1239.679c-8.277 0-15.011-6.733-15.011-15.011s6.733-15.011 15.011-15.011 15.011 6.733 15.011 15.011-6.733 15.011-15.011 15.011zm0-25.021c-5.52 0-10.011 4.491-10.011 10.011s4.491 10.011 10.011 10.011 10.011-4.491 10.011-10.011-4.491-10.011-10.011-10.011z" fill="#111"/></svg></g><g transform="translate(1366.0 620.0) rotate(0.0 812.0 1300.5) scale(1.0469287082807934 1.0473894392057075)"><svg width="1551.204" height="2483.317" viewBox="0 0 1551.204 2483.317"><path d="M978.83 1244.521c-34.1 114.333-89.719 384.123-89.719 384.123 53.767 185.425 110.04 437.877 104.788 648.715-73.585 200.412-190.875 169.869-361.229-41.879-28.158-232.543-41.664-399.731-44.839-582.54 3.685-218.043 104.281-696.286 267.669-938.366 10.697-50.465-75.363-95.629 90.216 41.368 149.343 123.563 59.648 399.611 33.114 488.579z" fill="#ef4810"/><path d="M847.688 2393.44c-27.553 0-57.636-10.709-89.68-31.961-38.665-25.644-81.491-67.508-127.287-124.432a2.497 2.497 0 0 1-.533-1.267c-30.989-255.927-44.211-420.932-44.211-551.732 0-108.241 20.048-261.962 53.628-411.203 28.56-126.927 80.714-313.01 166.993-478.708a2.5 2.5 0 0 1 4.435 2.309c-151.784 291.497-220.057 694.523-220.057 887.601 0 130.47 13.186 295.104 44.088 550.421 45.304 56.238 87.597 97.567 125.707 122.843 37.462 24.846 71.978 34.895 102.563 29.869 25.532-4.194 49.203-19.035 70.354-44.113 21.027-24.931 40.196-60.706 56.977-106.332 11.54-128.144-68.068-472.459-102.855-614.636a2.504 2.504 0 0 1-.002-1.18c.796-3.303 79.853-331.557 107.163-438.087 18.41-71.815 46.232-180.344 20.426-281.504C986.4 787.66 897.471 703.053 743.528 642.672a2.5 2.5 0 0 1 1.826-4.655c82.25 32.261 147.4 72.548 193.642 119.743 40.314 41.146 67.65 89.033 81.247 142.333 26.122 102.399-1.891 211.673-20.428 283.982-26.752 104.35-103.188 421.582-107.004 437.426 34.953 142.911 114.563 487.563 102.804 616.016a2.46 2.46 0 0 1-.143.634c-17.009 46.323-36.51 82.708-57.961 108.142-21.941 26.014-46.625 41.432-73.366 45.823a101.32 101.32 0 0 1-16.457 1.325z" fill="#161616"/><path d="m494.038 2480.813 558.722-.518s64.768-157.264-59.861-309.265c0 0-34.215 81.043-92.555 96.52-73.007 19.368-156.918-57.425-267.675-32.07-55.283 13.166-169.881 83.319-138.631 245.333z" fill="#fff"/><path d="M494.039 2483.313a2.5 2.5 0 0 1-2.455-2.026c-7.355-38.134-7.109-73.764.729-105.897 6.738-27.622 19.066-52.729 36.642-74.625 31.573-39.337 73.979-60.772 103.136-67.716 60.926-13.949 113.977 2.718 160.785 17.419 39.83 12.511 74.224 23.313 106.828 14.666 56.501-14.989 90.555-94.276 90.893-95.076a2.5 2.5 0 0 1 4.236-.612c28.629 34.917 49.617 73.029 62.381 113.277 10.214 32.209 15.211 65.843 14.852 99.967-.611 58.125-16.829 98.161-16.993 98.559a2.5 2.5 0 0 1-2.31 1.548l-558.722.518h-.002zm184.828-250.497c-14.726 0-29.931 1.505-45.64 5.101-48.581 11.57-167.507 77.272-137.118 240.395l554.935-.514c2.913-7.814 15.524-44.523 16.024-95.378.512-52.028-11.927-129.827-73.563-206.673-3.261 6.943-11.142 22.621-22.972 39.191-14.696 20.586-38.692 46.842-69.549 55.027-33.996 9.021-70.724-2.515-109.607-14.728-34.021-10.686-71.388-22.422-112.511-22.422z"/><path d="M727.2 2287.172a2.498 2.498 0 0 1-2.188-1.289c-24.404-44.059-67.123-51.79-67.552-51.863a2.501 2.501 0 0 1 .831-4.931c1.846.311 45.481 8.129 71.094 54.372a2.498 2.498 0 0 1-2.185 3.71zm-61.167 18.283a2.498 2.498 0 0 1-2.188-1.289c-24.405-44.06-67.123-51.801-67.552-51.874a2.501 2.501 0 0 1 .833-4.93c1.845.311 45.479 8.14 71.092 54.382a2.498 2.498 0 0 1-2.185 3.71zm-47.763 32.314a2.498 2.498 0 0 1-2.188-1.289c-24.404-44.06-67.123-51.801-67.552-51.874-1.359-.231-2.276-1.521-2.046-2.882s1.512-2.289 2.879-2.048c1.845.311 45.479 8.14 71.092 54.382a2.498 2.498 0 0 1-2.185 3.71z"/><path d="m494.038 2480.817 558.719-.518s7.02-21.445 13.44-59.338l-577.364-.238c-.103 20.569 1.09 38.791 5.205 60.094z" fill="#fbb348"/><path d="M494.039 2483.317a2.5 2.5 0 0 1-2.455-2.026c-3.794-19.644-5.363-37.762-5.25-60.58a2.5 2.5 0 0 1 2.5-2.487l577.364.237a2.498 2.498 0 0 1 2.464 2.918c-6.378 37.642-13.459 59.482-13.529 59.698a2.5 2.5 0 0 1-2.374 1.723l-558.719.518h-.002zm-2.711-60.093c.011 20.538 1.464 37.27 4.781 55.091l554.807-.514c1.697-5.612 7.16-24.734 12.316-54.342z"/><path d="M548.948 2483.313a2.5 2.5 0 0 1-2.5-2.5v-60.09a2.5 2.5 0 1 1 5 0v60.09a2.5 2.5 0 0 1-2.5 2.5zm38.925 0a2.5 2.5 0 0 1-2.5-2.5v-60.09a2.5 2.5 0 1 1 5 0v60.09a2.5 2.5 0 0 1-2.5 2.5zm74.603 0a2.5 2.5 0 0 1-2.5-2.5v-60.09a2.5 2.5 0 1 1 5 0v60.09a2.5 2.5 0 0 1-2.5 2.5zm42.171 0a2.5 2.5 0 0 1-2.5-2.5v-60.09a2.5 2.5 0 1 1 5 0v60.09a2.5 2.5 0 0 1-2.5 2.5zm136.235 0a2.5 2.5 0 0 1-2.5-2.5v-60.09a2.5 2.5 0 1 1 5 0v60.09a2.5 2.5 0 0 1-2.5 2.5zm38.926 0a2.5 2.5 0 0 1-2.5-2.5v-60.09a2.5 2.5 0 1 1 5 0v60.09a2.5 2.5 0 0 1-2.5 2.5zm58.387 0a2.5 2.5 0 0 1-2.5-2.5v-60.09a2.5 2.5 0 1 1 5 0v60.09a2.5 2.5 0 0 1-2.5 2.5z"/><path d="M1212.608 1213.628c-4.639 119.22-27.685 390.721-27.685 390.721 110.252 148.391 251.699 432.306 287.097 567.647-21.512 212.407-138.499 242.946-356.1 80.135-85.023-218.266-193.255-421.519-223.313-574.303-38.536-195.878-34.969-800.713-40.999-943.874-2.17-51.541 7.745-88.839 195.908 14.985 195.064 107.631 168.702 371.919 165.092 464.69z" fill="#ef4810"/><path d="M1341.052 2358.271c-20.218 0-42.642-4.315-67.111-12.943-44.716-15.766-97.713-46.449-157.52-91.196a2.502 2.502 0 0 1-.797-1.01c-14.86-34.371-30.387-69.771-45.402-104.008-75.959-173.185-154.503-352.266-181.405-476.526-14.97-69.148-24.955-164.926-28.115-269.689-3.529-116.974 1.41-241.711 14.286-360.726a2.5 2.5 0 0 1 4.971.538c-30.101 278.233-11.408 512.634 13.745 628.819 26.796 123.77 105.238 302.617 181.098 475.576 14.929 34.039 30.363 69.229 45.148 103.42 59.183 44.228 111.549 74.536 155.653 90.087 43.64 15.386 80.417 16.756 109.312 4.068 23.277-10.222 42.188-29.904 56.206-58.503 14.024-28.611 23.568-66.962 28.367-113.987-32.39-123.928-151.054-375.471-286.604-566.396a2.493 2.493 0 0 1-.452-1.668c.305-3.432 30.492-344.417 30.492-454.263 0-74.138 0-186.176-50.119-277.759-56.315-102.907-163.47-162.78-327.585-183.042a2.5 2.5 0 0 1-2.175-2.787 2.506 2.506 0 0 1 2.788-2.175c87.685 10.826 160.798 33.672 217.311 67.905 49.27 29.846 87.641 69.445 114.047 117.698 50.733 92.705 50.733 205.513 50.733 280.16 0 107.252-28.682 433.97-30.431 453.788 62.309 87.868 126.768 197.02 181.556 307.452 50.32 101.426 88.733 196.288 105.39 260.262.075.288.099.586.068.882-4.844 47.822-14.566 86.895-28.897 116.132-14.552 29.688-34.297 50.17-58.686 60.879-13.685 6.01-29.013 9.013-45.872 9.013z" fill="#161616"/><path d="M1178.913 1655.441a2.5 2.5 0 0 1-2.485-2.808l6.013-48.592a2.5 2.5 0 1 1 4.963.614l-6.013 48.592a2.5 2.5 0 0 1-2.479 2.193z" fill="#161616"/><path d="m973.159 2480.781 558.722-.518s64.768-157.264-59.861-309.265c0 0-34.215 81.043-92.555 96.52-73.007 19.368-156.918-57.425-267.675-32.07-55.283 13.166-169.881 83.319-138.631 245.333z" fill="#fff"/><path d="M973.159 2483.281a2.5 2.5 0 0 1-2.455-2.026c-7.354-38.134-7.109-73.764.73-105.897 6.738-27.622 19.066-52.729 36.642-74.625 31.573-39.337 73.979-60.772 103.136-67.716 60.923-13.95 113.978 2.718 160.785 17.419 39.83 12.51 74.225 23.312 106.828 14.666 56.501-14.989 90.555-94.276 90.893-95.076a2.5 2.5 0 0 1 4.236-.612c28.629 34.917 49.617 73.029 62.381 113.277 10.214 32.209 15.211 65.843 14.852 99.967-.611 58.125-16.829 98.161-16.993 98.559a2.5 2.5 0 0 1-2.31 1.548l-558.723.518h-.002zm184.829-250.497c-14.726 0-29.931 1.505-45.64 5.101-48.581 11.57-167.507 77.272-137.119 240.395l554.936-.514c2.913-7.814 15.524-44.523 16.024-95.378.512-52.028-11.927-129.827-73.563-206.673-3.261 6.943-11.142 22.621-22.972 39.191-14.696 20.586-38.692 46.842-69.549 55.027-33.995 9.021-70.724-2.515-109.607-14.728-34.021-10.686-71.388-22.422-112.511-22.422z"/><path d="M1206.321 2287.14a2.498 2.498 0 0 1-2.188-1.289c-24.405-44.059-67.124-51.79-67.553-51.863a2.501 2.501 0 0 1 .831-4.931c1.846.311 45.481 8.129 71.095 54.372a2.498 2.498 0 0 1-2.185 3.71zm-61.168 18.283a2.498 2.498 0 0 1-2.188-1.289c-24.457-44.154-67.12-51.802-67.548-51.874a2.5 2.5 0 0 1 .83-4.93c1.845.311 45.479 8.14 71.091 54.382a2.498 2.498 0 0 1-2.185 3.71zm-47.762 32.314a2.498 2.498 0 0 1-2.188-1.289c-24.404-44.06-67.123-51.801-67.552-51.874a2.501 2.501 0 0 1-2.046-2.882 2.487 2.487 0 0 1 2.879-2.048c1.845.311 45.479 8.14 71.092 54.382a2.498 2.498 0 0 1-2.185 3.71z"/><path d="m973.159 2480.785 558.719-.518s7.02-21.445 13.44-59.338l-577.364-.238c-.103 20.569 1.09 38.791 5.205 60.094z" fill="#fbb348"/><path d="M973.159 2483.284a2.5 2.5 0 0 1-2.455-2.026c-3.794-19.646-5.364-37.764-5.249-60.58a2.5 2.5 0 0 1 2.5-2.487l577.363.237a2.498 2.498 0 0 1 2.464 2.918c-6.377 37.642-13.458 59.482-13.528 59.698a2.5 2.5 0 0 1-2.374 1.723l-558.72.518h-.002zm-2.71-60.093c.01 20.536 1.462 37.268 4.78 55.091l554.808-.514c1.697-5.612 7.16-24.734 12.315-54.342z"/><path d="M1028.069 2483.281a2.5 2.5 0 0 1-2.5-2.5v-60.09a2.5 2.5 0 1 1 5 0v60.09a2.5 2.5 0 0 1-2.5 2.5zm38.925 0a2.5 2.5 0 0 1-2.5-2.5v-60.09a2.5 2.5 0 1 1 5 0v60.09a2.5 2.5 0 0 1-2.5 2.5zm74.602 0a2.5 2.5 0 0 1-2.5-2.5v-60.09a2.5 2.5 0 1 1 5 0v60.09a2.5 2.5 0 0 1-2.5 2.5zm42.172 0a2.5 2.5 0 0 1-2.5-2.5v-60.09a2.5 2.5 0 1 1 5 0v60.09a2.5 2.5 0 0 1-2.5 2.5zm136.236 0a2.5 2.5 0 0 1-2.5-2.5v-60.09a2.5 2.5 0 1 1 5 0v60.09a2.5 2.5 0 0 1-2.5 2.5zm38.925 0a2.5 2.5 0 0 1-2.5-2.5v-60.09a2.5 2.5 0 1 1 5 0v60.09a2.5 2.5 0 0 1-2.5 2.5zm58.387 0a2.5 2.5 0 0 1-2.5-2.5v-60.09a2.5 2.5 0 1 1 5 0v60.09a2.5 2.5 0 0 1-2.5 2.5z"/><path d="M149.359 464.887c-41.149-6.837-83.936-28.82-105.401-30.042-21.466-1.223-33.551 30.634-6.969 49.901 26.583 19.267 88.178 33.106 109.757 31.86 21.579-1.245 43.763-44.881 2.613-51.719z" fill="#6f5490"/><path d="M143.681 519.188c-25.319 0-82.909-14.116-108.16-32.418-16.564-12.006-18.227-28.105-14.616-38.244 3.709-10.418 12.809-16.771 23.194-16.178 10.583.603 25.8 5.952 43.419 12.145 19.184 6.743 40.926 14.385 62.251 17.928 23.698 3.938 25.472 19.018 25.134 25.319-.807 15.058-14.683 30.593-28.014 31.362-.999.058-2.073.086-3.208.086zm-100.89-81.876c-7.684 0-14.354 4.966-17.177 12.892-3.176 8.919-1.47 22.145 12.84 32.518 26.319 19.076 87.869 32.572 108.146 31.389 10.873-.627 22.636-14.071 23.31-26.638.569-10.632-6.877-17.777-20.962-20.119-21.753-3.614-43.713-11.333-63.089-18.144-17.261-6.067-32.169-11.307-42.046-11.869-.342-.02-.684-.029-1.022-.029z"/><path d="M143.681 519.188c-25.319 0-82.909-14.116-108.16-32.418-16.564-12.006-18.227-28.105-14.616-38.244 3.709-10.418 12.809-16.771 23.194-16.178 10.583.603 25.8 5.952 43.419 12.145 19.184 6.743 40.926 14.385 62.251 17.928 23.698 3.938 25.472 19.018 25.134 25.319-.807 15.058-14.683 30.593-28.014 31.362-.999.058-2.073.086-3.208.086zm-100.89-81.876c-7.684 0-14.354 4.966-17.177 12.892-3.176 8.919-1.47 22.145 12.84 32.518 26.319 19.076 87.869 32.572 108.146 31.389 10.873-.627 22.636-14.071 23.31-26.638.569-10.632-6.877-17.777-20.962-20.119-21.753-3.614-43.713-11.333-63.089-18.144-17.261-6.067-32.169-11.307-42.046-11.869-.342-.02-.684-.029-1.022-.029z" fill="#111"/><path d="M141.011 426.645c-35.215-22.358-66.025-59.299-85.311-68.804s-42.848 15.106-25.896 43.221 68.259 64.901 88.611 72.178 57.811-24.236 22.595-46.594h.001z" fill="#6f5490"/><path d="M124.794 476.772c-2.537 0-4.978-.376-7.221-1.178-21.974-7.857-73.088-45.34-89.909-73.241-10.563-17.518-5.811-32.988 1.471-40.913 7.481-8.145 18.343-10.439 27.671-5.841 9.509 4.687 21.431 15.551 35.234 28.131 15.028 13.696 32.063 29.219 50.312 40.806 20.28 12.875 16.026 27.451 13.256 33.12-5.439 11.132-19.129 19.117-30.813 19.117zM46.919 358.278c-5.095 0-10.169 2.263-14.103 6.544-6.405 6.972-9.997 19.814-.871 34.948 16.781 27.833 68.169 64.27 87.312 71.115 10.255 3.666 26.333-4.119 31.858-15.426 4.675-9.566.61-19.05-11.445-26.704h.002c-18.616-11.819-35.82-27.498-51-41.331-13.523-12.325-25.203-22.968-34.077-27.342a17.303 17.303 0 0 0-7.676-1.805z"/><path d="M171.154 451.073c-4.855-12.12-37.179-93.521-46.545-121.347-15.686-46.596-56.55-35.738-51.98 11.336 4.261 43.882 23.404 117.99 35.959 148.373-25.506 36.186-.898 87.973 24.946 110.238l98.946 37.914s47.25 21.788 71.611-39.496c3.438-8.649 3.185-28.591-12.133-42.335-40.353-33.768-116.643-94.296-120.805-104.682h.001z" fill="#6f5490"/><path d="M251.88 643.869c-11.149 0-19.349-3.519-20.364-3.976l-98.876-37.886a2.483 2.483 0 0 1-.737-.44c-14.13-12.172-26.578-31.738-32.488-51.061-5.008-16.376-7.896-40.191 6.35-61.376-12.74-31.576-31.465-105.013-35.623-147.827-2.57-26.481 8.582-40.966 20.775-43.574 10.994-2.354 27.043 4.406 36.063 31.2 8.935 26.542 39.428 103.57 46.496 121.214.01.023.019.046.027.07 3.233 7.56 51.908 47.523 87.479 76.728 11.933 9.797 23.204 19.051 32.581 26.897 15.685 14.072 16.945 34.878 12.852 45.176-8.453 21.265-20.559 35.172-35.982 41.336-6.572 2.626-12.937 3.519-18.552 3.519zm-117.041-46.374 98.536 37.756c.052.02.103.041.152.064.166.075 17.057 7.618 35.114.364 14.068-5.648 25.213-18.606 33.126-38.513 3.457-8.695 2.198-27.278-11.479-39.551-9.294-7.775-20.556-17.022-32.479-26.812-50.087-41.123-85.788-70.846-88.977-78.801-.013-.031-.024-.063-.035-.094-7.15-17.849-37.602-94.782-46.557-121.386-7.969-23.671-21.286-29.829-30.278-27.905-10.022 2.144-19.117 14.788-16.845 38.202 4.176 42.996 23.165 117.129 35.782 147.661a2.496 2.496 0 0 1-.268 2.395c-13.964 19.811-11.208 42.567-6.437 58.168 5.604 18.32 17.325 36.842 30.644 48.452z"/><path d="M133.533 602.174a2.491 2.491 0 0 1-1.631-.606c-14.129-12.172-26.578-31.738-32.487-51.061-5.009-16.376-7.897-40.191 6.349-61.376-12.74-31.576-31.465-105.013-35.623-147.826-2.57-26.481 8.582-40.966 20.775-43.575 10.994-2.355 27.043 4.406 36.063 31.2 8.929 26.525 39.426 103.566 46.496 121.215 3.132 7.813 31.379 31.023 64.088 57.898 11.39 9.359 23.168 19.037 35.505 29.359.996.848 2.651 2.263 4.648 3.971 6.157 5.268 15.462 13.228 18.387 15.585a2.5 2.5 0 0 1-3.139 3.892c-2.98-2.403-12.319-10.392-18.499-15.678a2496.221 2496.221 0 0 0-4.621-3.949c-12.305-10.295-24.074-19.966-35.456-29.318-35.963-29.549-61.946-50.898-65.554-59.902-7.081-17.674-37.629-94.844-46.594-121.479-7.97-23.674-21.304-29.827-30.278-27.905-10.022 2.144-19.117 14.788-16.845 38.202 4.176 42.996 23.165 117.129 35.782 147.66a2.496 2.496 0 0 1-.268 2.395c-13.964 19.811-11.207 42.567-6.436 58.168 5.648 18.471 17.516 37.145 30.97 48.735a2.501 2.501 0 0 1-1.633 4.394z" fill="#111"/><path d="M122.286 546.443s-57.444-2.214-98.166 29.434c-40.721 31.649-14.772 67.573 17.534 59.954 32.305-7.62 29.435-9.698 59.89-14.281 30.456-4.583 93.686 42.529 155.147 10.329l-134.403-85.438z" fill="#6f5490"/><path d="M209.454 645.927c-20.32 0-38.34-5.848-55.955-11.565-17.519-5.686-34.078-11.059-51.851-10.314-13.168.549-22.686 3.76-32.763 7.16-8.021 2.706-16.313 5.504-26.858 7.095-18.173 2.741-34.22-4.373-39.937-17.7-6.197-14.451 1.464-31.909 20.495-46.7 40.971-31.841 97.411-30.048 99.797-29.958a2.499 2.499 0 0 1 1.671 4.264c-.49.49-1.164.766-1.861.73-2.317-.08-57.208-1.656-96.539 28.911C8.531 591.158 1.44 606.403 6.685 618.631c4.806 11.205 18.707 17.122 34.595 14.727 10.11-1.524 18.191-4.251 26.006-6.888 10.425-3.518 20.271-6.84 34.152-7.419 18.683-.784 35.645 4.726 53.603 10.554 25.236 8.189 51.328 16.658 83.625 6.952a2.5 2.5 0 1 1 1.439 4.788c-10.868 3.266-21.02 4.581-30.652 4.581z"/><path d="M827.89 402.226c-31.417-7.161-72.594.399-122.086 64.673-45.983 59.717-107.105 139.723-158.363 172.168-73.373-9.637-160.692-116.711-238.053-100.552-84.672 17.686-97.781 131.358-59.745 174.564 78.894 89.617 291.064 151.66 377.605 117.873 124.457-48.589 194.673-228.454 194.673-228.454z" fill="#92acef"/><path d="M566.115 842.858c-37.68 0-83.18-7.505-131.267-22.174-80.306-24.498-150.243-64.106-187.081-105.952-10.313-11.713-17.368-29.039-19.866-48.785-2.481-19.604-.378-40.816 5.922-59.729 12.574-37.754 39.229-62.667 75.055-70.15 45.037-9.41 92.933 21.729 139.246 51.842 34.938 22.717 67.955 44.186 98.748 48.557 49.835-31.958 110.301-110.496 154.51-167.92l2.442-3.172c41.428-53.802 82.189-75.257 124.622-65.585a2.5 2.5 0 0 1 1.943 2.512l-5.97 200.272a2.506 2.506 0 0 1-.17.834c-.177.452-18.027 45.79-50.896 96.458-30.41 46.876-80.285 108.075-145.196 133.416-16.432 6.415-37.59 9.576-62.042 9.576zM325.699 539.366c-5.319 0-10.587.508-15.8 1.597-45.889 9.585-64.39 45.989-71.333 66.835-12.449 37.379-7.002 80.962 12.954 103.63 36.251 41.179 105.331 80.235 184.787 104.474 77.084 23.515 149.898 28.39 190.031 12.723 63.644-24.847 112.765-85.168 142.766-131.396 30.983-47.743 48.508-90.69 50.331-95.244l5.895-197.753c-39.627-8.058-78.096 12.962-117.545 64.194l-2.441 3.171C660.679 529.614 599.508 609.07 548.78 641.18a2.497 2.497 0 0 1-1.662.366c-32.172-4.225-65.953-26.19-101.719-49.445-39.955-25.979-81.109-52.736-119.699-52.736z"/><path d="m547.442 639.068 38.457 2.692" fill="#ef4810"/><path d="M585.902 644.261c-.059 0-.118-.002-.178-.006l-38.457-2.693a2.5 2.5 0 0 1-2.319-2.668 2.496 2.496 0 0 1 2.669-2.319l38.457 2.693a2.5 2.5 0 0 1-.172 4.993z" fill="#161616"/><path d="M791.632 523.418c7.467 13.964-9.871 71.564-1.671 119.515 27.584 161.311 286.495 95.314 326.785 28.228 54.416-90.607-64.911-273.417-100.64-314.304s-81.901-34.168-151.793-9.968c-50.836 17.416-54.819 68.469-54.819 68.469l-17.861 108.06z" fill="#92acef"/><path d="M942.184 751.449c-13.437 0-26.7-1.103-39.426-3.494-40.341-7.58-90.923-31.197-102.801-100.661-8.056-47.105-6.026-63.067-2.955-87.228l.24-1.895a2.495 2.495 0 0 1 2.795-2.166 2.5 2.5 0 0 1 2.166 2.794l-.241 1.896c-3.015 23.716-5.007 39.384 2.923 85.755 11.395 66.63 60.015 89.303 98.796 96.59 37.704 7.084 84.307 2.868 127.863-11.567 40.775-13.514 72.348-33.619 84.456-53.781 28.689-47.77 8.122-120.768-14.185-173.595-26.759-63.371-64.015-118.211-81.213-137.892a2.576 2.576 0 0 1-.171-.219c-16.535-23.822-37.017-35.374-64.458-36.353-27.207-.976-59.707 8.838-90.77 19.591-22.284 9.317-37.796 24.439-46.111 44.95-6.237 15.384-5.863 28.215-5.859 28.343a2.5 2.5 0 0 1-2.407 2.588c-1.361.039-2.537-1.024-2.589-2.403-.021-.558-.438-13.855 6.136-30.194 6.063-15.071 19.482-35.619 48.977-47.928.048-.02.096-.039.145-.055 65.298-22.608 122.479-36.822 160.966 18.495 36.06 41.355 151.19 225.062 95.827 317.246-21.918 36.495-102.734 71.181-178.104 71.181z" fill="#161616"/><path d="M884.383 684.351s-35.405-95.752-66.709-98.463c-31.309-2.701-38.085 21.89-38.085 21.89z" fill="#6f5490"/><path d="M884.383 686.85c-.518 0-1.035-.16-1.475-.481l-104.794-76.573a2.5 2.5 0 0 1-.936-2.683c.073-.266 7.695-26.566 40.71-23.716 32.51 2.815 67.371 96.116 68.839 100.086a2.5 2.5 0 0 1-2.345 3.367zM782.56 606.851l96.421 70.455c-12.01-29.954-39.31-87.005-61.522-88.928-24.532-2.111-32.835 13.33-34.898 18.474z"/><path d="M989.223 716.119c-53.115-7.477-48.825-4.387-80.602-8.855-42.269-57.8-220.535-199.633-243.933-135.322-9.113 32.2 41.44 45.509 89.554 79.216 0 0-110.326-42.524-121.628 5.47-5.865 24.893 19.387 37.387 19.387 37.387s-18.402-2.479-21.184 18.577c-2.783 21.054 15.535 31.23 38.346 39.162 22.815 7.922 58.387 6.467 75.282 32.954 37.301 45.563 76.618 61.937 137.708 44.361l73.702-.394s22.654-19.918 30.339-46.37c8.386-28.87 1.907-64.551 3.027-66.186z" fill="#6f5490"/><path d="M837.994 838.45c-12.278 0-23.701-1.841-34.426-5.52-21.701-7.445-41.102-22.265-61.056-46.639a2.38 2.38 0 0 1-.173-.239c-11.698-18.339-33.483-22.772-52.704-26.684-7.654-1.558-14.885-3.029-21.291-5.253-21.528-7.486-43.115-18.312-40.005-41.851.976-7.382 3.855-12.95 8.562-16.547 2.529-1.934 5.238-3.018 7.671-3.612-7.551-5.867-18.659-17.93-14.391-36.051 2.003-8.502 7.01-14.921 14.885-19.079 23.243-12.272 66.588-2.057 91.42 5.53-8.548-5.28-16.947-10.054-24.713-14.468-31.553-17.932-56.475-32.096-49.489-56.777a2.52 2.52 0 0 1 .056-.174c3.69-10.144 11.091-16.074 21.995-17.624 33.014-4.698 89.661 32.335 120.499 54.825 43.05 31.395 86.079 70.956 105.176 96.646 13.076 1.815 19.787 2.306 27.526 2.872 10.306.753 21.985 1.607 52.036 5.837a2.501 2.501 0 0 1 2.02 3.273c-.05.838.166 3.57.376 6.216.976 12.308 3.005 37.919-3.372 59.869-7.798 26.843-30.142 46.717-31.089 47.55a2.503 2.503 0 0 1-1.637.623l-73.357.392c-16.046 4.59-30.817 6.883-44.52 6.883zm-91.521-55.213c38.754 47.281 77.874 59.86 134.99 43.43.221-.063.448-.096.678-.098l72.738-.389c3.77-3.523 22.266-21.682 28.916-44.573 6.121-21.072 4.141-46.067 3.188-58.08-.188-2.375-.317-4.04-.369-5.25-28.22-3.934-39.479-4.757-49.443-5.485-8.031-.587-14.967-1.094-28.897-3.053a2.501 2.501 0 0 1-1.67-1c-18.496-25.291-61.557-64.937-104.717-96.413-51.432-37.508-94.017-57.156-116.849-53.914-9.029 1.284-14.907 5.96-17.969 14.297-5.83 20.857 16.409 33.497 47.173 50.98 12.79 7.269 27.285 15.507 41.435 25.419a2.5 2.5 0 0 1-2.333 4.381c-.746-.287-74.854-28.512-105.946-12.092-6.631 3.502-10.67 8.671-12.35 15.803-5.329 22.622 17.108 34.098 18.066 34.575a2.502 2.502 0 0 1-1.447 4.717c-.642-.081-15.963-1.81-18.372 16.427-2.633 19.926 16.077 29.305 36.689 36.473 6.089 2.114 13.16 3.553 20.646 5.077 20.152 4.101 42.987 8.746 55.841 28.768zm244.817-65.713-.005.007zm.005-.007-.004.005z"/><path d="M825.657 749.247c-.321 0-.648-.062-.963-.194-.786-.329-79.021-32.965-114.4-42.567-35.183-9.557-61.747-10.187-62.011-10.192a2.498 2.498 0 0 1-2.45-2.548 2.507 2.507 0 0 1 2.548-2.451c.27.005 27.405.636 63.223 10.366 35.695 9.687 114.229 42.45 115.019 42.779a2.5 2.5 0 0 1-.965 4.808zm1.706-52.882c-.43 0-.865-.111-1.263-.344l-75.74-44.4a2.5 2.5 0 0 1 2.529-4.314l75.74 44.4a2.5 2.5 0 0 1-1.266 4.657z"/><path d="M978.991 380.824c79.167-54.513 174.157 48.602 221.887 91.292 41.191 36.842 148.722 107.29 148.428 183.489-6.6 73.395-78.594 128.208-200.821 173.308-160.734 59.309-210.871 48.694-247.787 16.773-29.196-20.26-53.782-96.836-12.322-146.486 46.282-55.425 163.23-40.465 244.129-58.893-24.711-32.45-55.867-43.807-99.04-60.902" fill="#92acef"/><path d="M974.292 874.052c-31.167 0-53.817-7.997-75.128-26.389-16.539-11.554-30.26-38.708-34.165-67.635-4.252-31.492 3.369-60.766 21.46-82.43 32.004-38.326 96.953-43.69 159.764-48.878 27.938-2.308 56.779-4.689 81.86-10-22.887-28.288-51.413-39.558-90.379-54.951l-5.157-2.04a2.5 2.5 0 1 1 1.841-4.649l5.153 2.038c41.112 16.241 70.816 27.976 94.955 59.674a2.502 2.502 0 0 1-1.434 3.952c-26.304 5.992-56.869 8.517-86.429 10.958-61.785 5.104-125.675 10.381-156.337 47.101-17.181 20.574-24.405 48.472-20.344 78.556 3.738 27.684 16.667 53.514 32.171 64.273.073.05.144.104.21.163 37.619 32.528 89.812 40.141 245.287-17.227 63.351-23.376 110.137-48.11 143.032-75.616 34.576-28.912 52.945-60.141 56.153-95.463.157-61.458-72.336-120.047-120.314-158.828-10.695-8.645-19.933-16.11-27.28-22.682-4.951-4.428-10.453-9.546-16.279-14.964-49.815-46.331-133.193-123.876-202.523-76.133a2.5 2.5 0 0 1-2.836-4.118c72.638-50.017 157.852 29.237 208.765 76.589 5.808 5.401 11.293 10.503 16.208 14.899 7.254 6.488 16.445 13.917 27.089 22.521 48.749 39.402 122.418 98.948 122.172 162.842 0 .071-.004.143-.01.214-3.305 36.753-22.256 69.123-57.937 98.958-33.342 27.88-80.611 52.894-144.509 76.471-76.809 28.342-131.188 41.926-171.139 42.752-1.321.027-2.629.042-3.921.042z"/><path d="M1132.506 642.809a2.501 2.501 0 0 1-.741-4.888c5.477-1.701 34.532-10.844 34.825-10.937a2.5 2.5 0 0 1 1.5 4.769c-.292.092-29.356 9.238-34.843 10.942a2.48 2.48 0 0 1-.742.113z" fill="#161616"/><path d="M835.375 27.417c19.233-11.791 78.663-45.837 140.748-6.424 39.54 25.1 65.737 92.216 52.395 163.259 0 0-191.348 67.541-245.503 24.553-34.279 1.26-69.393-30.07-82.698-58.316-25.638-54.43-9.168-100.941 22.05-125.712 33.071-26.241 82.605-28.296 113.008 2.641z" fill="#fbb348"/><path d="M841.591 225.677c-26.965 0-46.832-4.786-59.402-14.349a60.6 60.6 0 0 1-1.128.011c-33.938.003-69.28-30.646-83.006-59.786-12.146-25.785-15.768-51.923-10.475-75.589 4.696-20.994 16.498-39.868 33.232-53.146 16.801-13.332 37.65-20.664 58.739-20.664h.327c21.422.077 41.181 7.914 55.868 22.111C899.454-14.037 947.923.129 977.461 18.881c20.281 12.875 36.992 36.209 47.055 65.705 10.507 30.797 12.8 66.356 6.457 100.126a2.502 2.502 0 0 1-1.625 1.896c-.479.169-48.618 17.072-102.76 28.486-33.474 7.056-61.852 10.583-84.998 10.583zm-58.577-19.374c.563 0 1.111.19 1.555.542 50.095 39.764 224.489-18.562 241.753-24.481 11.676-64.846-10.35-133.115-51.539-159.262-28.598-18.154-75.77-31.773-138.102 6.445a2.5 2.5 0 0 1-3.09-.379C805.893.984 757.72-.086 723.92 26.733c-27.847 22.096-48.077 65.93-21.342 122.688 13.324 28.288 47.887 58.081 80.344 56.883l.092-.001z"/><path d="M853.397 51.699c-.732 0-1.458-.32-1.952-.936-.092-.115-9.3-11.584-17.97-21.721a2.5 2.5 0 1 1 3.798-3.25c8.723 10.198 17.979 21.727 18.071 21.842a2.5 2.5 0 0 1-1.949 4.065zm-41.763 50.736a2.496 2.496 0 0 1-2.078-1.108c-9.447-14.086-14.504-19.292-14.555-19.343a2.5 2.5 0 0 1 3.561-3.51c.215.218 5.378 5.502 15.146 20.067a2.5 2.5 0 0 1-2.075 3.893z"/><path d="m842.503 323.705 14.617 54.601c15.915 8.428 75.395 1.73 89.916-30.118l-22.68-81.505" fill="#ffaac3"/><path d="M876.331 384.128c-8.477 0-15.79-1.182-20.381-3.613a2.502 2.502 0 0 1-1.245-1.563l-14.617-54.601a2.501 2.501 0 0 1 4.831-1.293l14.321 53.494c9.078 3.978 31.24 3.71 51.435-3.161 11.719-3.988 26.964-11.62 33.705-25.43l-22.431-80.609a2.5 2.5 0 0 1 4.816-1.341l22.681 81.505c.158.567.11 1.172-.134 1.708-7.271 15.947-24.148 24.518-37.026 28.9-11.611 3.951-24.79 6.003-35.954 6.003z"/><path d="M943.626 182.067c26.403-92.799 135.976-60.613 123.282 6.755-16.933 89.851-123.117 67.454-123.117 67.454s-5.875 58.416-71.54 70.414c-87.674 16.031-115.194-71.72-115.194-71.72s-40.073-6.838-38.733-26.758 33.488-1.925 33.488-1.925c-19.742-100.787 59.82-126.35 59.82-126.35 93.834 120.247 131.994 82.13 131.994 82.13z" fill="#ffaac3"/><path d="M851.659 331.127c-34.559 0-57.72-16.944-71.746-32.618-15.581-17.411-22.89-36.068-24.756-41.352-7.59-1.517-40.662-9.279-39.328-29.113.405-6.026 3.352-8.842 5.751-10.142 7.484-4.055 20.04.685 26.872 3.877-8.398-50.132 8.255-80.966 24.024-98.153 17.667-19.255 37.553-25.801 38.391-26.07.998-.32 2.09.016 2.735.842 54.264 69.538 89.382 85.6 109.287 86.829 11.077.688 16.966-3.293 18.536-4.555 14.391-49.458 52.088-64.237 83.19-56.896 27.163 6.41 51.257 30.969 44.749 65.508-4.631 24.574-16.259 43.225-34.561 55.435-33.208 22.154-77.658 16.416-88.921 14.49-.891 5.059-3.594 16.578-11.096 29.063-9.095 15.135-27.249 34.512-62.088 40.878-7.438 1.36-14.448 1.977-21.041 1.977zM728.662 221.309c-1.804 0-3.417.293-4.701.989-1.909 1.036-2.938 3.025-3.144 6.082-.974 14.474 26.134 22.323 36.66 24.126a2.502 2.502 0 0 1 1.964 1.715c.068.216 6.987 21.784 24.313 41.082 23.04 25.665 52.662 35.399 88.048 28.928 26.412-4.826 46.125-17.729 58.59-38.351 9.343-15.456 10.897-29.714 10.912-29.856a2.5 2.5 0 0 1 3.002-2.194c.518.109 52.016 10.571 87.746-13.284 17.128-11.435 28.029-28.994 32.399-52.187 5.928-31.457-16.131-53.852-40.983-59.716-28.941-6.828-64.107 7.254-77.438 54.108-.116.41-.336.784-.638 1.084-.3.3-7.517 7.323-22.812 6.382-20.789-1.284-57.017-17.516-111.797-87.308-5.014 1.958-20.821 8.978-34.779 24.267-22.433 24.57-29.746 57.753-21.739 98.629a2.496 2.496 0 0 1-.986 2.504c-.79.57-1.837.633-2.688.158-4.177-2.334-14.613-7.16-21.93-7.16z"/><path d="M776.685 201.923c-.63-3.226 1.455-6.282 4.657-6.826s6.308 1.63 6.938 4.855c.63 3.226-1.454 6.281-4.656 6.825-3.201.546-6.307-1.627-6.938-4.851v-.004z"/><path d="M824.999 260.575c-3.852-21.065 10.103-41.265 31.169-45.117 21.065-3.852 41.265 10.103 45.117 31.169 3.852 21.065-10.103 41.265-31.169 45.117s-41.265-10.103-45.117-31.169z" fill="#ff6996"/><path d="M958.892 226.198a2.5 2.5 0 0 1-2.297-3.483c.236-.552 24.215-55.419 77.471-76.651a2.5 2.5 0 1 1 1.852 4.644c-51.286 20.446-74.497 73.441-74.726 73.974a2.5 2.5 0 0 1-2.299 1.516z"/><path d="M1008.38 215.329a2.497 2.497 0 0 1-1.971-.959c-10.595-13.533-30.43-14.107-30.629-14.111a2.498 2.498 0 0 1-2.446-2.552 2.485 2.485 0 0 1 2.552-2.447c.91.02 22.42.648 34.461 16.028a2.5 2.5 0 0 1-1.967 4.041zm-229.537 79.198a2.5 2.5 0 0 1-.803-4.868c.93-.319 21.934-7.836 19.572-32.349a2.498 2.498 0 0 1 2.248-2.728 2.495 2.495 0 0 1 2.729 2.249c2.75 28.544-22.688 37.478-22.946 37.565a2.512 2.512 0 0 1-.8.132z"/><path d="M847.255 141.094s-58.166 25.319-95.045 25.216c0 0-8.166 24.677-.396 59.979 0 0 41.285 18.14 95.549 3.97 51.759-13.515 92.364-45.094 95.999-47.988-15.545 12.059-43.98 9.703-96.106-41.176zM789.01 218.02c-18.542 5.082-26.486-8.448-27.12-15.792-.794-9.207 4.168-17.106 19.926-21.42 16.751-4.587 34.501-6.647 37.439-5.077 9.305 4.972-9.881 36.709-30.245 42.289z" fill="#6f5490"/><path d="M805.11 238.219c-31.855 0-53.076-9.102-54.303-9.641a2.503 2.503 0 0 1-1.436-1.751c-7.827-35.564.122-60.268.465-61.302a2.499 2.499 0 0 1 2.373-1.714c.07.003.149 0 .225 0 35.94 0 93.248-24.758 93.823-25.009a2.499 2.499 0 0 1 2.744.503c42.199 41.19 74.299 55.366 92.827 40.99a2.501 2.501 0 0 1 3.09 3.931c-4.427 3.524-44.75 34.828-96.924 48.451-15.602 4.074-30.102 5.541-42.885 5.541zm-51.132-13.752c7.019 2.712 44.99 15.846 92.753 3.374 34.087-8.901 63.554-25.93 80.322-37.013-.647.034-1.304.051-1.965.051-19.957.003-46.196-15.655-78.381-46.83-9.499 4.019-58.59 24.095-92.605 24.746-1.567 5.995-6.092 27.32-.124 55.672zm27.331-2.837c-5.78 0-9.962-1.89-12.718-3.811-6.177-4.305-8.812-10.973-9.191-15.375-1.012-11.726 6.308-19.816 21.757-24.046 15.132-4.145 34.981-7.164 39.277-4.871 1.629.871 4.269 3.167 3.641 8.766-1.311 11.697-17.245 33.438-34.403 38.14-3.093.847-5.876 1.197-8.362 1.197zm34.106-43.953c-5.619 0-18.613 1.621-32.938 5.543-12.962 3.549-18.881 9.697-18.095 18.794.309 3.588 2.614 8.599 7.067 11.702 4.458 3.107 10.146 3.745 16.899 1.894 15.086-4.134 29.622-23.748 30.757-33.875.157-1.398.105-3.192-1.028-3.798-.428-.17-1.341-.26-2.662-.26z"/><path d="M1031.568 118.512s19.074-35.543 72.471 6.579c0 0-54.721 35.246-72.471-6.579z" fill="#6f5490"/><path d="M1062.094 141.481c-3.951 0-7.881-.489-11.648-1.648-9.575-2.947-16.701-9.792-21.18-20.344a2.498 2.498 0 0 1 .099-2.159c.252-.469 6.336-11.526 20.976-14.573 15.451-3.217 34.034 3.639 55.246 20.371a2.497 2.497 0 0 1-.195 4.065c-1.065.687-22.468 14.289-43.298 14.289zm-27.705-22.768c3.89 8.461 9.781 13.957 17.528 16.341 17.313 5.331 39.594-5.703 47.672-10.239-18.762-14.147-34.981-19.923-48.229-17.164-9.985 2.078-15.271 8.574-16.971 11.062z"/><path d="M1032.386 115.588s-17.182-33.704 29.036-56.964c0 0 12.822 55.787-29.036 56.964z" fill="#6f5490"/><path d="M1032.385 118.089a2.5 2.5 0 0 1-2.228-1.365c-.267-.523-6.474-12.989-1.449-28.328 4.192-12.797 14.82-23.565 31.59-32.005a2.504 2.504 0 0 1 2.188-.029 2.504 2.504 0 0 1 1.373 1.703c.291 1.268 6.985 31.258-6.334 48.478-5.688 7.354-14.122 11.238-25.069 11.546h-.07zm27.201-55.68c-35.174 19.209-28.1 44.289-25.605 50.601 8.563-.583 15.146-3.784 19.59-9.527 9.516-12.303 7.309-33.115 6.016-41.074z"/></svg></g></svg>