<svg xmlns="http://www.w3.org/2000/svg" viewBox="0 0 1200 800" width="1200" height="800"><g transform="translate(46.0 241.0) rotate(0.0 352.5 263.0) scale(2.2955271409453664 2.287861719201945)"><svg width="307.119" height="229.909" viewBox="0 0 307.119 229.909"><linearGradient id="a" gradientUnits="userSpaceOnUse" x1="0" x2="307.119" y1="99.42" y2="99.42"><stop offset="0" stop-color="#eee"/><stop offset="1" stop-color="#d6d7d8"/></linearGradient><path d="M121.322 148.638h69.889v77.764h-69.889z" fill="#d6d7d8"/><path d="M78.01 223.88h156.513v6.029H78.01z" fill="#428dfc"/><path d="M0 0h307.119v198.84H0z" fill="url(#a)"/><path d="M5.414 4.958h296.291v163.755H5.414z" fill="#fff"/><circle cx="284.522" cy="183.469" fill="#eee" r="8.754"/></svg></g><g transform="translate(582.0 327.0) rotate(0.0 -166.5 120.0) translate(-0.0 0.0) scale(-1.5136363636363637 1.5)"><svg width="220" height="160" viewBox="0 0 220 160"><linearGradient id="b"><stop offset="0" stop-color="#a1c3fc"/><stop offset="1" stop-color="#78a9ef"/></linearGradient><linearGradient xmlns:xlink="http://www.w3.org/1999/xlink" id="c" gradientTransform="matrix(1 0 0 -1 0 166)" gradientUnits="userSpaceOnUse" x1="28.82" x2="220" xlink:href="#b" y1="86.021" y2="86.021"/><linearGradient id="d" gradientTransform="matrix(1 0 0 -1 0 166)" gradientUnits="userSpaceOnUse" x1="156.111" x2="213.172" y1="154.575" y2="154.575"><stop offset="0" stop-color="#428DFC"/><stop offset="1" stop-color="#3E70DF"/></linearGradient><linearGradient id="e" gradientTransform="matrix(1 0 0 -1 0 166)" gradientUnits="userSpaceOnUse" x1="39.55" x2="208.783" y1="81.402" y2="81.402"><stop offset="0" stop-color="#E3E3E3"/><stop offset=".554" stop-color="#d6d7d8"/></linearGradient><linearGradient xmlns:xlink="http://www.w3.org/1999/xlink" id="f" gradientTransform="matrix(1 0 0 -1 0 166)" gradientUnits="userSpaceOnUse" x1="202.235" x2="-28.259" xlink:href="#b" y1="112.267" y2="1.826"/><path d="M220 0h-67.791l-19.507 16.531H28.82v143.428H220z" fill="url(#c)"/><path d="M156.111 5.834h57.061v11.182h-57.061z" fill="url(#d)"/><path d="M39.55 29.658h169.233v109.88H39.55z" fill="url(#e)"/><path d="M219.523 160H28.774L0 36.084h190.748z" fill="url(#f)"/></svg></g><g transform="translate(916.0 150.0) rotate(14.288921179972487 -43.5 37.0) scale(-1.5119916579770594 1.5136019635917366)"><svg width="57.54" height="48.89" viewBox="0 0 57.54 48.89"><path d="M55.05 6.39 37.52.29a5.32 5.32 0 0 0-5.2 1L1.52 27.56A4.41 4.41 0 0 0 1 33.74l12.3 14.5 1.65.65 1.92-1s14.09-11.8 20.89-18c4.17-3.79 13.09-12.08 18.57-17.19a3.82 3.82 0 0 0-1.28-6.31z" fill="#23286b"/></svg></g><g transform="translate(564.0 140.0) rotate(16.98475210820348 -88.5 82.0) scale(-4.164607891579022 4.180261011419249)"><svg width="42.501" height="39.232" viewBox="0 0 42.501 39.232"><path d="M4.904 4.904S0 13.622 0 26.154v13.077l42.501-8.173S35.962 17.436 33.783 0L16.346 1.09s-7.628.545-11.442 3.814z" fill="#eee"/></svg></g><g transform="translate(674.0 -5.0) rotate(-90.00000000000001 -47.0 79.0) scale(-2.573932092004381 2.6159806616113115)"><svg width="36.52" height="60.398" viewBox="0 0 36.52 60.398"><path d="M20.161 0 0 49.039s21.25 22.34 33.238 4.359c0 0-8.173 0-2.18-16.346s5.449-14.712 5.449-14.712z" fill="#eee"/></svg></g><g transform="translate(778.0 53.0) rotate(-83.24829495525853 23.5 43.5) scale(1.4872005822232066 1.5524071232290069)"><svg width="31.603" height="56.042" viewBox="0 0 31.603 56.042"><path d="M16.891 37.597 0 53.943c7.628 3.269 17.981 3.814 19.071-6.539s-9.263-20.16-9.263-20.16 7.083-11.443 10.353-16.891S21.25 0 21.25 0z" fill="#e0e0e0"/><path d="M21.795 0s8.173 10.353 9.263 18.526.545 7.083-1.635 11.987-11.955 21.758-11.955 21.758 7.596-8.135-7.661-25.027z" fill="#eee"/></svg></g><g transform="translate(832.0 49.0) rotate(0.0 167.5 359.0) scale(1.1964285714285714 1.1966666666666668)"><svg width="280" height="600" viewBox="0 0 280 600"><linearGradient id="g"><stop offset="0" stop-color="#ffbeb6"/><stop offset="1" stop-color="#f2a19c"/></linearGradient><linearGradient xmlns:xlink="http://www.w3.org/1999/xlink" id="h" gradientTransform="matrix(-.0421 -.061 -.061 .0421 -133.4215 8.8587)" gradientUnits="userSpaceOnUse" x1="-2482.388" x2="-3368.03" xlink:href="#g" y1="-428.531" y2="-1374.217"/><linearGradient id="i" gradientTransform="matrix(.0741 0 0 -.0741 -230.5491 105.3472)" gradientUnits="userSpaceOnUse" x1="4142.855" x2="6286.417" y1="-5841.666" y2="-7820.333"><stop offset="0" stop-color="#f1b505"/><stop offset="1" stop-color="#d89c05"/></linearGradient><linearGradient id="j" gradientTransform="matrix(.0741 0 0 -.0741 -230.5491 105.3472)" gradientUnits="userSpaceOnUse" x1="3060.554" x2="6246.82" y1="-3922.668" y2="-3922.668"><stop offset="0" stop-color="#23286b"/><stop offset=".353" stop-color="#1e2361"/><stop offset="1" stop-color="#151a4f"/></linearGradient><linearGradient id="k" gradientTransform="matrix(.0741 0 0 -.0741 -230.5491 105.3472)" gradientUnits="userSpaceOnUse" x1="6316.05" x2="5096.135" y1="-614.707" y2="-2785.022"><stop offset="0" stop-color="#a1c3fc"/><stop offset=".696" stop-color="#81aef2"/><stop offset="1" stop-color="#78a9ef"/></linearGradient><linearGradient xmlns:xlink="http://www.w3.org/1999/xlink" id="l" gradientTransform="matrix(.0741 0 0 -.0741 -230.5491 105.3472)" gradientUnits="userSpaceOnUse" x1="5550.355" x2="5867.059" xlink:href="#g" y1="258.876" y2="258.876"/><path d="M2.143 138.553s10.017 19.459 27.419 18.46c17.403-.999 18.131 2.873 26.705 11.592 3.701 3.76 18.207 17.264 29.577 27.523l3.553-37.181c-16.026-4.746-37.549-11.937-43.354-17.643-9.52-9.386-12.651-21.872-16.599-26.294-3.981-4.468-5.527-5.204-9.159-2.83 0 0-2.325-1.865-7.917-7.161C.883 95.397-2.797 130.583 2.143 138.553z" fill="url(#h)"/><path d="m170.611 549.775 17.969 50.221L61.719 600s6.504-12.569 28.189-21.88 41.923-28.346 41.923-28.346h38.779" fill="url(#i)"/><path d="m261.27 549.75 17.969 50.221-126.86.004s6.504-12.569 28.189-21.88 41.923-28.346 41.923-28.346z" fill="#f1b505"/><path d="M223.487 258.781c-15.289 67.235-16.474 57.796-14.118 104.965 2.37 47.17-5.289 31.258-7.645 80.787s.665 73.982-31.113 105.255h-38.772s-3.15-151.035-2.456-193.73c.477-29.868 9.855-60.127 15.26-84.841l5.925-24.786a44.096 44.096 0 0 0 16.459-4.185c13.468 4.517 37.197 5.473 58.613 5.226a158.692 158.692 0 0 1-2.153 11.309z" fill="url(#j)"/><path d="M261.276 549.744H222.49s-61.127-147.589-64.176-179.643c-2.413-25.481-1.372-54.843 1.301-81.612l5.347-46.981c17.558 6.964 57.254 6.487 82.875 5.299a159.205 159.205 0 0 1-8.078 42.942c-24.393 73.345-7.63 69.871.274 92.065 7.948 22.18 12.197 35.746 10.39 56.71-1.836 20.979 7.298 15.419 12.197 42.522 4.871 27.133-1.344 68.698-1.344 68.698z" fill="#23286b"/><path d="M204.03 251.785a.299.299 0 0 0-.39-.158.3.3 0 0 0-.158.391.297.297 0 1 0 .548-.233zm-30.845-.082a.292.292 0 0 0-.374.176.28.28 0 0 0 .115.378c.012.005.023.012.036.016a.306.306 0 0 0 .23-.566c-.003-.003-.006-.003-.007-.004zm15.323-.872a.31.31 0 1 0-.003.62.31.31 0 0 0 .003-.62zm55.013 2.358a.564.564 0 0 0-.798.038l-.013.016a.56.56 0 0 0 .052.79l.004.003c.231.21.588.194.798-.038l.013-.016a.558.558 0 0 0-.052-.789c-.003-.001-.003-.001-.004-.004zm-42.017 34.946a.58.58 0 0 0-.538.608.55.55 0 0 0 .578.521c.011 0 .02-.002.031-.003a.58.58 0 0 0 .538-.608.564.564 0 0 0-.609-.518zm-.98-13.816a.566.566 0 0 0-.517.61v.002a.572.572 0 0 0 1.144-.069.61.61 0 0 0-.627-.543zm-.957-13.812a.61.61 0 0 0-.54.628.55.55 0 0 0 .577.521c.011 0 .02-.002.031-.003a.564.564 0 0 0 .539-.588c0-.007 0-.013-.002-.02a.578.578 0 0 0-.605-.538zm29.067 13.845a.58.58 0 1 0-1.053.491.58.58 0 1 0 1.053-.491zm-6.168-12.386a.58.58 0 1 0-1.053.491.58.58 0 1 0 1.053-.491zm-6.169-12.386a.609.609 0 0 0-.791-.255.58.58 0 0 0 .516 1.042.61.61 0 0 0 .275-.787zm-40.71 28.637a.548.548 0 0 0-.712.376.558.558 0 0 0 .35.708l.005.002a.579.579 0 0 0 .73-.353.611.611 0 0 0-.373-.733zm4.389-13.112a.566.566 0 0 0-.728.354c-.1.3.056.624.352.731a.61.61 0 0 0 .733-.374.558.558 0 0 0-.35-.708l-.007-.003zm4.372-13.136a.579.579 0 0 0-.73.353.568.568 0 0 0 .346.724l.027.008a.548.548 0 0 0 .701-.331l.008-.026a.577.577 0 0 0-.352-.728zm56.131 16.069a.507.507 0 1 0-.858.54.507.507 0 0 0 .858-.54zm-6.535-10.473a.507.507 0 1 0-.159.7.496.496 0 0 0 .17-.682c-.005-.006-.008-.012-.011-.018zm-44.965 18.811a.507.507 0 0 0-.609.38l-.001.008a.492.492 0 0 0 .371.609.538.538 0 0 0 .631-.388.535.535 0 0 0-.392-.609zm2.776-12.034a.507.507 0 0 0-.609.38l-.002.008a.492.492 0 0 0 .371.609.507.507 0 0 0 .609-.371.523.523 0 0 0-.369-.626zm2.777-12.036a.506.506 0 0 0-.609.382l-.001.008a.48.48 0 0 0 .324.597l.047.012a.507.507 0 0 0 .609-.38c0-.003.002-.005.002-.011a.52.52 0 0 0-.372-.608zm20.675 18.613a.536.536 0 0 0-.413.604.504.504 0 0 0 .583.411.516.516 0 0 0 .43-.581.533.533 0 0 0-.6-.434zm-2.03-12.183a.536.536 0 0 0-.413.604.504.504 0 0 0 .583.411.49.49 0 0 0 .417-.553l-.005-.031a.519.519 0 0 0-.582-.431zm-43.637 2.028a.525.525 0 0 0-.717.107.507.507 0 0 0 .113.709l.015.011a.484.484 0 0 0 .678-.085l.019-.026a.502.502 0 0 0-.108-.716zm7.145-10.063a.518.518 0 0 0-.591.849.523.523 0 0 0 .718-.127.505.505 0 0 0-.127-.722zm33.964-2.338a.299.299 0 0 0-.02.596.299.299 0 0 0 .02-.596zm-.448 2.5a.374.374 0 0 0-.409.273.343.343 0 0 0 .253.407.32.32 0 0 0 .406-.253.35.35 0 0 0-.248-.427h-.002zm29.695 30.507a.602.602 0 0 0-.505.673.59.59 0 0 0 .675.486.61.61 0 0 0 .505-.673.59.59 0 0 0-.675-.486zm-2.222-14.092a.588.588 0 1 0 .191 1.161.588.588 0 0 0-.191-1.161zm-2.199-14.089a.587.587 0 0 0 .144 1.165l.026-.004a.602.602 0 0 0 .505-.673.591.591 0 0 0-.675-.488zm-53.399 14.191a.596.596 0 0 0-.71.956.62.62 0 0 0 .843-.132.606.606 0 0 0-.133-.824zm8.376-11.526a.589.589 0 1 0-.696.953l.004.003a.589.589 0 1 0 .696-.953c.001-.001 0-.002-.004-.003zm21.69 17.988a.58.58 0 0 0-.698.429l-.003.012a.596.596 0 0 0 .417.719.626.626 0 0 0 .721-.438.599.599 0 0 0-.437-.722zm3.337-13.857a.57.57 0 0 0-.693.403l-.008.038a.576.576 0 0 0 .418.698h.001a.594.594 0 0 0 .72-.436v-.001a.569.569 0 0 0-.402-.694c-.011-.002-.024-.007-.036-.008zm5.267 18.46a.594.594 0 1 0-.241 1.163.594.594 0 0 0 .241-1.163zm2.751-13.939a.623.623 0 0 0-.705.481.604.604 0 0 0 .462.683.594.594 0 0 0 .702-.461.61.61 0 0 0-.459-.703zm2.727-13.922a.583.583 0 0 0-.22 1.146.594.594 0 0 0 .702-.461.607.607 0 0 0-.482-.685zm21.002 6.239a.603.603 0 0 0-.468.699.59.59 0 0 0 .701.448.58.58 0 0 0 .466-.675c0-.002 0-.003-.002-.004a.609.609 0 0 0-.697-.468zm-50.106 3.923a.57.57 0 0 0-.794.157c-.004.007-.008.014-.015.021a.582.582 0 0 0 .156.806.6.6 0 0 0 .826-.154.59.59 0 0 0-.158-.819c-.005-.004-.009-.009-.015-.011zm7.863-11.826a.57.57 0 0 0-.794.157c-.004.007-.008.014-.014.021a.582.582 0 0 0 .156.806.6.6 0 0 0 .826-.154.59.59 0 0 0-.174-.83zm15.69 5.132a.422.422 0 0 0-.569.186l-.019.041a.443.443 0 1 0 .588-.227zm22.468-.957a.443.443 0 0 0-.453.429v.004c.005.24.193.436.432.453a.45.45 0 0 0 .453-.433.427.427 0 0 0-.401-.452l-.031-.001z" fill="#fff" opacity=".86"/><path d="M203.897 88.141a141.845 141.845 0 0 1 40.173 42.578c17.467 28.327 12.79 38.71 22.26 55.393s22.615 37.239 4.991 59.218c0 0-86.349 7.496-109.559-5.304l18.895-143.994c0-.003 10.956 1.267 23.24-7.891z" fill="url(#k)"/><path d="M180.657 96.029s-12.039 31.959-27.747 52.884-22.302 21.653-43.879 15.328c-21.577-6.324-25.706-8.945-25.706-8.945l-30.747 80.011s16.451 16.746 40.566 11.609 32.11-5.154 43.978-1.852 40.17 3.814 56.653-32.585S215.09 143.35 205.17 88.785" fill="#a1c3fc"/><path d="M181.014 77.365a41.837 41.837 0 0 1-.358 18.666s10.57 5.564 23.468-6.641c0 0-2.687-7-4.658-14.358z" fill="url(#l)"/><path d="M165.264 34.025s-1.938 7.334-6.028 11.649c-4.091 4.315-7.32 6.903 1.508 11.649 0 0 5.167 29.121 37.249 18.768 0 0 24.545-10.355 20.884-20.493s-19.594-24.375-19.594-24.375l-19.594-5.608z" fill="#ffbeb6"/><path d="M161.092 63.971a5.32 5.32 0 0 0 9.386.646c.434-.686-.556-1.492-.996-.796a4.051 4.051 0 0 1-7.201-.308c-.355-.736-1.545-.283-1.189.458z" fill="#1c2868"/><path d="M153.514 0c-3.043 20.776 5.301 30.409 14.828 34.823-13.131-4.352-20.853-17.942-17.889-31.475.139-.682-.906-.975-1.045-.288-3.361 15.151 6.173 30.164 21.296 33.531 1.552.346 3.131.559 4.72.636a49.025 49.025 0 0 0 15.094 1.012s2.158 9.564 6.729 13.348c4.572 3.784 8.947-1.792 11.531 4.182s-2.981 9.161-8.944 10.157c-5.964.996-5.17 8.763-5.17 8.763 4.572 1.992 19.482-.597 30.416-10.954 10.933-10.356 13.519-25.094 13.519-25.094z" fill="#23286b"/></svg></g></svg>