<svg xmlns="http://www.w3.org/2000/svg" viewBox="0 0 3000 3000" width="3000" height="3000"><g transform="translate(2261.25 1808.25) rotate(0.0 294.75 294.75) scale(1.8557343608340888 1.8557343608340888)"><svg width="317.664" height="317.664" viewBox="0 0 317.664 317.664"><path d="m303.744 218.152 11.42-50.328-33.38-7.569c.187-14.666-2.246-29.482-7.486-43.699l28.946-18.245-27.519-43.659-28.946 18.246c-10.567-10.86-22.885-19.445-36.197-25.602l7.569-33.38L167.814 2.5l-7.563 33.389a121.578 121.578 0 0 0-43.699 7.486L98.301 14.419l-43.659 27.52 18.251 28.956C62.043 81.456 53.457 93.774 47.3 107.086l-33.395-7.572L2.5 149.844l33.379 7.569c-.141 14.386 2.246 29.481 7.486 43.699L14.41 219.363l27.519 43.659 28.956-18.251a121.813 121.813 0 0 0 36.197 25.602l-7.569 33.379 50.323 11.411 7.569-33.38a121.792 121.792 0 0 0 43.699-7.486l18.251 28.956 43.659-27.52-18.251-28.956a121.56 121.56 0 0 0 25.602-36.197l33.379 7.569zm-115.549-12.735c-25.727 16.217-59.73 8.507-75.946-17.221-16.216-25.727-8.506-59.73 17.221-75.946 25.727-16.217 59.73-8.507 75.946 17.221 16.217 25.727 8.507 59.73-17.221 75.946z" fill="#6f5490"/><path d="M149.837 317.665c-.183 0-.368-.021-.555-.063l-50.322-11.41a2.495 2.495 0 0 1-1.886-2.991l7.126-31.423c-12.543-6.046-23.857-14.048-33.681-23.82l-27.257 17.181a2.503 2.503 0 0 1-3.448-.782l-27.52-43.659a2.5 2.5 0 0 1 .782-3.448l27.258-17.182c-4.479-12.831-6.869-26.803-6.958-40.658l-31.43-7.126a2.502 2.502 0 0 1-1.886-2.991l11.405-50.332a2.505 2.505 0 0 1 1.105-1.563 2.51 2.51 0 0 1 1.886-.323l31.438 7.129c6.045-12.541 14.044-23.853 23.811-33.674L52.524 43.272a2.5 2.5 0 0 1 .782-3.448l43.661-27.52a2.506 2.506 0 0 1 3.449.782l17.18 27.258a123.647 123.647 0 0 1 40.661-6.966l7.119-31.431a2.505 2.505 0 0 1 1.105-1.563 2.507 2.507 0 0 1 1.886-.323l50.338 11.414a2.495 2.495 0 0 1 1.886 2.991l-7.126 31.424c12.543 6.046 23.857 14.048 33.681 23.819l27.247-17.175a2.501 2.501 0 0 1 3.449.782l27.52 43.659a2.5 2.5 0 0 1-.782 3.448l-27.247 17.175c4.579 13.076 6.918 26.735 6.964 40.661l31.423 7.124a2.499 2.499 0 0 1 1.886 2.992l-11.421 50.329a2.505 2.505 0 0 1-2.991 1.885l-31.421-7.126a123.615 123.615 0 0 1-23.822 33.68l17.182 27.258c.354.561.47 1.239.323 1.886a2.51 2.51 0 0 1-1.105 1.563l-43.66 27.52a2.508 2.508 0 0 1-1.886.323 2.51 2.51 0 0 1-1.563-1.105l-17.18-27.258c-13.075 4.58-26.734 6.919-40.661 6.965l-7.125 31.422a2.505 2.505 0 0 1-2.437 1.948zm-47.333-15.797 45.446 10.305 7.016-30.94a2.5 2.5 0 0 1 2.438-1.947h.032c14.646.183 29.094-2.28 42.803-7.332a2.502 2.502 0 0 1 2.979 1.013l16.918 26.841 39.43-24.854-16.919-26.841a2.5 2.5 0 0 1 .372-3.125 118.733 118.733 0 0 0 25.076-35.452 2.498 2.498 0 0 1 2.822-1.391l30.941 7.017 10.314-45.453-30.941-7.015a2.501 2.501 0 0 1-1.947-2.471c.188-14.693-2.279-29.094-7.331-42.803a2.5 2.5 0 0 1 1.013-2.979l26.83-16.913-24.854-39.429-26.83 16.912a2.5 2.5 0 0 1-3.125-.372c-10.189-10.47-22.118-18.907-35.455-25.075a2.503 2.503 0 0 1-1.389-2.822L215.16 15.8 169.699 5.492l-7.011 30.95c-.262 1.15-1.258 1.938-2.472 1.947-14.711-.21-29.066 2.271-42.802 7.332a2.497 2.497 0 0 1-2.979-1.013L97.517 17.867 58.088 42.721l16.918 26.841a2.5 2.5 0 0 1-.371 3.124c-10.467 10.188-18.9 22.115-25.068 35.449a2.504 2.504 0 0 1-2.821 1.389l-30.956-7.02-10.301 45.455 30.942 7.016a2.501 2.501 0 0 1 1.947 2.463c-.143 14.604 2.393 29.407 7.331 42.811a2.5 2.5 0 0 1-1.013 2.979l-26.84 16.919 24.854 39.429 26.84-16.918a2.499 2.499 0 0 1 3.125.372c10.19 10.472 22.119 18.909 35.455 25.075a2.502 2.502 0 0 1 1.389 2.822l-7.017 30.941zm56.422-85.484c-19.13 0-37.858-9.51-48.792-26.854-16.926-26.853-8.85-62.469 18.003-79.395 26.853-16.922 62.468-8.85 79.395 18.003 16.926 26.853 8.85 62.469-18.003 79.395a57.233 57.233 0 0 1-30.603 8.852zm-.178-110.102a52.243 52.243 0 0 0-27.945 8.083c-24.52 15.455-31.895 47.978-16.438 72.498 15.454 24.519 47.976 31.895 72.498 16.438 24.52-15.455 31.895-47.978 16.438-72.498-9.982-15.837-27.086-24.521-44.553-24.521z"/></svg></g><g transform="translate(1910.25 2241.0) rotate(-12.621753631549623 214.125 214.125) scale(1.3481225445754004 1.3481225445754004)"><svg width="317.664" height="317.664" viewBox="0 0 317.664 317.664"><path d="m303.744 218.152 11.42-50.328-33.38-7.569c.187-14.666-2.246-29.482-7.486-43.699l28.946-18.245-27.519-43.659-28.946 18.246c-10.567-10.86-22.885-19.445-36.197-25.602l7.569-33.38L167.814 2.5l-7.563 33.389a121.578 121.578 0 0 0-43.699 7.486L98.301 14.419l-43.659 27.52 18.251 28.956C62.043 81.456 53.457 93.774 47.3 107.086l-33.395-7.572L2.5 149.844l33.379 7.569c-.141 14.386 2.246 29.481 7.486 43.699L14.41 219.363l27.519 43.659 28.956-18.251a121.813 121.813 0 0 0 36.197 25.602l-7.569 33.379 50.323 11.411 7.569-33.38a121.792 121.792 0 0 0 43.699-7.486l18.251 28.956 43.659-27.52-18.251-28.956a121.56 121.56 0 0 0 25.602-36.197l33.379 7.569zm-115.549-12.735c-25.727 16.217-59.73 8.507-75.946-17.221-16.216-25.727-8.506-59.73 17.221-75.946 25.727-16.217 59.73-8.507 75.946 17.221 16.217 25.727 8.507 59.73-17.221 75.946z" fill="#92ACEF"/><path d="M149.837 317.665c-.183 0-.368-.021-.555-.063l-50.322-11.41a2.495 2.495 0 0 1-1.886-2.991l7.126-31.423c-12.543-6.046-23.857-14.048-33.681-23.82l-27.257 17.181a2.503 2.503 0 0 1-3.448-.782l-27.52-43.659a2.5 2.5 0 0 1 .782-3.448l27.258-17.182c-4.479-12.831-6.869-26.803-6.958-40.658l-31.43-7.126a2.502 2.502 0 0 1-1.886-2.991l11.405-50.332a2.505 2.505 0 0 1 1.105-1.563 2.51 2.51 0 0 1 1.886-.323l31.438 7.129c6.045-12.541 14.044-23.853 23.811-33.674L52.524 43.272a2.5 2.5 0 0 1 .782-3.448l43.661-27.52a2.506 2.506 0 0 1 3.449.782l17.18 27.258a123.647 123.647 0 0 1 40.661-6.966l7.119-31.431a2.505 2.505 0 0 1 1.105-1.563 2.507 2.507 0 0 1 1.886-.323l50.338 11.414a2.495 2.495 0 0 1 1.886 2.991l-7.126 31.424c12.543 6.046 23.857 14.048 33.681 23.819l27.247-17.175a2.501 2.501 0 0 1 3.449.782l27.52 43.659a2.5 2.5 0 0 1-.782 3.448l-27.247 17.175c4.579 13.076 6.918 26.735 6.964 40.661l31.423 7.124a2.499 2.499 0 0 1 1.886 2.992l-11.421 50.329a2.505 2.505 0 0 1-2.991 1.885l-31.421-7.126a123.615 123.615 0 0 1-23.822 33.68l17.182 27.258c.354.561.47 1.239.323 1.886a2.51 2.51 0 0 1-1.105 1.563l-43.66 27.52a2.508 2.508 0 0 1-1.886.323 2.51 2.51 0 0 1-1.563-1.105l-17.18-27.258c-13.075 4.58-26.734 6.919-40.661 6.965l-7.125 31.422a2.505 2.505 0 0 1-2.437 1.948zm-47.333-15.797 45.446 10.305 7.016-30.94a2.5 2.5 0 0 1 2.438-1.947h.032c14.646.183 29.094-2.28 42.803-7.332a2.502 2.502 0 0 1 2.979 1.013l16.918 26.841 39.43-24.854-16.919-26.841a2.5 2.5 0 0 1 .372-3.125 118.733 118.733 0 0 0 25.076-35.452 2.498 2.498 0 0 1 2.822-1.391l30.941 7.017 10.314-45.453-30.941-7.015a2.501 2.501 0 0 1-1.947-2.471c.188-14.693-2.279-29.094-7.331-42.803a2.5 2.5 0 0 1 1.013-2.979l26.83-16.913-24.854-39.429-26.83 16.912a2.5 2.5 0 0 1-3.125-.372c-10.189-10.47-22.118-18.907-35.455-25.075a2.503 2.503 0 0 1-1.389-2.822L215.16 15.8 169.699 5.492l-7.011 30.95c-.262 1.15-1.258 1.938-2.472 1.947-14.711-.21-29.066 2.271-42.802 7.332a2.497 2.497 0 0 1-2.979-1.013L97.517 17.867 58.088 42.721l16.918 26.841a2.5 2.5 0 0 1-.371 3.124c-10.467 10.188-18.9 22.115-25.068 35.449a2.504 2.504 0 0 1-2.821 1.389l-30.956-7.02-10.301 45.455 30.942 7.016a2.501 2.501 0 0 1 1.947 2.463c-.143 14.604 2.393 29.407 7.331 42.811a2.5 2.5 0 0 1-1.013 2.979l-26.84 16.919 24.854 39.429 26.84-16.918a2.499 2.499 0 0 1 3.125.372c10.19 10.472 22.119 18.909 35.455 25.075a2.502 2.502 0 0 1 1.389 2.822l-7.017 30.941zm56.422-85.484c-19.13 0-37.858-9.51-48.792-26.854-16.926-26.853-8.85-62.469 18.003-79.395 26.853-16.922 62.468-8.85 79.395 18.003 16.926 26.853 8.85 62.469-18.003 79.395a57.233 57.233 0 0 1-30.603 8.852zm-.178-110.102a52.243 52.243 0 0 0-27.945 8.083c-24.52 15.455-31.895 47.978-16.438 72.498 15.454 24.519 47.976 31.895 72.498 16.438 24.52-15.455 31.895-47.978 16.438-72.498-9.982-15.837-27.086-24.521-44.553-24.521z"/></svg></g><g transform="translate(162.75 909.0) rotate(0.0 1167.0 956.625) scale(1.221166040910632 1.2200635651044922)"><svg width="1911.288" height="1568.156" viewBox="0 0 1911.288 1568.156"><g><g><g><path style="fill:#cad5f3" d="m860.33 1146.273-114.377 419.383h419.383l-114.377-419.383H860.33z"/><path d="M1165.336 1568.156H745.952a2.498 2.498 0 0 1-2.412-3.157l114.378-419.383a2.5 2.5 0 0 1 2.412-1.842h190.628a2.5 2.5 0 0 1 2.412 1.842l114.378 419.383a2.498 2.498 0 0 1-2.412 3.157zm-416.11-5h412.837l-113.014-414.383h-186.81l-113.013 414.383z"/></g><g><path style="fill:#cad5f3" d="M650.638 1527.53h610.012c10.523 0 19.063 8.54 19.063 19.063s-8.54 19.063-19.063 19.063H650.638c-10.523 0-19.063-8.54-19.063-19.063 0-10.522 8.54-19.063 19.063-19.063z"/><path d="M1260.65 1568.156H650.638c-11.89 0-21.562-9.673-21.562-21.562s9.673-21.563 21.562-21.563h610.013c11.89 0 21.562 9.673 21.562 21.563s-9.673 21.562-21.563 21.562zm-610.012-38.125c-9.133 0-16.562 7.43-16.562 16.563s7.43 16.562 16.562 16.562h610.013c9.133 0 16.562-7.43 16.562-16.562s-7.43-16.563-16.562-16.563H650.638z"/></g><g><path style="fill:#cad5f3" d="M40.626 2.5h1830.037c21.065 0 38.126 17.069 38.126 38.126v1181.899c0 21.065-17.061 38.126-38.126 38.126H40.626c-21.057 0-38.126-17.061-38.126-38.126V40.626C2.5 19.569 19.569 2.5 40.626 2.5z"/><path d="M1870.662 1263.15H40.626C18.225 1263.15 0 1244.926 0 1222.524V40.626C0 18.224 18.225 0 40.626 0h1830.036c22.401 0 40.626 18.225 40.626 40.626v1181.898c0 22.402-18.225 40.626-40.626 40.626zM40.626 5C20.981 5 5 20.982 5 40.626v1181.898c0 19.644 15.981 35.626 35.626 35.626h1830.036c19.645 0 35.626-15.982 35.626-35.626V40.626c0-19.644-15.981-35.626-35.626-35.626H40.626z"/></g><g><path style="fill:#92acef" d="M912.791 1189.489c0-23.657 19.177-42.854 42.853-42.854 23.676 0 42.853 19.197 42.853 42.854 0 23.676-19.177 42.872-42.853 42.872-23.676 0-42.853-19.197-42.853-42.872z"/><path d="M955.644 1234.861c-25.008 0-45.353-20.354-45.353-45.373 0-25.008 20.345-45.354 45.353-45.354s45.354 20.346 45.354 45.354c-.001 25.019-20.347 45.373-45.354 45.373zm0-85.726c-22.25 0-40.353 18.103-40.353 40.354 0 22.262 18.103 40.373 40.353 40.373 22.251 0 40.354-18.111 40.354-40.373-.001-22.251-18.103-40.354-40.354-40.354z"/></g><g><path style="fill:#fff" d="M105.243 49.299h1705.161c21.064 0 38.126 17.069 38.126 38.126v993.138c0 21.064-17.061 38.126-38.126 38.126H105.243c-21.057 0-38.126-17.062-38.126-38.126V87.425c0-21.057 17.069-38.126 38.126-38.126z"/><path d="M1810.404 1121.189H105.243c-22.401 0-40.626-18.225-40.626-40.625V87.425c0-22.401 18.225-40.625 40.626-40.625h1705.161c22.401 0 40.626 18.225 40.626 40.625v993.138c0 22.401-18.224 40.626-40.626 40.626zM105.243 51.8c-19.645 0-35.626 15.981-35.626 35.625v993.138c0 19.644 15.981 35.625 35.626 35.625h1705.161c19.645 0 35.626-15.981 35.626-35.625V87.425c0-19.644-15.981-35.625-35.626-35.625H105.243z"/></g><g><circle cx="957.824" cy="26.422" r="6.402"/><path d="M957.824 33.323c-3.806 0-6.902-3.096-6.902-6.902s3.097-6.902 6.902-6.902 6.901 3.096 6.901 6.902-3.095 6.902-6.901 6.902zm0-12.803c-3.255 0-5.902 2.647-5.902 5.902s2.647 5.902 5.902 5.902c3.254 0 5.901-2.647 5.901-5.902s-2.647-5.902-5.901-5.902z"/></g></g></g></svg></g><g transform="translate(518.25 140.25) rotate(0.0 826.5 456.375) scale(3.739819004524887 3.7257383105088064)"><svg width="442" height="244.985" viewBox="0 0 442 244.985"><path d="M441 196.608c0 25.377-19.955 46.092-45.032 47.321v.056H59.166v-.047c-.628.019-1.248.047-1.876.047-13.847 0-26.532-5-36.335-13.303C8.749 220.362 1 204.939 1 187.695c0-30.575 24.383-55.436 54.761-56.252a69.21 69.21 0 0 1-5.976-28.183c0-38.343 31.081-69.424 69.424-69.424 24.411 0 45.867 12.609 58.241 31.663 5.16-31.719 29.693-56.918 61.056-63.064a96.612 96.612 0 0 1 2.918-.516c.178-.028.375-.047.572-.075.732-.103 1.567-.216 2.533-.338.113-.009.216-.028.328-.038a80.64 80.64 0 0 1 3.049-.281c.047 0 .094 0 .131-.009A83.73 83.73 0 0 1 253.366 1c2.308 0 4.597.103 6.848.31 39.281 3.462 70.081 36.438 70.081 76.62 0 3.162-.216 6.276-.582 9.344a56.292 56.292 0 0 1 17.469-2.777c31.091 0 56.29 25.199 56.29 56.29 0 3.18-.272 6.286-.779 9.316 21.822 4.241 38.305 23.445 38.305 46.505z" fill="#CAD5F3"/><path d="M395.968 244.985H59.166a.972.972 0 0 1-.272-.038l-.182.006c-.474.016-.945.032-1.422.032a57.283 57.283 0 0 1-36.981-13.54A57.184 57.184 0 0 1 0 187.695c0-15.029 5.779-29.229 16.272-39.984 10.13-10.381 23.572-16.458 37.992-17.209-3.638-8.656-5.48-17.813-5.48-27.241 0-38.832 31.593-70.424 70.425-70.424 23.105 0 44.488 11.19 57.692 30.06 6.041-30.841 30.434-55.372 61.412-61.442.979-.189 1.964-.36 2.949-.521.117-.019.233-.033.353-.047l.241-.031c.736-.104 1.575-.217 2.548-.34l.159-.018a79.784 79.784 0 0 1 3.271-.306c.047-.002.052-.002.027.003.037-.006.075-.011.113-.014 4.411-.283 8.392-.228 12.332.134 19.321 1.702 37.227 10.531 50.415 24.858 13.268 14.414 20.574 33.15 20.574 52.757 0 2.579-.138 5.188-.419 7.935a57.262 57.262 0 0 1 16.307-2.368c31.59 0 57.29 25.7 57.29 57.29 0 2.828-.216 5.692-.642 8.528 22.175 4.77 38.168 24.504 38.168 47.293 0 25.728-20.038 46.885-45.674 48.304a.916.916 0 0 1-.358.073zm-336.499-2H395.65a.926.926 0 0 1 .269-.055C420.638 241.719 440 221.371 440 196.608c0-22.156-15.77-41.302-37.496-45.523a1 1 0 0 1-.796-1.146c.508-3.037.766-6.116.766-9.151 0-30.487-24.803-55.29-55.29-55.29a55.26 55.26 0 0 0-17.159 2.728c-.326.106-.681.039-.944-.178s-.398-.553-.358-.892c.387-3.236.574-6.253.574-9.226 0-39.638-29.736-72.149-69.169-75.624-3.826-.351-7.677-.405-11.968-.134-.104.016-.192.016-.252.016-.938.071-1.939.164-2.939.275l-.145.017a4.422 4.422 0 0 1-.212.024c-.918.117-1.747.229-2.476.332l-.558.073c-.959.157-1.925.324-2.882.509-30.973 6.069-55.189 31.083-60.259 62.243a1 1 0 0 1-1.826.384c-12.69-19.541-34.149-31.208-57.402-31.208-37.729 0-68.425 30.695-68.425 68.424a67.93 67.93 0 0 0 5.891 27.776 1.002 1.002 0 0 1-.886 1.406c-30.162.81-53.788 25.08-53.788 55.253a55.193 55.193 0 0 0 19.601 42.223 55.282 55.282 0 0 0 35.689 13.067c.454 0 .903-.015 1.354-.03l.492-.016a1.05 1.05 0 0 1 .332.046z" fill="#112c41"/><path d="M441 196.608c0 25.377-19.955 46.092-45.032 47.321v.056H59.166v-.047c-.628.019-1.248.047-1.876.047-13.847 0-26.532-5-36.335-13.303 33.521 8.612 357.465 4.579 376.89 2.045 21.302-2.779 44.432-57.674-2.819-72.617-1.064-.337-1.773-1.366-1.679-2.478 3.269-38.599-31.433-66.313-72.856-59.493-1.118.184-2.064-.827-1.83-1.936 7.529-35.686-21.52-88.868-61.888-94.649 1.107-.085 2.252-.16 3.443-.244 39.281 3.462 70.081 36.438 70.081 76.62 0 3.162-.216 6.276-.582 9.344a56.292 56.292 0 0 1 17.469-2.777c31.091 0 56.29 25.199 56.29 56.29 0 3.18-.272 6.286-.779 9.316C424.517 154.344 441 173.548 441 196.608z" fill="none"/><path d="M395.968 244.985H59.166a.972.972 0 0 1-.272-.038l-.05.002c-.517.018-1.033.036-1.554.036-31.59 0-57.29-25.7-57.29-57.29 0-15.03 5.779-29.231 16.273-39.986 10.131-10.382 23.573-16.458 37.994-17.207-3.64-8.655-5.483-17.813-5.483-27.242 0-38.832 31.593-70.424 70.425-70.424 23.102 0 44.485 11.19 57.692 30.059 3.349-17.096 12.426-32.687 25.741-44.12A77.902 77.902 0 0 1 253.367 0c42.97 0 77.929 34.959 77.929 77.929 0 2.563-.142 5.226-.421 7.936a57.24 57.24 0 0 1 16.309-2.369c31.59 0 57.29 25.7 57.29 57.29 0 2.809-.217 5.674-.646 8.532C426.005 154.079 442 173.812 442 196.607c0 25.73-20.032 46.886-45.667 48.3a.915.915 0 0 1-.365.077zm-336.498-2h336.172a.926.926 0 0 1 .277-.059C420.638 241.721 440 221.375 440 196.607c0-22.162-15.771-41.305-37.499-45.519a1 1 0 0 1-.796-1.146c.51-3.064.769-6.145.769-9.156 0-30.487-24.803-55.29-55.29-55.29-5.838 0-11.612.918-17.162 2.729a1 1 0 0 1-1.303-1.071c.384-3.158.578-6.262.578-9.226 0-41.868-34.062-75.93-75.929-75.93-37.421 0-68.933 26.772-74.929 63.658a1 1 0 0 1-1.826.384c-12.694-19.541-34.153-31.207-57.403-31.207-37.729 0-68.425 30.695-68.425 68.424a67.903 67.903 0 0 0 5.895 27.777 1.002 1.002 0 0 1-.887 1.406c-30.163.805-53.791 25.074-53.791 55.252 0 30.487 24.803 55.29 55.29 55.29.497 0 .991-.018 1.484-.035l.358-.012a.942.942 0 0 1 .337.047z" fill="#112c41"/></svg></g><g transform="translate(1617.75 897.75) rotate(-89.99999999999994 -268.125 188.25) scale(-2.9837583392220246 2.992584114266638)"><svg width="179.723" height="125.811" viewBox="0 0 179.723 125.811"><g data-name="Layer 2"><g data-name="arrow_shape_1 copy"><path fill="#92ACEF" stroke="#1a1a1a" stroke-miterlimit="10" stroke-width="3" d="M177.25 62.906 98.75 3.031v31.375H1.5v57h97.25v31.375l78.5-59.875z"/></g></g></svg></g><g transform="translate(692.25 1185.75) rotate(-50.85203409773974 578.25 551.625) scale(1.9103482565697647 1.9041906865960165)"><svg width="605.387" height="579.38" viewBox="0 0 605.387 579.38"><path d="M525.531 230.431a20.146 20.146 0 0 0-17.687-7.272l-39.538 4.144L290.231 9.882c-7.05-8.608-19.744-9.871-28.352-2.821L2.5 219.502l292.707 357.379 274.964-225.206 32.716-26.796z" fill="#ffaac3"/><path d="M295.207 579.38a2.502 2.502 0 0 1-1.934-.916L.565 221.086a2.5 2.5 0 0 1 .351-3.518L260.294 5.127c9.659-7.912 23.956-6.49 31.87 3.171l177.223 216.378 38.197-4.003a22.573 22.573 0 0 1 19.881 8.174l77.355 94.448a2.503 2.503 0 0 1-.349 3.519L296.79 578.816a2.501 2.501 0 0 1-1.584.566zM6.019 219.852l289.538 353.51L599.37 324.528l-75.771-92.513a17.593 17.593 0 0 0-15.492-6.37l-39.538 4.144a2.482 2.482 0 0 1-2.194-.902L288.296 11.466c-6.165-7.528-17.306-8.636-24.834-2.471z"/></svg></g><g transform="translate(890.25 1236.75) rotate(-50.85203409773974 578.25 551.625) scale(1.9103482565697647 1.9041906865960165)"><svg width="605.387" height="579.38" viewBox="0 0 605.387 579.38"><path d="M525.531 230.431a20.146 20.146 0 0 0-17.687-7.272l-39.538 4.144L290.231 9.882c-7.05-8.608-19.744-9.871-28.352-2.821L2.5 219.502l292.707 357.379 274.964-225.206 32.716-26.796z" fill="#ffaac3"/><path d="M295.207 579.38a2.502 2.502 0 0 1-1.934-.916L.565 221.086a2.5 2.5 0 0 1 .351-3.518L260.294 5.127c9.659-7.912 23.956-6.49 31.87 3.171l177.223 216.378 38.197-4.003a22.573 22.573 0 0 1 19.881 8.174l77.355 94.448a2.503 2.503 0 0 1-.349 3.519L296.79 578.816a2.501 2.501 0 0 1-1.584.566zM6.019 219.852l289.538 353.51L599.37 324.528l-75.771-92.513a17.593 17.593 0 0 0-15.492-6.37l-39.538 4.144a2.482 2.482 0 0 1-2.194-.902L288.296 11.466c-6.165-7.528-17.306-8.636-24.834-2.471z"/></svg></g></svg>