<svg xmlns="http://www.w3.org/2000/svg" viewBox="0 0 1500 1500" width="1500" height="1500"><g transform="translate(490.0 870.0) rotate(0.0 483.5 204.5) scale(0.7626531812969363 0.7629116738543267)"><svg width="1267.942" height="536.104" viewBox="0 0 1267.942 536.104"><path d="M1253.256 260.068 386.708 3.994a97.414 97.414 0 0 0-76.621 9.235L10.18 187.832c-15.109 8.797-12.961 31.26 3.541 37.034l873.937 305.771a97.416 97.416 0 0 0 92.256-15.271l280.171-219.533c13.103-10.267 9.135-31.047-6.829-35.765z" fill="#00ACDC"/><path d="M916.824 508.104h-.003a72.209 72.209 0 0 1-23.908-4.064L63.988 214.017c-6.508-2.277-10.959-7.955-11.615-14.819-.657-6.864 2.637-13.283 8.596-16.753L319.665 31.833a72.5 72.5 0 0 1 36.439-9.834c6.949 0 13.853.999 20.52 2.97l825.661 243.991a17.394 17.394 0 0 1 12.203 13.472 17.4 17.4 0 0 1-6.383 17.02L961.494 492.688c-12.688 9.941-28.552 15.416-44.67 15.416zM356.104 29.999a64.495 64.495 0 0 0-32.414 8.748L64.994 189.359c-3.277 1.908-5.019 5.302-4.658 9.077s2.714 6.777 6.295 8.03l828.925 290.022a64.255 64.255 0 0 0 21.266 3.615h.003c14.338 0 28.45-4.87 39.736-13.713l246.611-193.236c2.843-2.228 4.135-5.675 3.458-9.223-.678-3.547-3.149-6.276-6.612-7.3L374.356 32.641a64.347 64.347 0 0 0-18.252-2.642z" fill="#04294F"/></svg></g><g transform="translate(112.0 163.0) rotate(0.0 339.5 615.5) scale(1.5183363148479427 1.5193779313749691)"><svg width="447.2" height="810.2" viewBox="0 0 447.2 810.2"><path d="M6.6 436.1s.4-6.8 1.8-4.9c1.3 2 24.6 29.2 53.2 36.6s56.9 13.3 78.1 9.8 27.4-8.1 27.4-8.1.4.1 0 3.9-27.3 51.3-35.2 54.1c-8 2.8-21.7 2.9-26.6-2.7s-21.4-18.7-21.4-18.7-18.4-4.3-19.9-3.2 4.5 5.7 4.5 5.7-8.9 10-14.3 10.7c-5.4.6-42.2-15.9-44.7-25.4s-.4-41.3-.4-41.3z" fill="#00acdc"/><path d="M323.6 316.1c1.4-1.4 3.4-2.2 5.3-2.4s4-.1 6 .2c6.2.7 12.3 1.6 18.1 3.8s11.2 5.7 14.9 10.7c.5.8 1.1 1.6 1.3 2.4.6 1.8.1 3.8-.3 5.7-.2.9-.5 1.9-1 2.6-.8 1-2.1 1.4-3.3 1.4s-2.4-.4-3.6-.8c-8.3-3-15.7-8.2-24-11.3-2.9-1.1-5.9-1.9-8.8-3-2-.8-6-2.1-6.3-4.7-.1-1.7.5-3.4 1.7-4.6zm-80.1 31.1c.1-1.1.2-2.4-.5-3.2-1.1-1.3-3.2-.8-4.6.3-1.9 1.4-3 3.6-3.8 5.8-2.1 6.2-1.5 13 .1 19.3 1.3 5.3 3.2 10.4 6.6 14.7 2.1 2.7 4.8 5.1 8 6.4 2.2.9 4.7 1.4 7.1 1.6 4.5.5 9 .5 13.4-.4 2.1-.4 4.5-1.4 5.1-3.4.5-1.8-.5-3.8-1.9-5.1-2.8-2.8-6.8-4-10.3-5.7-2.8-1.3-5.4-3-7.7-4.9-.7-.5-1.3-1.1-1.8-1.8-.4-.5-.7-1.1-1.1-1.6-.6-.7-1.5-1.2-2.2-1.8-2.7-1.9-4.7-4.8-5.8-8-1.1-3.1-1.4-6.5-1.2-9.9m-91.6-51.6c4.1-6.7 9.7-12.6 16.3-16.9 5.9-3.8 13.2-6.5 19.9-4.5 7.9 2.4 12.6 10.7 14.8 18.7 5 18.2 1.2 37.6-3 56.1-1.3 5.9-2.7 11.8-4.1 17.7-1.6 6.8-3.6 14.2-9.1 18.4-1.5 1.2-4.3 1.7-4.9-.1-1.3 2.4-4.1 3.7-6.8 3.7s-5.3-.9-7.6-2.3c-6.8-4-11.4-10.7-15.2-17.6-5.6-10.1-10-21.2-9.9-32.7 0-7.1 1.8-14.2 3.9-21 3.2-10.6 7.3-21 12.2-30.9M44.2 218.8c13.3-2.1 16.8 6.6 11.2 20.8s-32.1 108-32.1 108l-12.6 35.7s-3.8-1.9-4.6-27.7c-.9-25.8 12.8-132.8 38.1-136.8z" fill="#f04e23"/><path d="m426.1 215.3-.3-.6c-2.4-1.3-4.9-1.3-7.4-.5-1 .3-4.5 2.2-5.2 2.9-1.1.9-2.6 1.3-3.6 2.3-8.2 8-12.5 13.3-18.4 23.1-.8 1.4-1.8 5.1-2.6 6.5l-.3.8c-11.5 17.5-45 8.8-38.4-28.2 5-28.4 6.7-41.5 6.6-50.6 0-5.5-4.5-10-10-10-1.1 0-2.1.2-3.1.5-3.3 1.1-6.5 3.6-8.9 8.3-.3.6-.4 1.2-.5 1.9-.9-.1-1.5-.2-1.5-.2-5.9-.3-13.6 1.4-16.4 11.1-.7 2.2-.9 4.6-.8 6.9l.1-.1-.1.1c0 .3.1.7.2 1h-.7c-5.5.6-11.3 3.5-14.5 11.6-1 2.5-1.6 5.3-1.6 8-4.2 27.7 6.4 63.5 17.8 69.7 4.6 2.5 12.1 18 6.9 29.6.3.1 15.1-1.9 27.4 2.2 12.7 4.4 23.7 14.7 23.8 14.8 5.4-15.6 18-21.8 23.2-35 .1-.2.2-.5.3-.7.4-1.1.8-2.3 1-3.5 0-.2.1-.3.1-.5.6-2.5 1.1-5.2 1.8-7.6s1.6-5.2 2.5-7.8c.9-2.8 2-5.5 3.3-8.1 1.1-2.8 2.4-5.4 3.9-8 2.5-5 5.5-9.8 8.8-14.4 1.6-2.3 3.3-4.4 5.1-6.5l3.8-4.3c3.5-3.9 3.1-9.9-.8-13.3l-.2-.2c-.3-.5-.7-.9-1.3-1.2z" fill="#ffb400"/><path d="M163.8 755.4c.1 1.4.2 2.9.3 4.2-.1-1.3-.2-2.8-.3-4.2zm131.3-518.6 75.8-83.9-75.8 83.9 23.8 13zm19.5-152.6c9.3 3.1 16.6 10.5 19.5 19.9-2.8-9.5-10.1-16.9-19.5-19.9z" fill="none"/><path d="M173 761.1c.5.6.9 1.3 1.3 2 .4.6.6 1.3.8 2 .1.3.2.6.3 1 .1.3.1.6.1.9.1.5.1 1.1.1 1.6 0 .4 0 .8-.1 1.2 0 .4 0 .7-.1 1.1-.1.7-.7 1.1-1.4 1-.3-.1-.6-.3-.8-.6l-.1-.2c-.2-.3-.3-.5-.4-.8s-.3-.6-.4-.9-.4-.7-.6-1.1l-.3-.6-.4-.6c-.3-.4-.6-.9-.9-1.3-.2-.2-.3-.4-.5-.6l-.6-.6-.6-.6-.6-.6c-.4-.4-.9-.7-1.3-1.1s-.9-.7-1.4-1c-.2-.2-1.1-.5-1.3-.6.1.8-.4 1.5-.3 2.3 1 13.2-7.7 17.7-20.9 18.7-.6 0-1.2.1-1.8.1-12.4 0-22.9-2.2-23.9-14.8-.8.6-1.3 1.5-1.4 2.5-.3 6.7-1.1 16.2 0 26.5-.1-1-.2-1.9-.3-3 4.3 7.3 15.3 11.5 34.7 6.3 21.1-5.7 48.4-11.1 55.9-18.9v1.3c.1-7.5-1.9-13.5-15-18.5-1.7-.6-3.4-1.1-5.1-1.5.4.6.7 1.2 1 1.8.3.7.6 1.4.7 2.1.1.3.2.7.2 1s.1.6.1.9c.1.5.1 1.1.1 1.6s-.1.9-.1 1.2-.1.7-.2 1c-.2.6-.8 1-1.4.9-.3-.1-.6-.3-.8-.6l-.1-.2c-.2-.3-.3-.6-.4-.9s-.2-.7-.4-1l-.6-1.2-.3-.6-.4-.6c-.2-.5-.5-.9-.9-1.3-.2-.2-.4-.5-.5-.7-.2-.3-.4-.4-.5-.6s-.4-.4-.5-.6l-.6-.6c-.4-.4-.9-.8-1.3-1.2s-.9-.7-1.4-1-.8-.6-1.2-.8l-2.2-.2-1.4-.1.2.2c-.3.3 0 .6.2.9zm32.5 22.2c0 .4 0 .8-.1 1.2 0-.4 0-.8.1-1.2zm-.2 2.4c0-.3 0-.5.1-.8 0 .2-.1.5-.1.8z" fill="#10294c"/><path d="M149.7 799.4c-19.5 5.3-30.4.8-34.5-6.6.1 1 0 2.2.1 3.3 0 .4.1.8.2 1.2l.1.3c.1.3.1.7.2 1v.2c.2.8.5 1.6.9 2.3 3.7 7.6 14.3 12.1 33.6 6.8 23.2-6.3 54.4-12.1 55.1-21.7v-.5c0-.3 0-.5.1-.8v-.2c0-.4 0-.8.1-1.2l.2-3c-7.7 7.4-35.1 13.2-56.1 18.9z" fill="#f04e23"/><path d="M137.8 745.7c-8.9 0-16.2-1-22.8-3 .4 8.2.9 16.5 1.5 24.4.9 12.6 11.5 14.8 23.9 14.8.6 0 1.2 0 1.8-.1 13.2-1 23.1-5.2 22.1-18.3-.1-.8-.1-1.7-.2-2.5v-.2l-.1-1.1-.3-4.2v-.1c-.3-5.2-.8-12-1.1-17.3-5.2 4.7-12.9 6.9-22.4 7.6-.7.2-1.6.1-2.4 0z" fill="#ffb400"/><path d="M163.8 755.4c.1 1.4.2 2.9.3 4.2 0 .4 0 .7.1 1.1v.1c.2.1.4.2.6.4.5.3.9.7 1.4 1s.9.7 1.3 1.1l.6.6.6.6.6.6c.2.2.3.4.5.6.3.4.6.9.9 1.3l.4.6.3.6c.2.4.5.8.6 1.1s.2.6.4.9c.1.3.2.5.4.8l.1.2c.3.5.9.8 1.4.5.1 0 .1-.1.2-.1.3-.2.5-.5.6-.8.1-.4.1-.7.1-1.1 0-.3.1-.8.1-1.2 0-.5-.1-1.1-.1-1.6-.1-.3-.1-.6-.1-.9-.1-.3-.2-.6-.3-1-.2-.7-.5-1.4-.8-2-.3-.7-.8-1.4-1.3-2-.3-.3-.5-.7-.8-1l-.2-.2-.7-.7c-.3-.3-.6-.6-.9-.8-.3-.3-.7-.5-1-.7-.6-.4-1.3-.8-2-1.1-.6-.3-1.3-.6-2-.8-.5-.2-1.1-.3-1.6-.4zm13.3 5.8c.5.3.9.7 1.4 1s.9.7 1.3 1.2l.6.6c.2.2.4.4.5.6s.4.4.5.6c.1.3.3.5.5.7.3.4.6.9.9 1.3l.4.6.3.6.6 1.2c.2.3.3.7.4 1 .2.5.4.9.4.9l.1.2c.2.3.5.5.8.6.6.2 1.2-.1 1.4-.7v-.2s.1-.4.2-1c0-.3.1-.8.1-1.2 0-.5 0-1.1-.1-1.6 0-.3-.1-.6-.1-.9s-.2-.6-.2-1c-.2-.7-.4-1.4-.7-2.1-.3-.6-.6-1.2-1-1.8-.1-.1-.1-.2-.2-.3-.2-.3-.5-.7-.7-1l-.8-.9c-.3-.3-.6-.6-.9-.8l-.7-.6-.2-.2-.1-.1c-.2-.2-.5-.5-.7-.5-1.8-1-4-1-5.8 0-.1.1-.2.2-.4.2-.4.2-.7.5-1 .9-.1.1-.2.2-.2.3-.2.4-.4.8-.4 1.2h.4l2.2.2c.4.3.8.7 1.2 1z" fill="#fff"/><path d="m105.6 748.5.1-.9zM73 724c.5.6.9 1.3 1.3 2 .4.6.6 1.3.8 2 .1.3.2.7.3 1s.1.6.1.9c.1.5.1 1.1.1 1.6 0 .4 0 .8-.1 1.2-.1.3-.1.7-.1 1-.1.6-.6 1.1-1.2 1h-.1c-.3-.1-.6-.3-.8-.6l-.1-.2c-.2-.3-.3-.5-.4-.8s-.3-.6-.4-.9-.4-.7-.6-1.1l-.3-.6-.4-.6c-.3-.4-.6-.9-.9-1.3-.2-.2-.4-.4-.5-.6l-.6-.6-.6-.6-.6-.6c-.4-.4-.9-.7-1.3-1.1s-.9-.7-1.4-1l-1.8-.4c.1.8-.1 1.7 0 2.5 1 13.2-7.5 17.3-20.7 18.3-.6 0-1.2.1-1.8.1-12.4 0-22.9-2.2-23.9-14.8-.8.6-1.2 1.5-1.3 2.5-.6 7.9-.6 17.6-.3 25.4 4.3 7.4 15.5 10.6 34.9 5.4 21.1-5.7 48.1-12 55.6-19.9v1.3c.1-7.5-1.9-13.5-15-18.5-1.7-.6-3.4-1.1-5.1-1.5.4.6.7 1.2 1 1.8.3.7.6 1.4.7 2.1.1.3.2.7.2 1l.1.9c.1.5.1 1.1.1 1.6s-.1.9-.1 1.2-.1.7-.2 1c-.2.6-.8 1-1.5.9-.3-.1-.6-.3-.8-.6l-.1-.2c-.2-.3-.3-.5-.4-.8s-.2-.7-.4-1l-.6-1.2-.3-.6c-.1-.2-.2-.4-.4-.6-.2-.5-.5-.9-.9-1.3-.2-.2-.4-.5-.5-.7-.2-.3-.4-.4-.5-.6s-.4-.4-.5-.6l-.6-.6c-.4-.4-.9-.8-1.3-1.2s-.9-.8-1.4-1.1c-.4-.3-.8-.6-1.2-.8l-2.4-.2-1.3-.1.2.2c-.2.4 0 .7.3 1zm32.7 22.1c0 .4 0 .8-.1 1.2.1-.4.2-.8.1-1.2z" fill="#10294c"/><path d="M64 722.6c0 .4.1.8.1 1.1.1-.4 0-.8-.1-1.1z" fill="#10294c"/><path d="M49.6 762.3c-19.5 5.3-30.1 1-34.2-6.4.1 1-.3 2-.2 3.1 0 .4.1.8.2 1.2 0 .1 0 .2.1.3.1.3.1.7.2 1v.1c2.5 9 13.2 15 34.5 9.2 23.2-6.3 54.7-12.2 55.5-21.8v-.5l.1-.9v-.2c0-.4 0-.8.1-1.2v-2.9c-7.7 7.7-35.3 13.3-56.3 19z" fill="#f04e23"/><path d="M39 702c-9.3 0-17.7-1.3-24.3.1.4 9.5 1 18.8 1.7 27.8.9 12.6 11.5 14.8 23.9 14.8.6 0 1.2 0 1.8-.1 13.2-1 23.1-5.2 22.1-18.3-.1-.8-.1-1.7-.2-2.5v-.1c0-.4-.1-.8-.1-1.1-.5-7.2-1.5-16.4-1.9-23.9-5.2 4.1-12.4 3.7-21.4 4.3-.6 0-.7-1-1.6-1z" fill="#ffb400"/><path d="M162.3 473.7c-6.3 3-13.1 5.1-20 6.2-4.6.8-9.2 1.4-13.8 1.7-5.2.4-10.3.5-15.5.3-5.5-.2-11-.6-16.5-1.4-5.7-.8-11.3-1.9-16.8-3.4-1.4-.3-2.8-.8-4.1-1.2l-4.1-1.3c-2.8-.8-5.3-1.9-8-2.9-5.2-2-10.3-4.3-15.2-6.6-2.4-1.1-4.8-2.4-7-3.6s-4.5-2.5-6.5-3.8c-2.1-1.2-4.1-2.5-6-3.9l-2.9-2-2.6-2c-1.7-1.2-3.3-2.6-4.8-4-.8-.6-1.4-1.3-2.1-1.9l-1.9-1.9c-1.2-1.2-2.3-2.5-3.4-3.7-.9-1.1-1.8-2.2-2.6-3.4-1-1.4-1.9-2.9-2.8-4.4C3.5 474.9-.9 586 6.8 687.4c.5 7.1 3.5 11.7 7.8 14.6 5.8 3.9 14.2 4.8 23.4 4.8.8 0 1.6 0 2.4-.1 9.1-.7 16.9-2.5 22.1-6.5 4.8-3.7 7.4-9.3 6.7-17.5-4.2-55-4.7-114.2-3.9-162.9.2-5.3 3.2-7.9 7.4-8.7l-1.6-.3c-1.3-.2-2.9-.6-4.5-1s-3.4-.8-5-1.3-3.4-1.1-4.9-1.6c-1.4-.5-2.8-1-4.2-1.7-1.1-.6-2.2-1-3-1.4-.7-.4-1.1-.6-1.1-.6-.7-.4-1-1.4-.6-2.1 0 0 0-.1.1-.1.3-.4.8-.7 1.3-.8 1.5 0 3 .1 4.5.4 1.3.2 2.9.5 4.5.8s3.4.9 5.1 1.4c.8.3 1.7.6 2.5.8l2.4.9c1.5.7 3 1.3 4.2 2s2.2 1.2 2.9 1.6c.6.4 1 .7 1 .7.6.5.7 1.4.3 2l-.1.2c11.1 1 26.1 11.4 25.8 22.9-1.4 53.6-1.5 125.5 3.6 193 .6 7.5 3.8 12.4 8.6 15.5 5.7 3.7 13.9 4.8 22.7 4.8.8 0 1.6 0 2.4-.1 9.5-.7 17.6-3 22.8-7.6 4.3-3.9 6.6-9.5 6.1-17.3-7.5-99-3-211.5-.8-252.4l-.7.6c-1.4 1.3-2.9 2.4-4.7 3.3z" fill="#00acdc"/><path d="M323.3 309.2s-1.6 4-1.9 4.6c-4.4 10.6-9.9 20.6-16.5 30-6.4 9.2-24.9 38.2-47.5 28.4-2.8-1.2-5.2-3.2-6.9-5.8l1.5 3c.7 1.2 1.5 2.5 2.3 3.7.8 1.1 1.6 2.3 2.5 3.4.9 1 1.7 2 2.6 3l1.3 1.3 1.2 1.2c.8.7 1.6 1.4 2.3 2s1.3 1.1 1.8 1.5c1.1.8 1.6 1.2 1.6 1.2h.1c.5.4.7 1.1.3 1.7 0 .1-.1.1-.1.1-.3.4-.9.6-1.4.4-1.5-.4-3-1-4.4-1.7-.9-.4-1.9-1-3-1.6l-1.6-1c-.5-.4-1.1-.8-1.6-1.2-1.2-.9-2.4-2-3.4-3.1-1.1-1.2-2.2-2.4-3.2-3.7-.5-.6-1-1.3-1.4-2s-.9-1.4-1.3-2.1c-.8-1.4-1.5-2.9-2.2-4.4-.6-1.5-1.2-3-1.6-4.5-.5-1.4-.8-2.8-1.1-4.3-.3-1.3-.5-2.6-.6-3.9-.2-2-.3-3.9-.3-5.9 0-.7.1-1.3.1-1.7l.1-.6c.1-.9.8-1.5 1.7-1.4.7.1 1.2.6 1.4 1.3v.1s.1.7.4 2c.1.5.2 1.1.4 1.8-2.3-15.9 1.1-34.6 2.5-37 8.1-42.3-15.1-73.5-56.6-105.4-9-6.8-18.7-13.8-29.2-20.8-7.8-5.2-15.8-10-24-14.4-37.2-19-78.4-23.5-113.8 31.7C-12.7 262.3 2.7 351.3 8 376.8l.3-.7c.1-2.2-.7-5.4-.6-8.6s.3-6.7.6-10.5c.3-3.9.6-8.1 1.1-12.6.2-2.2.5-4.6.8-6.9s.6-4.8.9-7.2c.7-4.9 1.4-9.9 2.4-15s2-10.2 3.2-15.4c.6-2.5 1.2-5.1 1.8-7.6s1.3-5.1 2-7.5c1.4-5 3-9.9 4.5-14.6.8-2.3 1.6-4.6 2.4-6.8s1.6-4.4 2.5-6.5c1.6-4.2 3.5-8.1 5.2-11.7.9-1.7 1.7-3.5 2.5-5.1l2.4-4.5c.8-1.4 1.5-2.6 2.2-3.9l2-3.3c1.2-1.9 2.3-3.5 3-4.5l1.1-1.5c.4-.6 1.2-.7 1.8-.3.5.4.7 1.1.4 1.7L47 230l-1.7 3.4c-.6 1.2-1.3 2.5-1.9 4l-2.1 4.6-2.2 5.1c-1.5 3.6-3.1 7.4-4.6 11.6-.8 2-1.5 4.3-2.2 6.4s-1.4 4.5-2.2 6.8c-1.4 4.6-2.9 9.5-4.2 14.4-.7 2.4-1.2 5-1.9 7.4s-1.1 5-1.7 7.5c-1.1 5.1-2.2 10.1-3.2 15.2-.9 5.1-1.8 10-2.6 14.8s-1.5 9.4-2.1 13.9-1.1 8.7-1.6 12.4c-.9 7.7-1.6 14.2-2 18.7-.2 2.2-.3 4.1-.4 5.3s-.1 1.8-.1 1.8c-.1.9-.8 1.5-1.7 1.5h-.1c-.6 4.2-2.2 16.4-4.7 31.9-.4 3.1 0 6.3 1.2 9.2.7-.3 1.6-.1 2 .6l1 1.7c.9 1.6 2 3 3.2 4.4l2.6 3c1 1 2.1 2.1 3.4 3.3 2.9 2.4 5.8 4.8 8.9 6.9l2.6 1.8 2.8 1.7c1.8 1.2 3.9 2.3 5.9 3.6 4.2 2.3 8.6 4.7 13.3 6.8 4.8 2.1 9.7 4.3 14.8 6.2 2.5.9 5.1 1.9 7.7 2.8l3.9 1.2c1.3.4 2.8.8 4.1 1.2 5.3 1.4 10.7 2.6 16.1 3.4s10.7 1.4 15.9 1.7 10.2.3 15 .2c4.4-.1 8.9-.4 13.3-1 3.7-.5 7.4-1.1 11.1-2 2.8-.7 5.5-1.5 8.1-2.6 1.6-.7 3.4-1.2 5-2.1 1-.7 1.7-.8 1.7-.8l.1-.3c.5-.4.9-.7 1.3-.2 1.8-1.6 3.1-3.7 3.8-6.1 3.2-14.6 4.1-50.5 7.5-72.6-.4-.1-.8-.3-1.1-.7l-.7-1c-.4-.6-1-1.6-1.7-2.9-.8-1.5-1.6-3-2.3-4.6-.8-1.8-1.7-3.9-2.5-6.1s-1.6-4.8-2.4-7.5c-.8-2.9-1.4-5.8-1.9-8.7-.6-3.1-1-6.2-1.2-9.4-.1-1.6-.2-3.3-.3-4.9l-.1-2.4v-2.4c0-3.3.3-6.5.6-9.7.3-3.1.8-6.2 1.5-9.3.6-3 1.3-5.9 2.1-8.6.2-.7.4-1.3.6-1.9l.6-1.9c.4-1.2.8-2.4 1.3-3.6.9-2.2 1.7-4.3 2.5-6.1s1.5-3.4 2.2-4.6c1.3-2.4 2.1-3.9 2.1-3.9.4-.6 1.1-.8 1.7-.5.5.3.8.9.6 1.5s-.5 1.5-1.5 4.1c-.5 1.2-1 2.9-1.6 4.7s-1.2 3.9-1.9 6.1c-.3 1.1-.6 2.3-.9 3.6l-.5 1.8c-.1.6-.3 1.3-.4 1.9-.6 2.5-1.1 5.4-1.6 8.2-.2 1.4-.5 2.9-.6 4.4s-.4 3-.5 4.5c-.3 3.1-.4 6.1-.4 9.2v2.3l.1 2.3c0 1.5.1 3.1.2 4.6s.3 3.1.4 4.5.3 3 .5 4.4c.4 2.9.9 5.6 1.5 8.3.6 2.6 1.2 5.1 1.8 7.3 1 3.6 2.3 7.2 3.8 10.6.5 1.2.9 2.2 1.2 2.9.1.3.3.7.5 1v.1c.3.7.1 1.6-.6 2l1.2 2.1c11 18.6 28.3 32.6 48.7 39.6 10.6 3.6 21.9 5.1 33.1 4.4 11.1-.8 21.9-3.4 32.1-7.9 20.8-9.2 37.5-25.5 50.5-43.7 17.8-25 27.6-56.7 27.6-56.7s-11-10.4-23.8-14.8c-12.2-4-26.9-1.9-27.3-2.1zm31.7 11.4c.9.5 1.8 1.1 2.8 1.7.4.3.9.6 1.3.9l1.2 1c3.3 2.7 6 6.1 8 9.9.4.8.1 1.9-.7 2.3-.6.3-1.3.3-1.8-.1l-.1-.1c-3.3-2.2-6.1-4.6-9.4-6.3l-1.2-.7-1.2-.6-2.4-1.2c-1.7-.7-3.4-1.4-5.1-1.9-3.5-1.2-7-2.1-10.6-2.9-.9-.1-1.8-.3-2.8-.5-.9-.2-1.9-.3-2.8-.4-1.8-.3-3.8-.5-5.6-.7h-.2c-1.2-.2-2-1.2-1.8-2.4.1-.8.7-1.4 1.4-1.7 2-.7 4.2-1.1 6.3-1.3 1-.1 2.1-.2 3.2-.2h3.2c4.2.2 8.4 1.1 12.4 2.6l1.5.6 1.5.6c1 .5 1.9.9 2.9 1.4z" fill="#f04e23"/><path d="M233.2 106c3.3-11.8 6.9-23.9 16.7-26.9s16.9 5.4 14.4 12.8-8.3 13.7-12 19.7c-3.8 6 12.7 13.8 15.5 9.4 12.5-22 29.3-39.3 45.3-34 9.3 3.1 17 6.6 19.9 16h-1.1l1.1.5c-3.7 3.9-7.8 9.3-11.2 13.6 37.6-11.5 42.3-42.5 34-65.7l14.6-.6c-7.1-14.4-24.5-22.3-24.5-22.3l10.7-9.9c-5.6-4-47.1-24.5-99.1-16.9l.1.1c-4.8.8-9.6 2.1-14.1 3.9-46.3 18.2-80.2 97.3-78.7 106.5.3 2 .4 4.4 1.2 6.2-1.7 6.3 13.9 20 30.2 18.7 20.2-1.7 33.7-19.3 37-31.1z" fill="#10294c"/><path d="m191 208.8 5.8-7.7s7.4 5.6 26.5 13.4 35.6.9 46.3-22.7c0 0 1.5 6.8 8.6 8.1 7 1.3 12.9-7.2 8.8-14.6 0 0 8.7 2.3 12.6-3.1 4-5.4 3-12.2-3.3-13-3.8-.5-7.4-2.1-10.4-4.6 0 0 22.5-29.7 37.2-47.9l.2-.3c4.8-5.9 8.7-10.5 10.6-12.4v-.1C331 94.5 323.8 87 314.4 84c-16-5.3-34.3 14.9-46.9 36.9-2.8 4.4-17.8-2.8-14.2-8.8 3.7-6 10-12.9 12.5-20.4 2.5-7.4-6.5-15.8-16.2-12.7s-13.4 15.1-16.7 26.9-17.1 26.4-37.3 28c-16.3 1.3-25.7-7.6-29.5-16l-.3.1c-10.7 20.3-27.3 53.3-28.4 55.5 8.3 4.3 16.3 9.1 24 14.4 10.9 7.1 20.7 14 29.6 20.9z" fill="#ffb400"/><path d="M167.4 467.2s-.6.4-1.6 1.1c-1.6.9-3.2 1.7-4.9 2.4-2.6 1.1-5.3 2-8.1 2.6-3.7.9-7.4 1.5-11.1 2-4.1.5-8.6.9-13.3 1-4.8.1-9.8.1-15-.2s-10.5-.9-15.9-1.7-10.8-1.9-16.1-3.4c-1.3-.3-2.6-.8-4.1-1.2l-3.9-1.2c-2.6-.8-5.2-1.8-7.7-2.8-5.1-2-10.1-4-14.8-6.2s-9.2-4.5-13.3-6.8c-2-1.2-4.1-2.3-5.9-3.6l-2.9-1.7-2.6-1.8c-3.1-2.1-6-4.5-8.9-6.9-1.2-1.1-2.3-2.2-3.4-3.3l-2.6-3c-1.1-1.4-2.2-2.9-3.2-4.4l-1-1.7c-.4-.7-1.3-1-2-.6h-.2c-.8.4-1.1 1.3-.7 2v.1l.9 1.8c.1.2.2.5.3.7.8 1.5 1.7 3 2.8 4.4.8 1 1.6 2.1 2.6 3.4 1 1.2 2.1 2.3 3.4 3.7l1.9 1.9c.7.6 1.3 1.3 2.1 1.9 1.5 1.3 3.1 2.6 4.8 4l2.6 2 2.9 1.9c1.9 1.3 4 2.5 6 3.9 2 1.3 4.3 2.5 6.5 3.8 2.2 1.2 4.6 2.4 7 3.6 4.8 2.3 9.9 4.6 15.2 6.6 2.6.9 5.3 2 8 2.9l4.1 1.3c1.3.4 2.6.8 4.1 1.2 5.5 1.4 11.1 2.6 16.8 3.4 5.5.7 11 1.2 16.5 1.4 5.2.2 10.3.1 15.5-.3 4.6-.3 9.2-.9 13.8-1.7 6.9-1.2 13.6-3.3 20-6.2 1.8-.9 3.5-1.9 5.1-3.2l.7-.6c.6-.5.9-.8.9-.8.5-.4.6-1.2.2-1.7-.1 0-.1 0-.1-.1-.4-.2-1-.2-1.4.1zM10.6 383.4c.1-.6.1-1.2.1-1.8 0-1.2.2-3 .4-5.3.4-4.6 1.1-11 2-18.7.5-3.9 1-8 1.6-12.4s1.3-9.1 2.1-13.9 1.6-9.8 2.6-14.8 2-10.1 3.2-15.2c.6-2.5 1.1-5.1 1.7-7.5s1.2-5 1.9-7.4c1.3-4.9 2.6-9.8 4.2-14.4.7-2.3 1.4-4.6 2.2-6.8s1.4-4.4 2.2-6.4c1.5-4.2 3.1-8 4.6-11.6l2.2-5.1 2.1-4.6c.6-1.4 1.3-2.8 1.9-4l1.7-3.4 3.5-6.2c.3-.6.1-1.4-.5-1.7s-1.3-.1-1.7.4l-1.1 1.5c-.7 1-1.7 2.5-3 4.5l-2 3.3c-.7 1.2-1.5 2.4-2.2 3.9l-2.4 4.5c-.8 1.6-1.6 3.3-2.5 5.1-1.7 3.6-3.6 7.4-5.2 11.7-.9 2-1.7 4.3-2.5 6.5s-1.6 4.5-2.4 6.8c-1.6 4.7-3.2 9.6-4.5 14.6-.7 2.4-1.3 5-2 7.5s-1.2 5.1-1.8 7.6c-1.1 5.1-2.2 10.3-3.2 15.4-.9 5.1-1.7 10.1-2.4 15-.3 2.4-.7 4.9-.9 7.2-.3 2.3-.6 4.7-.8 6.9-.5 4.5-.8 8.8-1.1 12.6-.3 3.9-.5 7.5-.6 10.7s-.2 6-.2 8.3v7.3c0 .8.6 1.4 1.4 1.5h.1c.4.1 1.2-.5 1.3-1.6zm171.5 3c-.1-.4-.3-.8-.5-1.1-.5-.9-.9-1.9-1.2-2.9-1.4-3.5-2.6-7-3.7-10.6-.6-2.2-1.2-4.7-1.8-7.3s-1.1-5.4-1.5-8.2c-.2-1.4-.4-2.9-.5-4.4s-.3-3-.4-4.5-.2-3.1-.2-4.6l-.1-2.3v-2.3c0-3.1.2-6.2.4-9.2.1-1.5.3-3.1.5-4.5s.4-3 .6-4.4c.5-2.9 1-5.6 1.6-8.3.1-.6.3-1.3.4-1.9l.5-1.8.9-3.6c.7-2.2 1.2-4.3 1.9-6.1s1.1-3.4 1.6-4.7c1-2.5 1.5-4.1 1.5-4.1.2-.6 0-1.2-.6-1.5s-1.4-.1-1.7.5c0 0-.8 1.4-2.1 3.9-.7 1.2-1.4 2.8-2.2 4.6s-1.6 3.9-2.5 6.1c-.4 1.1-.8 2.3-1.3 3.6l-.6 1.9c-.2.6-.4 1.3-.6 1.9-.9 2.8-1.6 5.7-2.1 8.6-.6 3.1-1.1 6.1-1.5 9.3s-.6 6.5-.6 9.7v2.4l.1 2.4c0 1.6.2 3.3.3 4.9.2 3.2.6 6.3 1.2 9.4.5 3.1 1.2 5.9 1.9 8.7.6 2.5 1.4 5.1 2.4 7.5.9 2.3 1.7 4.4 2.5 6.1s1.6 3.4 2.3 4.6 1.3 2.2 1.7 2.9l.7 1c.3.4.7.6 1.1.7.3.1.6 0 .9-.1.1 0 .1 0 .1-.1.8-.5 1.1-1.5.6-2.2z" fill="#10294c"/><path d="M349.1 318c-4-1.4-8.2-2.3-12.4-2.6-1 0-2.1-.1-3.2 0-1 .1-2.1.1-3.2.2-2.1.2-4.3.6-6.3 1.3-1.1.4-1.7 1.7-1.3 2.8.3.7.9 1.3 1.7 1.4h.2c1.8.3 3.8.4 5.6.7.9.1 1.8.3 2.8.4.9.1 1.8.3 2.8.5 3.6.7 7.2 1.6 10.6 2.9 1.7.5 3.4 1.3 5.1 1.9l2.4 1.2 1.2.6 1.2.7c3.3 1.7 6.1 4 9.4 6.3l.1.1c.8.5 1.8.4 2.4-.4.4-.5.4-1.2.1-1.8-2-3.8-4.7-7.1-8-9.9l-1.2-1c-.4-.3-.9-.6-1.3-.9-1.8-1.2-3.7-2.3-5.7-3.1l-1.5-.6z" fill="#ffb400"/><path d="M244.3 347.3c-.1-.8-.9-1.4-1.7-1.3h-.2c-.7.1-1.2.7-1.3 1.4l-.1.6c0 .4-.1.9-.1 1.7-.1 2 0 3.9.3 5.9.1 1.3.4 2.6.6 3.9.3 1.4.7 2.9 1.1 4.3.5 1.5 1 3.1 1.6 4.5.6 1.5 1.4 3 2.2 4.4.4.7.9 1.4 1.3 2.1s.9 1.4 1.4 2c1 1.3 2 2.4 3.2 3.7 1 1.1 2.2 2.2 3.4 3.1.6.4 1.1.9 1.6 1.2l1.6 1c.9.6 1.9 1.2 3 1.6 1.4.7 2.9 1.3 4.4 1.7.7.2 1.4-.2 1.6-.8.2-.5 0-1-.4-1.4h-.1s-.6-.5-1.6-1.2c-.5-.4-1.1-.9-1.8-1.5s-1.5-1.2-2.3-2l-1.2-1.2-1.3-1.3c-.9-.9-1.7-1.9-2.6-3s-1.7-2.2-2.5-3.4-1.6-2.4-2.3-3.7c-.5-1-1-1.9-1.5-3-.1-.3-.3-.6-.5-.9-.6-1.3-1.2-2.6-1.7-3.9s-.9-2.5-1.3-3.8c-.4-1.2-.7-2.3-1-3.5-.4-1.3-.6-2.4-.9-3.5-.2-.7-.3-1.3-.4-1.8-.3-1.2-.5-1.9-.5-1.9z" fill="#10294c"/><path d="m64.1 723.8.6.4c.5.3.9.7 1.4 1s.9.7 1.3 1.1l.6.6.6.6.6.6c.2.2.3.4.5.6.3.4.6.9.9 1.3l.4.6.3.6c.2.4.5.8.6 1.1s.2.6.4.9.3.5.4.8l.1.2c.2.3.5.5.8.6.7.1 1.3-.3 1.4-1 .1-.3.1-.7.1-1s.1-.8.1-1.2c0-.5-.1-1.1-.1-1.6 0-.3-.1-.6-.1-.9-.1-.3-.2-.7-.3-1-.2-.7-.5-1.4-.8-2-.3-.7-.8-1.4-1.3-2-.2-.4-.5-.7-.8-1l-.2-.2-.7-.7c-.3-.3-.6-.6-.9-.8-.3-.3-.7-.5-1-.7-.6-.4-1.3-.8-2-1.1-.6-.3-1.3-.6-2-.8-.5-.2-1.1-.3-1.6-.4.1 1.4.2 2.9.3 4.3 0 .4 0 .7.1 1.1zm12.9.2c.5.3 1 .7 1.4 1.1.5.3.9.7 1.3 1.2l.6.6c.2.2.4.4.5.6s.4.4.5.6c.1.3.3.5.5.7.3.4.6.9.9 1.3.1.2.3.4.4.6l.3.6.6 1.2c.2.3.3.7.4 1s.2.5.4.8l.1.2c.3.6 1 .8 1.6.5.3-.2.5-.5.6-.8 0 0 .1-.4.2-1 0-.3.1-.8.1-1.2 0-.5 0-1.1-.1-1.6l-.1-.9c0-.3-.2-.6-.2-1-.2-.7-.4-1.4-.7-2.1-.3-.6-.6-1.2-1-1.8-.1-.1-.1-.2-.2-.3-.2-.3-.5-.7-.7-1l-.8-.9c-.3-.3-.6-.6-.9-.8l-.7-.6-.2-.2-.1-.1v.2c-.2-.2-.4-.3-.6-.3v-.2c-1.8-1-4-1.1-5.8-.1-.1.1-.3.1-.4.2-.4.2-.7.5-1 .9-.4.4-.6.9-.6 1.5h.3l2.3.2c.2.4.6.6 1.1.9z" fill="#fff"/><g fill="#10294c"><path d="M76.9 508.9s-.4-.3-1-.7c-.9-.6-1.9-1.1-2.9-1.6-1.2-.6-2.6-1.3-4.2-2l-2.4-.9c-.8-.3-1.6-.6-2.5-.8-1.7-.5-3.5-1-5.1-1.4-1.5-.4-3-.7-4.5-.8-1.5-.2-3-.4-4.5-.4-.5 0-1 .3-1.3.8-.5.7-.3 1.8.4 2.3h.1s.4.2 1.1.6c1 .5 2 1 3 1.4 1.2.5 2.6 1.1 4.2 1.7 1.5.6 3.3 1.1 4.9 1.6s3.5.9 5 1.3 3.2.7 4.5 1l1.6.3c.5.1 1.1.2 1.6.2.4 0 .8.1 1.2.3h.1c.4 0 .8-.2 1-.5l.1-.2c.4-.8.2-1.6-.4-2.2zM17 689.7l-.2-.1c-.1-.1-.3-.1-.4-.2h-.2l-.1-.1-.2-.3c-.5-.7-1.5-.8-2.2-.3-.5.4-.8 1.1-.6 1.8l.1.3c0 .1 0 .1.1.2l.1.3c.1.2.2.4.4.5.2.3.4.5.7.7l.3.3c.1.1.3.2.4.3.9.5 2.1.2 2.6-.7s.2-2.1-.7-2.6l-.1-.1zm11.4 1.5s-.9-.1-1.8-.1l-1.8-.1c-1.3 0-2.5 1-2.8 2.3-.2 1.5.8 2.8 2.2 3.1l1.8.3 1.8.2h.2c1.6.1 3-1.1 3.1-2.7v-.1c.1-1.5-1.1-2.8-2.6-2.9h-.1zm12.2-.2H37c-1.7.1-3 1.5-2.9 3.2v.1c.1 1.7 1.5 3 3.2 3l1.8-.1 1.8-.1c1.7-.1 3-1.5 3-3.2-.1-1.7-1.5-3-3.3-2.9.1 0 .1 0 0 0zm12.2-1.1-3.6.5-.3.1c-1.4.4-2.2 2-1.8 3.4s1.9 2.2 3.3 1.9l3.5-.9c1.3-.4 2.1-1.8 1.8-3.1s-1.6-2.1-2.9-1.9zm9.1-3.3-.4.5-.1.1-.1.1-.1.1-.1.1-.2.2-.2.2-.3.3c-.5.7-.4 1.7.3 2.2s1.7.4 2.2-.3l.2-.2.2-.3c.1-.2.2-.3.3-.5s.2-.3.2-.5c.1-.1.1-.3.1-.5l.1-.5c.1-.6-.3-1.2-.9-1.4-.4-.2-.9 0-1.2.4zm54.3 44.9-.2-.1c-.1-.1-.2-.1-.4-.2s0 0-.1 0l-.1-.1-.2-.3c-.5-.7-1.5-.8-2.2-.3-.5.4-.8 1.1-.6 1.8l.1.3c0 .1 0 .1.1.2l.2.3c.1.2.2.4.4.5.2.3.4.5.7.7l.3.3c.1.1.3.2.4.3.9.5 2 .1 2.5-.7v-.1c.4-1 0-2.1-.9-2.6zm11.4 1.5-1.8-.1-1.8-.1c-1.4 0-2.5 1-2.8 2.3-.2 1.5.7 2.8 2.2 3.1l1.8.3 1.8.2h.2c1.6.2 3-1 3.1-2.6.2-1.6-1-3-2.6-3.1h-.1zm12.2-.2h-3.6c-1.7.1-3 1.5-2.9 3.2v.1c0 1.7 1.3 3 3 3h.3l1.8-.1 1.8-.1c1.7-.1 3-1.5 3-3.2-.1-1.8-1.6-3.1-3.4-2.9zm12.2-1-3.6.4h-.3c-1.5.4-2.3 1.9-1.9 3.4s1.9 2.3 3.4 1.9l3.6-.9c1.3-.3 2-1.5 1.8-2.8-.4-1.3-1.6-2.1-3-2zm9.1-3.6-.4.5-.1.1-.1.1-.1.1-.1.1s-.2.1-.2.2l-.2.2c-.7.5-.8 1.5-.3 2.2s1.5.8 2.2.3l.3-.3.2-.2.2-.3.3-.5c.1-.2.2-.3.2-.5.1-.2.1-.3.1-.5l.1-.5c.1-.4-.1-.8-.4-1.1-.5-.4-1.2-.4-1.7.1zM52.8 517.3c.9 0 1.7-.7 1.7-1.6v-2c.1-.8-.5-1.5-1.3-1.6-.8-.1-1.6.5-1.7 1.3l-.3 2v.1c0 .9.7 1.7 1.6 1.8zm-.8 14.3c1.2 0 2.2-.9 2.2-2.1l.1-4c.1-1.1-.8-2-1.9-2.1s-2 .8-2.1 1.9l-.3 4v.1c-.1 1.1.7 2.1 1.8 2.2zm-.5 14.4c1.4 0 2.5-1.1 2.6-2.5v-4c0-1.4-1.2-2.4-2.5-2.4-1.2 0-2.3 1-2.4 2.2l-.2 4v.1c-.1 1.3.8 2.5 2.2 2.6zm-.3 14.2c1.6 0 2.9-1.2 2.9-2.8v-4c0-1.5-1.2-2.6-2.7-2.6h-.2c-1.4 0-2.5 1.1-2.6 2.5l-.1 4v.1c-.1 1.4 1 2.7 2.4 2.8zm-2.8 11.1c0 1.5 1.3 2.8 2.8 2.8s2.8-1.3 2.8-2.8v-4c0-1.6-1.3-2.9-2.9-2.9s-2.9 1.3-2.9 2.9zm0 13.9c-.1 1.5 1.1 2.9 2.6 3s2.9-1.1 3-2.6v-4.3c.1-1.6-1.1-3-2.8-3.1-1.6-.1-3 1.1-3.1 2.8v.4zm3 16.9c1.7 0 3.1-1.3 3.1-3v-.1l.1-4c0-1.8-1.5-3.2-3.3-3.2s-3.2 1.5-3.2 3.3l.1 4c0 1.7 1.3 3 3 3zm3.1 6.8c-.2-1.6-1.8-2.8-3.4-2.5H51c-1.4.2-2.5 1.4-2.5 2.8l.1 4c.1 1.7 1.5 2.9 3.2 2.8 1.6-.1 2.8-1.3 2.8-2.9zm-2.8 11.3c-1.6.1-2.8 1.4-2.8 3l.2 4c.2 1.5 1.6 2.7 3.1 2.5 1.4-.1 2.5-1.4 2.5-2.8l-.1-4v-.1c0-1.4-1.1-2.6-2.6-2.6h-.3zm.6 14.1c-1.4.1-2.5 1.4-2.4 2.8v.1l.3 4c.2 1.4 1.5 2.3 2.9 2.1h.1c1.2-.2 2-1.1 2.1-2.3l-.1-4v-.1c-.1-1.5-1.4-2.7-2.9-2.6zm3.3 20.5-.1-4v-.1c-.1-1.3-1.1-2.3-2.4-2.2s-2.3 1.1-2.2 2.4v.2l.3 4c.1 1.2 1.2 2.1 2.4 2 1.2-.2 2-1.2 2-2.3zm-1.5 15.8c.9 0 1.7-.8 1.7-1.7v-.1l-.1-4v-.1c-.1-1-1-1.7-2-1.6h-.1c-1 .1-1.7 1-1.7 2l.4 4c.2.8 1 1.4 1.8 1.5zm2.1 8c-.1-.8-.8-1.3-1.6-1.2-.7.1-1.2.8-1.2 1.5l.2 2c.1.7.6 1.1 1.3 1.1s1.2-.5 1.2-1.2v-.1zm96.9-190.1c.9 0 1.7-.7 1.7-1.6v-2c0-.9-.7-1.6-1.6-1.6-.8 0-1.5.6-1.6 1.4l-.2 2v.1c.1.9.8 1.6 1.7 1.7zm-.7 14.3c1.1 0 2-.8 2-1.8v-.2l.1-4c.1-1-.8-1.9-1.8-2-1 0-1.9.8-2 1.8l-.3 4v.1c0 1.1.9 2 2 2.1zm-.6 14.4c1.3 0 2.3-1 2.4-2.3l.1-4c.1-1.2-.9-2.2-2.1-2.3s-2.2.9-2.3 2.1l-.2 4v.1c-.2 1.2.7 2.2 1.8 2.4zm-.5 14.1c1.4 0 2.6-1.1 2.6-2.5l.1-4c.1-1.4-1-2.5-2.4-2.6s-2.5 1-2.6 2.4l-.2 4v.1c-.1 1.4 1 2.5 2.4 2.6zm-.4 14.2c1.6 0 2.8-1.2 2.9-2.8l.1-4c0-1.4-1.1-2.6-2.5-2.6h-.3c-1.4 0-2.5 1.1-2.6 2.5l-.2 4v.1c-.1 1.4 1 2.7 2.5 2.8zm-.6 14c1.7.1 3.1-1.2 3.2-2.9l.1-4c0-1.7-1.3-3.1-3-3.1-1.6-.1-3 1.2-3.1 2.8v.2l-.3 4c.1 1.6 1.5 2.9 3.1 3zm-.1 14.2c1.7 0 3-1.3 3.1-3v-4c0-1.7-1.3-3-3-3s-3 1.3-3 3l-.1 4c.1 1.5 1.4 2.9 3 3zm-3 10.9c-.1 1.7 1.1 3.1 2.8 3.2s3.1-1.1 3.2-2.8v-4.4c.1-1.7-1.2-3.1-2.8-3.2s-3 1.1-3.2 2.8zm0 14c-.1 1.6 1 3 2.6 3.2s3-1 3.2-2.6v-4.5c.1-1.7-1.2-3.1-2.8-3.2s-3 1.1-3.2 2.8v.3zm2.8 17.1c1.7 0 3.1-1.3 3.2-3l.2-4c-.1-1.8-1.6-3.1-3.4-3h-.1c-1.6.1-2.9 1.4-3 3v4c.1 1.6 1.5 3 3.1 3zm3.3 6.9c-.1-1.8-1.6-3.1-3.4-3-1.7.1-3 1.4-3 3.1l.1 4c.1 1.7 1.4 3 3.1 3s3-1.3 3.1-3zm0 13.9c0-1.7-1.4-3.1-3.2-3.1-1.7 0-3.1 1.4-3.1 3.1v.1l.1 4c0 1.7 1.4 3 3 3s3-1.4 3-3zm0 14c-.1-1.6-1.5-2.8-3.1-2.6h-.2c-1.4.2-2.5 1.4-2.6 2.8l.1 4c.1 1.5 1.4 2.7 2.9 2.6 1.5 0 2.8-1.2 2.8-2.7v-.1zm-2.9 11.5c-1.4 0-2.4 1.2-2.4 2.5v.1l.2 4c0 1.3 1.1 2.4 2.4 2.4h.2c1.4 0 2.4-1.2 2.4-2.5v-4.2c-.2-1.4-1.4-2.4-2.8-2.3zm2.9 16.4c-.1-1.3-1.2-2.3-2.5-2.2s-2.3 1.2-2.2 2.5v.1l.2 4c.1 1.3 1.2 2.2 2.5 2.1 1.2-.1 2.1-1 2.1-2.2zm.5 18-.1-4v-.1c-.2-1.1-1.2-1.9-2.3-1.8-1 .1-1.8 1-1.8 2.1l.3 4c.2 1.1 1.2 1.8 2.3 1.6.9-.1 1.6-.9 1.6-1.8zm-1.3 15.7c.9 0 1.6-.8 1.6-1.7l-.1-4v-.1c-.1-1-.9-1.7-1.9-1.6s-1.7.9-1.6 1.9l.3 4c.1.8.9 1.5 1.7 1.5zm-.6 10.5c0 .6.6 1.1 1.2 1.1h.1c.7 0 1.2-.6 1.2-1.3l-.1-2v-.1c0-.7-.7-1.3-1.4-1.3s-1.3.7-1.3 1.4v.2zM13.8 461.1h.2c1.1-.5 2.2-1 3.5-1.5.7-.9.5-2.2-.3-2.9-.5-.4-1-.8-1.4-1.2-.8-.8-2.1-.8-2.9 0-.3.3-.5.7-.5 1.1-.1.6-.2 1.3-.3 2.1-.2 1.1.5 2.2 1.6 2.4zm7.8 3.5c.9.5 1.8 1 3 1.6.3.1.6.2.9.2 1.1 0 2-.9 2-2 0-.8-.4-1.4-1.1-1.8-1-.5-1.9-1-2.8-1.5-1-.6-2.2-.2-2.8.7-.4 1-.1 2.2.8 2.8zm10.4 5.1.6.2v.6c-.1 1.1.8 2 1.9 2.1h.1c1.1 0 2-.8 2-1.9l.1-2c0-.8-.5-1.5-1.2-1.9l-1.8-.8c-1-.5-2.3-.1-2.8.9s-.1 2.2.9 2.8zm2.4 6.1c-1.1-.1-2 .8-2.1 1.9-.1.9-.1 1.9-.2 2.9-.1 1.1.8 2 1.9 2.1h.1c1.1 0 2-.8 2-1.9.1-1 .1-1.9.2-2.9 0-1.1-.8-2-1.9-2.1zm-2.9 16.9c.2 0 .5 0 .7-.1l1.9-.7c.7-.3 1.2-.9 1.3-1.7.1-.6.1-1.3.2-2 .1-1.1-.7-2.1-1.8-2.2h-.1c-1-.1-2 .6-2.1 1.7v.9l-.7.2c-1 .4-1.6 1.5-1.2 2.5.2.8 1 1.4 1.8 1.4zm-11.1 2.6c.4.5 1 .8 1.6.8.2 0 .5 0 .7-.1l1.9-.7c1-.4 1.6-1.5 1.2-2.5s-1.6-1.6-2.6-1.2l-.5.2-.4-.5c-.8-.8-2-.9-2.9-.2-.8.7-.9 1.9-.3 2.8zm87.9-6.7c-1.4-.1-2.1-.1-2.1-.1-1 0-1.8.7-2 1.7-.1.6-.2 1.3-.3 2.1-.1 1.1.7 2.1 1.8 2.2h.2c1 0 1.9-.8 2-1.8v-.1h.1c1.1.1 2.1-.7 2.2-1.8.2-1.1-.6-2-1.6-2.2h-.3zm7.2 4.8 3.1.5h.3c1.1.1 2.1-.7 2.2-1.8s-.7-2.1-1.8-2.2c-1.1-.2-2.1-.3-3.1-.5-1.1-.2-2.2.4-2.4 1.5s.4 2.2 1.5 2.4c.1 0 .1 0 .2.1zm10.4 1.9.3.1v.3c0 1.1.8 2 1.9 2.1h.1c1.1 0 2-.8 2-1.8v-.1l.1-2c0-1-.6-1.8-1.6-2l-2-.4c-1.1-.2-2.2.5-2.4 1.6-.1 1 .5 2 1.6 2.2zm2.1 7.1c-1.1-.1-2 .8-2.1 1.9 0 1.1-.1 2.3-.2 3.5-.1 1.1.8 2 1.9 2.1h.1c1.1 0 2-.8 2-1.8v-.1c0-1.2.1-2.3.1-3.5.1-1-.6-2-1.6-2.1h-.2zm-2.8 19c.2 0 .4 0 .6-.1l1.9-.6c.8-.2 1.3-.9 1.4-1.7.1-.6.1-1.3.2-2 .1-1.1-.8-2-1.9-2.1-1-.1-2 .6-2.1 1.6v.8l-.6.2c-1.1.3-1.7 1.4-1.4 2.4v.1c.3.8 1.1 1.4 1.9 1.4zm-11.4 3.4c.2 0 .4 0 .6-.1l1.9-.6c1-.3 1.6-1.5 1.3-2.5s-1.5-1.6-2.5-1.3l-.8.2-.6-.6c-.8-.8-2.1-.8-2.9-.1-.8.8-.8 2-.1 2.9l.1.1 1.4 1.4c.5.3 1 .5 1.6.6zm-6.7-11.3v-1.1c0-1.1-.9-2-2-2s-2 .9-2 2v2c0 .5.2 1 .6 1.4l1.5 1.4c.8.8 2.1.7 2.9-.1.7-.8.7-2.1-.1-2.9zm-1.9-7.4c1.1 0 2-.9 2-2s.1-2.2.1-3.3-.8-2-1.9-2.1-2 .8-2.1 1.9c0 1.1-.1 2.2-.1 3.4-.1 1.1.7 2 1.7 2.1z"/></g><path d="M335.5 172.2c1.8 1.2 3.4 2.9 4.5 4.8.9 2 1.4 4.1 1.6 6.2.2 4.1.1 8.2-.5 12.2-.5 4-1 7.8-1.6 11.7s-1.2 7.7-1.8 11.7c-.1.6-.6 1.1-1.3 1-.6-.1-1.1-.6-1-1.2.1-4 .2-7.9.6-11.9s.8-7.8 1.3-11.7c.5-3.8.8-7.7.8-11.5 0-1.8-.4-3.6-.9-5.3-.6-1.7-1.7-3.1-3-4.3-.4-.4-.5-1-.1-1.4l.1-.1c.1-.4.7-.5 1.3-.2zm-18 17.8c1.9 1.1 3.6 2.8 4.7 4.7 1 2 1.6 4.1 1.8 6.3.3 4.1.2 8.2-.4 12.3-.5 4-1 7.9-1.6 11.9s-1.2 7.8-1.8 11.8c-.1.6-.6 1.1-1.3 1-.6-.1-1.1-.6-1-1.2.1-4.1.3-8 .7-12s.9-7.9 1.3-11.9c.5-3.8.8-7.7.8-11.6-.1-1.8-.4-3.5-1-5.2-.7-1.7-1.8-3.1-3.3-4.1h-.1c-.4-.4-.5-1.1-.1-1.6.3-.5.9-.6 1.3-.4zm59.6 70.8c-3.1.1-6.1.8-8.9 2.1-2.7 1.3-5.1 3.2-7 5.5-1.9 2.4-3.4 5-4.4 7.9-1 3-1.6 6.1-1.8 9.2 0 .7-.5 1.2-1.2 1.2s-1.2-.5-1.2-1.2c-.5-3.5-.2-7 .7-10.4.9-3.5 2.5-6.7 4.8-9.5s5.3-5 8.7-6.3c3.3-1.3 7-1.6 10.5-1.1.6.1 1.1.7 1 1.3 0 .6-.5 1.2-1.2 1.3zm48.2-39.4c-5.2-3.8-13.2 3-5.9 9s9.5-6.5 5.9-9zm-11.1 22.1c-.1-.2-.1-.4-.2-.6s-.2-.5-.3-.7l-.9-1.2c-.3-.4-.7-.7-1.1-.9l-1.2-.6c-.3-.1-.6-.2-.9-.2h-.6l-.3.1c-.7.2-1 .9-.8 1.6l.1.4c.1.3.2.6.4.8.4.7.9 1.3 1.5 1.8.3.3.6.5.9.7l.4.3c.1.1.2.2.4.2l.4.2c.1.1.2.1.3.1l.3.1.3.1c.1 0 .1.1.2.1.5.1 1-.3 1.1-.8v-.9c.1-.2 0-.4 0-.6zm-4.7 7.6c-.1-.3-.2-.5-.3-.8-.3-.7-.6-1.3-1-1.9-.4-.7-.9-1.3-1.5-1.8-1-1.1-2.3-1.9-3.6-2.5-.4-.2-.9-.4-1.3-.5-.2-.1-.4-.1-.6-.1-.3-.1-.6 0-.8.1-.6.3-.8 1-.5 1.6.3.5.7 1 1.1 1.5.8 1.1 1.8 2 2.8 2.9s2.1 1.8 2.9 2.5l.5.4c.2.1.3.2.4.4.1.1.2.2.4.3l.1.1c.2.1.3.2.5.2.5 0 .9-.4.9-.9v-.6c.1-.5.1-.7 0-.9z" fill="#f04e23"/><path d="M286.7 143c3.2 2.2 6.6 2.3 14.2-7.6s6-13.5 2.9-15.8c-3.2-2.2-6.8-2.6-14.2 7.6-7.5 10.4-6.1 13.5-2.9 15.8zm10.7-34c.9.2 1.8.4 2.8.7.9.3 1.8.6 2.8.9 1 .4 2 .9 3 1.4.5.3.9.5 1.4.8l1.2.9c.3.3.7.6 1 .9s.6.5.9.8l.7.7.5.6.4.5.1.1c.2.2.3.4.5.5 1.4 1 3.3.8 4.4-.5 1.1-1.4.8-3.3-.5-4.4l-.7-.6-.9-.5-1.1-.7c-.4-.3-.9-.5-1.4-.8s-1-.5-1.6-.7c-1.2-.5-2.4-.9-3.6-1.1-1.2-.3-2.4-.5-3.6-.7-1-.1-2.1-.2-3.1-.2-1-.1-2.1-.1-3.1 0-.4 0-.6.3-.6.7-.1.3.2.6.5.7z" fill="#10294c"/><path d="m179.8 190.8 1.2 1.8c1.3 1.8 2.9 3.4 4.6 4.8.9.8 1.8 1.5 2.8 2.1.8.5 1.7 1 2.6 1.5.7.3 1.3.6 2 .9.3.1.5.2.8.2.4.1.8 0 1.2-.1.9-.4 1.2-1.4.8-2.3-.1-.2-.2-.5-.4-.7-.4-.6-.8-1.2-1.3-1.8-.6-.8-1.3-1.5-2.1-2.1-.8-.7-1.6-1.5-2.5-2.2-1.7-1.3-3.6-2.5-5.5-3.5-.7-.3-1.3-.6-2-.9-.5-.2-.8-.3-.8-.3h-.2c-.3-.1-.6 0-.9.1-.7.3-1 1.1-.7 1.8.2.2.3.4.4.7zm65.8-89.9v.3c0 .2.1.4.2.6.5 1 1.7 1.5 2.8 1l.2-.1c.2-.1.3-.1.5-.2.5-.3 1-.6 1.5-1 1.4-1.1 2.6-2.5 3.5-4 .5-.8.9-1.6 1.2-2.4.3-.7.4-1.5.5-2.3.1-.6.1-1.2.1-1.8 0-.2 0-.5-.1-.7 0-.2-.1-.4-.2-.5-.6-1.4-2.2-2-3.6-1.4-.2.1-.4.2-.6.4-.5.3-1 .7-1.4 1.1-.6.5-1.1 1.1-1.6 1.8-1.5 2-2.5 4.4-2.9 6.9-.1.6-.1 1.2-.1 1.8-.1.1 0 .3 0 .5z" fill="#f04e23"/><path d="M191.4 215.6c-6.3-2.9-12.4-5.9-18.4-9.2s-11.9-6.7-17.5-10.4-11.2-7.6-16.8-11.7c-2.8-2-5.5-4.1-8.1-6.1-1.3-1-2.6-2.1-3.9-3.2-.6-.5-1.2-1.1-1.8-1.6l-.8-.8-.4-.4c-.1-.1-.2-.3-.2-.2-.4-1.1-1.7-1.6-2.8-1.2s-1.6 1.7-1.2 2.8c.2.5.3.6.4.9s.2.5.4.7c.2.4.4.8.7 1.2.5.8 1 1.5 1.6 2.2 1.1 1.5 2.3 2.9 3.6 4.2 2.4 2.6 5 5 7.7 7.3 5.4 4.6 11 8.9 17 12.7s12.3 7.1 18.9 9.8c6.5 2.9 13.4 5 20.4 6.2.8.1 1.5-.3 1.8-1 .5-.5.5-1.4 0-1.9-.2-.2-.4-.3-.6-.3zm-24.2 236.5c-2.9 1.9-6.1 3.4-9.4 4.4-3.4 1-6.8 1.8-10.3 2.4-7 1.1-14.2 1.7-21.3 1.7s-14.2-.4-21.3-1.2-14.1-2.2-20.9-4.1c-6.9-1.9-13.6-4.3-20.2-7s-13.1-5.7-19.4-9.1l-2.3-1.2-2.3-1.3-2.3-1.3-2.2-1.4c-.7-.5-1.5-.9-2.2-1.4l-2.1-1.5c-1.5-1-2.9-2-4.3-3.2-5.6-4.3-10.7-9.2-14.2-15.1l-.1-.1c-.6-1-2-1.3-3-.7-.9.5-1.2 1.6-.9 2.6 1.6 3.6 3.6 6.9 6.1 9.9.6.8 1.2 1.4 1.8 2.1s1.2 1.4 1.9 2.1c1.3 1.4 2.6 2.7 4.1 3.9 5.7 4.9 11.8 9.3 18.3 13 6.4 3.8 13.1 7.1 20 10l5.3 2.2 5.2 1.9c3.6 1.2 7 2.4 10.7 3.4 14.5 3.8 29.5 5.3 44.5 4.5 7.5-.4 14.9-1.4 22.2-3.2 3.7-.9 7.3-2.1 10.7-3.7 1.7-.7 3.5-1.6 5.1-2.5 1.7-1 3.3-2.2 4.7-3.5.7-.6.7-1.7.1-2.4-.5-.6-1.4-.7-2-.2z" fill="#ffb400"/><path d="M377.4 275.5c3.4-10.5 8.1-20.9 13.8-30.3L357.1 285l-77.2-39.4h-.4l1.8 14.8 35.2 19.3 40 21.9z" fill="#10294c"/><path d="M288.1 19.7c-.7-.1-1.5-.2-2.2-.3l-1.2-.1H281c-.8 0-1.7.1-2.5.1s-1.6.2-2.4.2c-.7 0-1.5.2-2.2.4-.7.1-1.3.3-2 .5-1 .2-2 .6-3 .9-.3.1-.5.2-.8.3l-.4.1c-.4.2-.6.6-.6 1 0 .6.5 1 1.1 1h1.1l1.2-.1c.5 0 1.1 0 1.6-.1 1.2-.1 2.6-.1 4.2-.2.8 0 1.5 0 2.3-.1s1.6-.1 2.4-.1l2.4-.1h6.2c2.4.1 4.1 0 4.1 0h.1c.3 0 .6-.2.7-.5.2-.4 0-.9-.4-1.1h-.1c-1.3-.5-2.7-.9-4.1-1.3-.6-.3-1.2-.4-1.8-.5zm17.2 10c-.4-.2-.7-.3-1.1-.4s-.9-.2-1.3-.3c-.5-.1-.9-.2-1.4-.2-.5-.1-1-.1-1.5-.1-1 0-1.9 0-3 .1-.4 0-.9.1-1.3.2l-1.2.3c-.6.1-1.2.3-1.7.6l-.6.3h-.2c-.5.4-.7 1.1-.3 1.6.2.2.4.4.7.5l.6.1c.4.1 1 .1 1.7.2.8.1 1.5.1 2.3.1h7.5c.8 0 1.5 0 2.3-.1h.1c.5-.1.8-.5.7-1 0-.2-.2-.4-.3-.6-.5-.7-1.2-1.1-2-1.3zM318.5 15c-.5 0-1 .1-1.5.2-.4.1-.8.2-1.1.4-.2 0-.3.1-.4.2l-.1.1c-.1.1-.2.2-.3.4-.3.6-.1 1.3.5 1.6l.4.2c.3.1.6.3.9.4.4.2.9.3 1.3.4.5.1.9.2 1.4.2.2 0 .5.1.7.1h2c.5 0 .9-.1 1.4-.2h.1c.1 0 .2-.1.3-.2.4-.3.5-1 .2-1.4s-.7-.8-1.2-1.1c-.4-.3-.9-.6-1.4-.7-.5-.2-1.1-.4-1.7-.5-.5-.1-1-.2-1.5-.1z" fill="#00acdc"/><path d="M13.4 474.3c1.1 0 2.1-.8 2.1-2s.1-2.5.1-3.8c0-1.1-.8-2-1.9-2.1s-2 .8-2.1 1.9c0 1.3-.1 2.5-.1 3.8-.2 1.1.6 2 1.6 2.2zm1.5 12.7c.4 0 .8-.2 1.2-.4.9-.7 1-2 .3-2.9l-1.2-1.5v-.4c0-1.1-.9-2-2-2s-2 .9-2 2v1.1c0 .4.2.8.4 1.2l1.6 2c.4.5 1.1.8 1.7.9zm432.3-310-33.5 40.1c.8-.6 3.4-2.3 4.3-2.7 2.6-.9 5.4-.6 7.8.7l.2.1 18.9-23.4z" fill="#10294c"/><path d="m343.2 175.4-9.6 10.6-5.6 6.2-1.4 1.6-1.2 1.3-3.5 3.9-20.4 22.5-21.8 24.1 76.9 42.1 34.4-42.2c6-9.7 13.1-18.7 21.2-26.7 1-1 2-2 3.1-2.9l31.8-38.9-72.6-36.3-18.8 20.8-11.2 12.4z" fill="#f04e23"/><path d="m361.2 268.3 66.8-82.5-56.2-28-70.3 77.8z" fill="#00acdc"/><path d="m318.9 249.7 43.4 23.7 72.2-89-63.5-31.5-75.9 83.9zM428 185.9l-66.8 82.5-59.6-32.6 70.3-77.8zm-12.3-14.6c1.7 0 3.1-1.3 3.1-3v-.1c0-.2 0-.4-.1-.6 0-.2-.1-.4-.2-.6s-.2-.3-.3-.5-.2-.4-.4-.5c-1.2-1.1-3.1-1.1-4.3 0-.2.1-.3.3-.4.5s-.2.3-.3.5-.1.4-.2.6c0 .2-.1.4-.1.6.1 1.7 1.5 3 3.2 3.1zm-20.8-11.1 9.7 4.8c.3.1.6.2.9.2.8 0 1.5-.4 1.8-1.1.5-1 .1-2.2-.9-2.8l-9.7-4.8c-1-.5-2.2-.1-2.8.9-.4 1 0 2.2 1 2.8z" fill="#10294c"/></svg></g><g transform="translate(866.0 670.0) rotate(0.0 238.0 201.0) scale(0.9272751357795734 0.9283785937142766)"><svg width="513.332" height="433.013" viewBox="0 0 513.332 433.013"><ellipse cx="229.341" cy="376.003" fill="#04294f" rx="32.034" ry="112.52" transform="matrix(.2547 -.967 .967 .2547 -192.6753 502.0099)"/><path d="M512.898 149.63c-.297-11.116-8.26-21.038-19.12-24.094C345.818 83.912 196.102 42.338 44.625.936 41.466.074 38.419-.168 35.576.108h-.011c-11.671 0-22.496 12.543-28.617 18.094L5.569 29.818l13.667 13 .563.023c8 75.836 8.653 152.197 1.951 228.015-.973 11.076 5.506 20.955 15.938 23.997 134.929 39.329 268.262 78.514 400.043 117.457a758.021 758.021 0 0 0-1.58 7.229l21.469 11.697c8.998-4.206 23.39-13.289 30.923-23.523a28.07 28.07 0 0 0 3.214-5.356c.016-.034.034-.067.049-.101l.011-.027a25.799 25.799 0 0 0 1.851-5.886 1181.555 1181.555 0 0 0 19.23-246.713z" fill="#f04e23"/><path d="M441.613 432.077c-138.7-41.011-279.147-82.303-421.344-123.75-10.433-3.042-16.911-12.921-15.938-23.997A1181.646 1181.646 0 0 0 .189 36.904c-1.931-15.755 11.169-26.819 27.016-22.493C178.682 55.812 328.399 97.387 476.359 139.01c10.86 3.056 18.823 12.978 19.12 24.094a1181.606 1181.606 0 0 1-19.228 246.712c-2.888 15.609-20.162 26.543-34.638 22.261z" fill="#04294f"/><path d="M448.051 413.011a3.092 3.092 0 0 1-.766-.112c-150.074-44.374-287.92-84.86-421.42-123.772-1.653-.482-1.677-2.291-1.611-3.047 7.391-83.612 5.974-168.267-4.213-251.602a4.309 4.309 0 0 1-.023-.989c.118-.015.276-.025.482-.019.428.013.911.093 1.438.236 145.503 39.768 296.572 81.676 449.004 124.558 2.485.699 4.481 3.061 4.543 5.376a1163.867 1163.867 0 0 1-18.902 242.544c-.689 3.726-5.346 6.924-8.532 6.827z" fill="#fff"/><ellipse cx="230.809" cy="370.427" fill="#f04e23" rx="3.435" ry="89.338" transform="matrix(.2899 -.957 .957 .2899 -190.6258 483.9248)"/><path d="M173.344 194.669a21405.235 21405.235 0 0 0-120.581-36.935 396.313 396.313 0 0 0-4.086-87.054 14529.75 14529.75 0 0 1 128.753 36.935 396.31 396.31 0 0 1-4.086 87.054z" fill="#f04e23"/><path d="M443.364 320.589a26381.628 26381.628 0 0 0-182.066-59.492c3.983-42.856 3.367-85.911-1.847-128.422a17804.591 17804.591 0 0 1 190.318 59.492 600.647 600.647 0 0 1-6.405 128.422z" fill="#04294f"/><path d="M429.344 359.835a18503.815 18503.815 0 0 0-124.898-40.01c3.057-28.028 3.135-56.18.232-83.98a14529.75 14529.75 0 0 1 128.753 36.935 396.38 396.38 0 0 1-4.087 87.055z" fill="#f04e23"/><g fill="#04294f"><path d="M164.779 221.064c-.409 0-.825-.063-1.234-.196-36.566-11.856-69.526-22.084-100.764-31.269a4 4 0 1 1 2.256-7.675c31.31 9.205 64.338 19.454 100.975 31.333a4.001 4.001 0 0 1-1.233 7.807zm0 29.456c-.409 0-.825-.063-1.234-.196-36.563-11.855-69.523-22.083-100.764-31.269a4 4 0 1 1 2.256-7.675c31.313 9.207 64.342 19.456 100.975 31.333a4.001 4.001 0 0 1-1.233 7.807zm0 29.456c-.409 0-.825-.063-1.234-.196-36.57-11.857-69.53-22.085-100.764-31.269a4 4 0 1 1 2.256-7.675c31.305 9.204 64.334 19.454 100.975 31.333a4.001 4.001 0 0 1-1.233 7.807zm0 29.456c-.409 0-.825-.063-1.234-.196-36.566-11.856-69.526-22.084-100.764-31.269a4 4 0 1 1 2.256-7.675c31.31 9.205 64.338 19.454 100.975 31.333a4.001 4.001 0 0 1-1.233 7.807z"/></g></svg></g><g transform="translate(900.0 784.0) rotate(12.198559958640175 198.0 110.5) translate(0.0 0.0) scale(0.99 0.9853842106671186)"><svg width="398.99" height="158.314" viewBox="0 0 398.99 158.314"><g fill="#fff"><path d="M350 157s-110.917 3-150 3c-35.917 0-150-3-150-3a50 50 0 0 1-50-50V54A50 50 0 0 1 50 4s129.417-4 155-4c49.417 0 145 4 145 4a50 50 0 0 1 50 50v53a50 50 0 0 1-50 50z"/><path d="M38 114s38.141 62.224-16.9 101.4a4.884 4.884 0 0 0 4.136 8.684C67.55 212.492 136.669 183.192 149 114z"/></g></svg></g><g transform="translate(892.0 740.0) rotate(12.198559958640175 104.0 58.0) translate(0.0 0.0) scale(0.52 0.5172152417981256)"><svg width="400" height="158.541" viewBox="0 0 400 158.541"><g fill="#fff"><path d="M350 157s-110.917 3-150 3c-35.917 0-150-3-150-3a50 50 0 0 1-50-50V54A50 50 0 0 1 50 4s129.417-4 155-4c49.417 0 145 4 145 4a50 50 0 0 1 50 50v53a50 50 0 0 1-50 50z"/><path d="M38 114s38.141 62.224-16.9 101.4a4.884 4.884 0 0 0 4.136 8.684C67.55 212.492 136.669 183.192 149 114z"/></g></svg></g><g transform="translate(893.0 886.0) rotate(18.133061691175016 100.0 56.0) translate(0.0 0.0) scale(0.5 0.49938023346025917)"><svg width="398" height="158.196" viewBox="0 0 398 158.196"><g fill="#fff"><path d="M350 157s-110.917 3-150 3c-35.917 0-150-3-150-3a50 50 0 0 1-50-50V54A50 50 0 0 1 50 4s129.417-4 155-4c49.417 0 145 4 145 4a50 50 0 0 1 50 50v53a50 50 0 0 1-50 50z"/><path d="M38 114s38.141 62.224-16.9 101.4a4.884 4.884 0 0 0 4.136 8.684C67.55 212.492 136.669 183.192 149 114z"/></g></svg></g><g transform="translate(1047.0 899.0) rotate(12.198559958640175 118.0 66.0) translate(0.0 0.0) scale(0.59 0.5885552751495912)"><svg width="398.305" height="154.616" viewBox="0 0 398.305 154.616"><g fill="#fff"><path d="M350 157s-110.917 3-150 3c-35.917 0-150-3-150-3a50 50 0 0 1-50-50V54A50 50 0 0 1 50 4s129.417-4 155-4c49.417 0 145 4 145 4a50 50 0 0 1 50 50v53a50 50 0 0 1-50 50z"/><path d="M38 114s38.141 62.224-16.9 101.4a4.884 4.884 0 0 0 4.136 8.684C67.55 212.492 136.669 183.192 149 114z"/></g></svg></g><g transform="translate(967.0 746.0) rotate(0.0 100.0 116.0) scale(0.17651596322113391 0.17669176654448027)"><svg width="1133.042" height="1313.021" viewBox="0 0 1133.042 1313.021"><path d="M1131.352 491.328c-.609-28.265-25.169-52.228-54.685-53.516l-.016-.647c-176.366-69.11-351.717-140.223-523.931-205.341-10.325-3.904-18.794-11.626-23.703-21.639a14807.745 14807.745 0 0 1-47.087-96.887c-14.26-29.604-38.645-52.256-68.388-63.161-45.893-16.824-91.429-32.897-136.563-48.052-28.373-9.537-60.383 14.952-61.865 46.736-3.813 84.868-7.71 206.25-9.311 331.403-51.325-19.029-102.399-37.36-153.158-54.766-29.41-10.018-60.748 19.945-50.744 48.511 62.871 179.592 134.924 366.623 208.793 557.305 12.087 31.168 36.523 56.767 67.284 70.471 258.157 114.869 511.348 226.821 750.92 306.952a42.33 42.33 0 0 0 10.42 3.468l1.479.49-.058-.232c4.107.666 8.403.786 12.804.315l1.233-.132c17.23-1.849 34.014-12.378 44.733-27.831 8.759-12.639 12.479-27.194 10.489-40.375 19.502-251.081 26.648-502.105 21.354-753.072z" fill="#04294F"/><path d="M1095.612 522.513c2.113-.031 4.438 22.89 6.494 64.826 2.049 41.938 3.884 102.897 4.791 178.978.195 19.021.433 38.985.466 59.836l.088 31.931-.118 33.215c-.031 22.558-.403 45.948-.688 70.097-.183 12.076-.488 24.347-.742 36.798l-.411 18.814-.611 19.093-.631 19.357-.322 9.775-.439 9.847c-.633 13.175-1.178 26.509-1.923 40.021l-1.329 20.409-.675 10.293c-.252 3.445-.391 6.882-.754 10.363l-3.866 41.605-1.663 21.115c-.623 7.274-1.379 14.778-2.755 22.682-.698 3.957-1.575 8.033-2.839 12.302-1.277 4.262-2.922 8.764-5.677 13.537l-1.068 1.785c-.402.606-.83 1.215-1.254 1.816-.796 1.192-1.877 2.425-2.889 3.606-2.172 2.335-4.958 4.823-8.047 6.57l-1.152.677c-.392.21-.798.395-1.2.588-.807.38-1.623.745-2.443 1.092-.841.295-1.69.574-2.544.837l-1.283.385c-.431.11-.865.2-1.299.294-3.145.686-6.486 1.002-9.861.813a37.053 37.053 0 0 1-9.739-1.891c-3.055-1.027-5.834-2.389-8.321-3.902-4.998-3.047-8.78-6.625-12.06-10.213-6.44-7.234-10.811-14.688-14.623-22.139-3.765-7.464-6.826-14.977-9.52-22.563a250.12 250.12 0 0 1-3.746-11.454 243.564 243.564 0 0 1-1.673-5.81l-.79-2.952-.711-2.829-.002-.005-.003-.005-53.672-167.139a60399.652 60399.652 0 0 1-62.601-197.059l-29.523-93.784-7.17-22.83-1.766-5.127c-.591-1.706-1.129-3.43-1.854-5.079-1.389-3.321-2.611-6.707-4.232-9.904-6.043-12.987-13.638-25.084-22.514-35.935-17.872-21.626-40.649-38.195-65.261-48.479l-78.104-32.389c-50.4-20.958-97.3-40.599-140.065-58.656-85.531-36.113-154.526-65.888-201.917-87.185s-73.178-34.115-72.292-36.315 28.36 6.427 77.286 23.911 119.304 43.825 205.996 77.055c43.346 16.615 90.771 34.952 141.632 54.765l78.82 30.823c29.251 11.586 56.605 30.762 78.206 56.187 10.742 12.746 19.995 27.033 27.395 42.446 1.96 3.804 3.503 7.81 5.192 11.764.875 1.967 1.559 4.009 2.289 6.038l2.17 6.105 7.44 22.82 30.33 93.527a60528.568 60528.568 0 0 1 63.266 196.846l53.396 167.93.194.716.193.716.647 2.656.654 2.506c.449 1.678.924 3.36 1.417 5.034a217.607 217.607 0 0 0 3.18 9.94c2.266 6.528 4.817 12.855 7.699 18.668 2.861 5.783 6.148 11.136 9.505 14.924 1.656 1.855 3.315 3.333 4.593 4.101 1.311.804 2.034.968 2.553 1.032.271.025.592.001 1.002-.078.028.011.044.003.052-.021.013-.011.03-.006.056.015-.002-.081.08.015.082-.054.105-.004.022-.008.358-.271.137-.219.314-.302.505-.632.096-.14.199-.264.306-.405l.322-.545c.9-1.475 1.874-3.755 2.671-6.38.811-2.626 1.501-5.572 2.077-8.665 1.153-6.206 1.934-12.898 2.593-19.756l1.913-21.102 4.396-41.418c.4-3.357.587-6.776.882-10.149a71952 71952 0 0 0 .81-10.116l1.615-20.06c.943-13.327 1.703-26.538 2.557-39.562l.608-9.744.496-9.7.99-19.209.984-18.95.798-18.709 1.557-36.601c.847-24.047 1.816-47.331 2.475-69.821l1.085-33.108.926-31.846 1.694-59.701c2.088-75.932 3.691-136.835 5.39-178.752 1.691-41.925 3.425-64.853 5.55-64.883z" fill="#00ACDC"/></svg></g><g transform="translate(1171.0 676.0) rotate(-138.58871506883906 -125.5 76.0) scale(-0.8638253352055285 0.8587619139091182)"><svg width="290.568" height="176.999" viewBox="0 0 290.568 176.999"><path d="M142.566 177c102.7-34.433 148-127.463 148-127.463L147.8 0S102.494 93.03 0 127.464z" fill="#ffb400"/><path d="M168.34 153.037a212.053 212.053 0 0 0 30.809-19.13l-43.9-15.3a220.492 220.492 0 0 1-32.017 18.526zM153.842 15.505s-13.491 23.358-27.788 39.065l39.467 13.692A240 240 0 0 0 193.108 29.2z" fill="#FFB400"/><g fill="#FFB400"><path d="M142.364 164.514c4.028-1.409 7.854-3.02 11.68-4.631L44.1 121.624c-3.423 1.812-6.847 3.423-10.27 5.235zM206.2 33.829c-1.208 2.014-2.618 4.43-4.43 7.249l64.839 22.553c1.812-2.618 3.222-5.034 4.632-7.048zm-66.051 79.539L85.378 94.44l-7.853 6.041 53.966 18.726c3.02-2.013 5.839-3.825 8.658-5.839zm44.099-47.321c-1.812 2.215-3.624 4.43-5.437 6.847l63.43 22.15c2.014-2.215 4.027-4.43 5.84-6.645zm-101.89 48.328-16.311-5.638c-2.819 2.013-5.839 3.826-8.86 5.638l15.913 5.437c3.016-1.812 6.237-3.625 9.258-5.437zm6.242 10.873 20.338 7.048c3.423-1.611 6.645-3.423 9.867-5.235L97.46 119.61c-2.819 1.812-5.839 3.826-8.86 5.638zm77.727-23.358-63.833-22.15c-2.215 2.014-4.631 4.229-7.047 6.242l63.228 21.949c2.618-2.013 5.235-4.031 7.652-6.041zm6.443 10.874 37.051 12.887c2.618-2.013 5.035-4.027 7.451-6.041l-37.051-12.887c-2.621 2.014-5.034 4.027-7.451 6.041zM235.6 73.3l19.13 6.645c1.812-2.416 3.624-4.631 5.235-6.846l-19.133-6.649c-1.611 2.215-3.424 4.631-5.232 6.85zm-7.253-11.28-32.822-11.478c-1.611 2.215-3.222 4.632-5.034 7.048l32.218 11.276c2.013-2.215 3.826-4.631 5.638-6.846zm-68.263 16.311c-2.013 2.215-3.825 4.43-6.04 6.645l73.1 25.371c2.215-2.215 4.43-4.43 6.645-6.443zM147.2 73.9l-29-10.069c-2.014 2.215-4.028 4.43-6.243 6.645l29 10.069c2.213-2.416 4.227-4.631 6.243-6.645z"/></g></svg></g><g transform="translate(577.0 436.0) rotate(-24.676863170337157 90.0 46.5) scale(0.7931122606343135 0.7870084370689436)"><svg width="226.954" height="118.169" viewBox="0 0 226.954 118.169"><path d="M223.271 64.058c4.679-2.196 4.963-8.743.488-11.329-14.497-8.379-39.048-22.328-51.839-29.243-23.4-12.7-38.9-20.1-44.7-22.8-1.7-.8-3.6-.9-5.4-.3-8.8 3.1-37.3 13.2-59.3 23.1-17.1 7.7-42.6 19.1-58.3 26.2-3.6 1.6-5.2 5.9-3.6 9.5.7 1.5 1.9 2.7 3.3 3.5 10.8 5.3 26.8 13.5 44.4 23.1 19.807 10.818 43.822 25.216 53.314 31.102a8.525 8.525 0 0 0 8.548.256z" fill="#00ACDC"/><path d="m175.72 41.086-70.2 10.9 1.9-18-25.8-2.8-5.8 51.7 103.9-16z" fill="#FFF"/></svg></g><g transform="translate(862.0 313.0) rotate(-50.32666621183472 141.5 119.0) scale(0.4731436634694639 0.47499111886353385)"><svg width="598.127" height="501.062" viewBox="0 0 598.127 501.062"><path d="M515.048 497.31C312.601 512.436 139.888 482.094 0 401.558 92.097 309.464 118.243 158.082 97.04 0h479.18c43.046 193.716 22.656 359.486-61.172 497.31z" fill="#ffb400"/></svg></g><g transform="translate(691.0 455.0) rotate(-50.349820252794764 78.0 -68.0) scale(1.1818181818181819 -1.1724137931034482)"><svg width="132" height="116" viewBox="0 0 132 116"><path d="M50.7 116c58.8-13.3 81.3-67.6 81.3-67.6L78.5 0S48.4 50.7 0 67z" fill="#FFB400"/><path d="M52.3 98.8c-1.5 0-2.8-1.1-3-2.7-1.6-13.5-9.9-28.1-10-28.3-.8-1.4-.3-3.3 1.1-4.1.5-.3 1.2-.4 1.8-.4 16.7 1.4 38.9-3.7 46.4-5.6-2.2-12-6.8-23.4-13.4-33.6-1-1.3-.8-3.2.6-4.2 1.3-1 3.2-.8 4.2.6 0 .1.1.1.1.2.5.7 11.9 17.2 14.9 38.9.2 1.5-.7 2.9-2.2 3.3-1.1.3-25.2 7-45.8 6.7 2.8 5.8 7.1 15.9 8.2 25.8.2 1.7-1 3.2-2.7 3.3z" fill="#FFB400"/><ellipse cx="93.195" cy="62.908" fill="#FFB400" rx="21" ry="16.8" transform="matrix(.867 -.4983 .4983 .867 -18.9527 54.8057)"/><ellipse cx="42.02" cy="66.378" fill="#FFB400" rx="12" ry="9.6" transform="matrix(.919 -.3943 .3943 .919 -22.7682 21.9457)"/><ellipse cx="77.73" cy="22.459" fill="#FFB400" rx="8.1" ry="6.5" transform="matrix(.8161 -.5779 .5779 .8161 1.3151 49.0507)"/><ellipse cx="52.314" cy="95.805" fill="#FFB400" rx="8.1" ry="6.5" transform="matrix(.9634 -.2681 .2681 .9634 -23.7699 17.5326)"/><ellipse cx="91.982" cy="59.989" fill="#FFB400" rx="8.6" ry="6.8" transform="matrix(.866 -.5 .5 .866 -17.6712 54.0295)"/></svg></g></svg>