<svg xmlns="http://www.w3.org/2000/svg" viewBox="0 0 1600 1200" width="1600" height="1200"><g transform="translate(378.0 311.0) rotate(0.0 534.0 410.5) scale(1.2095130237825595 1.2073529411764705)"><svg width="883" height="680" viewBox="0 0 883 680"><path d="m825.478 580-782.5-25A28.978 28.978 0 0 1 14 526.022L0 111.587A65.587 65.587 0 0 1 65.587 46H852a31 31 0 0 1 31 31v445.478A57.521 57.521 0 0 1 825.478 580z" fill="#00aee0"/><path d="M354.5 0h190.8A13.7 13.7 0 0 1 559 13.7V75H320V34.5A34.5 34.5 0 0 1 354.5 0zm308.239 641h-445.7A25.043 25.043 0 0 0 192 666.043L211 664c0 3.692 17.308 7 21 7l426.109 9A19.892 19.892 0 0 0 678 660.109v-3.848A15.262 15.262 0 0 0 662.739 641z" fill="#00aee0"/><path d="M521 559h42v105h-42z" fill="#00aee0"/><g fill="#04294f"><rect height="514" rx="28.978" width="858" y="66"/><rect height="81" rx="14.826" width="227" x="320" y="13"/><path d="M320 566h227v94H320z"/><rect height="25" rx="5.522" width="472" x="192" y="655"/><circle cx="434" cy="40" r="11"/></g><path d="M434 53a13 13 0 1 1 13-13 13.015 13.015 0 0 1-13 13zm0-22a9 9 0 1 0 9 9 9.01 9.01 0 0 0-9-9z" fill="#fff"/><circle cx="352.5" cy="39.5" fill="#fff" r="4.5"/><circle cx="390.5" cy="39.5" fill="#fff" r="4.5"/><circle cx="480.5" cy="39.5" fill="#fff" r="4.5"/><path d="M525.174 38.261c0 1.423-4.789 2.576-10.7 2.576s-10.695-1.153-10.695-2.576 4.788-2.576 10.695-2.576 10.7 1.153 10.7 2.576z" fill="#fff"/><rect fill="#00aee0" height="427" rx="16.29" width="762.1" x="48.02" y="110"/></svg></g><g transform="translate(395.0 277.0) rotate(0.0 534.0 410.5) translate(436.0 69.0) scale(1.2095130237825595 1.2073529411764705)"><svg width="145.513" height="38.928" viewBox="360.476 57.15 145.513 38.928"><path d="m825.478 580-782.5-25A28.978 28.978 0 0 1 14 526.022L0 111.587A65.587 65.587 0 0 1 65.587 46H852a31 31 0 0 1 31 31v445.478A57.521 57.521 0 0 1 825.478 580z" fill="none"/><path d="M354.5 0h190.8A13.7 13.7 0 0 1 559 13.7V75H320V34.5A34.5 34.5 0 0 1 354.5 0zm308.239 641h-445.7A25.043 25.043 0 0 0 192 666.043L211 664c0 3.692 17.308 7 21 7l426.109 9A19.892 19.892 0 0 0 678 660.109v-3.848A15.262 15.262 0 0 0 662.739 641z" fill="none"/><path d="M521 559h42v105h-42z" fill="none"/><g fill="#04294f"><rect height="514" rx="28.978" width="858" y="66"/><rect height="81" rx="14.826" width="227" x="320" y="13"/><path d="M320 566h227v94H320z"/><rect height="25" rx="5.522" width="472" x="192" y="655"/><circle cx="434" cy="40" r="11"/></g><path d="M434 53a13 13 0 1 1 13-13 13.015 13.015 0 0 1-13 13zm0-22a9 9 0 1 0 9 9 9.01 9.01 0 0 0-9-9z" fill="#fff"/><circle cx="352.5" cy="39.5" fill="#fff" r="4.5"/><circle cx="390.5" cy="39.5" fill="#fff" r="4.5"/><circle cx="480.5" cy="39.5" fill="#fff" r="4.5"/><path d="M525.174 38.261c0 1.423-4.789 2.576-10.7 2.576s-10.695-1.153-10.695-2.576 4.788-2.576 10.695-2.576 10.7 1.153 10.7 2.576z" fill="#fff"/><rect fill="none" height="427" rx="16.29" width="762.1" x="48.02" y="110"/></svg></g><g transform="translate(336.0 39.0) rotate(0.0 525.0 913.5) translate(0.0 0.0) scale(1.2404016538688718 1.2409863769990275)"><svg width="846.5" height="742.152" viewBox="0 0 846.5 742.152"><path d="M205.348 554.131c5.16-2.264 10.996-2.428 16.344-4.201s10.649-6.151 10.436-11.781c-.146-3.856-2.954-7.233-6.369-9.029s-7.363-2.263-11.216-2.45c-7.806-.379-15.754.286-23.107 2.933s-14.095 7.392-18.28 13.992-5.568 15.129-2.807 22.44c1.595 4.221 4.723 8.077 9.001 9.513 6.697 2.249 10.071-1.6 12.38-6.897 2.677-6.138 7.397-11.79 13.618-14.52zm235.258 807.085h70.167v55.833h-70.167z" fill="#ffb400"/><path d="M476.123 1398.155c19.547.361 31.6 1.854 39.031 3.462l.491.148a3.314 3.314 0 0 1 2.103 3.547c-.732 4.792-1.158 9.526-1.487 14.209a10.2 10.2 0 0 0-1.749-.794c-5.599-1.815-16.874-3.947-39.466-4.315-21.563-.401-32.854 1.828-38.728 4.034-.368-4.465-.671-8.89-.749-13.242a4.343 4.343 0 0 1 2.297-3.955 4.923 4.923 0 0 1 1.127-.444c7.443-1.771 19.183-3.026 37.13-2.65z" fill="#fff"/><path d="M435.952 1418.241c-.601.21-1.143.434-1.643.661a10.227 10.227 0 0 0-5.575 6.673l-.365 1.455a40.096 40.096 0 0 1 7.637-2.771 50.117 50.117 0 0 1 10.476-1.457c3.54-.159 7.087.136 10.552.876a28.756 28.756 0 0 1 9.894 4.032.95.95 0 0 1 .428.647v.001a1.01 1.01 0 0 1-.753 1.213 73.282 73.282 0 0 1-10.143.812c-3.281.049-6.505.043-9.746.027s-6.731.082-9.776.076-6.156.058-9.302.034a109.085 109.085 0 0 0-.684 3.342c-.115.511-.178 1.01-.278 1.531a324.461 324.461 0 0 0-6.831 4.145l.853-.255a48.49 48.49 0 0 1 10.476-1.457 41.132 41.132 0 0 1 10.623.943 29.184 29.184 0 0 1 9.904 4.016c.217.161.366.398.418.663l.012.05a.971.971 0 0 1-.755 1.148 77.75 77.75 0 0 1-10.143.812c-3.281.049-6.505.043-9.746.027s-6.489.053-9.766.06-6.63.1-10.02.036a1.185 1.185 0 0 1-.426-.108c-9.941 7.169-9.832 10.173-9.859 15.671-.072 7.196 4.574 7.837 4.574 7.837 51.805 6.502 100.075 1.506 115.239-.426a5.715 5.715 0 0 0 4.965-5.617c.015-2.3.004-4.884-.122-6.667-.2-3.868-.63-7.654-1.14-11.602a137.85 137.85 0 0 0-2.012-11.605c-.525-2.478-1.108-4.969-1.813-7.446a10.476 10.476 0 0 0-6.617-6.93c-5.629-1.767-16.904-3.899-39.466-4.314-21.528-.379-32.819 1.85-39.07 3.867zm55.585 25.301c-.213-8.471 4.682-15.566 11.108-15.77s11.794 6.534 12.072 15.045-4.709 15.572-11.125 15.76-11.81-6.544-12.088-15.055z" fill="#f04e23"/><path d="M446.858 1422.991c3.54-.159 7.087.136 10.552.876a28.756 28.756 0 0 1 9.894 4.032.95.95 0 0 1 .428.647 1.01 1.01 0 0 1-.752 1.214h-.001a73.282 73.282 0 0 1-10.143.812c-3.281.049-6.515.059-9.746.027s-6.495.027-9.776.076-6.156.058-9.302.034l-.693-.004-.081-.05a1.2 1.2 0 0 1-.61-2.195 28.087 28.087 0 0 1 2.237-1.257 40.096 40.096 0 0 1 7.637-2.771 50.21 50.21 0 0 1 10.356-1.441zm-15.415 14.98a41.132 41.132 0 0 1 10.623.943 29.184 29.184 0 0 1 9.904 4.016c.217.161.366.398.418.663a.971.971 0 0 1-.743 1.198 77.75 77.75 0 0 1-10.143.812c-3.281.049-6.515.059-9.746.027s-6.495.027-9.766.06-6.63.1-10.02.036a1.185 1.185 0 0 1-.426-.108 1.146 1.146 0 0 1-.599-.372 1.2 1.2 0 0 1 .374-1.651 33.715 33.715 0 0 1 9.053-3.752l.853-.255a48.67 48.67 0 0 1 10.218-1.617z" fill="#04294f"/><ellipse cx="503.099" cy="1443.274" fill="#fff" rx="11.569" ry="15.343" transform="matrix(.9996 -.0298 .0298 .9996 -42.8428 15.655)"/><path d="m701.061 1408.42-69.269 11.206-8.916-55.119 69.269-11.205z" fill="#ffb400"/><path d="M662.971 1395.511c-19.239 3.479-30.898 6.878-37.977 9.652l-.461.224a3.314 3.314 0 0 0-1.51 3.837c1.488 4.613 2.665 9.218 3.737 13.789.499-.404 1.034-.76 1.6-1.063 5.237-2.686 16.027-6.592 38.27-10.563 21.222-3.84 32.724-3.443 38.875-2.204-.35-4.466-.758-8.883-1.375-13.192a4.342 4.342 0 0 0-2.899-3.537 4.95 4.95 0 0 0-1.184-.258c-7.629-.559-19.42.077-37.076 3.315z" fill="#fff"/><path d="M666.646 1411.348c-22.206 4.014-32.996 7.92-38.27 10.563a10.476 10.476 0 0 0-5.425 7.898c-.3 2.558-.478 5.111-.6 7.64-.207 3.941-.26 7.799-.133 11.777s.308 7.785.728 11.635c.159 1.78.562 4.333.944 6.6a5.714 5.714 0 0 0 5.798 4.752c15.279-.514 63.726-3.293 113.828-17.986 0 0 4.484-1.375 3.264-8.467-.905-5.423-1.277-8.406-12.235-13.895a1.2 1.2 0 0 1-.404.174c-3.336.604-6.662 1.048-9.898 1.565s-6.454.968-9.65 1.501-6.379 1.054-9.625 1.53a77.555 77.555 0 0 1-10.143.818.97.97 0 0 1-.928-1.013l.004-.051c.009-.27.118-.527.307-.721a29.18 29.18 0 0 1 9.136-5.547 41.137 41.137 0 0 1 10.336-2.628 48.56 48.56 0 0 1 10.574-.235l.883.115a327.557 327.557 0 0 0-7.406-3.001c-.181-.499-.323-.981-.519-1.467a107.83 107.83 0 0 0-1.209-3.19c-3.102.526-6.183.96-9.188 1.452-3.005.493-6.466.953-9.663 1.486a493.602 493.602 0 0 1-9.625 1.53 73.289 73.289 0 0 1-10.143.818 1.01 1.01 0 0 1-.938-1.077v-.001a.949.949 0 0 1 .319-.707 28.768 28.768 0 0 1 9.123-5.561 41.572 41.572 0 0 1 10.277-2.551 50.113 50.113 0 0 1 10.574-.235 40.14 40.14 0 0 1 7.982 1.515l-.592-1.378a10.232 10.232 0 0 0-6.57-5.697 19.506 19.506 0 0 0-1.728-.391c-6.489-.988-17.991-1.385-39.185 2.43zm-11.613 31.404c1.085 8.446-3.165 15.954-9.528 16.793-6.364.839-12.414-5.335-13.499-13.781s3.138-15.956 9.514-16.78 12.342 5.397 13.485 13.793z" fill="#f04e23"/><path d="M695.827 1415.353a41.583 41.583 0 0 0-10.277 2.551 28.768 28.768 0 0 0-9.123 5.561.952.952 0 0 0-.319.707 1.01 1.01 0 0 0 .936 1.078h.001a73.262 73.262 0 0 0 10.142-.818c3.247-.476 6.441-.982 9.625-1.53 3.184-.547 6.416-1.011 9.663-1.486s6.086-.926 9.188-1.452l.683-.115.072-.062a1.201 1.201 0 0 0 .252-2.264c-.8-.339-1.604-.625-2.409-.884a40.127 40.127 0 0 0-7.982-1.515 50.102 50.102 0 0 0-10.452.229zm17.61 12.326a41.095 41.095 0 0 0-10.336 2.628 29.18 29.18 0 0 0-9.136 5.547 1.09 1.09 0 0 0-.307.721.972.972 0 0 0 .874 1.06l.051.004a77.757 77.757 0 0 0 10.143-.818 391.65 391.65 0 0 0 9.625-1.53c3.184-.547 6.416-1.011 9.65-1.501s6.561-.96 9.897-1.565a1.22 1.22 0 0 0 .404-.174 1.14 1.14 0 0 0 .532-.462 1.2 1.2 0 0 0-.633-1.57 33.717 33.717 0 0 0-9.536-2.258l-.883-.115a48.41 48.41 0 0 0-10.345.033z" fill="#04294f"/><ellipse cx="643.548" cy="1444.36" fill="#fff" rx="11.569" ry="15.343" transform="matrix(.9915 -.1302 .1302 .9915 -182.576 96.0837)"/><path d="M704.888 1355.719c-8.919-42.681-16.727-85.535-24.208-128.438-7.653-44.021-14.799-88.12-21.564-132.277-6.758-44.159-13.24-88.36-19.161-132.648-5.986-44.278-11.622-88.61-16.191-133.107l-108.456 6.375-93.986 1.597c3.025 44.111 4.972 88.24 6.564 132.375 1.658 44.134 2.749 88.278 3.559 132.426.804 44.148 1.222 88.304 1.128 132.468-.114 42.967-.557 85.939-2.119 128.931a5.02 5.02 0 0 0 3.329 4.898c28.746 10.363 57.757 9.383 86.999-1.536a5.023 5.023 0 0 0 3.263-5.054c-3.016-42.879-4.917-85.778-6.489-128.682-1.594-44.135-2.675-88.279-3.372-132.43-.61-39.098-.876-113.311-.928-129.996a4.111 4.111 0 0 1 3.404-4.058c11.256-1.979 22.842-1.713 34.709.464a4.128 4.128 0 0 1 3.338 3.335c.293 1.674.587 3.348.878 5.023 7.716 44.011 14.871 88.108 21.75 132.249 6.872 44.142 13.362 88.342 19.347 132.62 5.797 43.065 11.27 86.18 15.638 129.466a5.018 5.018 0 0 0 4.067 4.416c32.885 6.292 61.845 2.415 86.287-13.168a5.01 5.01 0 0 0 2.214-5.249z" fill="#00aee0"/><path d="M183.294 551.81c-3.973-3.863-9.021-6.2-14.217-7.752-.779-.532-1.708-1.017-2.823-1.434-11.035-4.125-24.06-5.907-35.829-7.448-25.532-3.343-51.676-2.859-76.956 1.418-14.211 2.405-28.15 6.008-41.535 10.801-2.814 1.007-5.652 2.091-7.957 3.827-2.304 1.736-4.036 4.243-3.975 6.921.099 4.325 4.855 7.684 9.703 8.469s9.778-.335 14.582-1.243c9.822-1.857 28.906-2.435 29.208-2.403 29.163 3.044 46.429 7.277 53.279 12.008 4.555 3.147 9.891 5.09 14.705 7.825 14.332 8.142 31.587 10.266 47.419 5.839 4.768-1.333 9.48-3.282 13.381-6.547s6.934-7.98 7.563-13.226c.765-6.382-2.148-12.776-6.548-17.055z" fill="#ffb400"/><path d="m134.648 562.89 52.853 12.605-10.336 43.337-52.854-12.606z" fill="#ffb400"/><path d="M458.754 509.916c-12.98.17-34.3 2.16-52.96 11.79-6.28 3.24-12.26 7.34-17.52 12.53-12.98 12.8-21.04 31.89-26.61 47.1-2.32 6.33-4.48 12.76-6.77 19.55-5.31 15.78-10.8 32.09-18.68 48.24-15.01 30.83-35.19 52.86-59.97 65.5-15.16 7.73-31.97 11.51-48.78 11.51-24.01 0-48-7.72-67.14-22.68-31.648-24.752-47.253-67.174-39.483-106.502a4.383 4.383 0 0 1 4.113-3.521c21.071-.955 40.328 3.915 58.095 13.577 1.63.886 2.506 2.688 2.236 4.523-2.14 14.54 4.178 30.921 15.699 39.934 12.31 9.63 31.35 11.46 45.27 4.36 14.61-7.45 24.72-23.47 30.63-35.61 6.01-12.33 10.6-25.96 15.46-40.39 2.33-6.9 4.73-14.04 7.35-21.19 7.94-21.68 19.92-49.39 42.24-71.39 19.39-19.13 45.4-32.41 75.41-38.86 12.839-2.761 26.415-4.277 40.528-4.462l.002.002.75 56.21z" fill="#fff"/><path d="M363.43 866.231c2.009 6.933 4.649 14.313 10.575 18.271 5.302 3.541 12.291 3.533 18.313 1.524s11.3-5.788 16.478-9.516c7.127-5.13 14.471-10.496 18.877-18.18 4.418-7.703 5.403-16.906 6.044-25.809a485.373 485.373 0 0 0-2.08-91.667c-.806-6.836-2.249-14.49-7.872-18.291-5.971-4.036-13.992-1.903-20.527 1.087-17.786 8.136-32.989 21.892-43.334 38.729-4.802 7.816-8.543 15.023-8.232 24.302.425 12.703 1.106 25.296 2.867 37.894a298.029 298.029 0 0 0 8.891 41.656z" fill="#ffb400"/><path d="M376.895 666.8c-12.081 9.587-22.766 21.348-29.065 35.426-8.597 19.213-8.427 41.138-6.473 62.096.55 5.897 1.597 12.462 6.326 16.029 3.572 2.695 8.524 2.954 12.835 1.756s8.138-3.673 11.888-6.113c18.984-12.352 38.831-25.65 48.891-45.942 10.178-20.532 8.584-44.703 6.38-67.513-.435-4.5-.91-9.097-2.811-13.199-5.73-12.362-14.106-4.451-22.5.469-8.811 5.163-17.464 10.636-25.471 16.991z" fill="#f04e23"/><path d="m436.981 862.549 22.711 52.369c2.752 6.346 10.938 8.087 16.035 3.411l50.255-46.113 48.402 46.724c4.707 4.544 12.431 3.458 15.703-2.208l34.289-59.391z" fill="#fff"/><path d="M656.494 470.856c-1.5 9.51-3.04 40.62-3.36 45.93-.21 3.46-.43 6.91-.64 10.33-.21 3.33-.42 6.64-.63 9.94-1.43 21.98-2.94 43.28-4.5 64.21-2.27 30.36-4.63 59.94-6.97 89.71-3.53 44.89-7 90.21-9.99 139.25-.38 6.271 12.67 19.93 3.93 33.36-3.75 5.76-17.65 11.19-24.38 12.84-43.66 10.67-89.27 13.47-133.93 8.21-22.22-2.61-53.25-10.07-60.27-34.1-2.29-7.81-1.13-16.56-2.02-24.59-1.57-14.03-4.4-27.98-6.27-41.98-2.03-15.22-3.44-30.47-4.4-45.75-.96-15.09-1.47-30.2-1.71-45.33-.46-28.8.07-57.66.43-86.51.35-28.26 1.69-56.51 4.01-84.67.44-5.41.92-10.82 1.44-16.22.52-5.49 1.14-11.1 2.17-16.58 2.08-12.49 4.4-26.87 7.94-40.52 12.6-2.71 25.91-4.22 39.74-4.45 1.52-.29 3.05-.56 4.58-.79 2.45-.39 4.9-.72 7.33-1 43.81-5.19 88.62-2.13 131.3 8.96 1.37.35 2.74.72 4.11 1.09.94.26 1.88.52 2.83.8 8.45 2.439 17.05 5.58 24.48 10.06l.01-.02c5.77 3.54 14.84 5.939 24.77 7.82z" fill="#04294f"/><path d="M626.284 580.579c-.844-.037.006.191-.844-.037-6.291-1.685-10.792-10.124-9.107-16.415 3.336-12.457 1.12-26.341-5.928-37.14-3.559-5.453-2.023-12.759 3.43-16.318 5.454-3.559 12.759-2.023 16.319 3.43 10.652 16.321 14.202 40.624 9.161 59.45-1.458 5.44-7.628 7.266-13.031 7.03z" fill="#ffb400"/><path d="M600.294 451.106c-.04.07-.08.13-.12.2-.92 1.6-1.85 3.2-2.79 4.8-22.692 38.63-50.824 78.482-87.778 105.1-4.554 3.281-10.277 5.947-16.036 4.923-11.222-1.996-16.46-17.807-20.526-27.072-9.597-21.865-14.425-46.743-15.239-70.55-.25-7.22.37-17.59 3.86-25.36 2.45-.39 4.9-.72 7.33-1 43.809-5.191 88.619-2.131 131.299 8.959z" fill="#fff"/><path d="M642.734 471.806c-23.5 55.29-56.09 106.38-97.05 152.11-41.49 46.32-89.41 84.72-142.62 114.3-6.637-15.073-9.15-30.177-1.71-45.33 91.12-55.84 164.71-141.36 205.88-239.89 16.255-5.624 29.274 1.199 35.5 18.81z" fill="#f04e23"/><path d="M576.575 587.43c-6.871.001-12.517-5.491-12.672-12.395-.1-4.419-1.873-8.82-4.864-12.074s-7.228-5.39-11.623-5.86c-2.483-.267-4.701.063-6.078.903-5.977 3.649-13.782 1.76-17.43-4.217-3.649-5.978-1.761-13.782 4.217-17.431 6.224-3.799 13.828-5.345 21.989-4.474 10.436 1.117 20.494 6.188 27.597 13.914 7.103 7.727 11.312 18.175 11.548 28.667.158 7.002-5.39 12.806-12.392 12.963a9.52 9.52 0 0 1-.292.004z" fill="#ffb400"/><path d="M593.479 582.033c-6.918.001-12.575-5.556-12.676-12.496-.118-8.178-4.137-16.461-10.486-21.617s-15.278-7.389-23.309-5.828c-6.875 1.335-13.532-3.152-14.868-10.027-1.337-6.875 3.152-13.532 10.027-14.869 15.431-3.001 31.933 1.124 44.138 11.035 12.205 9.912 19.629 25.215 19.857 40.936.102 7.003-5.493 12.762-12.496 12.864-.062.002-.124.002-.187.002z" fill="#ffb400"/><path d="M601.787 564.858c-5.567 0-10.671-3.693-12.219-9.32-3.337-12.128-14.326-22.087-26.722-24.219-6.902-1.187-11.535-7.745-10.348-14.647 1.186-6.902 7.741-11.535 14.647-10.348 22.091 3.799 40.929 20.873 46.876 42.484 1.858 6.753-2.11 13.733-8.862 15.591a12.655 12.655 0 0 1-3.372.459zm-26.402 33.185c-5.303 0-10.247-3.352-12.023-8.658-1.226-3.661-4.043-6.831-7.536-8.478s-7.73-1.805-11.334-.421c-6.539 2.509-13.873-.758-16.383-7.296-2.509-6.539.758-13.873 7.296-16.382 10.084-3.87 21.469-3.447 31.238 1.161 9.769 4.607 17.338 13.123 20.767 23.364 2.224 6.641-1.357 13.827-7.998 16.051a12.663 12.663 0 0 1-4.027.659z" fill="#ffb400"/><path d="M564.273 591.457c8.201 21.92 20.631 33.799 40.001 40.81 28.863 10.448 51.11-31.728 35.127-61.969-15.41-29.156-15.72 1.699-25.38-21.489-9.661-23.187-49.748 42.648-49.748 42.648zm36.479-391.045c-13.101 55.96-52.51 168.959-35.522 236.76 7.271 29.018-30.364 35.559-52.096 35.556-20.01-.002-44.167-13.305-35.297-29.538 8.729-15.977 14.228-33.497 14.827-47.786.473-11.351-70.293 21.023-84.752-45.993a190.348 190.348 0 0 1-6.43-2.286 5.805 5.805 0 0 1 4.09-10.868c.134.053.259.089.393.143-.875-9.422-.84-20.371.304-33.079-.634-.188-1.277-.375-1.911-.572a5.808 5.808 0 0 1-3.849-7.251 5.805 5.805 0 0 1 7.073-3.894 352.174 352.174 0 0 1 2.652-16.772C420.513 218.23 444.76 115.268 522.76 118.84c77.992 3.572 91.093 25.604 77.992 81.572z" fill="#ffb400"/><path d="M485.262 342.006c-8.332 5.358-34.751 14.881-79.297-5.606-.875-9.422-.84-20.371.304-33.079 10.806 2.474 55.175 13.974 83.753 2.07 28.579-11.914 3.573 31.256-4.76 36.615z" fill="#fff"/><ellipse cx="434.188" cy="228.96" fill="#04294f" rx="16.767" ry="8.25" transform="matrix(.1949 -.9808 .9808 .1949 124.998 610.1998)"/><ellipse cx="494.307" cy="235.541" fill="#04294f" rx="16.767" ry="8.25" transform="matrix(.1949 -.9808 .9808 .1949 166.946 674.4645)"/><path d="M452.557 253.741c-.873-.414-.727-2.644-.112-5.933.621-3.294 1.651-7.676 2.675-12.531 1.013-4.857 1.829-9.283 2.584-12.549.758-3.259 1.52-5.36 2.486-5.388.93-.029 1.891 2.072 2.368 5.599.481 3.516.392 8.456-.713 13.749-1.114 5.291-3.017 9.85-4.869 12.876-1.855 3.04-3.579 4.577-4.419 4.177z" fill="#f04e23"/><path d="M456.385 255.47c-.073.964-3.461 1.497-8.768 2.137-2.633.325-5.844.687-9.206 1.173-1.605.245-3.085.636-4.018 1.247a3.413 3.413 0 0 0-1.068 1.037 4.309 4.309 0 0 0-.602 1.53c-.245 1.199-.053 2.605.455 3.681.504 1.082 1.444 2.143 2.535 2.939 1.102.812 2.369 1.437 3.636 1.874 1.255.442 2.553.711 3.781.906 2.464.374 4.645.482 6.178.717 1.539.225 2.438.553 2.499 1.026.06.468-.703 1.034-2.178 1.629-1.478.581-3.677 1.243-6.647 1.484-2.926.222-6.86-.069-10.712-2.324-1.914-1.143-3.782-2.787-5.084-5.186a12.265 12.265 0 0 1-1.203-8.077 10.717 10.717 0 0 1 1.727-4.095 9.95 9.95 0 0 1 3.288-2.953c2.474-1.354 4.815-1.596 6.755-1.732a64.91 64.91 0 0 1 9.84.265c5.555.606 8.866 1.797 8.792 2.722z" fill="#f04e23"/><path d="M562.455 249.867c.825-1.981 3.029-3.566 5.08-2.936 1.532.47 2.534 2.051 2.708 3.644s-.342 3.185-1.035 4.63c-.541 1.127-1.218 2.229-2.22 2.976s-2.387 1.078-3.531.574c-2.622-1.156-1.833-6.895-1.002-8.888zm-38.331-42.493c-1.398 1.306-6.33-1.72-11.545-6.189-5.2-4.487-8.929-8.911-7.848-10.488 1.059-1.556 6.807.521 12.328 5.279 5.531 4.745 8.444 10.118 7.065 11.398z" fill="#04294f"/><ellipse cx="438.514" cy="195.947" fill="#04294f" rx="7.682" ry="3.435" transform="matrix(.8122 -.5834 .5834 .8122 -31.9511 292.6535)"/><path d="M474.679 327.688c.145.9-3.631 2.445-10.044 3.592-3.202.584-7.06.997-11.363 1.19-4.302.154-9.05.06-14.004-.41a107.847 107.847 0 0 1-13.818-2.301c-4.187-1.009-7.889-2.168-10.92-3.346-6.072-2.351-9.487-4.58-9.175-5.437.7-1.879 15.705 2.476 34.58 4.246 18.861 1.923 34.411.49 34.744 2.466z" fill="#04294f"/><path d="M524.835 383.777c.557.739-.319 2.532-2.54 4.585-2.203 2.049-5.808 4.263-10.199 5.627-4.393 1.355-8.619 1.567-11.594 1.122-2.993-.439-4.729-1.423-4.687-2.348.041-.968 1.773-1.715 4.372-2.5 2.61-.781 6.093-1.672 9.876-2.836 3.78-1.178 7.156-2.411 9.751-3.241 2.589-.823 4.44-1.185 5.021-.409zm172.758-245.461c-23.136 2.703-45.283 13.465-61.63 30.073 5.314-25.336 17.012-47.14 16.159-85.112-.06-2.691-3.181-4.139-5.283-2.458-17.033 13.617-38.033 22.219-52.682 24.909-3.398-43.314-29.79-84.08-67.672-105.244-2.347-1.311-5.279.172-5.542 2.848-2.36 24.007-14.106 47.022-32.3 62.889l6.617-24.914c.538-2.025-1.714-3.664-3.462-2.508-26.508 17.528-47.767 42.926-60.273 72.147-5.233 12.227-8.923 25.105-11.034 38.234-1.777 11.049.132 68.507 8.729 52.015 25.193-50.02 26.15-21.146 50.968-21.623 26.792-.515 83.353-33.341 74.82 0-5.07 19.808-16.77 57.156-20.342 79.185S538.238 279 538.238 279c10.717 1.191 14.289-10.121 18.457-32.15s25.734-15.671 17.994 8.649c-9.678 30.41-22.166 71.778-8.172 71.778 27.544-26.442 50.917-55.294 77.814-82.109 1.211-1.207-.2-3.176-1.728-2.409l-29.329 14.707a313.325 313.325 0 0 0 66.931-65.233c1.005-1.326-.489-3.101-1.97-2.34l-35.885 18.426 56.894-66.884c1.108-1.308.05-3.317-1.651-3.119z" fill="#f04e23"/><ellipse cx="415.906" cy="292.229" fill="#f04e23" rx="1.718" ry="7.842" transform="matrix(.0685 -.9976 .9976 .0685 95.8637 687.1329)"/><ellipse cx="415.906" cy="352.758" fill="#f04e23" rx="1.718" ry="6.592" transform="matrix(.3108 -.9505 .9505 .3108 -48.654 638.4148)"/><path d="M526.19 85.667c-.411-.236-.259-1.49.346-3.51.151-.505.331-1.059.538-1.656l.585-1.979c.414-1.417 1.002-2.969 1.442-4.76l.785-2.763c.273-.958.464-1.984.723-3.023.553-2.069.909-4.334 1.368-6.687.748-4.743 1.3-9.983 1.388-15.51.022-5.527-.425-10.777-1.078-15.534-.412-2.362-.722-4.633-1.234-6.713-.238-1.043-.409-2.073-.662-3.036l-.73-2.779c-.405-1.799-.962-3.362-1.347-4.788l-.546-1.991a40.836 40.836 0 0 1-.505-1.667c-.564-2.032-.691-3.288-.276-3.517s1.339.598 2.674 2.333c.334.434.693.924 1.076 1.468.366.552.714 1.177 1.102 1.846.75 1.347 1.66 2.873 2.395 4.674l1.21 2.815c.407.986.725 2.046 1.103 3.133.791 2.165 1.349 4.558 1.966 7.075a80.05 80.05 0 0 1 1.722 16.748c-.092 5.991-.891 11.667-2.056 16.71-.668 2.505-1.273 4.885-2.107 7.035-.399 1.078-.738 2.132-1.165 3.11l-1.266 2.79c-.771 1.786-1.711 3.294-2.488 4.626-.401.661-.761 1.279-1.138 1.823-.394.537-.763 1.02-1.105 1.447-1.37 1.709-2.309 2.517-2.72 2.28zm79.854 128.104c-.552-.811 1.182-2.949 3.957-6.099a333.009 333.009 0 0 0 4.789-5.513c1.742-2.101 3.613-4.424 5.479-6.939 1.846-2.53 3.507-5.007 4.995-7.296a330.787 330.787 0 0 0 3.839-6.212c2.182-3.587 3.708-5.878 4.646-5.592.876.262.983 3.127-.172 7.487-.567 2.179-1.502 4.696-2.777 7.389a55.023 55.023 0 0 1-4.997 8.296 55.057 55.057 0 0 1-6.434 7.239c-2.192 2.019-4.317 3.66-6.228 4.85-3.82 2.398-6.586 3.149-7.097 2.39z" fill="#ffb400"/><ellipse cx="598.73" cy="267.452" fill="#ffb400" rx="12.85" ry="3.435" transform="matrix(.7959 -.6054 .6054 .7959 -39.7259 417.0596)"/><ellipse cx="628.943" cy="225.224" fill="#ffb400" rx="10.612" ry="3.435" transform="matrix(.7287 -.6848 .6848 .7287 16.3844 491.8079)"/><path d="M470.731 72.527c1.256 1.582-10.664 12.291-20.977 28.665-10.502 16.253-15.19 31.577-17.154 31.104-.875-.209-.841-4.405.794-10.911.414-1.622.908-3.392 1.566-5.249.6-1.881 1.404-3.827 2.246-5.881a94.478 94.478 0 0 1 6.755-12.758 94.52 94.52 0 0 1 8.722-11.503c1.508-1.63 2.934-3.179 4.387-4.516 1.406-1.379 2.803-2.573 4.1-3.632 5.212-4.224 9.003-6.024 9.561-5.319zm65.951 85.007c-.145.998-3.332 1.231-8.057 2.531-2.374.628-5.151 1.555-8.243 2.726-3.094 1.171-6.504 2.607-10.219 4.054-3.75 1.456-7.487 2.679-11.037 3.427-3.549.746-6.891 1.028-9.7.814-2.808-.202-5.039-.794-6.469-1.486-1.435-.683-2.098-1.353-1.975-1.795.281-.978 3.469-.735 8.238-1.573 2.392-.393 5.198-1.098 8.302-2.084 3.107-.991 6.509-2.292 10.155-3.708 3.68-1.433 7.315-2.754 10.772-3.677 3.456-.924 6.72-1.454 9.505-1.51 2.783-.066 5.043.26 6.54.762 1.501.494 2.249 1.062 2.188 1.519zm50.442 85.397c-.969-.137-1.513-1.795-2.486-3.905-.944-2.116-2.432-4.764-4.719-6.861-2.294-2.09-5.064-3.334-7.256-4.086-2.188-.78-3.888-1.173-4.112-2.126-.229-.869 1.304-2.291 4.453-2.72 1.554-.211 3.468-.117 5.505.472 2.032.583 4.178 1.698 6.045 3.389 1.852 1.708 3.155 3.746 3.917 5.717.769 1.976 1.034 3.874.962 5.441-.145 3.175-1.423 4.829-2.309 4.679z" fill="#ffb400"/><path d="M547.79 287.373c.279.89-.567 2.09-2.385 3.082-1.801.992-4.589 1.694-7.68 1.536-3.091-.164-5.791-1.151-7.48-2.325-1.706-1.175-2.423-2.456-2.053-3.313.379-.884 1.705-1.224 3.463-1.336 1.769-.105 3.991-.02 6.426.112 2.435.121 4.655.266 6.403.555 1.737.295 3.021.771 3.306 1.689z" fill="#f04e23"/><path d="M846.094 620.616c-3.75 40.56-33.77 77.52-74.72 91.97-13.56 4.79-28.11 7.15-42.97 7.15-22.51 0-45.76-5.42-67.5-16.1-7.91-3.89-14.64-8.15-20.51-12.66-14.74-11.35-24.07-24.31-33.17-36.96-2.849-3.95-5.778-8.03-8.953-12.158a2.338 2.338 0 0 1 .014-2.874c15.404-19.308 31.79-31.828 49.079-37.718a2.322 2.322 0 0 1 3.271.411c3.789 4.939 7.152 9.617 10.159 13.79 11.26 15.65 16.77 22.83 29.2 28.93 20.27 9.95 41.93 12.12 59.41 5.95 16.57-5.85 29.59-20.9 30.97-35.8 1.38-14.96-7.96-32.53-23.79-44.78-18.94-14.64-45.15-21.84-65.86-26.48-6.56-1.46-14.59-2.62-23.09-3.85-5.14-.74-10.42-1.5-15.77-2.38.21-3.3.42-6.61.63-9.94.21-3.42.43-6.87.64-10.33.02-.25.03-.55.05-.91.02-.2.03-.4.04-.61 0-.06 0-.11.01-.17.02-.3.03-.61.05-.91.04-.66.07-1.31.11-1.97.02-.48.05-1 .07-1.53.62-11.05 1.84-32.27 3.03-39.83 6.71 1.26 13.82 2.29 20.57 3.26 9.36 1.35 19.03 2.74 28.07 4.77 27.39 6.13 62.58 16.06 91.82 38.67 33.77 26.119 52.6 65.609 49.14 103.059z" fill="#fff"/><path d="M496.355 555.715c-.928.032-1.972-4.209-2.552-11.157-.584-6.941-.615-16.592.432-27.171 1.057-10.578 2.988-20.034 4.927-26.724 1.937-6.698 3.796-10.65 4.699-10.436 1.902.473-.781 17.195-2.789 37.84-2.096 20.635-2.759 37.559-4.717 37.648z" fill="#04294f"/><path d="M556.993 476.73c1.088 1.555-10.765 11.727-26.474 22.721-.961.664-1.977 1.414-3.245 2.121-1.251.692-2.796 1.354-4.611 1.498-1.817.153-3.651-.34-5.022-1.11-1.386-.765-2.415-1.706-3.257-2.613a25.195 25.195 0 0 1-2.118-2.671l-1.623-2.389a161.38 161.38 0 0 1-2.8-4.329c-3.338-5.359-5.026-8.963-4.274-9.541.752-.579 3.802 1.978 8.125 6.579a161.522 161.522 0 0 1 3.465 3.817l1.87 2.147c.611.702 1.224 1.359 1.844 1.923.616.566 1.243 1.006 1.786 1.25.55.243.959.287 1.399.232.446-.058 1.079-.29 1.852-.744.766-.442 1.663-1.097 2.67-1.8 15.709-10.993 29.326-18.645 30.413-17.091z" fill="#04294f"/><path d="M468.919 467.853c1.597-1.025 9.505 8.448 17.664 21.158l.315.492.078.123.009.014-.001.001-.005.009a.175.175 0 0 0-.004.06.068.068 0 0 0 .045.046.213.213 0 0 0 .053.011h.017l.23-.17.457-.338a159.039 159.039 0 0 1 3.516-2.523c2.254-1.571 4.312-2.909 6.085-3.958 3.545-2.099 5.947-3.042 6.483-2.381.535.661-.887 2.814-3.678 5.845-1.395 1.516-3.132 3.25-5.138 5.128a166.059 166.059 0 0 1-3.2 2.914l-.426.376-.644.552-1.754 1.474-3.662 3.048-4.558-7.012c-8.159-12.71-13.479-23.844-11.882-24.869zm198.637 165.53c.76.515-.217 3.591-2.92 7.922-1.343 2.168-3.155 4.607-5.357 7.162a74.945 74.945 0 0 1-7.822 7.687 75.045 75.045 0 0 1-8.903 6.403c-2.892 1.736-5.603 3.107-7.968 4.063-4.728 1.928-7.925 2.368-8.303 1.532-.789-1.815 9.656-7.813 20.747-17.251 11.186-9.33 18.871-18.604 20.526-17.518z" fill="#04294f"/><ellipse cx="617.825" cy="647.936" fill="#04294f" rx="3.435" ry="10.295" transform="matrix(.8772 -.4802 .4802 .8772 -235.2308 376.2294)"/><path d="M173.879 636.98c.229.883-2.284 2.49-6.809 3.773-2.256.65-5.012 1.152-8.107 1.444a57.439 57.439 0 0 1-10.105-.063 57.338 57.338 0 0 1-9.921-1.922c-2.977-.894-5.581-1.927-7.666-3.008-4.185-2.147-6.333-4.216-5.935-5.037.423-.887 3.248-.411 7.546.453 2.148.444 4.689.93 7.495 1.427 2.815.461 5.901.914 9.158 1.25 3.26.31 6.374.473 9.225.573 2.849.064 5.436.086 7.629.073 4.386-.004 7.25.085 7.49 1.037z" fill="#04294f"/><ellipse cx="173.218" cy="621.226" fill="#04294f" rx="3.435" ry="9.503" transform="matrix(.9996 -.0297 .0297 .9996 -18.3965 5.4256)"/><path d="M435.263 844.507c-.465 1.34-3.547 1.493-6.818.143-3.274-1.347-5.355-3.643-4.73-4.917.627-1.282 3.582-1.126 6.695.153 3.113 1.285 5.322 3.272 4.853 4.621zm31.501 7.85c-.226 1.394-5.595 1.709-11.949.322-6.362-1.378-11.118-3.985-10.708-5.341.411-1.369 5.634-1.029 11.809.308 6.176 1.349 11.079 3.296 10.848 4.711zm32.28 3.675c-.074 1.415-5.378 2.289-11.823 1.653-6.446-.629-11.48-2.519-11.276-3.921.204-1.414 5.463-1.823 11.78-1.207 6.315.623 11.394 2.049 11.319 3.475zm32.486.195c.077 1.415-5.104 2.848-11.579 2.904-6.475.063-11.682-1.273-11.631-2.689.051-1.428 5.236-2.4 11.583-2.463 6.348-.055 11.551.822 11.627 2.248zm32.327-3.254c.227 1.399-4.774 3.373-11.207 4.116-6.432.75-11.752-.027-11.851-1.44-.101-1.425 4.952-2.943 11.258-3.678 6.306-.729 11.572-.408 11.8 1.002zm31.796-6.672c.375 1.366-4.386 3.864-10.704 5.287-6.317 1.43-11.688 1.222-11.937-.173-.252-1.406 4.611-3.451 10.802-4.853 6.192-1.395 11.462-1.639 11.839-.261zm20.82-6.367c.471 1.343-1.838 3.301-5.156 4.372s-6.336.833-6.739-.532c-.404-1.365 1.905-3.322 5.156-4.372 3.251-1.049 6.268-.811 6.739.532z" fill="#00aee0"/><g fill="#fff"><ellipse cx="517.007" cy="904.795" rx="2.576" ry="6.25" transform="matrix(.9948 -.102 .102 .9948 -89.576 57.4419)"/><ellipse cx="518.997" cy="924.214" rx="2.576" ry="7.373" transform="matrix(.9948 -.102 .102 .9948 -91.5416 57.743)"/><ellipse cx="520.988" cy="943.633" rx="2.576" ry="6.25" transform="matrix(.9948 -.102 .102 .9948 -93.5109 58.0468)"/><ellipse cx="534.063" cy="904.089" rx="2.576" ry="6.25" transform="matrix(.9953 -.0967 .0967 .9953 -84.9467 55.8985)"/><ellipse cx="536.279" cy="926.886" rx="2.576" ry="9.252" transform="matrix(.9953 -.0967 .0967 .9953 -87.1407 56.2192)"/><ellipse cx="538.494" cy="949.683" rx="2.576" ry="6.25" transform="matrix(.9953 -.0967 .0967 .9953 -89.3361 56.5409)"/><ellipse cx="571.06" cy="995.868" rx="2.577" ry="12.498" transform="matrix(.9861 -.1664 .1664 .9861 -157.7544 108.9112)"/><ellipse cx="576.84" cy="1030.384" rx="2.576" ry="12.498" transform="matrix(.9865 -.164 .164 .9865 -161.1563 108.5396)"/><ellipse cx="582.542" cy="1064.912" rx="2.576" ry="12.5" transform="matrix(.9868 -.1619 .1619 .9868 -164.7158 108.3563)"/><ellipse cx="588.171" cy="1099.462" rx="2.577" ry="12.501" transform="matrix(.9872 -.1597 .1597 .9872 -168.0263 108.035)"/><ellipse cx="593.716" cy="1134.013" rx="2.576" ry="12.492" transform="matrix(.9876 -.1572 .1572 .9876 -170.9035 107.4453)"/><ellipse cx="599.167" cy="1168.579" rx="2.576" ry="12.501" transform="matrix(.988 -.1543 .1543 .988 -173.14 106.4492)"/><ellipse cx="604.506" cy="1203.171" rx="2.576" ry="12.5" transform="matrix(.9886 -.1507 .1507 .9886 -174.4221 104.8455)"/><ellipse cx="609.701" cy="1237.783" rx="2.576" ry="12.501" transform="matrix(.9893 -.146 .146 .9893 -174.178 102.2761)"/><ellipse cx="614.699" cy="1272.43" rx="2.577" ry="12.5" transform="matrix(.9902 -.1393 .1393 .9902 -171.2919 98.0572)"/><path d="M621.005 1319.511c-1.412.174-3.276-5.228-4.163-12.066s-.463-12.536.947-12.727 3.274 5.211 4.163 12.066.465 12.553-.947 12.727zm3.86 34.79c-1.417.127-3.159-5.318-3.891-12.162-.731-6.844-.179-12.529 1.234-12.699s3.155 5.275 3.891 12.162.183 12.572-1.234 12.699z"/><ellipse cx="566.757" cy="968.909" rx="3.435" ry="10.795" transform="matrix(.1682 -.9858 .9858 .1682 -483.6656 1364.6497)"/></g><path d="M361.976 768.836c.197.662-.28 1.52-1.491 2.212-1.202.675-3.133 1.066-5.235.618-2.1-.453-3.845-1.733-4.58-3.028-.768-1.294-.622-2.354-.048-2.73.601-.404 1.474-.23 2.419-.037l3.308.76c1.285.271 2.531.52 3.553.82 1.015.292 1.869.688 2.074 1.385zm18.963-11.699c.802 1.175-1.501 4.142-5.142 6.625-3.606 2.486-7.353 3.549-8.074 2.325-.726-1.23 1.518-4.066 5.171-6.583 3.641-2.482 7.243-3.543 8.045-2.367z" fill="#ffb400"/><ellipse cx="391.381" cy="750.016" fill="#ffb400" rx="6.25" ry="2.577" transform="matrix(.8262 -.5634 .5634 .8262 -354.5481 350.9008)"/><path d="M446.128 463.039c-1.423.033-2.578-2.765-2.58-6.249s1.151-6.283 2.573-6.251 2.578 2.829 2.58 6.249c.002 3.419-1.15 6.218-2.573 6.251zm2.086 30.909c-1.408.172-3.154-4.656-3.65-10.807-.502-6.15.443-11.196 1.86-11.254 1.427-.059 2.783 4.801 3.276 10.837.487 6.037-.068 11.052-1.486 11.224zm5.007 30.571c-1.385.304-3.581-4.336-4.658-10.411-1.083-6.075-.62-11.187.785-11.379 1.415-.194 3.225 4.515 4.288 10.477 1.057 5.963.98 11.007-.415 11.313zm8.11 29.886c-1.329.539-4.216-3.861-5.845-9.848-1.577-5.97-1.68-11.08-.302-11.405 1.392-.329 3.722 4.169 5.265 10.02 1.583 5.815 2.194 10.704.882 11.233zm18.708 23.788c-.312.625-1.758.665-3.797-.098-2.024-.754-4.627-2.367-6.866-4.82-2.219-2.408-3.665-5.014-4.36-7.022-.7-2.018-.695-3.439-.073-3.769 1.305-.663 4.392 3.146 8.224 7.301 3.733 4.127 7.486 7.09 6.872 8.408zm20.594 1.252c.301.635-.074 1.547-1.09 2.405-1.004.856-2.669 1.608-4.602 1.835-1.933.225-3.693-.11-4.862-.679-1.179-.569-1.781-1.337-1.667-2.032.115-.708.891-1.222 1.967-1.599 1.083-.375 2.462-.634 3.961-.808 1.499-.179 2.868-.248 3.991-.154 1.115.1 1.995.382 2.302 1.032z" fill="#00aee0"/><path d="M579.811 576.093c-.688.31-2.202-1.858-4.932-4.83-2.706-2.976-6.822-6.701-12.179-9.35-5.358-2.646-10.818-3.654-14.825-3.997-4.019-.364-6.661-.25-6.833-.985-.169-.639 2.281-2.067 6.749-2.658 4.412-.608 10.907-.088 17.192 3.02 6.286 3.105 10.644 7.949 12.841 11.823 2.243 3.91 2.597 6.723 1.987 6.977zm3.133-19.486c-1.186.923-7.759-6.176-17.892-11.811-10.05-5.782-19.521-7.758-19.341-9.25.083-.671 2.649-1.065 6.738-.518 2.043.263 4.438.822 7.033 1.669a49.188 49.188 0 0 1 8.107 3.613 49.14 49.14 0 0 1 7.273 5.086c2.064 1.787 3.777 3.553 5.055 5.168 2.575 3.224 3.559 5.627 3.027 6.043zm11.105-5.342c-1.38.56-5.303-6.552-12.17-13.427-6.765-6.977-13.813-11.013-13.23-12.384.275-.624 2.492-.411 5.727.957 1.618.675 3.455 1.679 5.383 2.973a40.82 40.82 0 0 1 5.793 4.84 40.81 40.81 0 0 1 4.747 5.869c1.262 1.95 2.237 3.802 2.886 5.431 1.315 3.256 1.493 5.476.864 5.741zm44.277 19.614c-.619.39-1.812-.368-3.432-1.566-1.622-1.209-3.732-2.825-6.206-4.386-2.482-1.549-4.855-2.745-6.649-3.68-1.783-.938-2.985-1.683-2.903-2.409.073-.684 1.497-1.226 3.817-1.118 2.303.098 5.469.961 8.474 2.842 3 1.888 5.155 4.362 6.245 6.394 1.106 2.041 1.238 3.559.654 3.923zm-108.452-24.484c.195-1.567 1.52-2.832 3.025-3.311s3.148-.287 4.667.146c.722.206 1.445.474 2.025.951s1.003 1.196.963 1.946c-.072 1.378-1.543 2.211-2.861 2.619-2.383.74-8.381 2.162-7.819-2.351zm18.668-23.553c1.271.23 2.625.93 2.944 2.181.253.99-.241 2.05-.987 2.749-.746.698-1.71 1.107-2.652 1.501-1.149.481-2.322.968-3.563 1.075-1.241.106-2.585-.228-3.41-1.161-3.498-3.96 4.965-6.835 7.668-6.345zm20.981-10.114c.698.621 1.295 1.539 1.051 2.44-.23.852-1.117 1.346-1.961 1.605a8.231 8.231 0 0 1-5.49-.256c-2.16-.889-3.061-3.468-.876-4.896 2.059-1.345 5.601-.383 7.276 1.107zm-34.076 49.531a6.293 6.293 0 0 1 5.146-.369c1.229.459 2.389 1.479 2.454 2.789.044.896-.441 1.754-1.104 2.357s-1.493.988-2.319 1.337c-1.278.541-2.648 1.027-4.024.847-4.526-.593-3.092-5.354-.153-6.961zm-352.331-1.806c-.673.281-1.726-.66-3.111-2.128-1.385-1.478-3.164-3.462-5.284-5.489-2.13-2.018-4.199-3.695-5.745-5.006-1.535-1.311-2.527-2.315-2.279-3.002.231-.65 1.731-.845 3.95-.236 2.207.598 5.082 2.095 7.626 4.511 2.539 2.421 4.177 5.219 4.883 7.393.719 2.186.598 3.694-.04 3.957zm-2.566 18.941c.442.494-.937 2.697-4.168 5.27-.809.636-1.719 1.308-2.762 1.925-1.016.67-2.178 1.244-3.401 1.858a39.857 39.857 0 0 1-8.432 2.806 39.89 39.89 0 0 1-8.855.75c-1.366-.081-2.66-.15-3.858-.364-1.202-.155-2.303-.414-3.297-.678-3.985-1.088-6.121-2.568-5.91-3.196.23-.72 2.681-.513 6.447-.408.944.022 1.968.059 3.069.021 1.096.021 2.266-.074 3.489-.122 2.447-.184 5.113-.499 7.877-1.05 2.757-.585 5.331-1.348 7.652-2.145 1.143-.439 2.255-.814 3.254-1.266 1.026-.4 1.952-.837 2.811-1.23 3.419-1.584 5.589-2.742 6.084-2.171z" fill="#f04e23"/></svg></g><g transform="translate(701.0 307.0) rotate(5.9192090614083845 -301.5 231.5) scale(-3.0095977719992613 3.0111862643080127)"><svg width="200.359" height="153.76" viewBox="0 0 200.359 153.76"><path d="M186.79 49.49c.33-1.48.63-3 .89-4.49a.665.665 0 0 1 .07-.36 58.918 58.918 0 0 0-4.5-5.53c.41-1.89.79-3.79 1.12-5.71 0 0-27-38.05-68.23-16.61a11.53 11.53 0 0 1-2.95-.55 16.432 16.432 0 0 1-2.88-1.17S96.94-2.65 55.87.34C27.27 67.6 9.28 69.24 9.28 69.24a97.345 97.345 0 0 1 11.16 1.11c-6.16 5.83-9.54 6.15-9.54 6.15 1.83.08 3.6.2 5.32.36s3.33.33 4.92.55c-6.1 5.37-9.56 5.89-9.56 5.89 3.68.16 7.13.45 10.38.85 34.71 4.21 45.83 20.42 46.19 21a24.835 24.835 0 0 0 7.66 2.14c.6-.33 1.19-.64 1.78-.93 38.53-18.88 68.5 27.82 68.5 27.82s35.75-33.57 44.36-77.75c.13-.69.26-1.37.38-2.05.01.03-1.41-1.95-4.04-4.89z" fill="#ffb400"/><path d="M187.68 45c-.26 1.51-.56 3-.89 4.49a56.448 56.448 0 0 1 4 4.92c-.12.68-.25 1.36-.38 2.05-8.56 44.18-44.31 77.78-44.31 77.78s-30-46.7-68.5-27.82c-.59.29-1.18.6-1.78.93a24.835 24.835 0 0 1-7.66-2.14c-.36-.55-11.48-16.76-46.19-21-3.25-.4-6.7-.69-10.38-.85 0 0 3.46-.52 9.56-5.89-1.59-.22-3.23-.4-4.92-.55a70.066 70.066 0 0 1-5.57 5.37c-5.7 4.86-8.92 5.61-8.92 5.61 5.47.24 10.57.69 15.29 1.31 29.18 3.79 44.3 13.7 49.07 17.41 1.15.9 1.7 1.43 1.7 1.43a26.72 26.72 0 0 0 8.32 2.34c42-17.72 69.21 31.77 69.21 31.77s39.26-34.31 50.1-80.44c.49-2 .91-4.09 1.27-6.16A85.329 85.329 0 0 0 187.68 45z" fill="#f04e23"/><path d="M196.69 55.54c-.36 2.07-.78 4.13-1.27 6.16-10.84 46.13-50.1 80.44-50.1 80.44s-27.26-49.49-69.21-31.77a26.72 26.72 0 0 1-8.32-2.34s-.55-.53-1.7-1.43c-4.77-3.71-19.89-13.62-49.07-17.41-4.72-.62-9.82-1.07-15.29-1.31-3.12 1.51-1.8 9.64 2.2 9.86 47.46 2.07 64.57 21.35 64.57 21.35 3.51 1.85 10.18 2.8 10.18 2.8 42-17.72 64.86 31.87 64.86 31.87s48.16-36.84 56.74-86c.43-2.35-.92-8.35-3.59-12.22z" fill="#04294f"/><path d="M112.75 19.56c-1.8 6.75-4 13.37-6.39 19.92-1.2 3.28-2.44 6.54-3.78 9.76s-2.68 6.45-4.12 9.63a208.54 208.54 0 0 1-9.43 18.71 132.546 132.546 0 0 1-11.71 17.41.5.5 0 0 1-.83-.54c3.22-6.18 6.4-12.31 9.43-18.52 1.57-3.07 3-6.22 4.54-9.31l4.4-9.39c.74-1.56 1.43-3.15 2.14-4.73s1.44-3.14 2.14-4.72l2.1-4.75c.71-1.59 1.41-3.17 2.09-4.76l8.27-19.11a.6.6 0 0 1 .788-.315l.012.005a.609.609 0 0 1 .35.71z" fill="#04294f"/><path d="M182.31 43.33a1.21 1.21 0 0 0-1.5.81v.1a178.005 178.005 0 0 1-6.3 18.26c-1.14 3-2.57 5.91-3.85 8.86s-2.77 5.82-4.32 8.64a192.547 192.547 0 0 1-9.81 16.64c-3.14 4.78-6.47 9.49-10 13.9-.67-.63-1.33-1.24-2-1.85a66.443 66.443 0 0 0-3.79-3.1 72.752 72.752 0 0 0-8.15-5.39 61 61 0 0 0-18.35-6.96 53.49 53.49 0 0 0-19.65-.22 61.983 61.983 0 0 0-17.89 6.29 28.033 28.033 0 0 1-3.11-.59 18.53 18.53 0 0 1-3-1.07 47.46 47.46 0 0 0-3.95-5 61.779 61.779 0 0 0-4.87-4.84 71.332 71.332 0 0 0-11-8.1c-1-.6-2-1.1-3-1.66l-1.5-.81-1.54-.72-3.1-1.43-3.18-1.22-1.58-.61c-.54-.19-1.09-.34-1.62-.51l-3.25-1c-2.18-.62-4.41-1.05-6.6-1.58a1.16 1.16 0 0 0-.59 2.24h.1c2.12.59 4.27 1.09 6.36 1.76l3.12 1.06c.51.18 1 .34 1.55.54l1.52.63 3 1.27 2.94 1.45 1.47.74 1.42.82c.94.55 1.91 1.06 2.82 1.66a69.506 69.506 0 0 1 10.38 7.9 58.727 58.727 0 0 1 4.54 4.66 44.011 44.011 0 0 1 3.82 5.07 1.818 1.818 0 0 0 .69.63 20.4 20.4 0 0 0 4.09 1.58c.69.18 1.38.35 2.07.49s1.36.25 2.13.34a1.786 1.786 0 0 0 1-.19 58.389 58.389 0 0 1 17.32-6.07 53.584 53.584 0 0 1 9.13-.69 54.429 54.429 0 0 1 9.09 1 60.589 60.589 0 0 1 17.16 6.49 69.13 69.13 0 0 1 7.74 5.07 58.068 58.068 0 0 1 6.88 6l.08.08a1.063 1.063 0 0 0 .16.14 1.89 1.89 0 0 0 2.65-.26 165.665 165.665 0 0 0 11.51-16q5.28-8.3 9.71-17.09c1.53-2.9 2.85-5.9 4.26-8.86l1.9-4.54c.65-1.5 1.23-3 1.79-4.57a162.055 162.055 0 0 0 5.83-18.76 1.22 1.22 0 0 0-.73-1.43z" fill="#04294f"/><path d="M186.39 51.49a.479.479 0 0 0-.615.287v.013l-1.66 4.9-.81 2.45-.92 2.4-1.85 4.81-2.06 4.71-1 2.35-1.12 2.31c-.76 1.53-1.48 3.08-2.27 4.6-1.63 3-3.18 6.06-5 9a204.94 204.94 0 0 1-11.17 17.2l-3.06 4.12c-1.06 1.34-2.1 2.7-3.18 4-1.71 2.12-3.47 4.23-5.28 6.23a70.236 70.236 0 0 0-7.21-7.13 72.1 72.1 0 0 0-9.92-7.2 57.723 57.723 0 0 0-11.07-5.19l-2.92-.94c-1-.25-2-.46-3-.7l-1.49-.33-1.51-.2-3-.38a.6.6 0 1 0-.2 1.19l2.9.65 1.44.32 1.41.44c.94.3 1.88.57 2.81.89l2.74 1.1A60.126 60.126 0 0 1 127.68 109a77.952 77.952 0 0 1 9.22 7.28c1.43 1.34 2.83 2.71 4.16 4.15s2.64 2.92 3.77 4.38a1.529 1.529 0 0 0 .17.19 1.851 1.851 0 0 0 2.61 0 150.028 150.028 0 0 0 13.45-16.14 161.96 161.96 0 0 0 11.31-17.62c1.72-3 3.24-6.2 4.76-9.34.73-1.59 1.39-3.21 2.08-4.81l1-2.41c.32-.81.6-1.64.9-2.46l1.77-4.93 1.46-5c.24-.84.5-1.67.72-2.51l.56-2.56c.38-1.7.71-3.41 1.07-5.11a.49.49 0 0 0-.3-.62zM22.83 77.09a36.058 36.058 0 0 1 7.2.34 44.909 44.909 0 0 1 7 1.54 37.929 37.929 0 0 1 6.7 2.68 25.482 25.482 0 0 1 5.94 4.2.519.519 0 0 1 0 .73.548.548 0 0 1-.47.14c-2.4-.47-4.61-1.15-6.83-1.81s-4.37-1.42-6.55-2.15l-6.58-2.15c-2.2-.73-4.43-1.44-6.66-2.32a.62.62 0 0 1 .19-1.2z" fill="#04294f"/><g fill="#fff"><path d="M29.69 58.29c-1 1-1.91 2-2.88 2.93 12.41 1.89 35 8.47 44.48 25.08.62-1.11 1.25-2.27 1.9-3.45-10.94-17.01-33.61-22.8-43.5-24.56zm40.16-36.13c.42-1.12.83-2.21 1.23-3.29a86.726 86.726 0 0 0-15.84-2.46c-.48 1.07-1 2.18-1.52 3.32a85.347 85.347 0 0 1 16.13 2.43zm4.51-2.36c-.39 1.08-.8 2.17-1.22 3.28 8.77 2.71 17.32 7.33 22.82 15 .55-1.16 1.09-2.33 1.64-3.5-6.12-7.66-14.76-12.15-23.24-14.78zm14.83-3.09c.41-1.23.79-2.42 1.16-3.57-10-4.57-22.51-6-31-6.5-.41 1-.88 2.17-1.41 3.41 14.66.34 24.62 3.32 31.25 6.66zm4.27-2.01c-.38 1.18-.78 2.41-1.21 3.67 6.66 4 9 8 9.05 8.06l1.58-3.59a27.468 27.468 0 0 0-9.42-8.14zM70.67 49.82c.52-1.06 1-2.11 1.51-3.16-9.44-5.63-20.24-8-27.71-9.07-.62 1.06-1.25 2.13-1.89 3.19 8.33 1.06 19.09 3.63 28.09 9.04zm-25.42.42c-2.22-.55-4.3-1-6.14-1.29l-1.62-.26q-1.1 1.571-2.22 3.09c2.41.34 5.1.83 7.94 1.5.68-1.04 1.36-2.04 2.04-3.04zm21.47 13c.57-1 1.14-2.06 1.69-3.09a66.756 66.756 0 0 0-19.7-9.06c-.66 1-1.33 2-2 3a65.6 65.6 0 0 1 20.01 9.15zm2.73 2.11a35.749 35.749 0 0 1 8.08 9.31l1.86-3.49a40.593 40.593 0 0 0-8.2-8.93q-.87 1.55-1.74 3.11zM59.06 32.8c.5-1.08 1-2.15 1.46-3.21a90.577 90.577 0 0 0-10.73-1.81c-.55 1.08-1.12 2.16-1.69 3.25a88.052 88.052 0 0 1 10.96 1.77zm11.28-.21c-2.17-.84-4.35-1.56-6.48-2.15q-.7 1.59-1.44 3.21c2.14.59 4.29 1.29 6.41 2.1.52-1.05 1.02-2.11 1.51-3.16zm3.14 1.31c-.49 1-1 2.1-1.5 3.16 7 3.14 13.36 7.71 17.57 14.29.57-1.17 1.15-2.33 1.73-3.51-4.66-6.47-11.09-10.89-17.8-13.94zm53.55-.66a42.509 42.509 0 0 1 11.27.39c.27-1.11.53-2.2.77-3.28a45.381 45.381 0 0 0-12.38-.51 47.047 47.047 0 0 0-10 2.1c-.45 1.36-.91 2.74-1.39 4.14a43.428 43.428 0 0 1 11.73-2.84zm15.37-2.13c-.24 1.07-.5 2.15-.77 3.26 10.21 2.54 20.12 8.85 29.62 18.88.44-1.22.85-2.42 1.25-3.6-10.75-10.95-21.11-16.27-30.1-18.54zm-22.37 14.13a42.509 42.509 0 0 1 11.27.39c.27-1.11.53-2.2.77-3.28a45.381 45.381 0 0 0-12.38-.51 47.047 47.047 0 0 0-10 2.1c-.45 1.36-.91 2.74-1.39 4.14a43.428 43.428 0 0 1 11.73-2.84zm15.37-2.13a50.57 50.57 0 0 1 5.17 1.6l-.81 3.27a44.673 44.673 0 0 0-5.13-1.61c.27-1.11.53-2.19.77-3.26zm30.1 18.54c-.4 1.18-.81 2.38-1.25 3.6q-10.26-10.845-21.13-15.86l1.49-2.99a72 72 0 0 1 20.89 15.25zm-56.47 9.59a42.509 42.509 0 0 1 11.27.39c.27-1.11.53-2.2.77-3.28a45.381 45.381 0 0 0-12.38-.51 47.047 47.047 0 0 0-10 2.1c-.45 1.36-.91 2.74-1.39 4.14a43.428 43.428 0 0 1 11.73-2.84zm15.37-2.13c-.24 1.07-.5 2.15-.77 3.26 10.21 2.54 20.12 8.85 29.62 18.88.44-1.22.85-2.42 1.25-3.6-10.75-10.95-21.11-16.27-30.1-18.54zm-21.37 14.13a42.509 42.509 0 0 1 11.27.39c.27-1.11.53-2.2.77-3.28a45.381 45.381 0 0 0-12.38-.51 47.047 47.047 0 0 0-10 2.1c-.45 1.36-.91 2.74-1.39 4.14a43.428 43.428 0 0 1 11.73-2.84zm15.37-2.13a54.657 54.657 0 0 1 14.36 5.99l-1.5 3.01a50.165 50.165 0 0 0-13.63-5.74c.27-1.11.53-2.19.77-3.26zm30.1 18.54c-.4 1.18-.81 2.38-1.25 3.6a80.876 80.876 0 0 0-12.44-10.85l1.67-2.92a80.484 80.484 0 0 1 12.02 10.17zm-15.79-77.2c9.86-.76 19.5 1.8 28.81 7.6.3-1.18.57-2.32.83-3.43-11.72-7-22.27-8.19-30.09-7.56a47.616 47.616 0 0 0-12.24 2.66c-.42 1.34-.86 2.75-1.33 4.22a43.689 43.689 0 0 1 14.02-3.49zm32.69 6.1c-.28 1.12-.56 2.28-.87 3.48a80.152 80.152 0 0 1 10.62 9c.37-1.29.71-2.56 1-3.77a78.259 78.259 0 0 0-10.75-8.71zm-60.38 28.17a47.886 47.886 0 0 1 9.11-2.3l-1.23 3.68a43.82 43.82 0 0 0-9.21 2.84c.47-1.47.91-2.88 1.33-4.22zm42.33 4.9c-.26 1.11-.53 2.25-.83 3.43-9.31-5.8-18.95-8.36-28.81-7.6-.2.02-.41.03-.61.06l1.17-3.52c7.71-.45 17.86.93 29.08 7.63zm3.05 1.93c-.28 1.12-.56 2.28-.87 3.48a80.152 80.152 0 0 1 10.62 9c.37-1.29.71-2.56 1-3.77a78.259 78.259 0 0 0-10.75-8.71z"/></g></svg></g><g transform="translate(238.0 131.0) rotate(0.0 136.5 83.5) scale(0.3202315989996575 0.3229593129282354)"><svg width="852.508" height="517.093" viewBox="0 0 852.508 517.093"><g fill="#FFB400"><path d="M438.729.042c14.194 1.155 24.961 25.018 32.305 62.077 3.646 18.545 6.578 40.424 8.602 64.585 2.108 24.166 3.356 50.615 3.732 78.387.439 27.772-.035 54.246-1.433 78.464-1.316 24.209-3.605 46.165-6.706 64.808-6.256 37.259-16.318 61.426-30.473 62.997-13.997 1.556-29.47-20.081-41.827-57.124-6.2-18.504-11.469-40.838-15.393-65.846-3.84-25.008-6.283-52.692-6.741-81.795-.395-29.105 1.237-56.848 4.342-81.958 3.19-25.113 7.803-47.592 13.458-66.268C409.86 20.977 424.693-1.103 438.729.042z"/><ellipse cx="721.912" cy="422.55" rx="152.812" ry="51.292" transform="matrix(.8341 -.5516 .5516 .8341 -113.3218 468.2627)"/><ellipse cx="123.574" cy="411.359" rx="51.293" ry="152.812" transform="matrix(.6248 -.7808 .7808 .6248 -274.8205 250.8329)"/><path d="M264.636 298.476c-7.541 2.467-17.794-6.382-29.151-21.702-5.663-7.682-11.72-16.964-17.865-27.418-6.21-10.429-12.545-22.017-18.87-34.344-6.372-12.304-12.136-24.185-17.029-35.294-4.951-11.07-8.998-21.389-11.971-30.457-5.891-18.137-7.15-31.623-.767-36.334 6.273-4.635 19.179.604 34.33 14.029 7.582 6.688 15.601 15.467 23.535 25.909 7.873 10.476 15.622 22.634 22.558 36.033 6.89 13.421 12.299 26.787 16.265 39.276 3.903 12.52 6.402 24.144 7.451 34.201 2.148 20.129-1.072 33.679-8.486 36.101zm475.017-186.885c5.812 5.406 2.312 19.427-6.74 38.075-4.553 9.319-10.414 19.894-17.326 31.208-6.853 11.362-14.723 23.492-23.263 36.032-8.494 12.57-16.855 24.366-24.88 34.934-7.958 10.603-15.617 19.959-22.594 27.634-13.98 15.304-25.716 23.739-32.886 20.337-7.045-3.339-8.084-18.13-2.669-39.306 2.684-10.584 7.084-22.673 13.051-35.565 6.027-12.852 13.659-26.483 22.816-40.029 9.202-13.516 19.046-25.645 28.759-35.997 9.774-10.309 19.381-18.867 28.223-25.273 17.675-12.861 31.803-17.363 37.509-12.05z"/></g></svg></g></svg>