<svg xmlns="http://www.w3.org/2000/svg" viewBox="0 0 1600 1200" width="1600" height="1200"><g transform="translate(396.0 82.0) rotate(0.0 445.5 332.0) translate(10.501713090946533 9.18899895457821) scale(2.901155578130952 2.8880992044678546)"><svg width="299.536" height="168.277" viewBox="3.62 3.182 299.536 168.277"><path d="M121.322 148.638h69.889v77.764h-69.889z"/><path d="M78.01 223.88h156.513v6.029H78.01zM0 0h307.119v198.84H0z" fill="#0E0E1C"/><path d="M5.414 4.958h296.291v163.755H5.414z" fill="#fff"/><circle cx="282.15" cy="183.469" r="8.754"/></svg></g><g transform="translate(385.0 384.0) rotate(0.0 437.5 326.0) translate(9.103345600784095 9.103345600784092) scale(2.8490585082655255 2.835904640531689)"><svg width="301.152" height="167.848" viewBox="3.195 3.21 301.152 167.848"><path d="M121.322 148.638h69.889v77.764h-69.889z"/><path d="M78.01 223.88h156.513v6.029H78.01zM0 0h307.119v198.84H0z" fill="#0E0E1C"/><path d="M5.414 4.958h296.291v163.755H5.414z" fill="#FECE2F"/><circle cx="282.15" cy="183.469" r="8.754"/></svg></g><g transform="translate(396.0 168.0) rotate(0.0 444.5 331.5) translate(13.127141363683164 9.18899895457821) scale(2.894643444397774 2.8837496574731745)"><svg width="298.482" height="167.837" viewBox="4.535 3.186 298.482 167.837"><path d="M121.322 148.638h69.889v77.764h-69.889z"/><path d="M78.01 223.88h156.513v6.029H78.01zM0 0h307.119v198.84H0z" fill="#0E0E1C"/><path d="M5.414 4.958h296.291v163.755H5.414z" fill="#FECE2F"/><circle cx="282.15" cy="183.469" r="8.754"/></svg></g><g transform="translate(463.0 389.0) rotate(0.0 402.0 231.0) scale(4.5423728813559325 4.529411764705882)"><svg width="177" height="102" viewBox="0 0 177 102"><clipPath id="a"><path d="M0 0h176.5v101.5H0z"/></clipPath><g clip-path="url(#a)"><path d="M176.5 0H0v101.5h176.5z" fill="#fece2f"/></g></svg></g><g transform="translate(1554.0 377.0) rotate(0.0 -429.5 401.0) translate(-1.5667415179110549 0.0) scale(-1.6519230769230768 1.6536082474226803)"><svg width="467.939" height="484.395" viewBox="0.948 0 467.939 484.395"><clipPath id="b"><path d="M0 0h519.3v484.8H0z"/></clipPath><g clip-path="url(#b)"><path d="M408 255s11-11.4 12.9-9.1-6.4 10.5-6.4 10.5 7.7-3.1 8.8-1.5c1 1.6-19.7 17.6-19.7 17.6z" fill="#fece2f"/><path d="m401.3 275.8 22.1-18c.6-.5 1-1.3 1-2s-.4-1.3-1-1.7c-1.4-.8-3.9-.1-6.4 1 5.5-7.6 5.3-8.6 5.2-9.1-.1-.4-.3-.6-.6-.8-3.4-1.7-9.2 4.1-12.4 7.7zm7.5-19.5c3.9-4.9 9-9.7 11.3-9.7-1 2.3-6.5 10-12.4 17.6.3-2.2.7-5 1.1-7.9 0 .1 0 .1 0 0zm13.4 0L406.6 269c0-.1.1-.1.1-.2s.1-.3.1-.4l.1-.1c0-.1 3.9-5 7.7-10.1 6.7-3.4 7.8-2.5 7.8-2.5v.1c.1.2 0 .4-.2.5zm13.726 188.438c7.393-21.462-83.891-72.37-203.889-113.706S8.767 273.584 1.375 295.046s83.891 72.37 203.889 113.706 223.269 57.448 230.662 35.986z" fill="#1a1a1a"/><path d="M404.9 455.3c-40.7 0-115.4-16.4-199.9-45.5C82.6 367.6-7.2 317.1.5 294.8c7.7-22.3 109.6-6.8 231.9 35.3 58.1 20 111.3 42.9 149.9 64.4 22.6 12.6 59.7 35.9 54.6 50.6-2.4 6.9-13.8 10.2-32 10.2zM31.8 286.6c-17.1 0-27.5 3-29.5 8.8-3.4 9.7 16.2 27.3 53.7 48.2 38.5 21.4 91.6 44.3 149.5 64.2s113.9 34.7 157.4 41.5c42.4 6.6 68.6 4.8 72-4.9l.9.3-.9-.3c3.4-9.7-16.2-27.3-53.7-48.2-38.5-21.4-91.6-44.3-149.5-64.2-58-20-113.9-34.7-157.4-41.5-16.8-2.6-31.1-3.9-42.5-3.9zm156.1 198.2c-.1 0-.1 0 0 0-29.8-2-53.1-20.2-67.4-35-15.5-16.1-24.1-31.9-24.2-32-.3-.5-.1-1.1.4-1.4s1.1-.1 1.4.4c.3.6 34.2 62.3 89.9 66 .6 0 1 .5.9 1.1-.1.5-.5.9-1 .9zM32 274.5c6.185 0 11.2-5.015 11.2-11.2 0-6.186-5.015-11.2-11.2-11.2s-11.2 5.014-11.2 11.2c0 6.185 5.014 11.2 11.2 11.2z" fill="#1a1a1a"/><path d="M32 275.5c-6.7 0-12.2-5.5-12.2-12.2s5.5-12.2 12.2-12.2 12.2 5.5 12.2 12.2-5.5 12.2-12.2 12.2zm0-22.4c-5.6 0-10.2 4.6-10.2 10.2s4.6 10.2 10.2 10.2 10.2-4.6 10.2-10.2-4.6-10.2-10.2-10.2zm7.2 106.101a4.8 4.8 0 1 0 0-9.6 4.8 4.8 0 0 0 0 9.6z" fill="#1a1a1a"/><path d="M39.2 360.3c-3.2 0-5.8-2.6-5.8-5.8s2.6-5.8 5.8-5.8 5.8 2.6 5.8 5.8-2.6 5.8-5.8 5.8zm0-9.7c-2.1 0-3.8 1.7-3.8 3.8s1.7 3.8 3.8 3.8 3.8-1.7 3.8-3.8-1.7-3.8-3.8-3.8z" fill="#1a1a1a"/><path d="M518.3 17.1c-.4 1.1-1.1 2.7-2.6 4.1-3.1 2.9-7.1 2.8-14.1 2.6-4.9-.2-7.4-.3-9-1.9-2.7-2.6-2.1-7-1.8-8.5 0-.2 0-.3.1-.4h.8c2.9.1 6 .3 9.3.7h.1c6.5.8 12.3 2 17.3 3.4h-.1z" fill="#fece2f"/><path d="M518.1 17.1c-5-1.4-10.8-2.6-17.3-3.4h-.1l-6-1.2-2.9-.6C481.5 8 467.7 4 451 2.1 436 .4 422.7.9 412.3 2c-20.9 3.2-53.8 10.8-89.4 31.2l-3 1.8c-21.6 14.7-40 29.8-55.6 44.1-4.4 4-8.6 8-12.5 11.9 1 13-.3 23.1-2.1 23.1-4.5 0-9.3-10.3-9.3-10.3s-.9 8.3-4.2 16c5.7 3 22 11.8 41.3 26.4l.1.1c5.3 3.1 12.2 9.1 19.2 15.8 8.4 7.5 16.9 16 24.9 25.4 0-.1.1-.1.1-.2 0 0 0 .1-.1.1 0 0-8.8-11.3-18.5-20.3-5.4-5-9.7-8.7-12.5-11.1 8.8 6.8 31.4 22 37.2 1.9 0 0-.1 2.3-.4 5.7 1-6.6 1.8-13.6 2.4-20.6 0 0-.1-.1-.1-.2-1.3-2.3.2-9.5-.8-13.9-6-31.4-32.9-51.1-21-59.2 8.2-5.5 15.7 12.2 25.7 26.2 3.6-13.8 10.4-22.6 10.4-22.6 10.5-11.6 34.9-34.7 73.9-42 11.5-2.2 22-2.4 31-1.8 3.7 4.4 9.4 10.2 17.5 15.4 10.8 6.8 21.2 9.4 27.6 10.4l-.9.3s-.1 0-.1.1c-2.3.8-4.8 1.3-6.8 2.7-.2.1-.4.3-.5.5-.7.5-1.1.9-.9 1.2 1 1.9 21.4.9 22.9-3.4.2-.5.3-.9.3-1.4.1-.2.1-.4.1-.6.1-1.7-1.1-3.2-2.3-4.5-.5-.6-1.1-1.4-.7-2 0-.1.1-.1.2-.2 1-.4 1.6-.9 1.9-1.5.1-.2.1-.4.2-.7 0-.1 0-.2.1-.3v-.6c.1-1.7-.9-3.1-1.8-3.9l-.3-.3c-.1-.2-.3-.4-.4-.6-.1-.3 0-.6.3-.9 2-.7 3.5-2 4.1-4 .5-1.6.2-3.1-.4-4.4 0-.1 0-.1-.1-.2v-.1c-.6-1.2-1.7-2.1-2.8-3-1.6-1.3-3.3-2.5-5.2-3.2-.5-.2-1-.3-1.5-.4 3.4.1 7.9.1 11.3-.4 6.2-.9 7.3-6.1 7.4-6.4zM287.4 153.3c.3.3 1.5 1.2 3.2 2.7-1.6-1.4-2.8-2.4-3.2-2.7z" fill="#fece2f"/><path d="M251.2 89.2c-1.4-18.2-7.3-42.1-22.5-51.5-7.1 8.2-18.2 1.4-18.2 1.4-2.1 13.4-14.8 12.2-14.8 12.2s-1.5 15.3-8.4 17c-3.7.9-5.4-.2-6.2-1.5-.6-1-.8-2.2-.4-3.3 3.4-12.1-.6-19.6-5.4-18.4-5 1.3-7.6 8.4-6.9 15.9.6 7.6 7.4 9.3 7.4 9.3l-16.2 38.1h-.1l-19.7 46.1s0 .1.1.4c.3-.3.5-.4.5-.4.2 0 .1.9.3 2.5 1.5 3.6 5.3 10.2 13.3 15.1l-.4.8c2.2 1.1 3.5 2.6 5.4 3.3 10 3.8 17.2 3.2 27.8 2 .9-.1 4.2-1.2 5-1.4 0 0 1.6-.9 1.7-.9 11.8-4.6 6.4-15.6 6.4-15.6l-1-36.3.5 24.8c-4.4-17.3-18.4-34.5-18.8-35l.1.1 17.5 9.8h.1c6.6 3.2 14.2 7.1 20.4 7.8h.8c5.9 1.2 10.2-2.4 13-5.8 1.1.7 1-.4 1-.4 1.5-2 2.2-4.6 3.2-7 3.3-7.7 3.4-14.3 3.4-14.3s5.1 9.1 9.6 9.1c1.8.2 2.5-10.9 1.5-23.9zm-47.1 22.7c-5.1-6.1.5-14.6.5-14.6.5.2 12.5 18.2 12.5 18.2s-7.9 2.5-13-3.6zM240.4 87c-.6.6-1.5.9-2.5.9h-.5c-.3 0-.7-.1-1-.2-.1 0-.2-.1-.4-.1-.4-.1-.8-.3-1.3-.4-.1-.1-.3-.1-.4-.2s-.3-.1-.4-.2-.3-.1-.4-.2c-.2-.1-.3-.1-.5-.2-.1-.1-.3-.2-.4-.3s-.3-.2-.4-.3l-.9-.6c-1.2-.8-2.4-1.9-3.5-3.1-4.7-4.9-6.6-10.7-4.3-12.9s8 0 12.7 4.9c1 1.1 1.9 2.1 2.6 3.2.1.2.2.3.3.5s.2.3.3.5l.3.6.9 1.8c.2.5.4.9.5 1.4 0 .1.1.3.1.4 0 .2.1.3.1.4 0 .2.1.3.1.5s.1.3.1.5c0 1.2-.3 2.4-1.1 3.1z" fill="#fece2f"/><path d="M287.3 152.7s33.5 29.8 40.7 4.7c0 0-1 22.2-6.3 29.5 0 0-8.8-11.3-18.5-20.3-9.6-9-15.9-13.9-15.9-13.9z" fill="#1a1a1a"/><path d="M505.9 50.2c1.2 1.3 2.3 2.8 2.3 4.5 0 .2 0 .4-.1.6-.3 1.2-1.1 2.2-2.1 2.8-1.2.8-2.6 1.1-3.9 1.4-5 1.1-10.2 1.3-15.3.6-.5-.1-1-.2-1.1-.6-.1-.2 0-.5.1-.7s.3-.3.5-.5c2-1.4 4.4-1.9 6.8-2.7.1 0 .1 0 .1-.1l.9-.3s.1 0 .1-.1c1.4-.6 2.8-1.3 4.1-2 .3-.2.6-.3.8-.6s.3-.9.3-1.6c0-.6-.2-1.3-.4-1.6v-.1c-.1-.1-.2-.2-.4-.3-1-.4-3-.2-3.8-.3-3.1-.2-6.3-.6-9.4-1.1-.8-.1-1.7-.3-2.3-.8-.3-.3-.6-.7-.7-1.1s0-.8.2-1.1c.3-.4.8-.6 1.3-.7 3.9-1.3 7.8-2.6 11.6-3.9-1.8-.2-3.7-.6-5.4-1.2-2.1-.7-4.1-1.8-6-3.1-.6-.4-1.2-.9-1.5-1.5-.4-.6-.5-1.4-.1-2 .5-.9 1.7-1 2.7-1l5.4-.3c1.5-.1 3.1-.1 4.6-.2-.2-1.9-.5-3.8-.7-5.7 0-.2 0-.4.1-.6.1-.1.3-.2.4-.3.4-.2.9-.3 1.4-.3 1-.2 2.1-.1 3.2.1.5.1 1 .3 1.5.4 1.9.7 3.6 1.9 5.2 3.2 1.1.9 2.1 1.8 2.8 3v.1c.1.1.1.1.1.2 1.2 2.6.1 6.1-2.4 7.5-.4.2-.9.5-1.3.9-.2.3-.3.5-.3.9.1.2.2.4.4.6l.3.3c.7.9 1.4 1.9 1.7 3 .1.3.1.6.1.9v.6c0 .1 0 .2-.1.3-.2.7-.6 1.3-1.2 1.7-.3.2-.6.3-.9.5l-.2.2c-.5.8.1 1.6.6 2.1z" fill="#fece2f"/><path d="m71.6 352.7 52.9 24.4s11.8 35.6 43.1 59.4 78.7 21.6 98.8 16.5 34.4-11.3 59.8-34.1 39.5-63.7 39.5-63.7 17.6-45.3 18.8-63c0 0 18.2-18 21.2-23.4s3.9-28.9 3.9-28.9-4 1-7.8 12.4-3.9 12.9-4.4 13.1-18.2 10.9-22.9 7.2c-4.7-3.8-8.3-8.6-14.1-23.1-5.9-14.6-11.4-10.4-11.4-10.4s8.1 22.8 8.8 34.6c.6 11.8-.1 20.7-8.5 33.2s-16.8 33.3-31.1 44.8L317 343s-4.3-46.5-11.4-63.9-8-24.2-8-24.2l5.9-7.7s23.6-33.9 26.9-49.5c0 0-35-41.6-52.8-52.1s-41.4-25.7-41.4-25.7-6 13.7-17 11.6L200.5 156l.3 7.5s-.1 13.2-13.1 14.6-19.5 2.4-34.1-4.9-12-17.1-12.6-17.1-16.7 16.7-32.1 38.1c-15.4 21.4-25.3 43.3-33.2 72.7s-9.9 64-4.1 85.8z" fill="#fff"/><path d="M90.3 291.1c-2.1 4.7-1.3 10.3.6 15.1 1.8 4.6 4.6 9 4.2 13.9-.6 7.8-9 13-10.9 20.6-.7 3-.4 6.2-.9 9.2s-2.1 5.8-5.2 6.3c16.9 8.2 29 13.5 45.9 20.7-4.3-8.2-6.4-16.7-8.8-25.7-4-14.8-7.2-29.8-9.5-44.9-.7-4.6-2.6-20.3-2.6-20.3-3.8-4.2-11 1.1-12.8 5.1z" fill="#1a1a1a"/><path d="M124 378c-.1 0-.3 0-.4-.1-17.6-7.5-29.5-12.8-45.9-20.8-.4-.2-.6-.6-.6-1 .1-.4.4-.8.8-.8 3-.5 4-3.7 4.3-5.5.2-1.3.3-2.6.4-4 .1-1.7.2-3.5.6-5.2.9-3.7 3.3-6.9 5.5-9.9 2.6-3.4 5-6.7 5.3-10.6.3-3.5-1.2-6.8-2.8-10.3-.5-1-1-2.1-1.4-3.2-1.7-4.2-3.1-10.3-.6-15.9 1.3-3 5.3-6.6 9.2-7.1 2.1-.3 4 .3 5.3 1.9.1.2.2.3.2.5s1.9 15.7 2.6 20.2c2.3 15.1 5.5 30.1 9.5 44.8.3 1 .5 2 .8 3 2.1 7.9 4.1 15.3 7.9 22.5.2.4.1.8-.1 1.1-.1.3-.3.4-.6.4zm-43.4-21.6c14.6 7 25.8 12 41.2 18.6-3.1-6.6-4.9-13.3-6.9-20.4-.3-1-.5-2-.8-3-4-14.7-7.2-29.9-9.5-45-.6-4.2-2.3-17.7-2.5-20-.9-.9-2-1.2-3.3-1-3 .5-6.5 3.5-7.6 6-2.2 5-.9 10.5.6 14.3.4 1 .9 2.1 1.3 3.1 1.6 3.6 3.3 7.2 2.9 11.3-.4 4.5-3.1 8.1-5.7 11.6-2.2 2.9-4.4 5.8-5.2 9.1-.4 1.6-.5 3.2-.5 4.8-.1 1.4-.1 2.9-.4 4.3-.4 3-1.7 5.1-3.6 6.3z" fill="#1a1a1a"/><path d="M143.9 196c-1.4 0-2.8-.1-4.1-.2-6.9-.6-12.4-1.7-17.3-3.3-1.5-.5-3-1.1-4.5-1.6-1.5-.6-3-1.1-4.5-1.6-.5-.2-.8-.7-.6-1.3.2-.5.7-.8 1.3-.6 1.5.5 3.1 1.1 4.6 1.7 1.4.5 2.9 1.1 4.4 1.6 4.7 1.6 10.1 2.6 16.8 3.2 2.8.3 5.8.4 8.6-.3 2.9-.8 5.1-2.7 6-4.9.4-1.1.5-2.4.6-3.8.1-1.9.3-3.9 1.4-5.6.7-1.1 1.7-1.9 2.6-2.6.6-.5 1.2-.9 1.6-1.5.4-.4 1-.4 1.4-.1s.4 1 .1 1.4c-.6.6-1.2 1.2-1.9 1.7-.8.7-1.6 1.3-2.2 2.1-.8 1.3-1 3-1.1 4.7-.1 1.4-.2 2.9-.7 4.3-1 2.9-3.8 5.2-7.3 6.2-1.8.3-3.5.5-5.2.5z" fill="#fece2f"/><path d="M99.6 211c10.4 6.3 14.8 33.2 24 28 10-5.7-6.2-16.7-8.9-42-.5-3.6 1.3-8 .5-10-1.3-2.9-15.6 24-15.6 24z" fill="#1a1a1a"/><path d="M297.9 368.2c-7.8 0-15.4-4.3-19.5-10.9s-4.5-15.3-1-22.3c1-2 2.3-3.9 3.5-5.7 2.8-4.2 5.5-8.1 4.7-12.6-.7-4.1-4.1-6.9-7.6-9.9-2.9-2.4-6-4.9-7.7-8.4-2.8-5.8-1.1-12.6.8-17.8 1.8-5 4.4-11.2 9.3-15.4 3.1-2.6 11.3-7.9 21.3-.1.4.3.5 1 .2 1.4s-1 .5-1.4.2c-8.5-6.6-15.4-2.8-18.7.1-4.5 3.8-6.9 9.5-8.7 14.5-1.7 4.9-3.4 11.2-.9 16.3 1.5 3.1 4.4 5.4 7.2 7.7 3.7 3.1 7.5 6.2 8.3 11.1.9 5.2-2.1 9.7-5 14-1.2 1.8-2.5 3.6-3.4 5.5-3.2 6.3-2.8 14.3 1 20.4 3.7 6 10.7 9.9 17.8 9.9.6 0 1 .4 1 1s-.7 1-1.2 1zm-46.1-117.7c-1.8 0-3.5-.2-5.2-.6-1.5-.3-3.4-.9-4.7-2.3-2.4-2.5-2-6.5-.6-9.1 1.2-2.2 3-3.9 4.7-5.6.4-.3.7-.7 1.1-1.1 5.4-5.3 9.3-13.3 6-19.4-1.7-3-4.7-4.9-7.9-6.9-2.9-1.8-5.9-3.7-7.9-6.6-3.5-5-3-12.4 1.2-16.8.4-.4 1-.4 1.4 0s.4 1 0 1.4c-3.5 3.7-4 10.1-1 14.3 1.8 2.5 4.5 4.2 7.4 6 3.3 2 6.6 4.1 8.6 7.6 4.1 7.5-.8 16.4-6.3 21.8l-1.1 1.1c-1.7 1.6-3.3 3.1-4.3 5.1-1.1 2.1-1.4 5.1.3 6.8.8.8 1.9 1.3 3.7 1.7 6.2 1.4 13 0 18.2-3.8 1.6-1.2 3.1-2.6 4.5-3.9 1.5-1.4 3.1-2.9 4.8-4.2 4.3-3.1 9-3.9 12.6-2.2.5.2.7.8.5 1.3s-.8.7-1.3.5c-2.9-1.4-6.9-.7-10.6 2-1.6 1.2-3.2 2.6-4.6 4-1.5 1.4-3 2.8-4.7 4.1-4.4 3.1-9.6 4.8-14.8 4.8zM152 334.2c-.2 0-.4 0-.5-.1-.5-.3-.6-.9-.3-1.4 1.3-2.1 3.2-4.2 5.4-5.7 2.1-1.5 4.4-2.7 6.7-3.8 2.8-1.5 5.5-2.8 7.8-4.8 1.6-1.3 3-2.8 4.4-4.4 1.1-1.2 2.2-2.5 3.5-3.6 2.5-2.3 6.4-5 10.9-4.5 3.5.4 6.8 2.8 8.7 6.3 1.5 2.9 2.1 6.4 1.8 10.5 0 .5-.5 1-1.1.9-.6 0-1-.5-.9-1.1.3-3.7-.2-6.8-1.6-9.4-1.5-2.9-4.3-4.9-7.1-5.2-3.7-.4-7.1 2-9.3 4-1.2 1.1-2.3 2.3-3.3 3.5-1.4 1.6-2.9 3.2-4.6 4.6-2.5 2.1-5.4 3.6-8.2 5-2.2 1.1-4.4 2.3-6.4 3.7-1.9 1.4-3.7 3.2-4.8 5.1-.4.2-.7.4-1.1.4zm158.7-98.7c-1 0-2-.3-2.9-.9-2-1.3-3.5-3.7-3.8-6.1-.3-2.2.1-4.4.4-6.5.2-1.4.4-2.8.5-4.1.1-2.7-.6-5.4-1.3-8.2-.4-1.7-.9-3.5-1.1-5.3-.3-1.9-.3-3.9-.1-5.8.1-.5.5-1 1.1-.9s1 .5.9 1.1c-.2 1.8-.1 3.6.1 5.4.2 1.7.7 3.5 1.1 5.1.7 2.8 1.4 5.7 1.3 8.7 0 1.5-.3 3-.5 4.4-.3 2.1-.7 4-.4 5.9.2 1.9 1.4 3.7 2.9 4.7.7.4 1.7.8 2.8.4.5-.2 1.1.1 1.3.6s-.1 1.1-.6 1.3c-.6.1-1.2.2-1.7.2zm-58.1-67.3H251c-6.2-.2-10.8-1.3-14.7-3.6-3.6-2.1-6.5-5.1-9.2-8.1-1.8-1.9-3.6-3.9-5.6-5.6-2.9-2.4-6.5-4.4-11.2-6.4-.5-.2-.8-.8-.5-1.3.2-.5.8-.8 1.3-.5 5 2.1 8.7 4.2 11.8 6.7 2.1 1.7 4 3.8 5.8 5.7 2.8 3 5.4 5.8 8.7 7.7 3.5 2 7.9 3.1 13.8 3.3 6.9.2 12.2-1.1 15.7-4 .4-.3 1.1-.3 1.4.1s.3 1.1-.1 1.4c-3.7 3.1-8.9 4.6-15.6 4.6z" fill="#fece2f"/><path d="M267 207.1s27.6 35.7 46.6 24.8c0 0-13.8 20.6-16.1 23.1.1 0-20.8-41.5-30.5-47.9z" fill="#1a1a1a"/><path d="M237.7 330.9s-27.2 15.4-51.3 20.6-48.6 8.9-68.7 7.5c0 0 18.2 53.6 44.6 73.5s73 35.7 124.4 13.8 73-76.5 73-76.5 24-61.4 24.9-77.5c0 0 18.4-18.4 21.2-23.4l3.9-28.9s-6.5 3.5-12.2 25.5c0 0-17.1 11.2-22.9 7.2s-12.7-20.4-12.7-20.4-7.1-19.5-12.8-13.1c0 0 9.1 26.2 8.8 34.6s2.4 19.7-13.8 42.3c-16.2 22.7-24.8 41.8-50.5 55.5s-41 2.7-44.8-.3c-4.1-3.1-12.4-19.4-11.1-40.4z" fill="#fece2f"/><path d="m237.7 330.9.3 2.7s-33.1 35.8-114.9 38.8l-4.8-13.1s11 1.7 36.6-2.1c7.5-1.1 17.6-1.9 27.3-4.3 45.1-11.2 55.5-22 55.5-22zM334.1 96C324 82 316.3 63.7 308 69.3c-12 8.1 15 27.8 21 59.2 1 4.4-.5 11.6.8 13.9 1.1 2 1.7-13.2 2-28.1.1-9.3 2.3-18.3 2.3-18.3zM162.2 432.5c7.1 5.3 15.6 10.4 25.2 14.5-20.3-23.4-20.3-55.3-33.7-50.7-8.7 3-.8 17.8 4.6 33 1.4 1.1 2.6 2.2 3.9 3.2zM140.399 157c-.1 0-.3 0-.4-.1-.5-.2-.7-.8-.5-1.3l36-84.2c.2-.5.8-.7 1.3-.5s.7.8.5 1.3l-36 84.2c-.2.4-.5.6-.9.6z" fill="#1a1a1a"/><path d="M71.6 353.7c-.5 0-.9-.3-1-.8-11-58.1 8.4-108.7 26.6-141 19.7-34.9 42.3-56.4 42.5-56.7.4-.4 1-.4 1.4 0s.4 1 0 1.4c-.2.2-22.7 21.6-42.2 56.2-18 32-37.2 82.1-26.3 139.6.1.5-.3 1.1-.8 1.2-.1.1-.2.1-.2.1z" fill="#1a1a1a"/><path d="M178.1 180.6c-1.1 0-2.2 0-3.4-.1-29-1.6-35.2-24-35.3-24.2-.1-.5.2-1.1.7-1.2s1.1.2 1.2.7c.2.9 6 21.2 33.5 22.7 10 .6 17.2-1.4 21.2-5.8 4.3-4.7 3.5-10.7 3.5-10.7v-.1l-1-36.3c0-.6.4-1 1-1 .5 0 1 .4 1 1l1 36.3c.1.8.8 7.1-4 12.3-3.9 4.2-10.5 6.4-19.4 6.4z" fill="#1a1a1a"/><path d="M221.6 132.9c-15.3 0-39.9-16.2-41-16.9-.5-.3-.6-.9-.3-1.4s.9-.6 1.4-.3c.3.2 25.2 16.6 39.8 16.6h.4c14.1-.3 17.3-27.4 17.4-27.7.1-.4.4-.8.8-.9s.9.2 1.1.6c1.7 3.7 5.5 9.5 8.2 9.7 1.3-1.5 2.6-13.3.7-28.3-1.7-13.6-7.1-37.7-23.7-45.7-.5-.2-.7-.8-.5-1.3s.8-.7 1.3-.5c26 12.6 27.5 62.7 24.9 74.2-.4 1.7-1 3.6-2.5 3.6-3.5 0-6.9-4.9-8.8-8.1-1.3 7.5-5.9 26.2-18.8 26.4h-.4z" fill="#1a1a1a"/><path d="M176.4 71.8s-6.8-1.8-7.4-9.3c-.6-7.6 1.9-14.6 6.9-15.9 4.9-1.3 8.8 6.2 5.4 18.3-.3 1.1-.2 2.3.4 3.3.8 1.3 2.5 2.4 6.2 1.5 6.9-1.8 8.4-17 8.4-17s12.7 1.1 14.8-12.2c0 0 11.3 6.9 18.3-1.6 7.1-8.5-.5-27.9-18.6-32-19.7-4.4-39.2-1-52.6 9.5-13.3 10.4-15.4 22-5 29.1 0 0-18.5 11.7-22.7 26.7C126.4 87 144.4 85 144.4 85s-12.7 8.2-7.1 16.4 16.4 2.4 16.4 2.4.2 6.1 6.4 6.1z" fill="#1a1a1a"/><path d="M160.2 110.9c-4.7 0-6.7-3.2-7.2-5.6-3.2 1.3-11.5 3.8-16.4-3.3-1.4-2.1-1.9-4.3-1.4-6.7.8-3.9 3.9-7.2 6.3-9.1-3.1-.1-7.7-.8-10.4-3.9-2.1-2.5-2.6-5.9-1.3-10.3 3.7-13.1 17.6-23.5 21.9-26.4-3.7-2.9-5.7-6.5-5.9-10.6-.2-6.2 4-13.1 12-19.3C171.1 5 191 1.4 211 5.9 222.7 8.5 229.5 17 231.9 24c2 5.9 1.4 11.7-1.7 15.4-6.1 7.3-15.1 4-18.4 2.5-2.4 10.6-11.6 11.7-14.6 11.7-.4 3.5-2.5 15.3-9 17-4.3 1.1-6.4-.4-7.3-1.9-.7-1.2-1-2.7-.6-4.1 2.4-8.6.9-14.1-1.1-16.2-.9-.9-1.9-1.2-3.1-.9-4.2 1.1-6.8 7.3-6.2 14.9.6 6.7 6.4 8.4 6.7 8.4.3.1.5.3.6.5.1.3.1.6 0 .8L161 110.2c-.1.4-.4.7-.8.7zm-6.5-8.1c.2 0 .3 0 .5.1.3.2.5.5.5.8 0 .5.3 4.7 4.8 5.1l15.6-36.5c-2.1-.9-6.5-3.6-7.1-9.8-.7-8.6 2.4-15.6 7.7-17 1.8-.5 3.6.1 5 1.5 2.5 2.6 4.2 8.6 1.6 18.1-.2.9-.1 1.8.3 2.5.8 1.3 2.6 1.7 5.1 1.1 5.1-1.3 7.2-12.1 7.6-16.2.1-.5.5-.9 1.1-.9.5 0 11.8.9 13.7-11.4.1-.3.3-.6.6-.8.3-.1.7-.1.9.1.4.3 10.6 6.3 17-1.4 2.6-3.2 3.1-8.2 1.3-13.5-2.2-6.6-8.5-14.4-19.4-16.9-19.4-4.3-38.7-.9-51.7 9.3-7.4 5.8-11.4 12.1-11.2 17.6.1 3.8 2.3 7.2 6.2 9.8.3.2.4.5.4.8s-.2.6-.5.8c-.2.1-18.2 11.7-22.2 26.1-1 3.7-.7 6.5.9 8.4 3.5 4.1 11.7 3.2 11.8 3.2.5-.1.9.2 1.1.7.2.4 0 .9-.4 1.2-.1 0-6.9 4.5-7.9 9.8-.4 1.9 0 3.6 1.1 5.2 5 7.4 14.7 2.3 15.1 2.1.2.1.4.1.5.1z" fill="#1a1a1a"/><path d="M172.2 58c-.1 0-.3 0-.4-.1-.5-.2-.7-.8-.5-1.3 2.3-5.1 6.5-5.7 8.4-5.2.5.1.9.7.8 1.2s-.7.9-1.2.8c-.2 0-4-.8-6.2 4.1-.1.3-.5.5-.9.5z" fill="#1a1a1a"/><path d="M176.5 62.9c-.5 0-1-.4-1-1l-.3-9.1c0-.6.4-1 1-1s1 .4 1 1l.3 9.1c0 .5-.4.9-1 1z" fill="#1a1a1a"/><path d="M240.958 88.21c2.321-2.207.406-7.987-4.276-12.909-4.683-4.921-10.36-7.121-12.681-4.913-2.32 2.208-.406 7.987 4.277 12.91 4.682 4.92 10.359 7.12 12.68 4.912z" fill="#fff"/><path d="M238.5 90.1c-1 0-2.1-.2-3.4-.7-2.5-1-5.2-2.9-7.6-5.4s-4.1-5.3-5-7.9c-.9-2.8-.7-5.1.8-6.5 2.8-2.6 9-.5 14.1 5 2.4 2.5 4.1 5.3 5 7.9.9 2.8.7 5.1-.8 6.5-.7.7-1.8 1.1-3.1 1.1zm-12-19.6c-.8 0-1.4.2-1.8.6-.8.8-.9 2.4-.2 4.4.8 2.3 2.4 4.8 4.6 7.1s4.6 4 6.9 4.9c2 .8 3.6.8 4.4 0s.9-2.4.2-4.4c-.8-2.3-2.4-4.8-4.5-7.1-3.6-3.6-7.3-5.5-9.6-5.5z" fill="#1a1a1a"/><path d="M205.199 98.5c.5.2 12.5 18.2 12.5 18.2s-7.9 2.6-13-3.5c-5.2-6.2.5-14.7.5-14.7z" fill="#fff"/><g fill="#1a1a1a"><path d="M213.699 118.2c-2.9 0-6.8-.8-9.8-4.4-5.6-6.6.2-15.4.4-15.8s.7-.5 1.2-.4c.4.1.801.3 13.101 18.6.2.3.199.6.099.9s-.299.5-.599.6c-.2-.1-2.001.5-4.401.5zm-8.4-18c-1.2 2.4-3.4 8 .1 12.2 3.5 4.1 8.3 3.9 10.6 3.5-3.6-5.4-8.7-12.9-10.7-15.7zM231.2 85.4l.6 1c3.7 2.7 7.4 3.5 9.2 1.9 1.8-1.7 1-5.7-1.7-9.7-.8 0-6.9.6-8.1 6.8zm86.199 268.2c-.5 0-1-.4-1-1-2.9-83.2-34.3-130.4-60.1-155.3-28-27-55.7-34.5-56-34.5-.5-.1-.9-.7-.7-1.2.1-.5.7-.9 1.2-.7.3.1 28.4 7.6 56.8 34.9 16.6 16 30.1 35.7 40.1 58.3 12.5 28.3 19.4 61.4 20.7 98.5 0 .5-.5 1-1 1z"/><path d="M236.7 457.9c-18.4 0-37.1-4-55-12.2-42.6-19.6-69.4-73.3-79.7-159.5-.1-.5.3-1 .9-1.1.5-.1 1 .3 1.1.9 10.2 85.5 36.6 138.6 78.5 157.9 55.1 25.4 118.5 9.6 154.4-38.4 36.4-48.7 46.4-112.7 46.5-113.4 0-.2.1-.4.3-.6 7.9-7.7 19.9-20.2 21-23 1.1-3 2.8-18.5 3.7-27.4-3.1 2.4-7.8 16.1-10.1 24.6-.1.2-.2.4-.4.6-.6.4-15.5 10.1-22.9 7.8-5.7-1.7-11.7-14.7-16.8-26.7-.8-2-1.6-3.7-2.1-4.7-1.7-3.6-4.5-3.4-5.9-3.1 2.3 6 13.6 36.7 6.5 54.6-4.1 10.1-15.8 32.1-31.4 51-13.7 16.5-34.9 35.9-57.8 34.1-31.9-2.6-31.3-32-30.7-69.2.2-13.3.5-27.1-.6-41.2-4.3-52.9-44.5-81.4-44.9-81.7-.5-.3-.6-.9-.3-1.4s.9-.6 1.4-.3c.4.3 41.4 29.3 45.8 83.2 1.1 14.2.9 28 .6 41.4-.7 36.2-1.2 64.7 28.8 67.1 43 3.5 81.4-69.3 87.2-83.8 7.5-18.7-6.7-53.7-6.8-54-.2-.5 0-1.1.5-1.3 2.2-1 6.9-1.6 9.5 3.7.5 1.1 1.2 2.7 2.1 4.8 3.6 8.4 10.2 23.9 15.5 25.5s16.6-4.6 20.9-7.4c1-3.7 6.7-23.3 11.4-25.7.9-.4 1.6-.3 2-.1s.7.6.6 1c-.1 1-2.4 25-3.9 29.2-1.5 4-18.3 20.7-21.2 23.5-.8 5.1-11.5 66.6-46.9 113.9-24.7 33.4-62.5 51.4-101.8 51.4z"/><path d="M122.2 336.1c-6.8 0-10.7-.4-10.8-.4-.5-.1-.9-.5-.9-1.1.1-.5.5-.9 1.1-.9.6.1 58.6 5.6 125.9-27.5.5-.2 1.1 0 1.3.5s0 1.1-.5 1.3c-50.6 24.9-96.1 28.1-116.1 28.1zm2 24c-3.8 0-6-.1-6.1-.1-.6 0-1-.5-.9-1.1 0-.6.5-1 1.1-.9.7 0 68.3 3.2 118.9-27.9.5-.3 1.1-.1 1.4.3.3.5.1 1.1-.3 1.4-42.3 25.9-96.2 28.3-114.1 28.3zM200.5 157c-.2 0-.4-.1-.6-.2-.4-.3-.5-1-.2-1.4l18.6-24.4c.3-.4 1-.5 1.4-.2s.5 1 .2 1.4l-18.6 24.4c-.2.3-.5.4-.8.4zm97.1 99c-.2 0-.4-.1-.6-.2-.4-.3-.5-1-.1-1.4 20.5-25.2 31-52.4 32.4-56.4-38.9-51.3-92.9-76.8-93.5-77.1-.5-.2-.7-.8-.5-1.3s.8-.7 1.3-.5c.5.3 55.3 26.1 94.6 78.1.2.3.3.6.1.9-.1.3-10.6 30.1-33 57.5-.1.3-.4.4-.7.4z"/><path d="M321.7 187.9c-.2 0-.3 0-.5-.1-.5-.3-.7-.9-.4-1.4 8-14.2 9.1-51.8 9.8-74.2v-1.5c.1-5 .9-10 2.2-14.9 3.6-13.8 10.3-22.6 10.6-23s1-.5 1.4-.2.5 1 .2 1.4c-.1.1-6.7 8.9-10.2 22.3-1.3 4.8-2 9.7-2.1 14.5v1.5c-.7 22.6-1.8 60.5-10 75.2-.3.2-.7.4-1 .4zm-69.4-94.2c-.2 0-.5-.1-.6-.2-.4-.4-.5-1-.1-1.4 4-4.8 7.9-9.3 12.1-13.6 16.5-17.3 35.3-32.2 55.8-44.3 1-.6 2-1.2 3-1.7 27.8-15.9 58-26.5 89.8-31.3 13-1.4 26.1-1.4 39.1.1 14 1.6 27.7 4.9 40.9 9.9l2.7.5h.1l23.5 4.6c.5.1.8.5.8 1v.2c-.2 1-1.7 6.2-8.2 7.2-3.6.5-8.2.5-11.5.4-1.2 0-2.3-.1-3.1-.1h-.1c-1.3-.1-2.1-.1-2.1-.1-.6 0-1-.5-.9-1.1s.5-1 1.1-.9c0 0 .8.1 2.1.1.9 0 2 .1 3.2.1 3.2.1 7.7.1 11.1-.4 4.1-.6 5.7-3.2 6.3-4.7L495 13.7h-.1l-2.9-.6h-.2c-13-4.9-26.7-8.2-40.5-9.8-12.8-1.5-25.8-1.5-38.6-.1-31.4 4.8-61.4 15.3-89 31.1-1 .6-2 1.2-3 1.7-20.4 12-39 26.8-55.4 44-4.2 4.4-8.1 8.8-12.1 13.5-.4.1-.7.2-.9.2z"/><path d="M499.6 41.2c-4.1 0-8.2-.9-9.7-1.3-1.8-.5-3.4-1-4.6-1.5-3-1.3-4.8-3.6-4.4-5.5.2-1.1 1.3-2.9 5.7-2.9h4.1c5.4.1 10.5.3 10.6.3.6 0 1 .5 1 1s-.5 1-1 1c-.1 0-5.1-.2-10.5-.3h-4.1c-2.6 0-3.6.7-3.8 1.3-.2.8 1 2.3 3.2 3.3 1.1.5 2.7 1 4.3 1.4 2.2.6 9.8 2.3 14.7.4 1.9-.7 3.1-1.8 3.5-3.4.4-1.3.3-2.5-.4-3.6v-.2c-2.3-4.1-10.1-6.2-10.1-6.2-.5-.1-.9-.7-.7-1.2.1-.5.7-.8 1.2-.7.3.1 8.5 2.3 11.3 7.1.1.1.1.2.2.3.8 1.6 1 3.3.5 5-.6 2.2-2.3 3.8-4.8 4.7-1.9.8-4.1 1-6.2 1z"/><path d="M497 50.2c-5.7 0-13.5-.9-15.2-2.8-.5-.6-.6-1.4-.2-2 1.5-2.6 12.5-5.3 15.8-6 .5-.1 1.1.2 1.2.8s-.2 1.1-.8 1.2c-6.2 1.4-13.3 3.6-14.4 4.9 1.3 1 8.2 2.2 15.2 2h.1c2.8-.1 4.9-.5 6.3-1 1-.4 1.3-.8 1.3-.9.1-.2.1-.3.1-.5v-.7c0-1.1-.5-2.2-1.5-3.2-.6-.6-1.2-.9-1.2-.9-.5-.3-.6-.9-.4-1.4s.9-.6 1.4-.4c0 0 .8.5 1.6 1.2 1.4 1.4 2.1 3 2.1 4.6v.7c0 .1 0 .3-.1.4 0 .2-.1.4-.2.7-.3.9-1.2 1.6-2.5 2.1-1.6.6-4 1-7 1.1-.4.1-1 .1-1.6.1z"/><path d="M490.4 62c-3 0-5.8-.3-6.4-1.5-.4-.8 0-1.7 1.2-2.5 1.3-.9 3.8-2 7.5-3.3h.1c.4-.1.7-.2 1-.3.1 0 .1-.1.2-.1 3-1.1 5.8-1.9 5.8-1.9.5-.2 1.1.1 1.2.7.2.5-.1 1.1-.7 1.2 0 0-2.7.8-5.8 1.9h-.2l-.9.3h-.1c-3.5 1.2-5.9 2.3-7.1 3.1 2.7.6 11.7.3 17.2-1.4 2.8-.9 3.3-1.7 3.4-2 .1-.4.2-.7.2-1.1.1-2.6-2.6-5.1-3.6-5.8-.4-.3-.6-.9-.2-1.4.3-.5.9-.6 1.4-.2.2.1 4.6 3.3 4.4 7.5 0 .6-.1 1.1-.3 1.7-1.3 3.7-11.7 4.7-14.8 4.9-1.1.2-2.3.2-3.5.2z"/><path d="M500.1 54.3c-.4 0-.9-.3-1-.8l-1-4.1c-.1-.5.2-1.1.7-1.2s1.1.2 1.2.7l1 4.1c.1.5-.2 1.1-.7 1.2 0 .1-.1.1-.2.1zM248.6 371.2c-1.2-1-2.8-3.2-4.5-6.5l-24.3 12c-5.5 2.7-7.7 9.4-5 14.9s9.4 7.7 14.9 5l37.4-18.5c-10.1-.6-16.3-5.1-18.5-6.9z"/><path d="M249.6 386.7s15.7-7.2 29-8c0 0-17.4.2-21.4-2.4-4-2.5-7.6 10.4-7.6 10.4zm70.8-165.6c-.3 0-.6-.2-.8-.4-.5-.7-48.6-72.2-104.2-82.7-.5-.1-.9-.6-.8-1.2.1-.5.6-.9 1.2-.8 56.3 10.7 105 82.9 105.4 83.6.3.5.2 1.1-.3 1.4-.1 0-.3.1-.5.1zM181.2 115.2s14.3 17.5 18.8 35l-.5-24.8z"/><path d="M200 151.2c-.5 0-.9-.3-1-.8-4.4-17.2-18.5-34.5-18.6-34.7-.3-.4-.3-.9 0-1.3s.8-.5 1.3-.2l18.3 10.3c.3.2.5.5.5.9l.5 24.8c0 .5-.4.9-.9 1h-.1zm-15.1-32.8c3.7 5.1 10.1 14.7 14 25l-.3-17.4z"/></g><path d="M303.5 415.4c-.3 0-.6-.1-.8-.4-.3-.4-.2-1.1.2-1.4 8.2-6.2 15.1-13.2 20.5-21 .3-.5.9-.6 1.4-.2.5.3.6.9.2 1.4-5.6 7.9-12.6 15.1-21 21.4-.1.2-.3.2-.5.2z" fill="#fff"/><path d="M152.299 36.1c-.5 0-.9-.4-1-.9-1-10.8 12.5-17.7 13.1-18 .5-.2 1.1 0 1.3.4.2.5 0 1.1-.4 1.3-.1.1-12.9 6.6-12 16 0 .7-.4 1.2-1 1.2zM138.5 80.5c-.2 0-.4-.1-.6-.2-2.3-1.5-3.5-3.5-3.8-5.8-.6-5.2 4.1-10.2 4.3-10.4.4-.4 1-.4 1.4-.1.4.4.4 1 .1 1.4 0 0-4.2 4.6-3.7 8.9.2 1.8 1.2 3.2 2.9 4.4.5.3.6.9.3 1.4-.3.2-.6.4-.9.4zm4 220.2c-6.4 0-13-2.9-17.3-8.1-1.2-1.5-2.2-3.1-3.2-4.7-1.1-1.7-2.1-3.4-3.3-4.8-2.8-3.4-6.8-5.7-11.1-6.6-1.3-.3-2.6-.4-4-.6-4.3-.5-8.7-1.1-11.3-4.6-3-4-1.6-9.6 1.1-13 1.9-2.5 4.4-4.2 6.8-5.9 3.9-2.7 7.3-5 7.7-9.9.2-2.1-.1-4.2-.3-6.2-.2-1.6-.4-3.3-.4-5 0-.6.5-1 1-1 .6 0 1 .5 1 1 0 1.5.2 3 .4 4.6.3 2.1.6 4.2.4 6.6-.5 5.9-4.6 8.7-8.5 11.4-2.3 1.6-4.7 3.2-6.4 5.4-2.2 3-3.3 7.6-1 10.6 2.1 2.8 5.9 3.3 9.9 3.8 1.4.2 2.8.4 4.1.6 4.7 1 9.1 3.6 12.2 7.3 1.3 1.6 2.4 3.4 3.5 5.1.9 1.5 1.9 3.1 3.1 4.5 6.1 7.6 17.7 9.7 25.3 4.6 3.9-2.6 6.3-7.3 6.6-12.4.3-4.7-1.4-8.9-4.5-11.6-2.4-2-5.5-3.3-8.5-4.5-4.4-1.8-9-3.7-11.4-7.9-2.2-3.7-2.1-8.8.1-13.3 1.7-3.5 4.6-6.6 9-9.7l1.8-1.2c2.3-1.6 4.4-3.1 6.1-5.1 1.9-2.3 3-5.8 1.5-8.6-.8-1.4-2.3-2.6-4.7-3.7-4.5-2-11-2.7-17.4-2-.6 0-1-.3-1.1-.9-.1-.5.3-1 .9-1.1 6.8-.7 13.7.1 18.5 2.2 2.8 1.2 4.6 2.7 5.6 4.5 2 3.6.5 8-1.7 10.8-1.8 2.2-4.2 3.9-6.5 5.5l-1.8 1.2c-4.1 2.9-6.8 5.8-8.4 9-1.9 3.9-2 8.2-.2 11.4 2.1 3.7 6.2 5.3 10.5 7.1 3.2 1.3 6.4 2.6 9 4.9 3.6 3.1 5.5 7.9 5.2 13.2-.3 5.8-3.1 11-7.5 14-3.3 2.1-7 3.1-10.8 3.1zm70.9-17.9c-4.1 0-8.1-2.5-9.3-6.1-.7-2.1-.6-4.3-.4-6.5.7-6.7 1.5-15-3.5-19.5-1.6-1.5-3.6-2.3-5.7-3.3-1.6-.7-3.2-1.4-4.7-2.4-6.2-4.1-8.4-11.5-5.6-18.7 2.5-6.5 9.4-12.8 18.5-11.4 8.4 1.3 10.2 8.7 10.9 14.1.8 7.2 3 10.6 6.1 15.4 1.1 1.7 2.3 3.7 3.6 6 1.8 3.2 2.5 6.8 2.9 9.2.9 5.4.7 9.7-.6 13.4-1.6 4.8-5.3 8.5-9.5 9.6-1 .1-1.9.2-2.7.2zm-22.6-39.5c1.3.9 2.8 1.6 4.4 2.3 2.2 1 4.4 2 6.3 3.6 5.8 5.3 4.9 14.1 4.2 21.2-.2 2-.3 4 .3 5.7 1.2 3.4 5.6 5.5 9.5 4.5 3.6-.9 6.7-4.1 8.1-8.3 1.1-3.4 1.3-7.3.5-12.4-.4-2.3-1-5.6-2.6-8.5-1.3-2.3-2.4-4.1-3.5-5.9-3-4.8-5.5-8.6-6.4-16.3s-3.7-11.5-9.2-12.4c-8-1.3-14.1 4.4-16.3 10.1-2.1 5.1-1.9 12 4.7 16.4z" fill="#fece2f"/><path d="M84.6 360.4c-.2 0-.3 0-.5-.1l-13-6.6c-.5-.3-.7-.9-.4-1.3.3-.5.9-.7 1.3-.4l13 6.6c.5.3.7.9.4 1.3-.1.3-.4.5-.8.5zm259.6-286c-.2 0-.5-.1-.7-.3-.4-.4-.4-1-.1-1.4 11.4-12.8 36.2-35.3 74.4-42.4 10.2-1.9 20.7-2.5 31.2-1.8.3 0 .5.1.7.4 4.9 6 10.8 11.1 17.3 15.2 8.3 5.2 17.4 8.7 27.2 10.3.5.1.9.5.9 1 0 .6-.4 1-1 1h-.2c-10-1.6-19.4-5.2-27.9-10.6-6.6-4.1-12.5-9.3-17.5-15.2-10.2-.7-20.4-.1-30.3 1.8-37.6 7-62.1 29.2-73.3 41.8-.2.1-.4.2-.7.2zm149.699-49.7c-4.3 0-7.5-2.9-7.9-5.7-.3-2.5 1.4-5.2 4.2-6.5.3-.2.6-.3 1-.4 1.1-.4 2.4-.6 3.6-.5.5 0 1 .5 1 1s-.4 1-1 1c-1.1-.1-2 .1-2.9.4-.3.1-.5.2-.7.3-2.2 1.1-3.3 3.2-3.1 4.5.2 2 2.8 4.1 6.2 3.9.6 0 1 .4 1 1s-.4 1-1 1h-.4z" fill="#1a1a1a"/></g></svg></g><g transform="translate(721.0 226.0) rotate(0.0 176.0 276.0) scale(1.9700022386389076 1.9656019656019657)"><svg width="178.68" height="280.83" viewBox="0 0 178.68 280.83"><path d="M156.47 108.8V67c0-35.07-30.12-65.18-67.13-65.18a67.2 67.2 0 0 0-67.12 67.09v79.78L43.62 138V68.91a45.73 45.73 0 0 1 91.45 0v16.54l5.83 5.84V101h-5.83v7.78Z" style="fill:#fece2f"/><path d="M31.9 133s-1.85-74.32 3.69-85.39 11.06-20.32 25.81-27.7 25.82-7.38 33.2-7.38 14.76-1.84 16.6-5.53c0 0-18.44-7.38-38.73-1.85s-24 9.23-35 22.14-12.95 16.59-14.79 31.35-.71 75.3-.71 75.3Z" style="fill:#fff"/><path d="M22.21 150.47a1.77 1.77 0 0 1-1.78-1.78V68.91A69 69 0 0 1 89.34 0c37.36 0 68.92 30.67 68.92 67v41.8a1.78 1.78 0 0 1-1.79 1.78h-21.4a1.78 1.78 0 0 1-1.79-1.78V101a1.79 1.79 0 0 1 1.79-1.79h4.05V92l-5.32-5.32a1.8 1.8 0 0 1-.52-1.26V68.91a43.94 43.94 0 1 0-87.87 0V138a1.79 1.79 0 0 1-1 1.6L23 150.29a1.84 1.84 0 0 1-.79.18ZM89.34 3.57A65.42 65.42 0 0 0 24 68.91v76.89l17.83-8.92v-68a47.51 47.51 0 0 1 95 0v15.8l5.33 5.32a1.79 1.79 0 0 1 .53 1.27V101a1.79 1.79 0 0 1-1.79 1.78h-4.05V107h17.83V67c0-34.4-29.92-63.43-65.34-63.43Z" style="fill:#1a1a1a"/><path d="M161.33 279.05h-144a15.57 15.57 0 0 1-15.54-15.57V148.69a15.57 15.57 0 0 1 15.56-15.57h144a15.57 15.57 0 0 1 15.57 15.57v114.79a15.57 15.57 0 0 1-15.59 15.57Z" style="fill:#fece2f"/><path d="M2.76 258.62c11.67 11.67 38.91 7.78 48.64 7.78 9.92 0 47.67 1 69.07 1s52.54 3.89 56.43-17.51c0 0 6.06 25.75-10.59 28.44s-152.85.75-152.85.75-14.59-6.84-10.7-20.46Z" style="fill:#1a1a1a"/><path d="M2.76 167.17s8.83-15.47 19.46-19.46c15.56-5.83 38.91 0 66.15 0s54.48 0 68.1-1.94 13.73-3.72 13.62-9.73c0 0-7.78-1.95-25.3-1.95s-128.41-1.94-128.41-1.94S-7 139.93 2.76 167.17Z" style="fill:#fff"/><path d="M89.34 243.05a12.66 12.66 0 0 1-12.65-12.65v-18.5a22.38 22.38 0 1 1 25.3 0v18.5a12.66 12.66 0 0 1-12.65 12.65Z" style="fill:#1a1a1a"/><path d="M161.33 280.83h-144A17.37 17.37 0 0 1 0 263.48V148.69a17.37 17.37 0 0 1 17.35-17.36h144a17.37 17.37 0 0 1 17.35 17.36v114.79a17.37 17.37 0 0 1-17.37 17.35Zm-144-145.92a13.79 13.79 0 0 0-13.76 13.78v114.79a13.79 13.79 0 0 0 13.78 13.78h144a13.79 13.79 0 0 0 13.78-13.78V148.69a13.79 13.79 0 0 0-13.78-13.78Z" style="fill:#1a1a1a"/><path d="M158.37 134.83h-25V75.75h25Zm-21-4h17V79.75h-17Z" style="fill:#1a1a1a"/><path style="fill:#fece2f" d="M136.87 71.56h17.75v59.52h-17.75z"/></svg></g><g transform="translate(1017.0 131.0) rotate(0.0 29.0 15.0) scale(0.8923076923076924 0.8823529411764706)"><svg width="65" height="34" viewBox="0 0 65 34"><path style="fill:#fece2f" d="M1.5 1.5h62v31h-62z"/><path d="M65 34H0V0h65ZM3 31h59V3H3Z" style="fill:#1a1a1a"/></svg></g><g transform="translate(1109.0 108.0) rotate(0.0 27.5 27.5) scale(0.8461538461538461 0.8461538461538461)"><svg width="65" height="65" viewBox="0 0 65 65"><path style="fill:#fece2f" d="M1.5 1.5h62v62h-62z"/><path d="M65 65H0V0h65ZM3 62h59V3H3Z" style="fill:#1a1a1a"/></svg></g><g transform="translate(651.0 548.0) rotate(0.0 218.0 89.5) translate(0.0 0.0) scale(1.4248366013071896 1.432)"><svg width="177.564" height="125" viewBox="0 0 177.564 125"><clipPath id="c"><path d="M0 0h305.285v125H0z"/></clipPath><g clip-path="url(#c)"><path d="m301.819 51.423-9.526-10.934a6 6 0 0 0-4.523-2.059h-124.1a15 15 0 0 1-7.737-2.15l-6.86-4.13a15.003 15.003 0 0 0-7.74-2.15h-27.221a61 61 0 1 0 0 65h27.221c2.726 0 5.401-.744 7.737-2.15l6.874-4.139a15 15 0 0 1 7.707-2.149l29.411-.059a3 3 0 0 0 2.336-1.126l2.2-2.751a3.003 3.003 0 0 1 2.343-1.126h6.116a3.002 3.002 0 0 1 2.343 1.126l2.2 2.748a3.004 3.004 0 0 0 2.343 1.126h2.315a2.995 2.995 0 0 0 2.122-.879l3.242-3.242a3.003 3.003 0 0 1 2.122-.879h5.514a3 3 0 0 1 2.122.879l3.242 3.242a3.003 3.003 0 0 0 2.122.879h5.8a3 3 0 0 0 1.743-.559l5.436-3.882a3 3 0 0 1 1.743-.559h8.015c.664 0 1.309.22 1.834.626l4.938 3.818a3 3 0 0 0 1.835.626h9.37a3 3 0 0 0 1.867-.651l20.986-16.679a8.005 8.005 0 0 0 2.818-4.465l1.453-6.3a8.004 8.004 0 0 0-1.763-7.052zM38.499 78.5a16 16 0 1 1 .001-32 16 16 0 0 1 0 32z" fill="#fece2f"/><path d="M161 39s2 4 10 4h123.805a10.452 10.452 0 0 0-8.334-4.57C281 38.43 161 39 161 39zm-43.273-3.666H140S147 35 149 33s-8-3-8-3h-26.873z" fill="#fff"/><path d="M62.5 116.5a53.997 53.997 0 0 1-49.89-33.335A54 54 0 1 1 116.5 62.5a54.063 54.063 0 0 1-54 54zm0-105a51 51 0 1 0 51 51 51.055 51.055 0 0 0-51-51z" fill="#1a1a1a"/><path d="M21.134 105.866a1.982 1.982 0 0 1-1.414-.586 60.5 60.5 0 1 1 85.56-85.56 2.001 2.001 0 0 1-2.179 3.276 2.006 2.006 0 0 1-.649-.448 56.5 56.5 0 0 0-79.9 79.9 2 2 0 0 1-1.414 3.414z" fill="#fff"/><g fill="#1a1a1a"><path d="m302.95 50.44-9.53-10.94a7.499 7.499 0 0 0-5.65-2.57h-124.1A13.579 13.579 0 0 1 156.7 35l-6.86-4.14a16.56 16.56 0 0 0-8.51-2.36H114.9A62.503 62.503 0 0 0 44.729 2.567 62.5 62.5 0 1 0 114.9 96.5h26.43a16.56 16.56 0 0 0 8.51-2.36l6.88-4.14a13.542 13.542 0 0 1 6.93-1.94l29.41-.06a4.471 4.471 0 0 0 3.51-1.69l2.2-2.75a1.513 1.513 0 0 1 1.17-.56h6.12a1.513 1.513 0 0 1 1.17.56l2.2 2.75a4.482 4.482 0 0 0 3.51 1.69h2.32a4.532 4.532 0 0 0 3.18-1.32l3.24-3.24c.282-.28.663-.438 1.06-.44h5.52c.397.002.778.16 1.06.44l3.24 3.24a4.53 4.53 0 0 0 3.18 1.32h5.8a4.44 4.44 0 0 0 2.61-.84l5.44-3.88c.254-.18.558-.278.87-.28h8.02c.329 0 .649.11.91.31l4.94 3.82c.787.61 1.754.94 2.75.94h9.37a4.501 4.501 0 0 0 2.8-.98l20.99-16.68a9.49 9.49 0 0 0 3.35-5.3l1.45-6.3a9.514 9.514 0 0 0-2.09-8.37zM62.5 122A59.5 59.5 0 1 1 122 62.5 59.566 59.566 0 0 1 62.5 122zm214.89-37.25a1.53 1.53 0 0 1-.94.32h-9.37c-.329 0-.649-.11-.91-.31l-4.94-3.82a4.508 4.508 0 0 0-2.75-.94h-8.02a4.438 4.438 0 0 0-2.61.84l-5.44 3.88c-.255.18-.558.278-.87.28h-5.8a1.517 1.517 0 0 1-1.06-.44l-3.24-3.24a4.532 4.532 0 0 0-3.18-1.32h-5.52a4.53 4.53 0 0 0-3.18 1.32l-3.24 3.24c-.282.28-.663.438-1.06.44h-2.32a1.514 1.514 0 0 1-1.17-.56l-2.2-2.75a4.5 4.5 0 0 0-3.51-1.69h-6.12a4.49 4.49 0 0 0-3.51 1.69l-2.2 2.75a1.483 1.483 0 0 1-1.17.56l-29.41.06c-2.989.01-5.919.83-8.48 2.37l-6.87 4.14a13.579 13.579 0 0 1-6.97 1.93H128c-.172-40.974-7.332-56.021-10.506-60.683-.242-.445-.5-.878-.753-1.317h24.589a13.57 13.57 0 0 1 6.97 1.93l6.86 4.14a16.56 16.56 0 0 0 8.51 2.36h124.1a4.488 4.488 0 0 1 3.39 1.54l9.53 10.94c.407.479.742 1.014.994 1.59H137.5a1.502 1.502 0 0 0-1.5 1.5v12a1.501 1.501 0 0 0 1.5 1.5h159.7zm23.28-20.31a6.426 6.426 0 0 1-.608 1.56H140.814a122.9 122.9 0 0 1 34.244-9h127.213a6.633 6.633 0 0 1-.151 1.14z"/><path d="M38.5 45A17.5 17.5 0 1 0 56 62.5 17.52 17.52 0 0 0 38.5 45zm0 32A14.5 14.5 0 1 1 53 62.5 14.517 14.517 0 0 1 38.5 77z"/></g></g></svg></g><g transform="translate(311.0 574.0) rotate(-65.35785759920284 64.5 353.0) scale(2.15 2.152439024390244)"><svg width="60" height="328" viewBox="0 0 60 328"><clipPath id="d"><path d="M0 0h59.45v327.34H0z"/></clipPath><g clip-path="url(#d)"><path d="M29.725 326.34c15.864 0 28.725-72.83 28.725-162.67C58.45 73.83 45.59 1 29.725 1S1 73.83 1 163.67c0 89.84 12.86 162.67 28.725 162.67z" fill="#1a1a1a"/><path d="M29.725 327.34C11.119 327.34 0 244.123 0 163.67S11.119 0 29.725 0 59.45 83.217 59.45 163.67 48.331 327.34 29.725 327.34zm0-325.34C16.336 2 2 66.963 2 163.67s14.336 161.67 27.725 161.67S57.45 260.377 57.45 163.67 43.114 2 29.725 2z" fill="#1a1a1a"/><path d="M29.45 309.061a.998.998 0 0 1-.768-.359c-7.76-9.313-10.821-34.19-10.948-35.245a1 1 0 1 1 1.986-.238c.03.252 3.117 25.344 10.499 34.202a1 1 0 0 1-.768 1.64z" fill="#fff"/></g></svg></g><g transform="translate(168.0 192.0) rotate(0.0 405.5 423.5) scale(2.874388173540743 2.865329512893983)"><svg width="282.147" height="295.603" viewBox="0 0 282.147 295.603"><g><g><g><ellipse transform="matrix(0.172 -0.9851 0.9851 0.172 28.8001 193.3764)" cx="129.429" cy="79.557" rx="3.204" ry="6.716" style="fill:#fff"/><path d="M131.188 83.734c-.79 0-1.616-.072-2.45-.218-1.884-.329-3.607-.997-4.849-1.879-1.416-1.007-2.083-2.206-1.879-3.375.205-1.169 1.238-2.071 2.911-2.538 1.469-.41 3.315-.454 5.199-.126 4.23.738 7.122 2.997 6.729 5.254-.205 1.17-1.238 2.071-2.912 2.538-.819.228-1.755.344-2.749.344zm-3.522-6.726c-.843 0-1.628.096-2.307.285-1.005.28-1.656.747-1.743 1.248-.088.501.367 1.161 1.217 1.766 1.048.746 2.534 1.315 4.185 1.602 1.649.288 3.241.256 4.481-.089 1.004-.281 1.656-.747 1.743-1.249.172-.983-1.801-2.74-5.402-3.368-.747-.13-1.48-.195-2.174-.195zm-4.853 1.393h.008-.008z" style="fill:#1a1a1a"/></g><g><path d="M135.075 78.608c-2.837-.108-5.078.754-5.33 2.197-.123.7.246 1.437.97 2.101 2.837.108 5.078-.754 5.33-2.197.122-.7-.247-1.434-.97-2.101z" style="fill:#1a1a1a"/></g></g><g><path d="M120.588 65.201s5.237 7.332 7.208 11.152a56.207 56.207 0 0 1 3.081 7.147s2.586 1.479 4.19 1.602c1.604.123 2.896.246 2.772 1.479-.123 1.233-1.602 2.464-2.403 2.772s-4.066.924-4.066.924-1.602 9.242-6.531 12.631-10.844 3.204-10.844 3.204l-6.593-.37-4.867 23.967s4.436 2.403 6.839 4.621c2.403 2.218 8.749 9.428 11.214 14.232s5.175 11.214 5.175 11.214-4.497-.246-4.682-.246-7.763-.616-8.01-.678c-.246-.061-13.986-3.82-14.048-4.005-.061-.185-13.185-5.914-13.185-5.914l-11.398-7.517s-9.735-8.194-11.768-10.782c-2.033-2.588-4.251-5.483-4.251-5.483s7.701-8.626 11.029-13.185c3.327-4.559 11.706-16.944 11.706-16.944s6.531-8.441 6.469-10.967-2.341-3.451-2.711-4.621c-.37-1.17-.431-7.948 4.497-10.536 4.928-2.588 7.147 1.109 7.147 1.109s1.787 4.31 3.451 4.375c1.664.065 9.981-3.143 9.981-3.143l10.598-6.038z" style="fill:#fece2f"/></g><g><path d="M76.842 122.378s-.37 2.28 4.066 3.017 18.73 4.498 24.645 9.919c12.918 11.842 16.327 24.214 16.327 24.214l3.879.246s-4.929-12.507-10.351-18.915c-5.422-6.408-12.813-12.69-19.59-14.414-6.776-1.724-18.976-4.067-18.976-4.067z" style="fill:#fff"/></g><g><path d="M75.61 103.524s2.66 3.141-1.232 8.873a144.258 144.258 0 0 1-13.062 16.604l-2.68-3.604 10.816-13.432 6.158-8.441z" style="fill:#fff"/></g><g><path d="m125.763 159.777 6.285 13.493 5.052 9.611s-1.109 12.077-4.066 20.58a114.031 114.031 0 0 1-7.517 16.51s-8.503 11.953-11.46 15.095c-2.958 3.143-9.488 8.687-9.488 8.687l13.555 2.834-1.477 19.224s-3.081 21.318-3.327 21.811-1.602 6.901-1.602 6.901l-11.583-3.697-49.538-21.441-34.749-17.991-14.911-9.119s2.586-21.072 7.148-37.83 15.898-36.844 15.898-36.844 10.102-15.404 17.988-24.275c7.886-8.871 16.451-18.174 16.451-18.174s13.123 18.299 33.086 26.801c19.961 8.503 34.255 7.824 34.255 7.824z" style="fill:#fff"/></g><g><path d="M20.279 189.31c13.219-32.306 32.35-50.696 41.038-60.309-3.017-3.348-2.896-3.85-2.896-3.85s-8.566 9.303-16.451 18.176c-7.885 8.873-17.988 24.275-17.988 24.275s-11.337 20.086-15.893 36.844-7.153 37.83-7.153 37.83l6.038 3.82c2.772-18.851 4.983-36.449 13.305-56.786z" style="fill:#fece2f"/></g><g><g><g><ellipse transform="matrix(0.9288 -0.3707 0.3707 0.9288 -57.2543 49.3881)" cx="99.855" cy="173.64" rx="2.311" ry="9.797" style="fill:#fece2f"/></g><g><ellipse transform="matrix(0.9965 -0.0841 0.0841 0.9965 -18.5076 10.2561)" cx="112.489" cy="224.818" rx="2.311" ry="7.235" style="fill:#fece2f"/></g><g><path d="M92.237 239.212a3.994 3.994 0 0 1 1.68.774l.032.01c-.472-.394-.095-.115.071.023.199.069.398.155.597.215.532.168 1.071.311 1.604.476.726-1.73 1.052-4.766.764-8.175-.44-5.21-2.145-9.32-3.809-9.179-1.664.141-2.657 4.478-2.216 9.688.151 2.103.58 4.177 1.277 6.168z" style="fill:#fece2f"/></g><g><ellipse transform="matrix(0.5845 -0.8114 0.8114 0.5845 -127.5072 125.6253)" cx="58.914" cy="187.318" rx="5.708" ry="1.874" style="fill:#fece2f"/></g><g><ellipse transform="matrix(0.3072 -0.9516 0.9516 0.3072 -136.1803 153.5604)" cx="37.38" cy="170.313" rx="5.093" ry="1.874" style="fill:#fece2f"/></g><g><ellipse transform="matrix(0.3072 -0.9516 0.9516 0.3072 -151.9039 223.2713)" cx="77.397" cy="215.968" rx="5.093" ry="1.874" style="fill:#fece2f"/></g><g><ellipse transform="matrix(0.6786 -0.7345 0.7345 0.6786 -145.4145 82.4733)" cx="21.527" cy="207.388" rx="8.892" ry="2.262" style="fill:#fece2f"/></g><g><ellipse transform="matrix(0.8104 -0.5859 0.5859 0.8104 -115.1652 69.8454)" cx="50.328" cy="212.851" rx="6.418" ry="2.476" style="fill:#fece2f"/></g><g><ellipse transform="matrix(0.9736 -0.2282 0.2282 0.9736 -54.4841 10.2196)" cx="16.955" cy="240.736" rx="2.057" ry="6.418" style="fill:#fece2f"/></g><g><ellipse transform="matrix(0.9682 -0.2501 0.2501 0.9682 -59.5511 16.827)" cx="36.448" cy="242.778" rx="2.475" ry="6.416" style="fill:#fece2f"/></g><g><ellipse transform="matrix(0.9356 -0.3531 0.3531 0.9356 -88.4095 33.4767)" cx="47.541" cy="259.032" rx="6.418" ry="2.047" style="fill:#fece2f"/></g><g><ellipse transform="matrix(0.7094 -0.7048 0.7048 0.7094 -146.7619 86.6813)" cx="31.743" cy="221.328" rx="7.661" ry="2.047" style="fill:#fece2f"/></g><g><ellipse transform="matrix(0.9177 -0.3972 0.3972 0.9177 -93.8449 43.7983)" cx="58.801" cy="248.429" rx="2.476" ry="9.525" style="fill:#fece2f"/></g><g><ellipse transform="matrix(0.4991 -0.8665 0.8665 0.4991 -188.7129 198.7222)" cx="77.541" cy="262.6" rx="8.742" ry="2.476" style="fill:#fece2f"/></g><g><ellipse transform="matrix(0.7472 -0.6646 0.6646 0.7472 -149.2737 138.3512)" cx="107.206" cy="265.375" rx="2.476" ry="8.742" style="fill:#fece2f"/></g><g><ellipse transform="matrix(0.8774 -0.4797 0.4797 0.8774 -122.1252 78.4221)" cx="92.388" cy="278.177" rx="2.476" ry="7.844" style="fill:#fece2f"/></g><g><ellipse transform="matrix(0.1739 -0.9848 0.9848 0.1739 -179.4912 305.1245)" cx="92.113" cy="259.542" rx="2.726" ry="1.562" style="fill:#fece2f"/></g><g><ellipse transform="matrix(0.6229 -0.7823 0.7823 0.6229 -177.0404 186.4913)" cx="104.932" cy="276.894" rx="4.099" ry="1.562" style="fill:#fece2f"/></g><g><ellipse transform="matrix(0.7778 -0.6285 0.6285 0.7778 -94.5145 71.1023)" cx="53.312" cy="169.235" rx="2.883" ry="1.472" style="fill:#fece2f"/></g><g><ellipse transform="matrix(0.7778 -0.6285 0.6285 0.7778 -77.2427 66.1726)" cx="54.975" cy="142.341" rx="2.883" ry="1.472" style="fill:#fece2f"/></g><g><ellipse transform="matrix(0.7303 -0.6832 0.6832 0.7303 -121.1862 73.0596)" cx="31.928" cy="189.997" rx="2.883" ry="1.472" style="fill:#fece2f"/></g><g><ellipse transform="matrix(0.7303 -0.6832 0.6832 0.7303 -143.773 94.6934)" cx="48.031" cy="229.417" rx="3.443" ry="1.758" style="fill:#fece2f"/></g><g><ellipse transform="matrix(0.9546 -0.2978 0.2978 0.9546 -55.1571 21.8798)" cx="44.22" cy="191.938" rx="2.311" ry="9.797" style="fill:#fece2f"/></g><g><ellipse transform="matrix(0.8805 -0.474 0.474 0.8805 -72.1165 54.7561)" cx="72.561" cy="170.435" rx="8.947" ry="2.311" style="fill:#fece2f"/></g><g><ellipse transform="matrix(0.8805 -0.474 0.474 0.8805 -66.2036 45.5345)" cx="57.225" cy="154.095" rx="8.323" ry="2.311" style="fill:#fece2f"/></g><g><ellipse transform="matrix(0.3428 -0.9394 0.9394 0.3428 -137.9992 199.1475)" cx="73.339" cy="198.207" rx="7.957" ry="3.107" style="fill:#fece2f"/></g><g><ellipse transform="matrix(0.2232 -0.9748 0.9748 0.2232 -123.6319 254.1831)" cx="97.668" cy="204.663" rx="3.107" ry="7.957" style="fill:#fece2f"/></g><g><ellipse transform="matrix(0.4404 -0.8978 0.8978 0.4404 -90.439 215.7982)" cx="127.889" cy="180.447" rx="3.107" ry="7.957" style="fill:#fece2f"/></g><g><path d="M82.824 147.474c-1.325-.739-2.508-1.705-3.785-2.521a4.188 4.188 0 0 1-.46-.346 19.193 19.193 0 0 0-1.451 2.764c-1.729 4.041-1.852 7.863-.274 8.538 1.577.675 4.256-2.053 5.987-6.093.274-.641.515-1.295.721-1.961a12.9 12.9 0 0 1-.738-.381z" style="fill:#fece2f"/></g><g><ellipse transform="matrix(0.9964 -0.0849 0.0849 0.9964 -15.8501 10.631)" cx="117.125" cy="191.758" rx="2.692" ry="7.957" style="fill:#fece2f"/></g><g><path d="M119.592 159.568a16.841 16.841 0 0 1-4.875-1.009c-.936 2.917-.953 5.3.1 5.788 1.192.553 3.357-1.513 5.122-4.755-.114-.007-.232-.014-.347-.024z" style="fill:#fece2f"/></g></g><g><ellipse transform="matrix(0.9664 -0.2569 0.2569 0.9664 -44.1868 29.0828)" cx="89.193" cy="183.623" rx="1.874" ry="6.352" style="fill:#fece2f"/></g></g><g><path d="M100.009 74.197c2.127.493 8.503-1.109 23.043-10.598s20.949-22.18 21.688-33.394c.739-11.214-2.095-12.692-5.668-14.048-3.574-1.355-8.135.493-11.83-3.448s-4.806-8.503-12.323-8.135c-7.517.367-12.445 4.31-15.526 1.724S91.014-.355 83.127 1.124 70.928 15.418 66.615 16.281s-12.815-.495-15.773 6.038 1.848 14.787-.986 18.731c-2.834 3.944-8.379 8.503-6.654 15.772s10.105 15.031 7.394 18.607c-2.711 3.576-9.365 13.924.493 20.455s27.451 2.132 31.669-2.834c3.82-4.498 6.593-9.55 3.943-11.522-2.126-1.582-2.664-4.487-1.293-8.01 1.171-2.896 4.928-6.549 8.811-5.176 4.002 1.419 2.34 5.054 5.79 5.855z" style="fill:#1a1a1a"/></g><g><g><path d="M95.113 17.948a18.335 18.335 0 0 1 .609-3.884 22.445 22.445 0 0 1 2.025-5.004c.436-.81.916-1.595 1.436-2.353l.26-.37c-.016-.013-.032-.023-.047-.036a37.53 37.53 0 0 0-2.281-1.791c-.101.108-.204.215-.302.329a26.686 26.686 0 0 0-1.927 2.443 24.25 24.25 0 0 0-2.913 5.595 20.776 20.776 0 0 0-1.181 5.533l-.029.409-.021.381c-.051 1.004-.072 1.993-.098 2.97l-.078 2.903a55.056 55.056 0 0 1-.41 5.578 21.433 21.433 0 0 1-.496 2.573 11.498 11.498 0 0 1-.827 2.221 5.344 5.344 0 0 1-1.185 1.574l-.175.137-.086.07c-.031.024-.08.054-.119.084l-.247.173-.261.17c-.347.227-.729.446-1.117.665-1.577.871-3.389 1.691-5.192 2.694a28.269 28.269 0 0 0-5.261 3.642 21.878 21.878 0 0 0-4.185 5.064 25.643 25.643 0 0 0-1.473 2.901c-.108.248-.201.498-.301.747l-.147.374-.123.326-.247.646-.259.638a24.179 24.179 0 0 1-2.513 4.707 14.406 14.406 0 0 1-3.564 3.582c-.704.488-1.452.909-2.235 1.259a20.67 20.67 0 0 1-2.478.937 33.257 33.257 0 0 1-5.42 1.083 64.043 64.043 0 0 1-3.833.337c.675 1.121 1.293 2.191 1.769 3.188.78 0 1.564-.016 2.351-.049a33.11 33.11 0 0 0 6.135-.795 19.906 19.906 0 0 0 6.005-2.415 18 18 0 0 0 4.878-4.457 28.748 28.748 0 0 0 3.204-5.498l.317-.709.298-.711.149-.354.131-.304c.088-.201.17-.407.261-.606.363-.789.775-1.555 1.233-2.293a17.543 17.543 0 0 1 3.325-3.879 24.278 24.278 0 0 1 4.395-2.963c.808-.44 1.653-.862 2.523-1.299.87-.437 1.771-.885 2.694-1.395.463-.26.929-.528 1.401-.835l.353-.23.353-.247c.06-.043.114-.078.179-.129l.2-.158c.132-.108.266-.215.394-.323a10.313 10.313 0 0 0 2.321-3.079 15.419 15.419 0 0 0 1.172-3.276c.251-1.051.432-2.117.544-3.192a51.7 51.7 0 0 0 .234-6.122 136.27 136.27 0 0 0-.064-2.959l-.072-2.893c0-.116-.005-.243-.004-.351v-.323c.005-.219.005-.435.022-.651z" style="fill:#fff"/></g><g><path d="M64.527 41.889c.276-.178.551-.359.832-.527l.881-.542a16.564 16.564 0 0 0 2.817-2.156 13.652 13.652 0 0 0 1.598-1.832c.482-.663.903-1.369 1.255-2.109.347-.735.627-1.5.839-2.285a17.33 17.33 0 0 0 .562-4.64 29.389 29.389 0 0 0-.103-2.224l-.047-.539c-.018-.179-.032-.353-.057-.551-.043-.387-.103-.761-.162-1.135a36.426 36.426 0 0 0-1.04-4.247 68.969 68.969 0 0 0-.661-2.033 61.185 61.185 0 0 0-.728-1.993c-.174-.467-.357-.93-.542-1.391a9.347 9.347 0 0 1-2.522 2.292l.025.09c.359 1.319.693 2.64.995 3.952s.555 2.624.715 3.891c.034.315.069.629.087.933.012.147.022.319.032.485l.025.498c.03.659.038 1.305.023 1.939a14.297 14.297 0 0 1-.497 3.599 9.731 9.731 0 0 1-1.483 3.078 11.196 11.196 0 0 1-2.502 2.443c-.249.172-.496.347-.759.507l-.887.557a20.66 20.66 0 0 0-.916.602l-.453.308-.443.319a44.987 44.987 0 0 0-3.406 2.712l-.808.726-.789.745-.77.762c-.254.258-.5.525-.749.787a39.031 39.031 0 0 0-2.801 3.357c-.215.303-.431.599-.634.913l-.575.886a19.029 19.029 0 0 1-1.121 1.54 16.905 16.905 0 0 1-2.691 2.65 16.587 16.587 0 0 1-3.931 2.259c.021.101.043.201.067.303.192.785.44 1.554.745 2.303a18.972 18.972 0 0 0 2.983-1.189 18.5 18.5 0 0 0 1.955-1.15 18.93 18.93 0 0 0 1.807-1.382c.569-.5 1.109-1.033 1.616-1.595a22.83 22.83 0 0 0 1.426-1.754l.319-.442.287-.387c.188-.259.402-.509.598-.766a41.754 41.754 0 0 1 5.603-5.615 41.762 41.762 0 0 1 3.164-2.405l.407-.281.414-.266z" style="fill:#fff"/></g><g><path d="M126.909 12.343a32.848 32.848 0 0 1-1.654-2.042c-.254.197-.508.393-.759.593-1.305 1.063-2.586 2.168-3.793 3.362a40.079 40.079 0 0 0-3.456 3.808 24.779 24.779 0 0 0-2.863 4.476c-.413.84-.749 1.716-1.004 2.617-.132.47-.235.947-.309 1.429-.043.243-.065.494-.092.743-.018.252-.035.516-.04.721a38.64 38.64 0 0 0 .206 5.192c.174 1.701.431 3.373.7 5 .132.814.263 1.616.377 2.403.114.787.208 1.553.248 2.271.054.603.018 1.21-.108 1.802-.033.138-.09.269-.169.387l-.035.043a.347.347 0 0 1-.048.044l-.041.034a6.738 6.738 0 0 1-.381.286c-.566.395-1.254.795-1.952 1.195s-1.429.808-2.161 1.231a26.758 26.758 0 0 0-4.367 3.012c-.753.651-1.414 1.4-1.967 2.228-.302.463-.551.96-.741 1.479a6.088 6.088 0 0 0-.352 1.724c-.011.149-.009.297-.009.446 0 .074.006.148.01.221a12.507 12.507 0 0 0 .098.9c.065.455.147.892.235 1.322.178.857.384 1.675.587 2.478.203.803.405 1.587.585 2.365.18.778.349 1.545.474 2.308.269 1.479.325 2.988.165 4.483a10.129 10.129 0 0 1-.836 2.942c1.11-.313 2.2-.693 3.264-1.139.137-.438.252-.883.344-1.333a17.55 17.55 0 0 0 .172-5.364 35.375 35.375 0 0 0-.369-2.561c-.149-.837-.323-1.656-.488-2.459a55.524 55.524 0 0 1-.444-2.355 18.13 18.13 0 0 1-.146-1.12 14.77 14.77 0 0 1-.041-.536c-.004-.051 0-.069 0-.101v-.087c.004-.058.003-.115.011-.172.063-.505.257-.986.564-1.392a7.45 7.45 0 0 1 1.355-1.41 17.958 17.958 0 0 1 1.8-1.288 37.332 37.332 0 0 1 2.024-1.195c.699-.387 1.419-.773 2.155-1.175.736-.402 1.487-.815 2.285-1.347.2-.135.404-.28.615-.444l.079-.063c.026-.02.051-.039.09-.074a4.802 4.802 0 0 0 .592-.599 5.07 5.07 0 0 0 .92-1.813 7.826 7.826 0 0 0 .269-1.644c.028-.486.03-.973.005-1.459a28.756 28.756 0 0 0-.269-2.643c-.12-.846-.255-1.667-.387-2.478-.262-1.624-.517-3.209-.696-4.784a38.841 38.841 0 0 1-.274-4.675c0-.207.007-.354.011-.513.014-.162.02-.323.045-.485.04-.334.101-.665.183-.991.173-.691.403-1.367.689-2.02.303-.686.643-1.354 1.018-2.003.383-.66.804-1.309 1.246-1.951a44.423 44.423 0 0 1 2.929-3.729 70.431 70.431 0 0 1 3.304-3.514c.199-.198.398-.392.597-.587z" style="fill:#fff"/></g><g><path d="M142.317 29.077c-.183-.654-.387-1.225-.573-1.778-.185-.553-.363-1.077-.521-1.604a23.099 23.099 0 0 1-.409-1.569c-.06-.261-.112-.523-.157-.787a6.258 6.258 0 0 1-.094-.667 5.088 5.088 0 0 1 .544-2.57c.36-.736.808-1.426 1.335-2.054a7.77 7.77 0 0 0-2.491-1.544 11.35 11.35 0 0 0-1.641 2.028 8.964 8.964 0 0 0-.921 1.95 7.731 7.731 0 0 0-.323 3.334 21.306 21.306 0 0 0 .484 2.849c.145.615.311 1.221.481 1.795.169.574.33 1.127.449 1.616.058.242.104.468.13.663.023.153.028.308.017.463a.803.803 0 0 1-.203.468c-.047.048-.094.108-.121.128a3.488 3.488 0 0 1-.185.151 8.51 8.51 0 0 1-.574.389c-.431.274-.928.552-1.431.831-1.013.558-2.08 1.131-3.138 1.767a26.27 26.27 0 0 0-3.152 2.161 12.232 12.232 0 0 0-2.82 3.108 7.637 7.637 0 0 0-.909 2.179c-.188.8-.23 1.627-.123 2.441.025.215.057.363.086.539a11.515 11.515 0 0 0 .392 1.517c.216.653.484 1.287.802 1.897a17.346 17.346 0 0 0 2.235 3.225c.41.481.83.937 1.25 1.378s.846.859 1.26 1.275c.296.298.586.595.868.888.718-.746 1.401-1.5 2.047-2.263-.205-.248-.41-.492-.613-.733-.384-.455-.763-.901-1.127-1.347-.364-.446-.721-.878-1.051-1.318a14.319 14.319 0 0 1-1.637-2.694 9.154 9.154 0 0 1-.507-1.392 7.976 7.976 0 0 1-.162-.709c-.025-.119-.04-.239-.061-.358-.013-.114-.037-.255-.039-.336a3.304 3.304 0 0 1 .602-2.135 8.967 8.967 0 0 1 1.997-2.044 25.391 25.391 0 0 1 2.721-1.798c.975-.567 1.993-1.109 3.047-1.693a33.93 33.93 0 0 0 1.632-.949c.305-.19.601-.396.885-.616.155-.12.319-.258.491-.42.17-.165.33-.34.479-.524a4.713 4.713 0 0 0 1.068-2.776 6.183 6.183 0 0 0-.08-1.303 10.633 10.633 0 0 0-.239-1.059z" style="fill:#fff"/></g><g><path d="M64.509 96.456a8.502 8.502 0 0 1 1.077-.833c.397-.269.824-.525 1.274-.782.901-.517 1.891-1.014 2.913-1.687.545-.356 1.057-.76 1.531-1.208a6.683 6.683 0 0 0 1.341-1.774c.181-.353.327-.723.437-1.104l.075-.288.054-.262a6.94 6.94 0 0 0 .087-.535 6.43 6.43 0 0 0-.108-2.301 5.95 5.95 0 0 0-1.019-2.184 7.008 7.008 0 0 0-1.639-1.562 10.84 10.84 0 0 0-3.652-1.562 18.852 18.852 0 0 0-3.602-.49 27.106 27.106 0 0 0-3.502.068 32.327 32.327 0 0 0-2.564.308l-.422.068-.211.036-.223.041a17.464 17.464 0 0 0-3.489 1.034 16.473 16.473 0 0 0-5.883 4.141c-.394.432-.765.885-1.11 1.357a9.798 9.798 0 0 0 .7 3.76c.182-.24.368-.475.558-.706a17.26 17.26 0 0 1 2.094-2.129 15.252 15.252 0 0 1 4.999-2.882 15.428 15.428 0 0 1 2.797-.666l.179-.027.192-.026.384-.051a45.135 45.135 0 0 1 2.298-.22 28.377 28.377 0 0 1 3.017-.04c.961.039 1.916.162 2.855.367a7.432 7.432 0 0 1 2.341.922c.279.177.528.397.738.652.177.216.308.466.385.734.081.305.107.623.076.937a3.16 3.16 0 0 1-.03.269l-.023.138-.022.108c-.033.143-.08.283-.14.418a3.151 3.151 0 0 1-.58.843 7.268 7.268 0 0 1-.984.862c-.761.574-1.676 1.131-2.623 1.76-.474.316-.958.651-1.437 1.029-.497.393-.96.826-1.386 1.296a7.864 7.864 0 0 0-1.152 1.661 6.707 6.707 0 0 0-.638 1.954 7.316 7.316 0 0 0-.096 1.086c.892.098 1.795.156 2.7.175.03-.229.077-.456.14-.678a4.416 4.416 0 0 1 1.293-2.027z" style="fill:#fff"/></g></g><g><path d="M63.791 100.018c-4.708 0-9.419-.981-13.153-3.454-3.077-2.039-4.902-4.626-5.423-7.689-.931-5.471 2.565-11.081 4.731-13.939 1.219-1.607-.818-4.945-2.975-8.478-1.779-2.916-3.796-6.22-4.562-9.449-1.495-6.295 2.104-10.662 4.995-14.172.654-.794 1.272-1.543 1.789-2.265 1.179-1.639.794-4.338.35-7.463-.502-3.532-1.071-7.535.555-11.127 2.473-5.461 8.501-5.857 12.903-6.147 1.288-.084 2.505-.165 3.453-.354 1.516-.303 3.333-2.801 5.257-5.445 2.853-3.921 6.402-8.801 11.264-9.713 8.629-1.619 14.455 3.264 16.941 5.351 1.457 1.223 3.627.592 6.631-.279 2.265-.657 5.085-1.476 8.332-1.634 6.21-.302 8.414 2.607 10.75 5.689.679.896 1.381 1.822 2.207 2.703 2.148 2.289 4.574 2.418 7.143 2.554 1.466.077 2.982.158 4.381.689 4.097 1.554 6.94 3.53 6.192 14.863-.859 13.036-8.898 25.437-22.056 34.024-11.639 7.595-20.269 11.496-23.672 10.709l-.001-.001c-2.087-.485-2.687-1.867-3.217-3.087-.509-1.173-.95-2.186-2.661-2.792-3.315-1.173-6.704 2.043-7.783 4.713-1.204 3.096-.832 5.669 1.024 7.051.779.579 1.232 1.383 1.347 2.389.371 3.256-3.071 7.86-5.156 10.314-2.826 3.329-11.202 6.439-19.586 6.439zM86.424 1.626c-.997 0-2.046.092-3.147.299-4.225.793-7.424 5.191-10.247 9.07-2.208 3.035-4.115 5.657-6.255 6.085-1.054.211-2.323.295-3.666.383-4.213.277-9.456.622-11.525 5.192-1.43 3.161-.897 6.914-.426 10.226.473 3.329.92 6.473-.641 8.645-.549.764-1.183 1.534-1.855 2.349-2.8 3.4-5.975 7.252-4.668 12.759.707 2.977 2.651 6.164 4.368 8.976 2.561 4.196 4.772 7.82 2.882 10.313-2.008 2.647-5.251 7.814-4.423 12.68.443 2.601 2.03 4.823 4.717 6.603 9.546 6.327 26.594 2.03 30.598-2.682 3.209-3.778 4.995-7.17 4.778-9.074-.063-.556-.286-.958-.7-1.266-2.453-1.826-3.038-5.176-1.567-8.96 1.356-3.355 5.533-7.173 9.842-5.648 2.38.842 3.064 2.415 3.613 3.679.483 1.114.803 1.85 2.091 2.149.781.18 5.531.529 22.412-10.487 12.725-8.303 20.495-20.246 21.32-32.764.726-11.006-1.994-12.038-5.143-13.233-1.161-.44-2.487-.51-3.889-.584-2.649-.141-5.651-.299-8.247-3.068-.884-.943-1.613-1.903-2.317-2.832-2.248-2.965-4.042-5.309-9.371-5.046-3.056.149-5.66.904-7.957 1.571-3.358.974-6.011 1.743-8.133-.038-2.154-1.808-6.311-5.297-12.444-5.297z" style="fill:#1a1a1a"/></g><g><path d="M102.474 130.34a.815.815 0 0 1-.799-.979l4.929-24.152a.817.817 0 0 1 .974-.633c.076.018 7.614 1.634 14.435-1.071 4.613-1.829 7.955-7.051 8.516-13.303a.812.812 0 0 1 .884-.739.815.815 0 0 1 .739.884c-.615 6.859-4.359 12.619-9.538 14.674-6.016 2.386-12.352 1.665-14.573 1.299l-4.769 23.367a.815.815 0 0 1-.798.653z" style="fill:#1a1a1a"/></g><g><path d="M130.603 83.758a.816.816 0 0 1-.78-.578c-2.304-7.566-9.689-17.389-9.763-17.487a.814.814 0 1 1 1.3-.982c.31.411 7.634 10.155 10.022 17.995a.815.815 0 0 1-.779 1.052z" style="fill:#1a1a1a"/></g><g><path d="m2.058 242.847-1.622-.156c2.895-30.062 9.577-52.4 22.343-74.694 8.211-14.338 19.249-26.193 28.988-36.654 4.605-4.946 8.954-9.618 12.364-13.909 10.329-13.001 17.868-24.707 17.943-24.823l1.372.88c-.076.118-7.659 11.892-18.038 24.957-3.449 4.341-7.82 9.035-12.447 14.006-9.679 10.396-20.649 22.179-28.766 36.353-12.814 22.374-19.227 43.825-22.137 74.04z" style="fill:#1a1a1a"/></g><g><path d="m112.381 294.912-1.578-.408c5.64-21.834 6.436-47.802 6.443-48.062l1.63.046c-.007.263-.807 26.409-6.495 48.424z" style="fill:#1a1a1a"/></g><g><path d="M107.402 105.373s-9.735-1.786-9.488 1.293c.298 3.726 7.116 10.412 5.268 19.1l4.22-20.393z" style="fill:#1a1a1a"/><path d="M103.183 126.58a.815.815 0 0 1-.799-.981l.033-.158c1.086-5.399-1.331-9.97-3.277-13.649-1.032-1.952-1.923-3.637-2.038-5.062a1.965 1.965 0 0 1 .664-1.668c2.005-1.812 8.501-.728 9.784-.493.216.04.406.164.529.346.123.182.167.406.123.621l-4.187 20.231-.034.166a.819.819 0 0 1-.798.647zm-1.155-20.907c-1.462 0-2.688.165-3.17.601a.345.345 0 0 0-.131.327c.087 1.09.906 2.638 1.854 4.431 1.131 2.14 2.502 4.731 3.227 7.69l2.625-12.685c-1.387-.213-3.004-.364-4.405-.364z" style="fill:#1a1a1a"/></g><g><path d="M131.369 91.092a.814.814 0 0 1-.066-1.628c1.498-.124 5.473-.904 5.874-2.991.017-.088.01-.123.01-.123-.184-.181-1.348-.292-2.199-.373l-.184-.018c-4.549-.434-4.976-2.657-5.009-2.909a.814.814 0 0 1 1.61-.252c.025.08.439 1.242 3.553 1.539l.183.017c1.611.153 2.776.263 3.364 1.047.195.26.401.711.273 1.379-.717 3.727-7.072 4.287-7.343 4.31a1.411 1.411 0 0 1-.066.002z" style="fill:#1a1a1a"/></g><g><g><ellipse transform="matrix(0.172 -0.9851 0.9851 0.172 18.5842 184.3035)" cx="118.924" cy="81.097" rx="3.204" ry="6.716" style="fill:#fff"/><path d="M120.715 85.28a14.41 14.41 0 0 1-2.483-.224c-1.884-.329-3.607-.997-4.849-1.879-1.416-1.007-2.083-2.206-1.879-3.375.205-1.169 1.238-2.071 2.911-2.538 1.469-.409 3.315-.453 5.199-.126 4.229.739 7.122 2.998 6.729 5.254-.314 1.796-2.585 2.887-5.628 2.888zm-3.554-6.731c-.843 0-1.628.096-2.307.285-1.005.28-1.656.747-1.743 1.248-.088.501.367 1.161 1.217 1.766 1.048.746 2.534 1.315 4.185 1.602 3.599.628 6.053-.356 6.224-1.338.172-.982-1.801-2.739-5.402-3.368a12.647 12.647 0 0 0-2.174-.195zm-4.853 1.393h.008-.008z" style="fill:#1a1a1a"/></g><g><path d="M124.57 80.148c-2.836-.108-5.078.754-5.33 2.197-.123.703.246 1.437.97 2.104 2.837.108 5.078-.754 5.33-2.197.123-.703-.247-1.439-.97-2.104z" style="fill:#1a1a1a"/></g></g><g><path d="M118.247 94.882a.865.865 0 0 1-.088-.005 9.676 9.676 0 0 1-6.862-4.037.814.814 0 1 1 1.331-.941 8.047 8.047 0 0 0 5.707 3.357.817.817 0 0 1-.088 1.626z" style="fill:#1a1a1a"/></g><g><path d="M116.679 73.378a5.824 5.824 0 0 1 1.192-.589 6.957 6.957 0 0 1 2.631-.423c.454.015.906.072 1.351.168a.54.54 0 1 1-.274 1.043l-.025-.009a6.541 6.541 0 0 0-1.136-.295 6.165 6.165 0 0 0-2.38.071 5.326 5.326 0 0 0-1.139.385l-.015.007a.208.208 0 0 1-.276-.098.201.201 0 0 1 .071-.26z" style="fill:#1a1a1a"/></g><g><path d="M134.081 73.23a5.353 5.353 0 0 0-1.087-.515 6.018 6.018 0 0 0-1.169-.289c-.392-.059-.789-.079-1.185-.059a6.7 6.7 0 0 0-1.163.162l-.023.005a.541.541 0 1 1-.154-1.068 7.455 7.455 0 0 1 1.361-.01 6.963 6.963 0 0 1 2.563.726c.399.197.773.44 1.116.724a.208.208 0 0 1-.244.334l-.015-.01z" style="fill:#1a1a1a"/></g><g><path d="M137.193 183.528c-.093-.277 5.175 9.057 13.031 13.77 7.855 4.713 16.913 5.176 24.768 5.083 7.855-.093 19.685-6.746 24.214-10.536 4.529-3.79 15.526-16.728 15.526-18.669s-2.495-5.36-4.529-6.931-5.73-6.747-4.251-7.856c1.478-1.109 5.637 2.495 5.637 2.495l4.529 3.142s3.974.277 8.226-3.696 5.548-8.318 5.548-10.351l-1.355-1.479s3.448-1.232 4.467-.185c1.019 1.047 1.202 4.159 1.202 4.159s1.91-.524 2.586.339c.676.863.862 3.79.708 5.083 0 0 2.772-1.724 3.728-.492.955 1.232.679 5.853.679 5.853l3.943-4.375s1.972-2.185 2.495-1.724c1.017.893-.646 5.453-.646 5.453l-2.772 5.361-4.929 9.428-13.388 18.328-11.321 13.678-8.41 8.641-10.351 7.763-10.675 5.868-20.563 8.687-19.131 4.298s-13.724 2.726-13.909 2.68c-.185-.046-4.806.046-4.806.046l-9.797-1.109-9.612-1.71-3.28-1.201 8.687-7.624s7.948-9.105 11.136-13.909c3.189-4.805 6.423-12.754 7.855-16.496a89.209 89.209 0 0 0 3.281-11.784c.647-3.003 1.479-10.028 1.479-10.028z" style="fill:#fece2f"/></g><g><path d="M214.49 173.926c-1.632 3.384-11.152 14.462-15.284 17.92-4.529 3.79-16.359 10.444-24.214 10.536-7.855.092-16.913-.37-24.768-5.083-7.855-4.714-13.123-14.047-13.031-13.77 0 0-.3 2.526-.678 5.196 3.645 4.917 11.038 12.99 21.472 15.598 16.634 4.159 33.548-.74 44.454-11.368 15.398-15.007 12.754-19.503 12.754-19.503l-.705.474z" style="fill:#fff"/></g><g><path d="M104.692 244.321a.814.814 0 0 1-.501-1.459c31.808-24.671 31.729-59.497 31.724-59.847a.814.814 0 0 1 .805-.825c.447.02.82.355.825.805.005.357.088 35.992-32.354 61.155a.815.815 0 0 1-.499.171z" style="fill:#1a1a1a"/></g><g><path d="m126.01 160.654-.029-.001c-45.726-1.624-67.809-34.477-68.026-34.809a.816.816 0 0 1 1.363-.895c.213.325 21.865 32.482 66.721 34.075a.814.814 0 0 1-.029 1.63z" style="fill:#1a1a1a"/></g><g><path d="M111.45 295.603a.815.815 0 0 1-.308-.06c-1.881-.767-3.87-1.422-5.793-2.055-2.109-.695-4.291-1.414-6.293-2.272-1.106-.551-2.33-1.095-3.514-1.621-1.2-.533-2.44-1.084-3.533-1.631-2.45-.978-4.933-1.953-7.392-2.92-8.211-3.226-15.966-6.273-23.839-10.003-3.28-1.639-6.544-3.258-9.804-4.874-16.851-8.355-34.277-16.994-50.586-27.087a.815.815 0 1 1 .858-1.386c16.244 10.053 33.634 18.675 50.452 27.013 3.261 1.617 6.527 3.237 9.793 4.869 7.807 3.699 15.537 6.736 23.721 9.952 2.464.968 4.95 1.945 7.464 2.951 1.122.558 2.346 1.102 3.528 1.627 1.201.534 2.444 1.086 3.538 1.633 1.894.81 3.946 1.486 6.118 2.202 1.949.642 3.965 1.305 5.899 2.094.416.17.617.646.447 1.063a.82.82 0 0 1-.756.505z" style="fill:#1a1a1a"/></g><g><path d="M87.518 78.108a.815.815 0 0 1-.785-1.038c.807-2.835 2.129-4.699 3.928-5.541 2.122-.994 4.081-.146 4.163-.11a.815.815 0 0 1-.656 1.491c-.072-.029-1.404-.578-2.836.104-1.343.64-2.363 2.154-3.03 4.501a.817.817 0 0 1-.784.593z" style="fill:#1a1a1a"/></g><g><path d="M91.906 76.444a.817.817 0 0 1-.806-.695l-.509-3.419a.816.816 0 0 1 .686-.927.82.82 0 0 1 .927.686l.509 3.419a.816.816 0 0 1-.807.936z" style="fill:#1a1a1a"/></g><g><path d="M127.766 247.298s4.159.092 10.905-4.436c6.727-4.516 13.493-12.292 16.543-10.351 3.05 1.941-3.143 7.855-.646 9.057 2.415 1.163 20.389-11.534 23.937-12.199 2.957-.554 3.142 1.386 5.73 1.201s9.15-9.428 15.619-7.301c0 0-4.898 3.512-9.242 6.008-4.344 2.495-15.712 7.486-15.712 7.486l-11.552 4.528s-9.611 2.773-13.863 3.512c-4.251.739-11.645 1.848-11.645 1.848l-10.074.647z" style="fill:#1a1a1a"/><path d="M127.786 248.113h-.039a.816.816 0 0 1-.034-1.628l.54-.034c1.237-.135 4.827-.818 9.963-4.265 2.167-1.454 4.328-3.245 6.418-4.976 4.73-3.917 8.466-7.013 11.017-5.387 2.223 1.415.951 4.177.022 6.194-.506 1.098-1.199 2.601-.753 2.815 1.26.317 8.637-4.1 13.041-6.733 4.685-2.801 8.731-5.221 10.392-5.532 1.874-.353 2.85.174 3.71.637.644.347 1.157.621 2.112.553.615-.045 2.08-1.255 3.372-2.323 3.315-2.739 7.849-6.486 12.56-4.941a.816.816 0 0 1 .221 1.437c-.049.036-4.981 3.565-9.312 6.053-4.332 2.488-15.324 7.321-15.789 7.525l-11.583 4.54c-.466.139-9.774 2.818-14.021 3.557-4.212.732-11.589 1.84-11.663 1.852l-9.504.613c-.353.038-.58.043-.67.043zm-.02-.815h.008-.008zm26.315-14.283c-1.827 0-5.165 2.765-8.407 5.45-2.121 1.757-4.314 3.573-6.549 5.073a35.872 35.872 0 0 1-4.288 2.488l2.95-.189c.006-.004 7.365-1.11 11.558-1.838 4.158-.724 13.68-3.464 13.776-3.492l11.481-4.504c.084-.037 11.347-4.989 15.603-7.434 2.727-1.567 5.704-3.559 7.506-4.798-3.277.086-6.592 2.827-9.124 4.919-1.834 1.516-3.159 2.61-4.294 2.691-1.429.108-2.265-.347-3.002-.743-.741-.4-1.328-.716-2.636-.47-1.375.258-5.686 2.836-9.856 5.33-8.707 5.207-12.99 7.568-14.584 6.803-1.891-.91-.854-3.159-.021-4.967.94-2.041 1.532-3.533.583-4.137a1.282 1.282 0 0 0-.696-.182z" style="fill:#1a1a1a"/></g><g><path d="M71.482 226.134s-3.605-3.882-7.763-1.848-4.621 6.747.37 10.444c4.99 3.697 10.437 2.55 16.543 6.007 4.898 2.772 11.503 9.201 14.355 10.382 6.623 2.742 15.187-.154 17.96-5.514 0 0-12.723-2.557-19.934-5.607a98.137 98.137 0 0 1-12.014-6.008l-8.224-5.822-1.293-2.034z" style="fill:#1a1a1a"/><path d="M100.509 252.989c-1.996.001-3.993-.357-5.833-1.118-1.519-.628-3.839-2.489-6.526-4.644-2.579-2.069-5.502-4.413-7.919-5.781-2.789-1.578-5.457-2.165-8.037-2.732-2.996-.659-5.826-1.282-8.59-3.329-2.755-2.042-4.148-4.517-3.923-6.971.187-2.036 1.528-3.807 3.681-4.86 3.721-1.816 7.33.529 8.719 2.026a.919.919 0 0 1 .091.117l1.208 1.898 8.093 5.729a98.096 98.096 0 0 0 11.856 5.921c7.055 2.983 19.655 5.534 19.781 5.559a.814.814 0 0 1 .563 1.175c-2.248 4.341-7.704 7.01-13.164 7.01zM66.226 224.51c-.682 0-1.406.144-2.148.508-1.653.808-2.638 2.066-2.773 3.544-.169 1.839 1.023 3.848 3.27 5.512 2.484 1.84 5.149 2.426 7.97 3.046 2.698.594 5.488 1.207 8.489 2.906 2.532 1.434 5.51 3.821 8.137 5.928 2.482 1.99 4.826 3.87 6.13 4.41 5.661 2.343 13.239.298 16.358-4.197-3.294-.701-12.934-2.87-18.962-5.419a99.355 99.355 0 0 1-12.11-6.057l-8.282-5.859a.827.827 0 0 1-.217-.228l-1.25-1.965c-.331-.336-2.211-2.129-4.612-2.129z" style="fill:#1a1a1a"/></g><g><path d="M129.416 248.105c-3.865 0-7.703-.263-11.476-.833-31.702-4.792-46.897-20.418-47.048-20.576a.814.814 0 0 1 .029-1.152.817.817 0 0 1 1.152.027c.146.154 15.001 15.386 46.111 20.089 30.552 4.622 65.681-11.306 81.835-23.141 15.845-11.608 36.321-39.815 42.4-51.054 5.609-10.366 5.913-12.968 5.595-13.597-.003-.006-.006-.013-.01-.018-1.169.703-5.396 6.091-8.947 11.086a.816.816 0 0 1-1.33-.944c8.568-12.052 9.886-11.873 10.389-11.795.782.108 1.167.568 1.352.935.642 1.27.407 3.978-5.615 15.108-6.139 11.349-26.835 39.845-42.871 51.594-14.382 10.535-43.625 24.271-71.566 24.271z" style="fill:#1a1a1a"/></g><g><path d="M240.979 165.583a.815.815 0 0 1-.745-1.145c.616-1.394 1.985-5.599.245-6.604-.489-.281-1.864.567-2.633 1.301a.816.816 0 0 1-1.126-1.18c.455-.435 2.815-2.552 4.575-1.532 3.311 1.912.734 7.989.429 8.676a.816.816 0 0 1-.745.484z" style="fill:#1a1a1a"/></g><g><path d="M233.586 168.171a.815.815 0 0 1-.63-1.333c.025-.031 2.527-3.127 3.525-8.443.596-3.186.193-4.778-.382-5.207-.407-.302-1.087-.06-1.586.197a.816.816 0 0 1-.748-1.448c1.649-.85 2.71-.501 3.307-.057 1.313.977 1.663 3.334 1.01 6.815-1.08 5.756-3.756 9.043-3.87 9.18a.806.806 0 0 1-.626.296z" style="fill:#1a1a1a"/></g><g><path d="M228.779 165.674a.815.815 0 0 1-.621-1.342c4.83-5.714 5.85-13.265 4.543-15.021-.934-1.256-2.954-.525-3.779-.151a.815.815 0 1 1-.672-1.486c2.467-1.116 4.62-.868 5.759.664 1.848 2.484.729 10.736-4.606 17.046a.813.813 0 0 1-.624.29z" style="fill:#1a1a1a"/></g><g><path d="M169.543 203.3c-13.059 0-21.575-5.964-25.986-10.217-6.189-5.968-10.154-14.803-15.641-27.031-.844-1.881-1.723-3.838-2.648-5.872l-.227-.497c-6.838-15.025-15.347-33.726-48.267-36.489a.813.813 0 0 1-.743-.88.816.816 0 0 1 .88-.743c33.871 2.843 42.6 22.025 49.614 37.438l.227.497c.927 2.037 1.807 3.997 2.651 5.879 5.413 12.062 9.324 20.776 15.286 26.526 5.508 5.312 17.729 13.405 37.668 7.932 18.312-5.028 30.254-24.203 31.555-26.374.47-.783-2.07-4.826-4.889-7.283-1.941-1.693-4.391-5.099-3.94-7.089.159-.7.642-1.196 1.361-1.397 1.661-.454 4.145 1.222 7.476 3.65 1.142.833 2.437 1.776 2.874 1.894 1.151.315 6.471-2.203 9.48-6.346 2.937-4.042 2.806-6.768 2.804-6.795a.818.818 0 0 1 .756-.867.813.813 0 0 1 .869.746c.01.132.217 3.294-3.111 7.875-3.066 4.221-9.018 7.556-11.222 6.962-.697-.188-1.699-.903-3.411-2.151-1.766-1.287-5.053-3.674-6.079-3.396-.177.049-.19.109-.208.186-.232 1.02 1.527 3.848 3.421 5.5 1.822 1.589 6.643 6.975 5.215 9.351-1.336 2.227-13.597 21.912-32.521 27.106-4.845 1.328-9.257 1.884-13.244 1.885z" style="fill:#1a1a1a"/></g><g><path d="M229.891 150.858a.81.81 0 0 1-.611-.276l-1.358-1.541a.815.815 0 0 1 1.222-1.078l1.358 1.541a.815.815 0 0 1-.611 1.354z" style="fill:#1a1a1a"/></g></g></svg></g><g transform="translate(787.0 391.0) rotate(-11.697954950723075 -32.5 43.5) scale(-1.6666666666666667 1.7058823529411764)"><svg width="39" height="51" viewBox="0 0 39 51"><clipPath id="e"><path d="M0 0h38.4v51H0z"/></clipPath><g clip-path="url(#e)"><path d="M13 11.8c1.6.8 4 .9 7.8 1 7 .2 11 .3 14.1-2.6 1.5-1.4 2.2-3 2.6-4.1C32.4 4.8 26.6 3.5 20 2.8c-3.2-.4-6.2-.6-9.1-.7zm5.4 29.8c-.2.3-.5.4-.8.6-1.4.8-2.8 1.5-4.3 2.1-2.6 1-5.6 1.4-7.8 3.1-.4.3-.8.7-.6 1.2 0 .4.6.6 1.1.6 5.1.6 10.3.4 15.3-.6 1.4-.3 2.8-.7 3.9-1.4 1.2-.8 2.1-2 2.2-3.4.1-1.7-1.1-3.2-2.3-4.5-.5-.6-1.1-1.4-.7-2 .2-.3.7-.4 1-.6 1.2-.6 1.5-2.2 1.2-3.4s-1.2-2.3-1.9-3.4c-.1-.2-.3-.4-.3-.6-.2-.8.8-1.3 1.5-1.7 2.6-1.5 3.7-5.2 2.3-7.8-.6-1.2-1.7-2.1-2.7-3-1.6-1.3-3.3-2.5-5.2-3.2s-4.1-.9-6-.2c-.1.1-.3.1-.4.3s-.1.4-.1.6c.2 1.9.5 3.8.7 5.7-3.3.2-6.7.3-10 .5-1 0-2.2.2-2.7 1-.4.6-.3 1.4.1 2s.9 1.1 1.5 1.5c3.3 2.4 7.3 3.9 11.4 4.2-4 1.2-7.8 2.5-11.7 3.8-.5.2-1 .3-1.3.7-.5.7-.2 1.7.5 2.2.6.5 1.5.7 2.4.8 3.1.5 6.2.9 9.4 1.1 1 .1 3.7-.2 4.3.5.4.7.5 2.7 0 3.3z" fill="#fece2f"/><g fill="#1a1a1a"><path d="m10.9 2 25.3 4.9c-.6 1.4-2.2 4.1-6.3 4.7-6.2.9-16.2.2-16.3.2-.2 0-.4.1-.6.2l.4 1.8h.1c.3 0 4.1.3 8.6.3 2.8 0 5.7-.1 8.2-.5 7.1-1.1 8.2-7.2 8.2-7.2.1-.5-.3-1.1-.8-1.2L11.3 0c-.3 0-.6 0-.8.2z"/><path d="M18.8 30.2c-5.4 0-11.4-1.6-14.3-2.8-3-1.3-4.8-3.6-4.4-5.5.2-1.1 1.2-2.9 5.7-2.9 6.7 0 14.6.3 14.7.3.6 0 1 .5 1 1s-.5 1-1 1c-.1 0-7.9-.3-14.6-.3-2.6 0-3.6.7-3.8 1.3-.2.8 1 2.3 3.2 3.3 4.3 1.9 14.5 4 19.7 1.6 1.5-.7 2.5-1.7 2.9-3.1.4-1.3.2-2.6-.4-3.8C25 16.1 17.3 14 17.2 14c-.5-.1-.9-.7-.7-1.2.1-.5.7-.9 1.2-.7.4.1 8.6 2.3 11.4 7.2.9 1.7 1.2 3.5.6 5.3-.6 1.9-1.9 3.4-3.9 4.4-2 .9-4.5 1.2-7 1.2z"/><path d="M15.9 39.2c-6.3 0-13.4-1-14.9-2.8-.4-.5-.6-1.1-.4-1.7.9-2.8 11.5-5.3 16-6.3.5-.1 1.1.2 1.2.8.1.5-.2 1.1-.8 1.2-7 1.5-13.4 3.6-14.4 4.8 1.8 1.4 13 2.7 19.6 1.5 2.9-.5 3.3-1.3 3.4-1.4 1.2-3.2-2.3-5.2-2.4-5.3-.5-.3-.6-.9-.4-1.4s.9-.7 1.4-.4c1.8 1 4.8 3.9 3.3 7.8-.5 1.3-2.1 2.2-4.9 2.7-1.9.3-4.2.5-6.7.5z"/><path d="M9.5 51.1c-3 0-5.8-.3-6.4-1.5-.2-.4-.2-.8 0-1.2 1-2.3 11.4-5.6 15.8-6.9.5-.2 1.1.1 1.2.7.2.5-.1 1.1-.7 1.2-5.6 1.6-12.1 4-14 5.3 2.6.6 11.7.4 17.3-1.4 2.8-.9 3.3-1.7 3.4-2 1.2-3.5-3.3-6.9-3.4-6.9-.4-.3-.6-.9-.2-1.4s.9-.6 1.4-.2c.2.2 5.8 4.2 4.1 9.2-1.3 3.8-11.7 4.7-14.9 4.9-1.2.1-2.4.2-3.6.2z"/><path d="M19.3 43.4c-.4 0-.9-.3-1-.8l-1-4.1c-.1-.5.2-1.1.7-1.2s1.1.2 1.2.7l1 4.1c.1.5-.2 1.1-.7 1.2-.1.1-.1.1-.2.1zM13.6 21c-.5 0-.9-.3-1-.8l-3.1-19c0-.6.4-1.1.9-1.2.6-.1 1.1.3 1.1.8l3.1 19c.1.5-.3 1.1-.8 1.1 0 .1-.1.1-.2.1z"/></g></g></svg></g><g transform="translate(1192.0 107.0) rotate(0.0 28.5 28.5) scale(0.7758268681094325 0.7758268681094325)"><svg width="73.47" height="73.47" viewBox="0 0 73.47 73.47"><path style="fill:#fece2f" d="M71.35 52.33 55.77 36.74l15.58-15.59L52.33 2.12 36.74 17.71 21.15 2.12 2.12 21.15l15.59 15.59L2.12 52.33l19.03 19.02 15.59-15.58 15.59 15.58 19.02-19.02z"/><path d="M52.33 73.47 36.74 57.89 21.15 73.47 0 52.33l15.59-15.59L0 21.15 21.15 0l15.59 15.59L52.33 0l21.14 21.15-15.58 15.59 15.58 15.59ZM36.74 53.64l15.59 15.59 16.9-16.9-15.59-15.59 15.59-15.59-16.9-16.91-15.59 15.59L21.15 4.24 4.24 21.15l15.59 15.59L4.24 52.33l16.91 16.9Z" style="fill:#1a1a1a"/></svg></g></svg>