<svg xmlns="http://www.w3.org/2000/svg" viewBox="0 0 1800 1800" width="1800" height="1800"><g transform="translate(614.0 328.0) rotate(0.0 467.5 258.0) scale(2.1153846153846154 2.1062514031471316)"><svg width="442" height="244.985" viewBox="0 0 442 244.985"><path d="M441 196.608c0 25.377-19.955 46.092-45.032 47.321v.056H59.166v-.047c-.628.019-1.248.047-1.876.047-13.847 0-26.532-5-36.335-13.303C8.749 220.362 1 204.939 1 187.695c0-30.575 24.383-55.436 54.761-56.252a69.21 69.21 0 0 1-5.976-28.183c0-38.343 31.081-69.424 69.424-69.424 24.411 0 45.867 12.609 58.241 31.663 5.16-31.719 29.693-56.918 61.056-63.064a96.612 96.612 0 0 1 2.918-.516c.178-.028.375-.047.572-.075.732-.103 1.567-.216 2.533-.338.113-.009.216-.028.328-.038a80.64 80.64 0 0 1 3.049-.281c.047 0 .094 0 .131-.009A83.73 83.73 0 0 1 253.366 1c2.308 0 4.597.103 6.848.31 39.281 3.462 70.081 36.438 70.081 76.62 0 3.162-.216 6.276-.582 9.344a56.292 56.292 0 0 1 17.469-2.777c31.091 0 56.29 25.199 56.29 56.29 0 3.18-.272 6.286-.779 9.316 21.822 4.241 38.305 23.445 38.305 46.505z" fill="#fff"/><path d="M395.968 244.985H59.166a.972.972 0 0 1-.272-.038l-.182.006c-.474.016-.945.032-1.422.032a57.283 57.283 0 0 1-36.981-13.54A57.184 57.184 0 0 1 0 187.695c0-15.029 5.779-29.229 16.272-39.984 10.13-10.381 23.572-16.458 37.992-17.209-3.638-8.656-5.48-17.813-5.48-27.241 0-38.832 31.593-70.424 70.425-70.424 23.105 0 44.488 11.19 57.692 30.06 6.041-30.841 30.434-55.372 61.412-61.442.979-.189 1.964-.36 2.949-.521.117-.019.233-.033.353-.047l.241-.031c.736-.104 1.575-.217 2.548-.34l.159-.018a79.784 79.784 0 0 1 3.271-.306c.047-.002.052-.002.027.003.037-.006.075-.011.113-.014 4.411-.283 8.392-.228 12.332.134 19.321 1.702 37.227 10.531 50.415 24.858 13.268 14.414 20.574 33.15 20.574 52.757 0 2.579-.138 5.188-.419 7.935a57.262 57.262 0 0 1 16.307-2.368c31.59 0 57.29 25.7 57.29 57.29 0 2.828-.216 5.692-.642 8.528 22.175 4.77 38.168 24.504 38.168 47.293 0 25.728-20.038 46.885-45.674 48.304a.916.916 0 0 1-.358.073zm-336.499-2H395.65a.926.926 0 0 1 .269-.055C420.638 241.719 440 221.371 440 196.608c0-22.156-15.77-41.302-37.496-45.523a1 1 0 0 1-.796-1.146c.508-3.037.766-6.116.766-9.151 0-30.487-24.803-55.29-55.29-55.29a55.26 55.26 0 0 0-17.159 2.728c-.326.106-.681.039-.944-.178s-.398-.553-.358-.892c.387-3.236.574-6.253.574-9.226 0-39.638-29.736-72.149-69.169-75.624-3.826-.351-7.677-.405-11.968-.134-.104.016-.192.016-.252.016-.938.071-1.939.164-2.939.275l-.145.017a4.422 4.422 0 0 1-.212.024c-.918.117-1.747.229-2.476.332l-.558.073c-.959.157-1.925.324-2.882.509-30.973 6.069-55.189 31.083-60.259 62.243a1 1 0 0 1-1.826.384c-12.69-19.541-34.149-31.208-57.402-31.208-37.729 0-68.425 30.695-68.425 68.424a67.93 67.93 0 0 0 5.891 27.776 1.002 1.002 0 0 1-.886 1.406c-30.162.81-53.788 25.08-53.788 55.253a55.193 55.193 0 0 0 19.601 42.223 55.282 55.282 0 0 0 35.689 13.067c.454 0 .903-.015 1.354-.03l.492-.016a1.05 1.05 0 0 1 .332.046z" fill="#112c41"/><path d="M441 196.608c0 25.377-19.955 46.092-45.032 47.321v.056H59.166v-.047c-.628.019-1.248.047-1.876.047-13.847 0-26.532-5-36.335-13.303 33.521 8.612 357.465 4.579 376.89 2.045 21.302-2.779 44.432-57.674-2.819-72.617-1.064-.337-1.773-1.366-1.679-2.478 3.269-38.599-31.433-66.313-72.856-59.493-1.118.184-2.064-.827-1.83-1.936 7.529-35.686-21.52-88.868-61.888-94.649 1.107-.085 2.252-.16 3.443-.244 39.281 3.462 70.081 36.438 70.081 76.62 0 3.162-.216 6.276-.582 9.344a56.292 56.292 0 0 1 17.469-2.777c31.091 0 56.29 25.199 56.29 56.29 0 3.18-.272 6.286-.779 9.316C424.517 154.344 441 173.548 441 196.608z" fill="#dedffe"/><path d="M395.968 244.985H59.166a.972.972 0 0 1-.272-.038l-.05.002c-.517.018-1.033.036-1.554.036-31.59 0-57.29-25.7-57.29-57.29 0-15.03 5.779-29.231 16.273-39.986 10.131-10.382 23.573-16.458 37.994-17.207-3.64-8.655-5.483-17.813-5.483-27.242 0-38.832 31.593-70.424 70.425-70.424 23.102 0 44.485 11.19 57.692 30.059 3.349-17.096 12.426-32.687 25.741-44.12A77.902 77.902 0 0 1 253.367 0c42.97 0 77.929 34.959 77.929 77.929 0 2.563-.142 5.226-.421 7.936a57.24 57.24 0 0 1 16.309-2.369c31.59 0 57.29 25.7 57.29 57.29 0 2.809-.217 5.674-.646 8.532C426.005 154.079 442 173.812 442 196.607c0 25.73-20.032 46.886-45.667 48.3a.915.915 0 0 1-.365.077zm-336.498-2h336.172a.926.926 0 0 1 .277-.059C420.638 241.721 440 221.375 440 196.607c0-22.162-15.771-41.305-37.499-45.519a1 1 0 0 1-.796-1.146c.51-3.064.769-6.145.769-9.156 0-30.487-24.803-55.29-55.29-55.29-5.838 0-11.612.918-17.162 2.729a1 1 0 0 1-1.303-1.071c.384-3.158.578-6.262.578-9.226 0-41.868-34.062-75.93-75.929-75.93-37.421 0-68.933 26.772-74.929 63.658a1 1 0 0 1-1.826.384c-12.694-19.541-34.153-31.207-57.403-31.207-37.729 0-68.425 30.695-68.425 68.424a67.903 67.903 0 0 0 5.895 27.777 1.002 1.002 0 0 1-.887 1.406c-30.163.805-53.791 25.074-53.791 55.252 0 30.487 24.803 55.29 55.29 55.29.497 0 .991-.018 1.484-.035l.358-.012a.942.942 0 0 1 .337.047z" fill="#112c41"/></svg></g><g transform="translate(1269.0 744.0) rotate(0.0 122.5 117.0) scale(1.8123312497688353 1.8000138462603559)"><svg width="135.185" height="129.999" viewBox="0 0 135.185 129.999"><ellipse cx="72.247" cy="67.744" fill="#dedffe" rx="60.925" ry="62.24" transform="matrix(.49073648 -.87130804 .87130804 .49073648 -22.233 97.449)"/><path d="M73.278 130.015c-10.867 0-21.646-2.811-31.42-8.316-14.715-8.287-25.39-21.689-30.059-37.737-4.672-16.056-2.772-32.837 5.347-47.253C33.903 6.958 72.251-3.326 102.637 13.788c30.382 17.112 41.468 55.239 24.712 84.99-8.119 14.416-21.486 24.738-37.638 29.065a63.438 63.438 0 0 1-16.434 2.171zM71.219 7.511c-21.098 0-41.435 10.834-52.331 30.18-7.853 13.943-9.688 30.178-5.169 45.712 4.522 15.543 14.864 28.525 29.121 36.554 14.254 8.029 30.716 10.145 46.354 5.955 15.628-4.187 28.56-14.172 36.413-28.115 16.215-28.791 5.47-65.695-23.952-82.267-9.652-5.436-20.135-8.02-30.436-8.02z" fill="#112c41"/><circle cx="61.936" cy="61.936" fill="#fff" r="60.925"/><path d="M61.841 123.889c-10.507 0-20.89-2.7-30.295-7.998C1.796 99.136-8.777 61.299 7.98 31.547 16.097 17.135 29.341 6.746 45.272 2.295 61.201-2.156 77.914-.137 92.326 7.981c29.75 16.756 40.322 54.593 23.566 84.345-8.117 14.412-21.361 24.801-37.292 29.252a62.248 62.248 0 0 1-16.759 2.312zm.186-121.905c-5.413 0-10.86.741-16.217 2.237-15.416 4.308-28.232 14.36-36.088 28.307-16.215 28.791-5.984 65.407 22.806 81.621 13.945 7.854 30.116 9.809 45.534 5.501 15.415-4.307 28.232-14.362 36.088-28.307 16.215-28.791 5.984-65.406-22.807-81.621-9.1-5.125-19.149-7.739-29.316-7.739z" fill="#112c41"/><circle cx="69.113" cy="49.114" fill="#9797f7" r="11.933"/><path d="M62.07 92.088c3.011 1.668 6.778.262 8.01-2.951 5.075-13.237 2.825-26.548-6.009-31.473-8.836-4.926-21.345.162-29.937 11.444-2.086 2.739-1.3 6.683 1.703 8.366a7451.994 7451.994 0 0 0 26.234 14.614z" fill="#9797f7"/><path d="M70.833 108.077a4.19 4.19 0 0 1-2.057-.543L20.068 80.101a4.21 4.21 0 0 1-1.6-5.726l32.036-56.879a4.174 4.174 0 0 1 2.531-1.986 4.178 4.178 0 0 1 3.195.386l48.708 27.433a4.21 4.21 0 0 1 1.6 5.726l-32.036 56.878a4.174 4.174 0 0 1-2.531 1.986 4.226 4.226 0 0 1-1.138.157zM54.17 17.354c-.199 0-.399.027-.597.083a2.19 2.19 0 0 0-1.327 1.041L20.211 75.356a2.206 2.206 0 0 0 .84 3.002l48.708 27.433c.512.289 1.105.36 1.674.202a2.19 2.19 0 0 0 1.327-1.041l32.036-56.878a2.206 2.206 0 0 0-.84-3.002L55.248 17.639a2.195 2.195 0 0 0-1.078-.285z" fill="#112c41"/></svg></g><g transform="translate(1076.0 1086.0) rotate(-16.839144860433894 84.0 77.0) scale(1.9767961781940553 1.990795801230674)"><svg width="84.986" height="77.356" viewBox="0 0 84.986 77.356"><ellipse cx="39.265" cy="38.462" fill="#dedffe" rx="37.458" ry="38.266" transform="matrix(.05984646 -.99820759 .99820759 .05984646 -1.478 75.355)"/><path d="M39.387 76.923c-.805 0-1.61-.024-2.424-.073C15.351 75.555-1.2 57.28.069 36.112 1.338 14.944 19.952-1.228 41.566.073 52.032.7 61.632 5.281 68.601 12.97c6.973 7.695 10.475 17.583 9.859 27.841-1.222 20.37-18.511 36.111-39.073 36.111zM2.065 36.231C.863 56.298 16.572 73.624 37.083 74.854c.771.046 1.541.069 2.304.069 19.517.001 35.92-14.919 37.078-34.231.582-9.716-2.736-19.084-9.346-26.378-6.614-7.3-15.731-11.648-25.672-12.244C20.93.852 3.269 16.165 2.065 36.232z" fill="#112c41"/><circle cx="46.527" cy="38.897" fill="#fff" r="37.458"/><path d="M46.552 77.356a38.62 38.62 0 0 1-2.325-.07c-10.254-.614-19.655-5.186-26.472-12.871S7.524 46.85 8.139 36.596c.614-10.254 5.186-19.655 12.87-26.471C28.696 3.309 38.577-.106 48.828.509c21.167 1.269 37.356 19.522 36.088 40.689-1.223 20.388-18.202 36.157-38.364 36.158zm-.074-74.918c-8.915 0-17.415 3.217-24.142 9.183-7.285 6.462-11.618 15.374-12.201 25.094-.583 9.721 2.655 19.087 9.116 26.373 6.462 7.286 15.374 11.619 25.095 12.202 20.09 1.195 37.37-14.144 38.574-34.211C84.122 21.013 68.775 3.708 48.709 2.505a37.896 37.896 0 0 0-2.231-.067z" fill="#112c41"/><circle cx="46.827" cy="38.694" fill="#fff" r="23.496"/><path d="M46.843 63.191c-.492 0-.984-.015-1.481-.044-6.531-.392-12.52-3.303-16.861-8.199s-6.518-11.188-6.125-17.72c.392-6.531 3.303-12.52 8.198-16.861 4.896-4.342 11.194-6.52 17.719-6.125a24.334 24.334 0 0 1 16.862 8.198c4.341 4.896 6.517 11.188 6.125 17.72-.778 12.986-11.594 23.03-24.437 23.031zm-.046-46.994c-5.502 0-10.746 1.985-14.896 5.667a22.344 22.344 0 0 0-7.529 15.485 22.349 22.349 0 0 0 5.625 16.272 22.35 22.35 0 0 0 15.484 7.53c6.009.355 11.777-1.64 16.273-5.625 4.496-3.987 7.17-9.487 7.529-15.485s-1.639-11.777-5.626-16.273a22.346 22.346 0 0 0-15.484-7.529c-.46-.027-.92-.041-1.376-.041z" fill="#112c41"/><g fill="#9797f7"><path d="M38.992 45.353V29.589c0-1.913 2.132-3.054 3.723-1.993l13.91 9.273c1.554 1.036 1.377 3.373-.316 4.163l-13.91 6.491c-1.588.741-3.408-.418-3.408-2.17z"/><path d="M41.386 48.75a3.377 3.377 0 0 1-1.822-.534 3.378 3.378 0 0 1-1.571-2.863V29.589a3.39 3.39 0 0 1 1.793-2.993 3.389 3.389 0 0 1 3.485.168l13.909 9.273a3.353 3.353 0 0 1 1.502 3.081 3.355 3.355 0 0 1-1.949 2.82l-13.909 6.491c-.46.214-.95.32-1.438.32zm.004-20.56c-.225 0-.45.056-.661.168a1.375 1.375 0 0 0-.736 1.23v15.764c0 .486.235.915.646 1.176.412.262.9.294 1.34.088l13.909-6.491c.463-.216.763-.649.801-1.159a1.378 1.378 0 0 0-.617-1.266l-13.909-9.273a1.388 1.388 0 0 0-.771-.238z"/></g></svg></g><g transform="translate(458.0 532.0) rotate(-11.904697357809509 114.5 106.0) scale(1.8049545608600726 1.8104957513130364)"><svg width="126.873" height="117.095" viewBox="0 0 126.873 117.095"><ellipse cx="68.23" cy="57.515" fill="#dedffe" rx="57.677" ry="56.458" transform="matrix(.98128258 -.19257335 .19257335 .98128258 -9.799 14.216)"/><path d="M67.644 115.036a58.649 58.649 0 0 1-32.295-9.657c-12.971-8.515-21.741-21.5-24.697-36.565s.256-30.402 9.046-43.187C28.483 12.848 41.79 4.149 57.166 1.132c15.372-3.015 30.982.008 43.945 8.519 12.97 8.515 21.74 21.502 24.697 36.565 2.956 15.064-.256 30.401-9.046 43.187-8.785 12.779-22.092 21.478-37.468 24.496a60.496 60.496 0 0 1-11.65 1.139zM68.812 1.993c-3.738 0-7.507.364-11.262 1.101C42.691 6.01 29.833 14.415 21.346 26.76c-8.482 12.338-11.584 27.137-8.731 41.669 2.852 14.532 11.315 27.061 23.831 35.278 12.525 8.222 27.604 11.145 42.464 8.227 14.859-2.916 27.717-11.321 36.204-23.666 8.482-12.338 11.584-27.137 8.731-41.669-2.852-14.532-11.315-27.061-23.831-35.278a56.67 56.67 0 0 0-31.202-9.329z" fill="#112c41"/><circle cx="57.469" cy="59.627" fill="#fff" r="56.458"/><g fill="#112c41"><path d="M57.449 117.091c-26.901.001-50.991-19.029-56.363-46.4C-5.015 39.602 15.315 9.345 46.404 3.244c15.061-2.955 30.371.131 43.109 8.69s21.382 21.568 24.338 36.628c6.102 31.089-14.228 61.346-45.317 67.448a57.685 57.685 0 0 1-11.085 1.082zm.136-112.939c-3.586 0-7.198.349-10.796 1.055C16.782 11.095-2.84 40.299 3.049 70.306s35.095 49.629 65.101 43.74c30.007-5.889 49.629-35.093 43.739-65.1-2.853-14.536-11.194-27.091-23.49-35.353-9.253-6.217-19.911-9.442-30.813-9.442z"/><path d="M49.02 78.247a1 1 0 0 1-.987-.848l-5.897-38.206a1.002 1.002 0 0 1 .49-1.02l28.638-16.455a1 1 0 0 1 1.485.705l6.42 39.099a.999.999 0 1 1-1.972.324L71.01 24.171 44.218 39.565l5.793 37.528a1.001 1.001 0 0 1-.989 1.153z"/><path d="M44.542 49.22a1 1 0 0 1-.501-1.866L72.746 30.76a1 1 0 1 1 1 1.731L45.041 49.085a.992.992 0 0 1-.499.134z"/></g><ellipse cx="38.744" cy="76.486" fill="#9797f7" rx="10.872" ry="8.215" transform="matrix(.98678511 -.1620344 .1620344 .98678511 -11.881 7.289)"/><path d="M37.747 85.784c-2.204 0-4.313-.489-6.113-1.435-2.562-1.348-4.197-3.457-4.604-5.939-.408-2.482.467-5.003 2.463-7.099 1.924-2.021 4.68-3.412 7.759-3.917 6.458-1.063 12.384 2.155 13.208 7.169.823 5.014-3.763 9.956-10.222 11.016-.836.137-1.67.205-2.491.205zm1.994-16.595c-.707 0-1.431.058-2.165.178-2.652.436-5.009 1.616-6.635 3.323-1.554 1.631-2.241 3.548-1.938 5.396.304 1.849 1.568 3.444 3.563 4.493 2.085 1.097 4.693 1.462 7.349 1.026 5.371-.882 9.216-4.793 8.573-8.718-.557-3.389-4.282-5.698-8.746-5.698z" fill="#112c41"/><ellipse cx="68.798" cy="65.675" fill="#9797f7" rx="10.872" ry="8.215" transform="matrix(.98678511 -.1620344 .1620344 .98678511 -9.732 12.016)"/><path d="M67.832 74.97c-5.442 0-10.031-3.003-10.748-7.371-.408-2.482.467-5.003 2.463-7.099 1.924-2.021 4.68-3.412 7.759-3.917 6.452-1.061 12.385 2.155 13.208 7.169.823 5.014-3.763 9.956-10.222 11.017a15.15 15.15 0 0 1-2.46.202zm1.963-16.592c-.707 0-1.431.058-2.165.178-2.652.436-5.009 1.616-6.635 3.323-1.554 1.631-2.241 3.548-1.938 5.396.645 3.925 5.529 6.403 10.911 5.52 5.371-.882 9.217-4.793 8.573-8.719-.557-3.389-4.282-5.698-8.746-5.698z" fill="#112c41"/></svg></g><g transform="translate(737.0 638.0) rotate(0.0 227.5 251.0) scale(2.099987077002603 2.109031022081807)"><svg width="216.668" height="238.024" viewBox="0 0 216.668 238.024"><path d="M182.975 63.558S208.556 212.82 1 236.993c.065-.026.143-.052.209-.065q.013 0 .026-.013C141.461 193.745 125.463 69.138 124.707 63.74a2.452 2.452 0 0 0-.026-.183H91.982L154.538 1l61.124 62.558z" fill="#ffa9dc"/><path d="M.999 237.993c-.45 0-.853-.305-.968-.75a1.001 1.001 0 0 1 .59-1.175 2.57 2.57 0 0 1 .269-.091l.052-.017C136.396 194.258 125.186 75.751 123.806 64.558H91.982a1 1 0 0 1-.707-1.707L153.831.293a.997.997 0 0 1 .707-.293h.006c.268.001.522.11.709.301l61.124 62.558a1.001 1.001 0 0 1-.715 1.699h-31.536c1.034 8.041 5.514 55.997-27.087 99.55-30.317 40.503-82.778 65.359-155.924 73.878a.903.903 0 0 1-.116.007zM94.396 62.558h30.285c.468 0 .876.337.979.794 0 0 .022.1.042.281.725 5.169 15.899 125.021-114.451 171.03 67.164-9.523 115.635-33.628 144.167-71.725 35.032-46.776 26.66-98.693 26.572-99.212a.998.998 0 0 1 .986-1.168h30.313L154.53 2.422 94.395 62.557z" fill="#112c41"/><path d="M154.852 1c-.913 1.186-46.521 62.558-46.521 62.558H91.982l61.161-61.163L154.851 1zm-17.184 62.584a2.596 2.596 0 0 1 2.591 2.851c-2.1 21.006-2.357 131.443-130.588 169.372-2.925.865-5.815.86-8.435 1.108C141.461 193.745 125.463 69.138 124.707 63.74l.157-.156z" fill="#ff90d8"/><path d="M.999 238.024a1 1 0 0 1-.292-1.956c73.769-22.642 103.272-68.3 115.033-102.615 11.594-33.829 8.718-63.537 8.066-68.87H91.985a1 1 0 0 1-.707-1.707L153.83.324a.997.997 0 0 1 .707-.293h.006c.267.001.522.11.709.301l61.131 62.552a1.001 1.001 0 0 1-.715 1.699h-31.546c1.034 8.042 5.518 56.003-27.085 99.559-30.317 40.504-82.776 65.359-155.922 73.875a.903.903 0 0 1-.116.007zm93.4-175.44h30.283a1 1 0 0 1 .988.848c.05.326 4.864 33.021-8.039 70.67-7.581 22.122-19.702 41.615-36.024 57.937-18.285 18.286-41.914 32.607-70.343 42.653 67.157-9.523 115.62-33.625 144.149-71.719 35.034-46.779 26.66-98.702 26.571-99.221a.998.998 0 0 1 .986-1.168h30.321l-58.762-60.13z" fill="#112c41"/></svg></g><g transform="translate(218.0 958.0) rotate(0.0 443.0 210.0) scale(1.7254877521529648 1.7278404462765038)"><svg width="513.478" height="243.078" viewBox="0 0 513.478 243.078"><path d="M393.928 242.078H57.548a6.493 6.493 0 0 1-6.32-5l-3.07-13-46-194.72C-2.5 10.057 7.286 1.121 24.538 1.078c71.435-.176 285.74 0 285.74 0a36.931 36.931 0 0 1 35.91 28.42l2.66 11.25c.07.32.14.64.22.96l43.09 182.37 3.07 13 .61 2.59a1.959 1.959 0 0 1-1.91 2.41z" fill="#dedffe"/><path d="M393.928 243.078H57.548a7.464 7.464 0 0 1-7.294-5.77L1.184 29.588c-2.231-9.242-1.323-16.527 2.7-21.647S15.045.1 24.535.078c70.62-.175 283.6 0 285.744 0a37.932 37.932 0 0 1 36.882 29.191l2.661 11.249c.082.375.144.661.215.948l46.775 197.973a2.959 2.959 0 0 1-2.884 3.639zM130.179 2c-42.342 0-81.979.02-105.638.078C15.685 2.1 9.084 4.555 5.454 9.176S1.049 20.5 3.129 29.124L52.2 236.848a5.471 5.471 0 0 0 5.347 4.23h336.38a.959.959 0 0 0 .937-1.18l-3.681-15.59-43.089-182.369c-.073-.293-.14-.6-.207-.9l-2.673-11.307a35.932 35.932 0 0 0-34.936-27.65C308.852 2.077 214.2 2 130.179 2z" fill="#112c41"/><path d="M512.478 229.578v7a5.5 5.5 0 0 1-5.5 5.5H57.545a6.491 6.491 0 0 1-6.317-5l-3.07-13h458.82a5.5 5.5 0 0 1 5.5 5.5z" fill="#b2b0f7"/><path d="M506.978 243.078H57.545a7.464 7.464 0 0 1-7.291-5.77l-3.07-13a1 1 0 0 1 .974-1.23h458.82a6.508 6.508 0 0 1 6.5 6.5v7a6.508 6.508 0 0 1-6.5 6.5zm-457.557-18 2.78 11.77a5.47 5.47 0 0 0 5.344 4.23h449.433a4.5 4.5 0 0 0 4.5-4.5v-7a4.505 4.505 0 0 0-4.5-4.5z" fill="#112c41"/><path d="M395.228 237.078a4.066 4.066 0 0 1-3.957 5H57.548a6.493 6.493 0 0 1-6.32-5l-3.07-13h344z" fill="#cbc8ff"/><path d="M391.271 243.078H57.548a7.464 7.464 0 0 1-7.294-5.77l-3.07-13a1 1 0 0 1 .974-1.23h344a1 1 0 0 1 .973.77l3.07 13a5.067 5.067 0 0 1-4.93 6.229zm-341.85-18 2.78 11.77a5.471 5.471 0 0 0 5.347 4.23h333.723a3.065 3.065 0 0 0 2.983-3.77l-2.887-12.23z" fill="#112c41"/><circle cx="183.478" cy="118.078" fill="#fff" r="21.447"/></svg></g></svg>