<svg xmlns="http://www.w3.org/2000/svg" viewBox="0 0 1200 800" width="1200" height="800"><g transform="translate(66.0 241.0) rotate(0.0 352.5 263.0) scale(2.2955271409453664 2.287861719201945)"><svg width="307.119" height="229.909" viewBox="0 0 307.119 229.909"><linearGradient id="a" gradientUnits="userSpaceOnUse" x1="0" x2="307.119" y1="99.42" y2="99.42"><stop offset="0" stop-color="#eee"/><stop offset="1" stop-color="#d6d7d8"/></linearGradient><path d="M121.322 148.638h69.889v77.764h-69.889z" fill="#d6d7d8"/><path d="M78.01 223.88h156.513v6.029H78.01z" fill="#428dfc"/><path d="M0 0h307.119v198.84H0z" fill="url(#a)"/><path d="M5.414 4.958h296.291v163.755H5.414z" fill="#fff"/><circle cx="284.522" cy="183.469" fill="#eee" r="8.754"/></svg></g><g transform="translate(602.0 327.0) rotate(0.0 -166.5 120.0) translate(-0.0 0.0) scale(-1.5136363636363637 1.5)"><svg width="220" height="160" viewBox="0 0 220 160"><linearGradient id="b"><stop offset="0" stop-color="#a1c3fc"/><stop offset="1" stop-color="#78a9ef"/></linearGradient><linearGradient xmlns:xlink="http://www.w3.org/1999/xlink" id="c" gradientTransform="matrix(1 0 0 -1 0 166)" gradientUnits="userSpaceOnUse" x1="28.82" x2="220" xlink:href="#b" y1="86.021" y2="86.021"/><linearGradient id="d" gradientTransform="matrix(1 0 0 -1 0 166)" gradientUnits="userSpaceOnUse" x1="156.111" x2="213.172" y1="154.575" y2="154.575"><stop offset="0" stop-color="#428DFC"/><stop offset="1" stop-color="#3E70DF"/></linearGradient><linearGradient id="e" gradientTransform="matrix(1 0 0 -1 0 166)" gradientUnits="userSpaceOnUse" x1="39.55" x2="208.783" y1="81.402" y2="81.402"><stop offset="0" stop-color="#E3E3E3"/><stop offset=".554" stop-color="#d6d7d8"/></linearGradient><linearGradient xmlns:xlink="http://www.w3.org/1999/xlink" id="f" gradientTransform="matrix(1 0 0 -1 0 166)" gradientUnits="userSpaceOnUse" x1="202.235" x2="-28.259" xlink:href="#b" y1="112.267" y2="1.826"/><path d="M220 0h-67.791l-19.507 16.531H28.82v143.428H220z" fill="url(#c)"/><path d="M156.111 5.834h57.061v11.182h-57.061z" fill="url(#d)"/><path d="M39.55 29.658h169.233v109.88H39.55z" fill="url(#e)"/><path d="M219.523 160H28.774L0 36.084h190.748z" fill="url(#f)"/></svg></g><g transform="translate(925.0 160.0) rotate(0.0 -44.0 37.0) scale(-1.529370872436566 1.5136019635917366)"><svg width="57.54" height="48.89" viewBox="0 0 57.54 48.89"><path d="M55.05 6.39 37.52.29a5.32 5.32 0 0 0-5.2 1L1.52 27.56A4.41 4.41 0 0 0 1 33.74l12.3 14.5 1.65.65 1.92-1s14.09-11.8 20.89-18c4.17-3.79 13.09-12.08 18.57-17.19a3.82 3.82 0 0 0-1.28-6.31z" fill="#23286b"/></svg></g><g transform="translate(1145.0 44.0) rotate(0.0 -140.0 362.5) scale(-1.4392187098432279 1.4386062385903644)"><svg width="194.55" height="503.96" viewBox="0 0 194.55 503.96"><linearGradient id="g" gradientTransform="matrix(-.94 -.02 -.02 1 16418.07 167.29)" gradientUnits="userSpaceOnUse" x1="17286.59" x2="17406.71" y1="475.45" y2="475.45"><stop offset="0" stop-color="#a1c3fc"/><stop offset=".7" stop-color="#81aef2"/><stop offset="1" stop-color="#78a9ef"/></linearGradient><linearGradient xmlns:xlink="http://www.w3.org/1999/xlink" id="i" x1="17323.85" x2="17414.35" xlink:href="#g" y1="461.03" y2="461.03"/><linearGradient id="j" gradientTransform="matrix(-1 0 0 1 16934.12 0)" gradientUnits="userSpaceOnUse" x1="16849.28" x2="16877.16" y1="57.99" y2="57.99"><stop offset="0" stop-color="#ffbeb6"/><stop offset="1" stop-color="#f2a19c"/></linearGradient><linearGradient id="h" gradientTransform="matrix(-1 0 0 1 16934.12 0)" gradientUnits="userSpaceOnUse" x1="16832.52" x2="16934.12" y1="138.33" y2="138.33"><stop offset="0" stop-color="#28306d"/><stop offset=".51" stop-color="#1f275f"/><stop offset="1" stop-color="#171f51"/></linearGradient><linearGradient xmlns:xlink="http://www.w3.org/1999/xlink" id="k" gradientTransform="matrix(-1 0 0 1 16934.12 4368)" x1="16739.57" x2="16840.38" xlink:href="#h" y1="-3883.96" y2="-3883.96"/><path d="M146.14 130.44a14.66 14.66 0 0 0 4.4-2.73c1.53-1.54 2.33-3.65 3.23-5.62a43 43 0 0 1 8.06-11.81c1.56.57 2.14 2.58 1.78 4.2a20.52 20.52 0 0 1-2.12 4.5 2.89 2.89 0 0 0-.39 1.55c.19 1.5 2.21 1.85 3.7 1.63 7.83-1.14 14-7 21-10.76 1-.54 2.31-1 3.1-.21a2.74 2.74 0 0 1 .39 2.42c-.88 5.49-2 11.38-5.89 15.3-5.47 5.46-14.28 5.14-21.5 7.92-4.91 1.89-9.1 5.26-13.11 8.67-7.55 6.45-14.78 13.26-22 20.1-10.49 10-21.63 20.41-35.71 23.73a8.7 8.7 0 0 1-4.41.18 3.47 3.47 0 0 1-2.67-3.17 5.29 5.29 0 0 1 1.41-2.89c8.29-10.57 16.92-20.88 25.14-31.5 4.73-6.11 8.66-10.68 16-13.65 6.54-2.65 13.17-4.91 19.59-7.86z" fill="#ffbeb6"/><path d="M126.73 302.7c1.88 10.66 9.12 125.57 12.13 161.42-9.14.55-30.77 0-30.77 0s-15.5-21.77-17-47.58c-.41-7.25.15-14.61-1.06-21.76-2.32-13.78-11.6-25.54-12.73-39.46-.62-7.67 1.31-15.33 1.35-23 .08-15.23-7.13-29.25-13.72-42.76q-14.85-30.42-26.77-62.35c-5.1-13.68-9.81-28.89-5.32-42.83 3.45-10.69 55.74 4.07 58.32 11.25 3.2 8.89 29.13 70.54 35.57 107.07z" fill="url(#g)"/><path d="M106.58 313.93c-4.1 44.74-46.92 150.19-46.92 150.19s-24 1.08-32.73 0c-1.95-20.84-3.36-37.48-1.26-52.38 1-7 15.19-33.7 14.8-41.57-1.37-27.43 11-44.24 13.63-58.07 2-10.58-8.34-38.5-11.63-48.7C37 246.34 27.52 229.75 24.63 212s1.44-37.62 12.71-51.16c6.19-7.44 15.88-12.61 24.86-9.94 9.57 2.86 16.87 14.83 21.07 23.82 2.67 5.67 26.29 106.7 23.31 139.21z" fill="url(#i)"/><path d="M48.34 213.13c0 .12.16.1.3.08.14 0 .13-.15.11-.27 0-.12-.16-.1-.3-.08a.46.46 0 0 0-.11.27zm4.66-2.58c-.14 0-.12.14-.1.26s.16.1.3.08.12-.14.1-.26-.16-.11-.3-.08zm4.42-2.17c-.14 0-.12.14-.1.26 0 .13.16.11.3.09.14 0 .12-.15.1-.27s-.16-.1-.3-.08zm4.58-2.32c-.14 0-.26.17-.11.27s.16.1.3.08.13-.14.11-.26-.16-.11-.3-.09zm4.4-2.29a.37.37 0 0 0-.1.27c0 .12.16.1.3.08s.12-.14.1-.27-.16-.1-.3-.08zm-1.55 20.5c0 .13 0 .25.18.23.14 0 .28 0 .26-.16s0-.25-.18-.23-.28 0-.26.16zm1.48-4.27a.36.36 0 0 0 .18.22c.14 0 .28 0 .27-.16s0-.25-.18-.23c-.14 0-.28.05-.27.17zm1.51-4.38c-.12.14 0 .25.18.23.14 0 .28-.05.26-.17s0-.25-.18-.23-.28.05-.26.17zm1.36-4.36c0 .12 0 .25.18.23.14 0 .28 0 .26-.17s0-.24-.17-.22c-.14 0-.28 0-.27.16zM86 221.88c0 .12.16.1.3.08.12-.15.12-.15.1-.27s-.15-.1-.3-.08a.41.41 0 0 0-.1.27zm-37.88-18.8c-.14 0-.26.17-.12.15s0 .24.18.22.14 0 .12-.14 0-.25-.18-.23zm4.82-.46c0 .12 0 .12.16.1s.14 0 .12-.15a.12.12 0 0 0-.15-.1zm5.21-.78c-.12.15-.27.17-.11.27a.13.13 0 0 0 .16.1s.14 0 .12-.14 0-.25-.17-.23zM57 218c-.14 0-.12.14 0 .25s.16.1.29 0 .12-.15 0-.25-.16-.1-.28 0zm3.2-3.62c-.13.14-.11.26 0 .24h.29v-.24c-.14 0-.16-.11-.28 0zm3.21-3.5c-.12.14-.12.14 0 .24s.16.11.28 0c.13-.14.13-.14 0-.25s-.16-.1-.29 0zm3.2-3.63c-.12.15-.1.27 0 .25.16.1.16.1.28 0 .12-.15.12-.15 0-.25s-.16-.1-.29 0zm8.59 15.35c-.12.15 0 .25.18.23.14 0 .28 0 .26-.17s0-.24-.17-.22a.47.47 0 0 0-.27.16zm-.11-4.6c-.14 0-.27.17-.11.27a.13.13 0 0 0 .16.1s.14 0 .12-.14 0-.25-.17-.23zM24.4 203c.3.08.42-.06.39-.31a.42.42 0 0 0-.48-.3zm9.59-1.3c-.14 0-.41.19-.37.43v.13a.29.29 0 0 0 .32.2c.14 0 .4-.18.36-.43.12-.14 0-.37-.33-.33zm9.55-.54c-.14 0-.4.19-.39.31s.2.35.48.31a.28.28 0 0 0 .39-.31c0-.25-.2-.35-.48-.31zm-5.86 27.32a.35.35 0 0 0 .07.49.5.5 0 0 0 .57-.08.35.35 0 0 0-.08-.5.47.47 0 0 0-.56.09zm6.53-6.39a.34.34 0 0 0 .07.49.47.47 0 0 0 .56-.08.33.33 0 0 0-.07-.49.47.47 0 0 0-.56.08zm6.68-6.28c-.26.16-.24.29.08.49a.48.48 0 0 0 .56-.08.36.36 0 0 0-.07-.5.49.49 0 0 0-.57.09zm6.53-6.39c-.14 0-.1.27-.1.27.17.23.47.31.59.16h.15c.14 0 .14 0 .12-.14a.42.42 0 0 0-.2-.35.48.48 0 0 0-.56.08zM64 203a.33.33 0 0 0 .07.49.48.48 0 0 0 .56-.08.35.35 0 0 0-.07-.5.47.47 0 0 0-.56.09zm5.25 43c-.28 0-.41.18-.39.3s.2.35.48.31a.28.28 0 0 0 .38-.31c0-.24-.19-.35-.47-.3zm-.89-7.93c0 .25.19.35.47.31s.41-.19.37-.44c.12-.14-.05-.37-.34-.32-.2-.07-.45.22-.55.49zm.24-9c-.28 0-.4.19-.38.31 0 .25.19.35.47.31a.29.29 0 0 0 .39-.31.44.44 0 0 0-.48-.31zm-.24-8.4c-.28 0-.4.19-.51.46a.43.43 0 0 0 .48.3c.14 0 .4-.18.37-.43.12-.14-.06-.37-.34-.33zm-.38-8.38c-.14 0-.27.17-.39.31-.1.27.2.35.34.33s.4-.19.38-.31-.05-.37-.33-.33zm-36.05 2.22a.65.65 0 0 0-.21.53.59.59 0 0 0 .6.16.48.48 0 0 0 .21-.53.59.59 0 0 0-.6-.16zm8.8-3.7c-.29 0-.39.31-.23.41 0 .24.32.2.46.18s.24-.29.22-.41c0-.25-.31-.2-.45-.18zm8.26-3.37a.61.61 0 0 0 .6.16c.28 0 .25-.29.23-.41 0-.25-.32-.21-.46-.19zm8.94-3.73c0 .25.32.21.46.19s.26-.17.22-.41-.31-.21-.45-.19-.3.35-.28.47zm-8.2 36.73a.46.46 0 0 0 .55-.21c.1-.26-.06-.37-.22-.47a.46.46 0 0 0-.54.21c-.17.2 0 .43.16.53zm3.14-8.44c-.12.14.06.37.22.47a.45.45 0 0 0 .54-.21c.1-.26-.06-.37-.21-.47a.46.46 0 0 0-.55.21zm3.42-8c-.12.15.06.37.22.47a.46.46 0 0 0 .54-.2c.12-.15 0-.37-.21-.48s-.43.07-.55.21zm3.4-8.06c-.12.14.06.37.22.47a.45.45 0 0 0 .54-.21c.11-.26-.05-.36-.21-.47a.48.48 0 0 0-.55.21zm3.41-8.06c-.11.27-.09.39.21.47a.45.45 0 0 0 .54-.21c.11-.26-.05-.37-.21-.47a.46.46 0 0 0-.54.21zM86 238.25a.61.61 0 0 0 .6.16c.28 0 .25-.29.23-.41 0-.25-.32-.21-.46-.19s-.37.31-.37.44zm-3.62-7.9c-.14 0-.24.29-.35.55.18.23.32.21.6.17a.48.48 0 0 0 .21-.54c0-.24-.32-.2-.46-.18zm-3.86-7.61c-.28 0-.39.31-.09.39 0 .24.32.2.46.18.28 0 .25-.29.23-.41a.61.61 0 0 0-.6-.16zm-4.37-7.16a.57.57 0 0 0 .6.16c.28 0 .24-.28.22-.41s-.31-.2-.46-.18-.23.29-.35.43zm-48.45-3.87c.13-.15.13-.15.11-.27l-.16-.1c.16.1.18.22.05.37zm7.73-3.17c-.12.15-.25.29-.23.42s.32.2.46.18.25-.29.23-.41-.32-.21-.46-.19zm8.1-2.59a.33.33 0 0 0-.23.42c0 .24.32.2.46.18s.24-.29.22-.41-.31-.21-.45-.19zm8.22-2.73c-.29 0-.41.19-.23.41 0 .13.32.21.46.19s.24-.29.22-.41l-.15-.11c0-.12-.16-.1-.3-.08zM41 237.51a.67.67 0 0 0 .41-.19.43.43 0 0 0-.2-.35.54.54 0 0 0-.4.19c-.09.14-.05.39.19.35zm3.53-7.2c-.12.14.06.37.2.35.14 0 .42-.07.4-.19a.42.42 0 0 0-.19-.35.58.58 0 0 0-.41.19zm3.87-6.87c-.14 0-.12.14.05.37a.13.13 0 0 0 .16.1.58.58 0 0 0 .41-.19c0-.24-.06-.37-.22-.47h-.28l-.12.15zm3.71-7c-.11.27.05.37.19.35s.42-.06.41-.18a.42.42 0 0 0-.2-.35.57.57 0 0 0-.4.18zm3.89-6.85c-.12.15-.08.39.36.45a.57.57 0 0 0 .4-.18c0-.25-.05-.37-.21-.47s-.42.06-.55.2zm3.73-6.85c-.12.15 0 .37.35.45a.61.61 0 0 0 .41-.18c0-.25-.06-.37-.22-.47s-.42.06-.54.2zm17.15 35.1c-.12.14-.24.29-.22.41s.31.21.46.18c.14 0 .24-.28.22-.41 0-.12-.32-.2-.46-.18zm-2.63-7c-.28 0-.38.31-.22.41s.32.21.46.19c.28-.05.24-.29.22-.41 0-.13-.31-.21-.46-.19zm-2.76-7c-.29.05-.25.29-.23.42 0 .12.32.2.46.18.28 0 .24-.29.22-.41 0-.13-.31-.21-.45-.19zm-2.77-7c-.14 0-.27.16-.23.41s.32.2.46.18.24-.29.23-.41-.32-.2-.46-.18zm-2.77-7c-.14 0-.27.16-.23.41 0 .12.32.21.46.19s.24-.29.23-.42-.32-.2-.46-.18zm-2.79-7.14c-.12.14-.24.29-.23.41s.32.21.46.18.25-.28.23-.41-.32-.2-.46-.18zm-27.79 17.1a.4.4 0 0 0-.09.39c0 .25.32.21.44.06.28 0 .25-.28.09-.39 0-.12-.32-.2-.44-.06zm6.35-4.8c0 .13.32.21.44.06s.23-.41.07-.51-.32-.21-.44-.06a.63.63 0 0 0-.07.51zm6.5-5.62c-.13.14-.11.26-.23.41.16.1.46.18.58 0s.25-.29.09-.39c0-.25-.32-.21-.44-.06zm6.41-5.24a.53.53 0 0 0-.09.39c0 .25.32.21.44.06.28 0 .25-.28.09-.39s-.32-.2-.44-.06zm3.85 32.67c-.14 0-.4.19-.39.31s.2.35.34.33.4-.19.39-.31-.2-.35-.34-.33zm.61-7.52c-.3-.08-.43.06-.39.31 0 .25.2.35.34.33s.4-.19.38-.31-.19-.35-.33-.33zm.46-7.5c-.16-.1-.28.05-.38.31s.19.35.33.33.41-.19.39-.31c0-.25-.2-.35-.34-.33zm.59-7.64c-.14 0-.4.19-.38.31s.19.35.33.33.14 0 .26-.17c.15 0 .15 0 .13-.14s-.2-.35-.34-.33zm.61-7.52c-.28 0-.41.19-.39.31s.2.35.34.33.4-.19.38-.31v-.12c-.14 0-.14 0-.16-.11s-.16-.1-.16-.1zm28.59 20.17c-.12.14-.24.28-.09.39 0 .24.32.2.45.06.14 0 .24-.29.08-.39s-.32-.21-.44-.06zm-5.7-5.45c-.12.14-.1.27-.22.41.15.1.45.18.58 0s.24-.29.08-.39-.32-.21-.44-.06zm-17-16c0 .13.32.21.44.06s.23-.41.07-.51-.32-.2-.44-.06a.67.67 0 0 0-.11.53zm-37.75-2.44c-.14 0-.28 0-.12.14 0 .13 0 .25.18.23 0-.12.12-.15.1-.27s0-.12-.16-.1zm4.79-.71c0 .24.17.22.18.22l.12-.14v-.12a.13.13 0 0 0-.16-.11l-.12.15zm5.18-.9c-.14 0-.26.17-.1.27a.13.13 0 0 0 .16.1s.14 0 .12-.14 0-.25-.18-.23zm.58 17.42c-.12.14-.1.26 0 .24 0 .13.16.11.28 0s.12-.14 0-.25-.16-.1-.28.05zm3.06-3.61c-.14 0-.12.15 0 .25 0 .12.16.1.28 0s.12-.15 0-.25-.16-.1-.28 0zm3.06-3.6c-.14 0-.12.14 0 .25s.16.1.29 0c.12-.15.1-.27 0-.25s-.16-.1-.28 0zm3-3.73c-.12.15-.11.27 0 .25s.15.1.28 0c.14 0 .12-.14 0-.25s-.16-.1-.28 0zm3.06-3.6c-.13.15-.13.15 0 .25s.16.1.29 0 .12-.15 0-.25c0-.12-.16-.1-.28 0zM60 222.73l-.12.14a.13.13 0 0 0 .16.1s.14 0 .12-.14a.13.13 0 0 0-.16-.1zm-.64-4.31c-.14 0-.14 0-.26.16a.5.5 0 0 0 .3.08s.14 0 .12-.14a.12.12 0 0 0-.16-.1zm-.78-4.3a.13.13 0 0 0 .16.11s.14 0 .12-.15a.13.13 0 0 0-.16-.1.12.12 0 0 0-.14.14zm-.58-4.45c-.14 0-.28 0-.12.14 0 .13 0 .13.15.11s.15 0 .13-.15a.13.13 0 0 0-.16-.1zm-.66-4.44c-.14 0-.26.17-.12.15a.12.12 0 0 0 .15.1s.15 0 .13-.14a.13.13 0 0 0-.16-.11zm8.9-.06c-.14 0-.12.14 0 .25s.16.1.28 0 .12-.14 0-.24-.15-.11-.28 0zm-4.11-2.54v.25c0 .12.16.1.28 0s.13-.15 0-.25-.16-.1-.28 0zm-27.76 7.66c-.14 0-.13.14-.11.26s.16.11.3.09.12-.15.11-.27c0-.12-.16-.1-.3-.08zm4.38-2.42c-.14 0-.12.15-.1.27s.16.1.3.08c.14 0 .12-.14.1-.27-.16-.1-.16-.1-.3-.08zm4.25-2.39c0 .12-.11.27-.11.27 0 .12.16.1.3.08.12-.15.12-.15.11-.27 0-.12-.16-.1-.3-.08zm4.4-2.29c-.14 0-.12.14-.1.26s.16.11.3.09.12-.15.1-.27-.16-.1-.3-.08zm2.11 17.06c0 .12 0 .25.17.22s.29 0 .27-.16c0-.12 0-.25-.18-.23-.14 0-.28 0-.26.17zm1.36-4.36c-.12.15 0 .25.18.23s.28-.05.26-.17 0-.24-.18-.22c-.14 0-.28 0-.26.16zm1.23-4.34c0 .13 0 .25.17.23.14 0 .28 0 .27-.17s0-.24-.18-.22-.28 0-.26.16zm1.22-4.33c0 .12 0 .24.18.22.14 0 .28 0 .26-.16s0-.25-.18-.23-.28 0-.26.17zm1.42-4.22a.4.4 0 0 0 .18.23c.14 0 .28 0 .26-.17 0-.12 0-.24-.17-.22s-.29 0-.27.16zm14 14.67c0 .12.16.1.3.08s.13-.14.11-.27c-.16-.1-.16-.1-.3-.08s-.15.13-.14.25zm-2.47-4c-.12.14-.12.14-.1.27s.16.1.3.08c.14 0 .12-.14.1-.27-.15-.1-.15-.1-.3-.08zm-2.57-3.77a.44.44 0 0 1-.1.27c0 .12.15.1.3.08s.12-.15.1-.27-.16-.1-.3-.08zm-2.56-3.65v.12c0 .13.16.1.3.08s.14 0 .13-.14v-.12a.29.29 0 0 0-.43.06zm-2.43-3.79c-.14 0-.12.14-.1.26s.16.11.3.08c.14 0 .12-.14.1-.26 0-.13-.16-.11-.3-.08zm4.76 1c-.12.15-.1.27 0 .25 0 .12.15.1.28 0s.12-.15 0-.25-.16-.1-.28 0zM26 206c-.14 0-.12.14-.1.26s.16.11.3.09.12-.15.1-.27c0-.12-.16-.1-.3-.08zm5.5-1.7c-.14 0-.26.16-.1.27s.16.1.3.08.12-.15.1-.27c0-.12-.16-.1-.3-.08zm5.5-1.82c-.14 0-.26.16-.1.26s.16.11.3.08a.4.4 0 0 0 .1-.26c0-.13-.16-.11-.3-.08zm-.75 21c-.13.14 0 .25.17.23.16.1.3.08.28-.05 0-.12 0-.24-.17-.22-.16-.1-.3-.08-.28 0zm2.63-4.55c-.13.15-.11.27 0 .25 0 .12.16.1.28 0s.13-.15 0-.25c-.16-.1-.3-.08-.28 0zm2.61-4.67c-.12.15-.1.27 0 .25s.15.1.28 0c.14 0 .12-.15 0-.25s-.16-.1-.28 0zm2.51-4.51v.24c0 .13.15.11.28 0s.12-.14 0-.24-.16-.11-.28 0zm2.61-4.67v.24c.16.11.3.09.28 0 .14 0 .12-.14 0-.24s-.16-.11-.28 0zm13.89 19.21c-.14 0-.12.14-.1.26 0 .13.15.11.29.09s.13-.15.11-.27a.54.54 0 0 0-.3-.08zm-1.72-4.78c-.14 0-.26.16-.1.26 0 .13.16.11.3.08s.12-.14.1-.26a.46.46 0 0 0-.3-.08zm-1.86-4.76c-.14 0-.12.14-.1.26 0 .13.16.1.3.08s.12-.14.1-.26a.46.46 0 0 0-.3-.08zM55.21 210c-.14 0-.27.17-.11.27 0 .12.16.1.3.08s.12-.14.11-.26-.16-.11-.3-.09zm-1.86-4.76c-.14 0-.12.15-.11.27 0 .12.16.1.3.08s.13-.14.11-.26-.16-.11-.3-.09zM28.79 215c-.13.14-.11.26 0 .24a.21.21 0 0 0 .28 0V215a.21.21 0 0 0-.28 0zm4.37-3.42c-.12.14-.1.26 0 .24h.28a.16.16 0 0 0 0-.25.23.23 0 0 0-.29.05zm4.38-3.43c-.14 0-.12.15.06.37a.21.21 0 0 0 .28 0v-.24c0-.13-.16-.11-.3-.09zm4.38-3.42c-.14 0-.12.15 0 .25h.28a.17.17 0 0 0 0-.25.23.23 0 0 0-.29 0zm4.36-3.54a.22.22 0 0 0 .06.37.22.22 0 0 0 .28 0v-.25c0-.12-.15-.1-.3-.08zm2 22.24v.24h.14c.14 0 .28 0 .26-.16s0-.25-.18-.23c-.14 0-.28 0-.26.17zm.39-5.1c0 .13 0 .25.18.23s.28 0 .26-.17 0-.24-.18-.22-.26.07-.24.19zm.66-5.26a.55.55 0 0 0-.27.17c0 .12 0 .24.18.22s.28 0 .26-.16 0-.25-.17-.23zm.53-5.11a.51.51 0 0 0-.26.16c0 .12 0 .25.17.23.14 0 .29 0 .27-.17 0-.12 0-.24-.18-.22zm.15-4.81v.25h.14c.15 0 .15 0 .27-.16s0-.12-.18-.23a.17.17 0 0 0-.26.17zm19.26 13.5c0 .13-.1.27 0 .25a.22.22 0 0 0 .28 0v-.25zm-3.7-3.65c-.12.14-.1.26.06.37a.21.21 0 0 0 .28-.05v-.24a.16.16 0 0 0-.3-.08zm-3.72-3.73a.35.35 0 0 0-.1.26h.28c.14 0 .12-.14.11-.26a.22.22 0 0 0-.29 0zm-3.71-3.73c-.13.14-.11.27 0 .25a.21.21 0 0 0 .28-.05.15.15 0 0 0 0-.24h-.28zm-3.86-3.71c0 .12-.11.27-.09.39h.28c.14 0 .13-.14.11-.27s-.16-.1-.3-.08zm-27.89 10.7a.67.67 0 0 0-.06.51.37.37 0 0 0 .58 0c.26-.16.22-.41.07-.51a.38.38 0 0 0-.59 0zm7.45-6c-.12.14-.23.41-.07.51a.37.37 0 0 0 .58 0c.27-.16.23-.41.07-.51a.37.37 0 0 0-.58 0zm7.3-6c-.14 0-.1.27-.08.39v.08a.13.13 0 0 0 .16.1.31.31 0 0 0 .43-.06c.26-.17.22-.42.06-.52a.38.38 0 0 0-.58 0zm1 44.67c-.28.05-.4.19-.39.31s.06.37.34.33a.28.28 0 0 0 .39-.31c.12-.14-.06-.37-.34-.33zm.58-8.65c-.28 0-.54.21-.38.31-.13.15 0 .37.33.33a.28.28 0 0 0 .39-.31c.12-.14-.06-.37-.34-.33zm.43-8.75c-.15 0-.41.19-.39.31s.05.37.34.33c.16.1.26-.16.38-.31s-.05-.37-.33-.33zm.58-8.65c-.14 0-.41.19-.39.31-.12.15.18.23.34.33a.28.28 0 0 0 .38-.31c.13-.14-.05-.37-.33-.33zm.56-8.77c-.28 0-.4.19-.38.31-.13.15 0 .37.33.33a.28.28 0 0 0 .39-.31c.12-.14-.06-.37-.34-.33zm.58-8.65c-.28.05-.4.19-.38.31s0 .37.34.33.42-.06.38-.31c.12-.14 0-.37-.34-.33zm36.26 30.12c-.26.16-.23.41-.07.51a.37.37 0 0 0 .58 0c.27-.16.23-.41.07-.51a.37.37 0 0 0-.58 0zm-6.63-6.25a.7.7 0 0 0-.07.52.38.38 0 0 0 .58 0c.26-.17.23-.41.07-.52a.38.38 0 0 0-.58 0zm-6.5-6.32c-.12.14-.23.41-.07.51a.38.38 0 0 0 .58 0c.27-.17.23-.41.07-.52a.37.37 0 0 0-.58 0zm-6.53-6.21c-.26.16-.23.41-.07.51a.37.37 0 0 0 .58 0c.27-.16.23-.41.07-.51a.37.37 0 0 0-.58 0zm-6.69-6.31c-.12.15-.23.41-.07.51a.37.37 0 0 0 .58 0c.27-.16.23-.41.07-.51a.37.37 0 0 0-.58 0zm-28.63-3c-.28 0-.39.31-.23.41 0 .12.32.2.46.18.14 0 .26-.16.23-.41s-.18-.22-.46-.18zm9.31-3.15c-.29 0-.41.19-.23.41 0 .12.18.23.46.18.14 0 .24-.28.22-.41 0-.12-.17-.22-.45-.18zm-4 21.13c-.12.14.05.37.21.47s.42-.07.55-.21-.06-.37-.22-.47-.42.06-.54.21zm4.26-8.07c-.1.27.08.5.22.47s.42-.06.54-.2-.05-.37-.21-.47c-.16-.11-.42.06-.55.2zm4.29-7.94c-.11.27.05.37.21.47.16.11.42-.06.54-.2s0-.37-.21-.47c-.16-.11-.42.06-.54.2zm21 32.64c-.28 0-.4.19-.22.42 0 .12.17.22.46.18s.26-.17.22-.41c0-.12-.18-.23-.46-.19zm-3.37-8.18c-.12.14-.25.29-.23.41 0 .12.18.23.46.18.14 0 .26-.16.23-.41 0-.12-.32-.2-.46-.18zm-3.22-8.09c-.26.17-.38.31-.22.42 0 .12.18.22.46.18s.26-.17.22-.41-.17-.23-.46-.19zm-3.5-8.1c-.14 0-.25.29-.23.41s.18.23.46.19.26-.17.23-.41-.18-.23-.46-.19zm-3.22-8.08c-.28 0-.38.31-.22.41s.17.22.46.18.26-.16.22-.41c0-.12-.18-.22-.46-.18zm14.55-.78c-.12.14-.08.39.22.47s.42-.06.54-.21c.12-.14 0-.37-.21-.47s-.43.06-.55.21zm-9-3.45c0 .13.05.37.21.47.16.11.42-.06.55-.2s-.06-.37-.22-.48c-.16-.1-.42.07-.54.21zm-28-.62c-.14 0-.26.16-.23.41 0 .12.18.23.46.18.14 0 .27-.16.23-.41 0-.12-.18-.22-.46-.18zm2.29 15.4c-.12.14.06.37.22.47a.89.89 0 0 0 .54-.21c.12-.14-.06-.37-.21-.47-.16-.1-.43.06-.55.21zm4.72-7.88c-.1.27-.08.39.22.47s.42-.06.54-.21 0-.37-.21-.47c-.16-.1-.42.06-.55.21zm4.61-7.74c-.13.15-.09.39.21.47s.42-.06.54-.2c.13-.15 0-.37-.21-.47-.16-.11-.42.06-.54.2zm18.31 41c-.28 0-.39.31-.23.41s.32.21.46.19a.32.32 0 0 0 .23-.41c0-.13-.18-.23-.46-.19zm-3-8.25c-.12.15-.25.29-.23.41s.18.23.46.19.26-.17.23-.41-.18-.23-.46-.19zm-2.8-8.14c-.28 0-.38.31-.22.41s.18.22.46.18c.14 0 .26-.16.22-.41s-.17-.23-.46-.18zm-2.79-8.15c-.28 0-.4.18-.23.41 0 .12.18.23.46.18s.27-.16.23-.41c0-.12-.18-.22-.46-.18zM43.71 209c-.28 0-.39.31-.23.41s.18.23.46.18h.14a.42.42 0 0 0 .09-.39c0-.12-.18-.22-.46-.18zm-2.79-8.15c-.29.05-.41.19-.09.39a.42.42 0 0 0 .18.23h.28c.14 0 .26-.17.22-.41-.15-.11-.17-.23-.31-.21zm28.7 9.33c-.12.15-.09.39.21.47s.43-.06.55-.2-.06-.37-.22-.47c-.15-.11-.42.06-.54.2zm-8.77-3.86c0 .13 0 .25-.1.27l.16.1a.47.47 0 0 0 .56-.08.34.34 0 0 0-.07-.49h-.29c-.14 0-.28 0-.26.16zm-8.61-3.75c-.12.14-.08.39.22.47.15.1.42-.06.54-.21v-.24c0-.13 0-.25-.17-.23s-.43.06-.55.21zm-20.8-.68c-.13.14-.23.41-.07.51s.46.18.58 0c.12-.15.23-.41.07-.51-.16-.11-.46-.19-.58 0zm3.88 29c-.14 0-.4.18-.39.31-.12.14.06.37.34.32s.42-.06.39-.3c.12-.15-.06-.37-.34-.33zm1-8.59c-.3-.08-.42.06-.38.31-.13.14 0 .37.33.33a.28.28 0 0 0 .39-.31c.12-.15-.06-.37-.34-.33zm1-8.71c-.28 0-.55.2-.53.33s.2.35.34.33.56-.09.52-.33c.13-.15 0-.37-.33-.33zm.88-8.57c-.3-.08-.42.06-.39.31-.12.14.06.37.34.33s.42-.07.39-.31c.12-.15-.06-.37-.34-.33zm32.05 24.07c-.27.16-.25.29-.07.51s.46.19.58 0 .23-.41.07-.51c-.16-.1-.46-.19-.58 0zM64 222.63c-.12.15-.22.42-.07.52s.46.18.59 0 .22-.41.06-.52c-.16-.1-.46-.18-.58 0zm-6.28-6.49a.63.63 0 0 0-.07.51c.16.11.46.19.58 0s.23-.41.07-.51-.46-.18-.58 0zm-6.15-6.52c-.26.17-.23.42-.07.52s.46.18.58 0 .23-.41.07-.52-.46-.18-.58 0zm-6.28-6.49c-.27.17-.23.41-.07.51a.37.37 0 0 0 .58 0c.12-.14.23-.41.07-.51s-.46-.18-.58 0zm20.46.36c-.12.14 0 .24.2.34.16.11.42-.06.4-.18s0-.37-.19-.35-.42.06-.41.19zm-7.13-1.59c-.12.15 0 .25.19.35s.29 0 .41-.18c.12-.15-.06-.37-.2-.35-.16-.1-.42.06-.4.18zm-34.37-.05h.14a.42.42 0 0 0 .08-.39.5.5 0 0 0-.3-.08zm4.28 10.45c-.12.14.06.37.2.34s.42-.06.4-.18a.23.23 0 0 0-.19-.35c-.16-.1-.43.06-.41.19zm2.08-6.36c-.13.15 0 .25.19.35.16.1.43-.06.41-.18.12-.15-.06-.37-.2-.35-.16-.1-.42.06-.4.18zm22.9 21.53a.59.59 0 0 0 .44.06.42.42 0 0 0 .08-.39.59.59 0 0 0-.44-.06c-.15.02-.27.16-.09.39zm-3.63-6c-.14 0-.1.27-.09.39s.32.21.45.06a.42.42 0 0 0 .08-.39.59.59 0 0 0-.44-.06zm-3.57-5.64a.46.46 0 0 0-.09.39.61.61 0 0 0 .45.06.41.41 0 0 0 .08-.39.59.59 0 0 0-.44-.06zm-3.55-5.51c-.14 0-.26.16-.09.39a.59.59 0 0 0 .44.06.4.4 0 0 0 .09-.39.54.54 0 0 0-.44-.06zm-3.57-5.64c-.14 0-.25.29-.09.39a.59.59 0 0 0 .44.06.43.43 0 0 0 .09-.39.59.59 0 0 0-.44-.06zm-14.26 1.74c0 .12-.11.27 0 .25zm4.07-5.16c-.12.15-.11.27.05.37a.29.29 0 0 0 .43-.06.22.22 0 0 0-.06-.37.29.29 0 0 0-.42.06zm9 27.13a.29.29 0 0 0-.24.29.28.28 0 0 0 .56-.08.3.3 0 0 0-.32-.21zm-.85-6.39c-.16-.1-.28 0-.24.29a.28.28 0 0 0 .31.2.29.29 0 0 0 .25-.29.29.29 0 0 0-.32-.2zm-.83-6.55c-.28 0-.4.18-.24.29a.28.28 0 0 0 .31.2.29.29 0 0 0 .25-.29.29.29 0 0 0-.32-.2zm-.81-6.45c-.28 0-.41.19-.25.29a.29.29 0 0 0 .32.2.3.3 0 0 0 .25-.29.29.29 0 0 0-.32-.2zm-1.1-6.38c0 .12-.12.14 0 0 0 .24.06.37.2.34h.14a.3.3 0 0 0 .25-.29.29.29 0 0 0-.32-.2c-.14 0-.28 0-.27.17zm28.27 13.17c-.14 0-.1.26.06.37a.29.29 0 0 0 .42-.07.22.22 0 0 0 0-.37.3.3 0 0 0-.43.07zm-5.76-3.93a.22.22 0 0 0 .06.37.29.29 0 0 0 .42-.06c.12-.15.11-.27 0-.37a.29.29 0 0 0-.43.06zm-5.84-3.54a.29.29 0 0 0 .42-.06.22.22 0 0 0 0-.37.31.31 0 0 0-.43.06zm-5.8-4.17c-.12.14-.1.26.06.37a.29.29 0 0 0 .42-.07c.12-.14.1-.26-.06-.37a.29.29 0 0 0-.42.07zm-20.08-3.57v.24c.16.11.3.08.29 0 .12-.14.1-.27 0-.25-.16-.1-.3-.08-.28.05zm9.11 13.88a.12.12 0 0 0-.12.14c0 .13 0 .13.15.1.15 0 .15 0 .13-.14s0-.12-.16-.1zm-1.08-3.37c-.14 0-.14 0-.12.15 0 .12 0 .12.16.1.14 0 .14 0 .12-.15 0-.12 0-.12-.16-.1zm-1.09-3.49a.13.13 0 0 0-.12.15c0 .12 0 .12.15.1s.15 0 .13-.14c0-.13 0-.13-.16-.11zm-1.08-3.36a.12.12 0 0 0-.12.14c0 .13 0 .13.16.1s.14 0 .12-.14c0-.12 0-.12-.16-.1zM30 200.87c-.14 0-.28 0-.13.15s0 .12.16.1.14 0 .13-.15 0-.12-.16-.1zm17.58 4.19a.23.23 0 0 0 .29-.05c.12-.14.1-.26 0-.24s-.3-.08-.28 0zm-3.44-1.89c-.14 0-.12.15 0 .25.16.1.3.08.28 0 .12-.14.1-.27 0-.25s-.3-.08-.28 0zm-3.54-1.61a.13.13 0 0 0-.13.15c.16.1.3.08.28-.05v-.12c0-.12-.14 0-.14 0zm-14.3 8.3c-.14 0-.14 0-.26.16a.13.13 0 0 0 .16.11c.14 0 .28 0 .26-.17a.13.13 0 0 0-.16-.1zm.47-3.6c-.14 0-.14 0-.12.15a.13.13 0 0 0 .16.1s.14 0 .12-.15a.13.13 0 0 0-.16-.1zm.47-3.59c-.14 0-.12.14-.26.16a.13.13 0 0 0 .16.1c.14 0 .28 0 .26-.16s0-.12-.16-.1zm13.37 6.7v.24h.28v-.24zm-2.39-2.54.28-.05v-.24h-.28c-.17.18-.17.18-.01.29zm-2.59-2.89c-.14 0-.12.14 0 .24h.28v-.24zm-2.57-2.77c0 .12 0 .12-.1.27h.28v-.25h-.14zm6.6 18.28c-.14 0-.26.17 0 .25.16.1.32.21.44.06a.15.15 0 0 0 0-.24c-.16-.11-.32-.21-.44-.07zm-4.13-4.54a.23.23 0 0 0-.08.39c.16.1.32.2.44.06.12-.15.24-.29.09-.39s-.32-.21-.45-.06zm-4.21-4.16c.16.1.32.2.44.06.12-.15.25-.29.09-.39s-.32-.21-.44-.06-.26.29-.1.39zm-4-4.94a.46.46 0 0 0-.09.39.59.59 0 0 0 .44.06c.13-.14.25-.29.09-.39-.16-.1-.32-.21-.44-.06zm18.62 2.39c-.13.15-.11.27 0 .37a.29.29 0 0 0 .42-.06.21.21 0 0 0 0-.37.29.29 0 0 0-.42.06zM40 205.43c0 .12-.12.14 0 .12l.16.1a.29.29 0 0 0 .42-.06v-.13l-.16-.1a.29.29 0 0 0-.42.07zm-5.86-2.66c-.12.14 0 .25.2.35s.16.1.28 0a.22.22 0 0 0-.06-.37.29.29 0 0 0-.42.06zM28.27 200l.06.37a.28.28 0 0 0 .42-.06.22.22 0 0 0-.05-.37.31.31 0 0 0-.43.06z" fill="#fff"/><path d="M84.83 77.17 57 76.13s4.92-5.5 7.33-17.36c1.85-9.14.85-12.93 1.45-20-.13 1.55 6.84 7.28 7.78 8.49A61.57 61.57 0 0 0 79 53.54c1 1 3.2-1.1 3.2-1.1-.84 10.44.17 15.4 2.63 24.73z" fill="url(#j)"/><path d="M93.19 14.17c3.29 5.73 11.65 19.24 10.42 25.46-2.24 11.26-7.61 14.83-10.13 15.82-8.71 3.4-24.5 2-33.59-4.68-4.18-3.07-10.7-10.55-9.4-25.22.74-8.45 6.69-13.86 13.87-17.25a34.89 34.89 0 0 1 24.18-1.64C95.3 8.55 98 13.92 99.85 19.38c1.94 5.8 4.9 10.51 7.51 15.77.48 1 2.49 3.66 2.11 5.31s-4.93 2.48-6.88 2.67c-7.82.77-7.38-.37-13.57-2.27" fill="#ffbeb5"/><path d="M100.5 10.93a12.6 12.6 0 0 1-1.8 10 16.21 16.21 0 0 1-8.09 5.83 39.73 39.73 0 0 1-9.94 1.83c-3.21.27-6.69.53-9.1 2.67a7.88 7.88 0 0 0-2.45 7.72c.51 2.36 4.65 3.42 6.24 5.08 5.18 5.38 1.67 18.75 1 21.89-18.14-2.2-34.67-6.72-44.73-11.43-1.16-2.67-1.56-9.81.12-14.54a20.82 20.82 0 0 1 4.88-7.76c2-2 4.65-3.41 6.42-5.65 2.91-3.72 2.87-8.95 5-13.17C49.86 9.77 52.9 6 56.5 4.24S69.38-1.11 82.76.33a55.75 55.75 0 0 1 8.53 1.38 14.44 14.44 0 0 1 5.1 2.64 12.48 12.48 0 0 1 4.11 6.58z" fill="#23286b"/><path d="M59.15 72.79s-17 16-32.59 53.39c-3.13 7.49-10.08 18-17.47 28.22C-4.15 172.78 1 197.32 1 197.32s38.92 13.73 99.94 1.46c1.54-14.15 0-21.33 0-35.55 0-32-16.78-88.44-16.78-88.44-9.97 1.55-17.88.99-25.01-2z" fill="url(#h)"/><path d="M93 141.51c13.9 2.27 38.74-5.07 38.74-5.07v64.4s-28.13 6.93-47.36-2.06c-13.63-6.38-14.37-11.24-21.72-15.2-4.13-2.23-17.4-5.69-23.22-13.08-9.55-12.11-8-33.58-3.74-47.88C40.09 108 52.93 86.36 59.15 72.79A40.45 40.45 0 0 0 79 75.41s-5 62.99 14 66.1z" fill="#28306d"/><path d="M108.09 464.12h30.77s16.08 15 33.3 22.5S194.55 504 194.55 504H93.74l14.35-39.84" fill="url(#k)"/><path d="M26.93 464.12h32.73s14.12 15 31.34 22.5S113.39 504 113.39 504H12.58l14.35-39.84" fill="#28306d"/><g fill="#fff"><path d="M84.11 202.19c.15 0 .29-.05.3.08s0 .12-.1.27c-.14 0-.28 0-.3-.09a.4.4 0 0 1 .1-.26zm-10.66.81c.15 0 .16.1.18.22s-.12.15-.26.17c-.14 0-.3-.08-.18-.23a.46.46 0 0 1 .26-.16zm-6.26 23.61c.28 0 .44.06.47.31a.29.29 0 0 1-.38.31c-.28 0-.44-.06-.48-.31s.11-.26.39-.31zm-.39-8.38c.29 0 .46.19.34.33 0 .25-.09.39-.37.43s-.44-.06-.47-.3.34-.56.5-.46zm-.26-8.52a.43.43 0 0 1 .46.29.29.29 0 0 1-.39.31c-.28 0-.44-.06-.47-.31 0-.12.1-.27.38-.31zm17.83 8.68c.14 0 .42-.06.46.19 0 .12 0 .37-.23.41a.6.6 0 0 1-.6-.17c0-.12.11-.26.37-.43zm-3.99-7.46c.14 0 .42-.07.46.18a.46.46 0 0 1-.21.53c-.28.05-.42.07-.6-.16.11-.27.21-.53.35-.55zm-3.86-7.61a.59.59 0 0 1 .6.16c0 .12 0 .37-.23.41-.14 0-.42.06-.46-.18-.3-.08-.19-.35.09-.39zm-1.64 15.1c.14 0 .44.06.46.18 0 .12-.08.39-.22.41-.15 0-.45-.06-.46-.18s.1-.27.22-.41zm-2.63-7.04c.15 0 .44.06.46.18 0 .13.06.37-.22.41-.14 0-.44-.06-.46-.18s-.06-.37.22-.41zm-2.76-7.02c.14 0 .44.06.45.19 0 .12.06.37-.22.41-.14 0-.44-.06-.46-.19 0-.12-.06-.37.23-.41zm-13.02 13.02c.14 0 .32.2.33.33s-.24.28-.38.31-.32-.21-.34-.33.25-.29.39-.31zm30.86-10.01c.12-.14.42-.06.44.06a.24.24 0 0 1-.09.4c-.12.14-.4.18-.44-.07-.15-.1 0-.24.09-.39zm-5.7-5.44c.12-.15.42-.07.44.06s.06.37-.08.39-.43.06-.58 0c.12-.15.1-.27.22-.41zm-2.47 10.44a.37.37 0 0 1 .58 0c.16.1.2.35-.07.51a.37.37 0 0 1-.58 0c-.16-.1-.19-.35.07-.51zm-6.67-6.19a.38.38 0 0 1 .58 0c.16.1.19.35-.07.52a.38.38 0 0 1-.58 0 .7.7 0 0 1 .07-.52zm-13.64 12.73c.28 0 .44.06.46.19 0 .24-.08.39-.22.41-.29 0-.44-.06-.46-.19-.18-.22-.06-.37.22-.41zm9.42-9.2c.12-.15.42-.07.58 0 .16.1.05.37-.07.51s-.42.06-.58 0-.2-.35.07-.51z"/></g><path d="M94.77 32.94a6.61 6.61 0 0 1-4.93-2.24.49.49 0 0 1 0-.7.51.51 0 0 1 .71.05 5.63 5.63 0 0 0 4.73 1.86A3.93 3.93 0 0 0 98.87 29a.5.5 0 0 1 .56-.43.5.5 0 0 1 .43.56 4.88 4.88 0 0 1-4.41 3.78 5.17 5.17 0 0 1-.68.03z" fill="#23286b"/></svg></g><g transform="translate(585.0 140.0) rotate(16.98475210820348 -88.5 82.0) scale(-4.164607891579022 4.180261011419249)"><svg width="42.501" height="39.232" viewBox="0 0 42.501 39.232"><path d="M4.904 4.904S0 13.622 0 26.154v13.077l42.501-8.173S35.962 17.436 33.783 0L16.346 1.09s-7.628.545-11.442 3.814z" fill="#eee"/></svg></g><g transform="translate(677.0 0.0) rotate(-90.00000000000001 -47.0 79.0) scale(-2.573932092004381 2.6159806616113115)"><svg width="36.52" height="60.398" viewBox="0 0 36.52 60.398"><path d="M20.161 0 0 49.039s21.25 22.34 33.238 4.359c0 0-8.173 0-2.18-16.346s5.449-14.712 5.449-14.712z" fill="#eee"/></svg></g><g transform="translate(772.0 68.0) rotate(-75.35772819447266 24.0 43.5) scale(1.5188431478024238 1.5524071232290069)"><svg width="31.603" height="56.042" viewBox="0 0 31.603 56.042"><path d="M16.891 37.597 0 53.943c7.628 3.269 17.981 3.814 19.071-6.539s-9.263-20.16-9.263-20.16 7.083-11.443 10.353-16.891S21.25 0 21.25 0z" fill="#e0e0e0"/><path d="M21.795 0s8.173 10.353 9.263 18.526.545 7.083-1.635 11.987-11.955 21.758-11.955 21.758 7.596-8.135-7.661-25.027z" fill="#eee"/></svg></g></svg>