<svg xmlns="http://www.w3.org/2000/svg" viewBox="0 0 1200 1200" width="1200" height="1200"><g transform="translate(319.0 775.0) rotate(0.0 178.0 100.0) scale(1.155844155844156 1.1616358155554654)"><svg width="308" height="172.171" viewBox="0 0 308 172.171"><path d="M1 34.171a333.465 333.465 0 0 1 13-3c43.129-9.049 83.716-8.639 119.615-3.699l60.288 109.013a208.187 208.187 0 0 0-65.243 7.433 208.138 208.138 0 0 0-59.461 27.253L1 34.171z" fill="#fff"/><path d="M69.199 172.171a.998.998 0 0 1-.895-.555l-68.199-137A.999.999 0 0 1 .756 33.2a336.335 336.335 0 0 1 13.039-3.009c38.618-8.103 78.977-9.351 119.957-3.711.312.043.586.231.739.507L194.779 136a1 1 0 0 1-.92 1.483 206.718 206.718 0 0 0-64.929 7.397 206.738 206.738 0 0 0-59.176 27.122.992.992 0 0 1-.555.169zM2.45 34.839l67.14 134.873a208.724 208.724 0 0 1 58.802-26.758 208.704 208.704 0 0 1 63.776-7.541L132.983 28.395c-40.582-5.532-80.54-4.268-118.778 3.754a336.12 336.12 0 0 0-11.755 2.69z" fill="#1d0333"/><path d="M9 20.171c13.461-3.719 31.948-7.277 54-7 30.771.386 55.261 8.073 70.615 14.301l60.288 109.013a303.068 303.068 0 0 0-42.119-.826c-32.785 1.643-60.522 8.391-81.784 15.512l-61-131z" fill="#fff"/><path d="M70 152.171a.999.999 0 0 1-.906-.578l-61-131a1 1 0 0 1 .64-1.386 194.515 194.515 0 0 1 54.279-7.036c24.337.306 48.218 5.142 70.979 14.375.212.086.388.243.499.443l60.288 109.013a1 1 0 0 1-.964 1.48 303.21 303.21 0 0 0-41.98-.823c-27.585 1.383-55.011 6.584-81.517 15.461a1.031 1.031 0 0 1-.318.051zM10.407 20.823 70.53 149.94c26.416-8.763 53.73-13.903 81.204-15.279a304.77 304.77 0 0 1 40.386.667L132.912 28.266c-22.431-9.053-45.953-13.794-69.924-14.095-17.712-.23-35.393 2.016-52.581 6.652z" fill="#1d0333"/><path d="M133.615 27.472A165.158 165.158 0 0 1 169 10.171c30.864-10.737 58.334-9.932 75-8l63 120a155.249 155.249 0 0 0-34.641-4.681c-35.336-.74-63.012 10.877-78.456 18.995L133.615 27.472z" fill="#fff"/><g fill="#1d0333"><path d="M193.904 137.485a1 1 0 0 1-.876-.516L132.74 27.956a1 1 0 0 1 .332-1.324 166.446 166.446 0 0 1 35.599-17.406c24.03-8.36 49.413-11.069 75.444-8.049a1 1 0 0 1 .77.528l63 120a.996.996 0 0 1-.1 1.083.996.996 0 0 1-1.03.351 154.55 154.55 0 0 0-34.418-4.65c-26.463-.569-53.414 5.974-77.969 18.88a.982.982 0 0 1-.464.116zm-58.96-109.677 59.362 107.339c24.622-12.763 51.596-19.212 78.074-18.656a156.38 156.38 0 0 1 32.705 4.184L243.36 3.104c-25.545-2.886-50.449-.192-74.031 8.011a164.443 164.443 0 0 0-34.385 16.693zM38 34.171a1 1 0 0 1-.265-1.964 107.542 107.542 0 0 1 15.141-3.028c14.014-1.765 28.273-.747 42.383 3.026a1 1 0 0 1-.516 1.932c-13.859-3.705-27.861-4.707-41.617-2.974a105.447 105.447 0 0 0-14.859 2.972.992.992 0 0 1-.267.036zm78.001 4a.968.968 0 0 1-.243-.03l-12-3a1 1 0 1 1 .485-1.941l12 3a1 1 0 0 1-.242 1.971zm7.999 11c-.116 0-.233-.021-.348-.063-23.938-8.897-47.656-11.573-70.495-7.95a126.424 126.424 0 0 0-9.922 1.984 1.002 1.002 0 0 1-.47-1.945 128.869 128.869 0 0 1 10.079-2.016c23.184-3.676 47.241-.968 71.505 8.05a1 1 0 0 1-.349 1.94zm20.001 26a1 1 0 0 1-.258-.034 127.885 127.885 0 0 0-23.813-3.969 127.8 127.8 0 0 0-17.86 0 1.002 1.002 0 0 1-1.068-.928.998.998 0 0 1 .927-1.067 129.812 129.812 0 0 1 18.14 0c8.142.573 16.28 1.929 24.187 4.031a.998.998 0 0 1 .709 1.223.996.996 0 0 1-.964.744z"/></g></svg></g><g transform="translate(55.0 748.0) rotate(0.0 422.5 1.5) translate(0.0 0.0) scale(1.7803904217102282 1.5)"><svg width="324.648" height="2" viewBox="0 0 324.648 2"><path d="M473.615 2H1a1 1 0 0 1 0-2h472.615a1 1 0 0 1 0 2z" fill="#1d0333"/></svg></g><g transform="translate(84.0 838.0) rotate(0.0 75.0 37.0) scale(1.1246401151631478 1.1269664803618478)"><svg width="133.376" height="65.663" viewBox="0 0 133.376 65.663"><path d="M4 59.641c-2.255-3.559-3-8-3-8-1.072-6.398 1.016-11.564 2-14 2.864-7.085 13.154-22.962 33.518-31.625 4.096-1.743 30.909-12.617 59.716 0 3.848 1.686 33.144 14.702 36.55 39.62.673 4.921 1.428 10.448-1.785 15.006-7.722 10.954-27.225.501-64 1-29.503.399-56.87 7.668-62.999-2.001z" fill="#1d0333"/><path d="M1 58.641a1 1 0 0 1-.964-1.266c2.271-8.209 6.03-15.728 11.174-22.347a63.825 63.825 0 0 1 11.175-11.176.999.999 0 1 1 1.228 1.578 61.78 61.78 0 0 0-10.825 10.824C7.807 42.666 4.164 49.952 1.964 57.907a1 1 0 0 1-.964.734z" fill="#fff"/></svg></g><g transform="translate(75.0 147.0) rotate(0.0 347.0 300.5) scale(1.1551745661853439 1.1556247776720217)"><svg width="600.775" height="520.065" viewBox="0 0 600.775 520.065"><path d="M349.812 59.163c4.062.253 10.444 11.586 5 19-3.61 4.916-11.342 6.639-14 4-4.496-4.464 3.594-23.336 9-23z" fill="#1d0333"/><path d="M360.312 60.683c-2.43 1.22-4.81 1.48-6.5 1.48 1.15 1.88 3.74 6.56 2 9-1.7 2.39-6.75 1.48-13 0-6.23-1.47-10.75-2.82-14.23-3.99-8.82-2.96-13.26-4.32-13.39-4.33-16.97-.92-24.9 49.71-46.38 51.32-.47.04-7.7.48-11-4-4.49-6.09 1.74-16.57 2-17-2.512-1.794-21.339-15.614-20-33 .101-1.311.369-4.433 2-8 4.638-10.143 15.473-13.263 24-17 6.369-2.791 10.752-5.618 14.119-8.393 7.189-5.927 8.208-9.135 15.365-15.076 3.853-3.198 8.665-7.193 15.516-9.531 1.335-.456 20.076-6.552 32 4 4.877 4.316 10.613 13.188 8.06 18.87a4.582 4.582 0 0 1-.06.13c7.02.7 13.01 4.66 16.14 10.22a17.92 17.92 0 0 1 1.86 4.78c1.831 7.88-1.709 17.08-8.5 20.52z" fill="#1d0333"/><path d="M168.731 460.065h104v36h-104z" fill="#fff"/><path d="M273.731 497.065h-106v-38h106zm-104-2h102v-34h-102z" fill="#1d0333"/><path d="M168.731 485.065c1.977-1.943 5.295-4.8 10-7 12.956-6.057 20.632.258 38-4 10.379-2.545 9.631-5.289 18-6 9.56-.812 14.275 2.451 24 1 6.123-.914 10.904-3.199 14-5v-3h-104z" fill="#1d0333"/><path d="M306.731 520.065h-172V503.97c0-5.47 4.434-9.904 9.904-9.904h152.191c5.47 0 9.904 4.434 9.904 9.904v16.095z" fill="#fff"/><path d="M307.731 521.065h-174V503.97c0-6.013 4.892-10.904 10.904-10.904h152.191c6.013 0 10.904 4.892 10.904 10.904v17.095zm-172-2h170V503.97c0-4.91-3.994-8.904-8.904-8.904H144.636c-4.91 0-8.904 3.994-8.904 8.904v15.095zm266.081-63.902-327-5-69-225 330 11zM239.731 190.065c-.439-1.266-1.682-4.858 0-8 6.211-11.6 47.446-7.97 54 8 .273.666 2.088 5.268 0 9-3.319 5.934-14.094 5.365-21 5-6.769-.357-28.676-1.514-33-14z" fill="#1d0333"/><path d="M348.403 147.693c-.81 1.07-8.48 10.9-20.55 12.55-25.93 3.54-60.36-32.32-57.98-67.29.25-3.7 2.57-31.5 24.7-40.62 16.59-6.84 35.41.46 45.52 11.45 7.11 7.73 8.58 17.6 11.54 37.31.43 2.85.83 5.56 1.2 8.15.66 4.69 1.18 8.98 1.44 12.92.669 10.39-.501 18.45-5.87 25.53z" fill="#e2957a"/><path d="M282.553 86.386a62.847 62.847 0 0 0-14.903-11.963c-6.399-3.688-13.821-7.967-18.131-5.047-3.623 2.455-3.789 9.145-2.493 13.632 3.835 13.277 24.633 21.662 32.162 15.465 1.294-1.065 3.922-3.981 3.365-12.087z" fill="#e2957a"/><path d="M266.565 93.355c-.062 0-.123-.006-.186-.017-3.287-.617-6.091-2.234-7.499-4.324-.665-.988-.924-1.97-.748-2.839.409-2.021 3.368-3.78 7.446-3.782-1.369-1.56-3.598-3.454-6.752-4.179a12.185 12.185 0 0 0-4.781-.126 1 1 0 1 1-.332-1.972 14.182 14.182 0 0 1 5.562.149c5.223 1.202 8.227 5.122 9.276 6.751a1 1 0 0 1-.991 1.53c-4.251-.646-7.249.945-7.468 2.025-.064.319.103.814.446 1.325.861 1.278 2.944 2.863 6.209 3.476a1 1 0 0 1-.182 1.983z" fill="#1d0333"/><path d="M269.731 100.065c-.502 15.159-3.282 38.517-15 64a164.363 164.363 0 0 1-21 34c2.072 4.04 6.88 11.828 16 16 4.341 1.985 8.237 2.502 12 3 7.602 1.007 12.746 1.694 17-1 2.221-1.406 3.486-3.281 8-16 3.742-10.543 6-18 6-18 4.146-13.689 6.296-20.513 6.856-22.784 2.55-10.351 5.738-23.05 10.144-40.216l-40-19z" fill="#e2957a"/><path d="M301.541 152.425c-5-3.79-7.8-7.7-9.48-10.81-4.51-8.41-7.24-16.45-8.82-16.09-.67.15-.81 1.75-1.01 3.83-.43 4.7.36 8.17 1.11 12.22 1.18 6.33.59 5.16 1.47 9.27 1.52 7.11 2.28 10.66 4.83 12.85.85.73 3.33 2.59 8.22 2.53z" fill="#1d0333"/><path d="m36.841 310.925 20.04 66.67c0-.01 0-.01.01 0zm367.77 129.72-64.25-213.73c-2.31-7.69-9.25-12.85-17.28-12.85H20.051c-6.4 0-12.26 2.95-16.08 8.08-3.81 5.14-4.95 11.6-3.11 17.73l22.45 74.68 21.93 72.95h.01l17.82 59.29c.16.53.34 1.06.54 1.57.1.25.2.51.31.76.22.49.46.98.71 1.46.26.47.53.93.82 1.38s.6.88.92 1.31c.32.42.66.82 1.01 1.21 1.82 2.02 4.03 3.64 6.5 4.77 2.56 1.17 5.4 1.81 8.38 1.81h307.17c5.06 0 9.7-2.33 12.72-6.39 3.02-4.07 3.921-9.18 2.46-14.03zm-13.69 5.67c-.26.34-.72.75-1.49.75H82.261c-2.69 0-5.01-1.73-5.78-4.3l-19.59-65.17-20.05-66.67-3.48-11.6-19.09-63.49c-.55-1.84-.21-3.79.94-5.34a6.001 6.001 0 0 1 4.84-2.43h303.03c.37 0 .74.05 1.08.15 1.32.36 2.39 1.37 2.79 2.73l.02.07 21.87 72.74 42.36 140.92c.23.74-.03 1.3-.28 1.64z" fill="#fff"/><path d="M389.431 462.065H82.262a21 21 0 0 1-8.796-1.901 20.753 20.753 0 0 1-6.827-5.01 19.968 19.968 0 0 1-1.062-1.274 24.92 24.92 0 0 1-.966-1.374 24.616 24.616 0 0 1-.854-1.438 28.288 28.288 0 0 1-.747-1.534c-.09-.203-.171-.407-.251-.608l-.075-.188a21.368 21.368 0 0 1-.569-1.654L-.097 240.163c-1.929-6.428-.739-13.213 3.265-18.613 4.017-5.393 10.17-8.485 16.884-8.485h303.03c8.472 0 15.801 5.45 18.237 13.562l64.25 213.73c1.55 5.15.597 10.586-2.615 14.914-3.211 4.318-8.14 6.794-13.523 6.794zm-343.447-75.56.226.712 17.819 59.29c.161.534.334 1.037.513 1.492l.075.189c.071.178.143.358.22.533.209.467.44.939.682 1.402.237.429.495.869.773 1.3.277.432.575.843.882 1.255.297.39.619.769.952 1.139a18.753 18.753 0 0 0 6.172 4.529 19.02 19.02 0 0 0 7.964 1.719h307.17c4.744 0 9.088-2.182 11.917-5.987 2.831-3.814 3.672-8.606 2.305-13.145l-64.25-213.73c-2.181-7.26-8.739-12.138-16.321-12.138H20.052c-6.076 0-11.645 2.798-15.278 7.677-3.623 4.887-4.7 11.028-2.954 16.845zm343.447 61.56H82.262a6.989 6.989 0 0 1-6.738-5.013l-17.643-58.694v.032L13.313 236.123a6.993 6.993 0 0 1 1.096-6.224 6.98 6.98 0 0 1 5.643-2.834h303.03c.474 0 .933.064 1.361.191a4.96 4.96 0 0 1 3.468 3.407l64.248 213.724a2.78 2.78 0 0 1-.432 2.521l-.013.016c-.572.747-1.362 1.141-2.283 1.141zm-330.44-66.96 18.448 61.373a5.003 5.003 0 0 0 4.822 3.588h307.17c.288 0 .502-.108.69-.35a.772.772 0 0 0 .124-.742l-64.232-213.669c-.317-1.081-1.1-1.846-2.115-2.123a2.904 2.904 0 0 0-.816-.115H20.052a4.996 4.996 0 0 0-4.038 2.028 5.007 5.007 0 0 0-.784 4.455z" fill="#1d0333"/><path d="M179.731 214.065c60.235-19.834 121.087-14.107 150 20 29.522 34.826 18.977 91.258 8 150a403.728 403.728 0 0 1-19 68 1296.757 1296.757 0 0 1-226-4c3.004-39.832 7.273-73.139 11-98 8.449-56.356 14.54-72.143 23-86 15.96-26.142 37.964-41.501 53-50z" fill="#cc9af0"/><path d="M599.731 385.065c-32.501 104.572-178.756-34.35-250.703-88.216a1291.133 1291.133 0 0 1-27.297-23.784c-24.196-9.24-46.617-44.754-47-66 22.53 2.85 53.48 3.41 70 2 20.573-1.756 23.555.726 27.119 1.244 18.373 2.672 46.931 15.177 77.881 68.756a1830.847 1830.847 0 0 1 59 53c-12.356-17.89-40.111-52.688-60-82l40-34c43.452 46.043 121.993 133.557 111 169z" fill="#cc9af0"/><path d="M339.812 400.163a1 1 0 0 1-.955-1.297 181.241 181.241 0 0 0 6.962-32.818c1.013-8.675.916-15.344.793-23.786-.089-6.122-.189-13.061.12-22.229.452-13.401.788-27.189.999-40.982a1 1 0 0 1 1-.985h.016a1 1 0 0 1 .984 1.015 2231.48 2231.48 0 0 1-1.001 41.018c-.308 9.12-.207 16.033-.118 22.133.124 8.516.222 15.242-.807 24.047a183.306 183.306 0 0 1-7.038 33.182 1 1 0 0 1-.955.702zm191.92-40.098a.998.998 0 0 1-.782-.375l-4-5a9054.443 9054.443 0 0 1-31.003-39.004 1 1 0 1 1 1.568-1.24 9113.001 9113.001 0 0 0 30.997 38.996l4 5a1.002 1.002 0 0 1-.156 1.406 1.008 1.008 0 0 1-.624.217z" fill="#1d0333"/><path d="M257.731 203.065c-1.872 1.992-4.828 4.724-9 7-5.294 2.889-9.899 3.489-11.94 4-11.217 2.807-17.528 10.25-23.94 14-23.37 13.67-46.75 27.33-70.12 41a590.345 590.345 0 0 1-18 32 597.27 597.27 0 0 1-17.51 27.24c-1.43 2.09-2.86 4.16-4.3 6.2a585.657 585.657 0 0 1-26.19 34.56c6.341-1.032 10.974-2.614 14.081-3.902 2.14-.887 5.678-2.513 11-4 2.222-.621 2.346-.544 4-1 8.806-2.425 13.046-6.726 20.039-9.638.394-.164 2.667-1.109 5.88-2.46.69-.29 1.39-.59 2.1-.89a700.206 700.206 0 0 0 42.9-20.11l2.03 1.94 40.82 38.96c.38.37.77.73 1.15 1.1-1.216.982-2.485 2.003-3.803 3.058a956.294 956.294 0 0 1-11.417 9.052c-34.771 27.04-67.22 47.94-94.79 62.12-.08.04-.15.08-.23.12-1.38.7-2.75 1.39-4.1 2.06-1.09.55-2.16 1.07-3.23 1.59-1.2.58-2.38 1.15-3.55 1.7-9.27 4.36-17.89 7.86-25.73 10.49a19.867 19.867 0 0 1-6.5-4.77c-.35-.39-.69-.79-1.01-1.21-.32-.43-.63-.86-.92-1.31s-.56-.91-.82-1.38c-.25-.48-.49-.97-.71-1.46-.11-.25-.21-.51-.31-.76-.2-.51-.38-1.04-.54-1.57l-17.82-59.29h-.01l-21.93-72.95c.01-.01.02-.01.02-.021l5.61-8.49c1.52-2.31 2.99-4.54 4.42-6.72 24.48-37.17 36.91-56.59 45.37-70.26.21-.33.41-.67.62-1 3.07-4.92 6.14-9.61 9.34-14 10.15-13.92 21.58-24.76 38.04-30 13.029-4.148 22.924-3.682 61 4a2984.374 2984.374 0 0 1 70 15.001z" fill="#cc9af0"/><path d="m239.731 182.065-12 15c-.11 4.848.378 15.956 8 25 11.226 13.32 33.436 16.836 54 7l5-33c-.69 1.223-1.621 3.612-4 5-12 7-40 0-49-9-2.713-2.713-2.099-6.969-2-10z" fill="#cc9af0"/><path d="M355.541 208.455c-5.86 3.99-13.81 7.4-21.81 7.61-4.667.125-7.806-.883-12.415-.719-2.114.075-3.797.406-5.585.719-8.95 1.567-16.232 3.77-17 4-5.171 1.552-13.138 3.149-25 3l6-2c.25-.08.53-.17.83-.28 2.33-.81 5.89-2.43 9.17-5.72 2-2.01 3.43-4.16 4.44-6.21 20.94 1.47 37.8 1.07 50.56.21 3.41-.23 7.03-.52 10.81-.61zm-80.064-3.576c-3.548 0-7.031-.326-9.918-.828-10.902-1.897-26.969-8.93-26.828-18.001.029-1.894.774-3.78 2.215-5.604a1.001 1.001 0 0 1 1.57 1.24c-1.162 1.472-1.763 2.951-1.785 4.396-.106 6.829 13.181 13.913 25.172 16 9.473 1.649 24.568 1.087 26.888-5.354.769-2.135.127-4.871-1.908-8.132a1.001 1.001 0 0 1 1.697-1.059c2.376 3.808 3.08 7.128 2.092 9.869-2.033 5.644-10.793 7.472-19.195 7.473z" fill="#1d0333"/><path d="M268.039 224.337c-2.134 0-3.979-.156-5.382-.275-4.749-.401-20.971-2.767-30.739-16.415a37.078 37.078 0 0 1-5.139-10.277 1 1 0 0 1 1.904-.611 35.064 35.064 0 0 0 4.861 9.723c9.269 12.951 24.747 15.204 29.271 15.586 4.562.385 14.031 1.185 22.33-4.814 3.055-2.208 5.605-5.052 7.586-8.457v-14.733a1 1 0 1 1 2 0v15a.998.998 0 0 1-.131.495c-2.142 3.756-4.929 6.89-8.283 9.315-6.295 4.552-13.125 5.463-18.278 5.463zm-123.308 51.728c.97 9.037-.492 15.644-2 20-2.433 7.027-4.92 8.005-11 21-3.782 8.085-5.29 12.987-4 18 .364 1.415 1.198 4.485 4 7 2.243 2.013 4.692 2.724 6 3l-37 17 6-32 38-54zm68 100a1595.307 1595.307 0 0 1-109 71h69c-.556-9.229 1.405-15.971 3-20 5.072-12.815 15.559-21.237 19-24 6.337-5.089 9.483-5.799 13-11 3.83-5.662 4.788-11.75 5-16zm240 1a1654.763 1654.763 0 0 1-103.7-80.22c.23-4.93.47-9.851.7-14.78 5.41-.34 13.16.07 19 5 7.98 6.73 4.12 14.92 11 25 1.388 2.035 2.806 3.549 4.298 4.745 9.577 7.675 21.164 14.605 28.702 15.255 15.449 1.331 35.824-17.708 43-48l8 7c-1.905 9.649-.596 16.489 1 21 2.329 6.584 5.647 11.322 8.23 21.67.452 1.811.733 3.846.77 6.33.147 9.788-3.937 9.492-5 25-.384 5.593-.128 9.654-3 12-3.459 2.826-9.25 1.361-13 0z" fill="#1d0333"/><path d="M487.731 217.065c-4.732-6.572-16.095-20.492-36.087-29.525-20.471-9.25-38.863-8.348-46.913-7.475-6.414 1.138-17.641 4.058-28.525 12.577-3.359 2.629-8.279 6.769-12.476 13.422-7.388 11.712-11.125 29.642-4.999 34.001 12.497 5.622 10.952-19.751 26-28.999 9.121-5.97 22.204-5.031 31-1.001 26.979 14.053 14.165 67.746 72 7z" fill="#e2957a"/><path d="M436.731 198.065c-4.641-1.888-18.86 9.768-17 22 2.005 13.182 21.526 19.435 25 16 1.755-1.736-1.354-5.188-4-17-3.146-14.044-1.143-19.838-4-21z" fill="#e2957a"/><path d="M442.87 356.565H273.593c-7.931 0-14.361-6.43-14.361-14.361v-96.055c0-7.931 6.43-14.361 14.361-14.361H442.87c7.931 0 14.361 6.43 14.361 14.361v96.055c0 7.932-6.429 14.361-14.361 14.361z" fill="#fff"/><path d="M442.87 357.565H273.593c-8.471 0-15.361-6.891-15.361-15.361v-96.055c0-8.47 6.891-15.361 15.361-15.361H442.87c8.471 0 15.361 6.891 15.361 15.361v96.055c0 8.47-6.89 15.361-15.361 15.361zM273.593 232.787c-7.367 0-13.361 5.994-13.361 13.361v96.055c0 7.367 5.994 13.361 13.361 13.361H442.87c7.367 0 13.361-5.994 13.361-13.361v-96.055c0-7.367-5.994-13.361-13.361-13.361z" fill="#1d0333"/><path d="M177.731 330.065c21.849-22.744 42.406-37.665 57-47 15.318-9.798 54.505-34.857 67.801-24.059.651.529 3.276 2.659 3.26 5.511-.036 6.331-13.094 9.673-30.843 19.332a184.783 184.783 0 0 0-18.177 11.296c4.943-2.315 10.725-.936 13.801 3.086 2.577 3.37 2.885 8.113.781 12.058 3.665-.659 7.337.723 9.352 3.541 2.543 3.555 2.054 8.847-1.443 12.285.795.257 6.379 2.156 7.936 7.282.793 2.612.14 4.838-.608 7.254-2.819 9.104-10.029 13.938-11.109 14.64-3.087 2.007-8.729 5.676-13.871 3.55-1.666-.689-2.825-1.799-3.572-2.691a81.363 81.363 0 0 1-14.308 6.915c-10.602 3.896-20.151 4.887-27 5a58.795 58.795 0 0 1-10-4c-.457-.233-6.37-3.29-11.599-7.784-10.756-9.244-15.939-22.263-17.401-26.216z" fill="#e2957a"/><path d="M242.859 301.486a1 1 0 0 1-.637-1.772c3.691-3.044 8.084-5.149 12.703-6.087a28.752 28.752 0 0 1 10.562-.164 1 1 0 0 1-.334 1.972 26.773 26.773 0 0 0-9.83.152c-5.432 1.103-9.431 3.692-11.828 5.67a.997.997 0 0 1-.636.229zm9.812 12.989a1 1 0 0 1-.412-1.912 40.277 40.277 0 0 1 24.494-2.794.999.999 0 1 1-.391 1.961 38.28 38.28 0 0 0-23.281 2.655.968.968 0 0 1-.41.09zm10.615 14.154a1 1 0 0 1-.399-1.918c5.015-2.18 10.124-3.008 15.18-2.462 1.367.147 2.739.4 4.079.75a1 1 0 0 1-.506 1.935 26.19 26.19 0 0 0-3.788-.697c-4.708-.508-9.476.269-14.168 2.308a.988.988 0 0 1-.398.084zm1.348 31.803c-1.229 0-2.376-.221-3.42-.674-1.637-.71-4.488-2.701-4.791-5.654-.387-3.787 3.473-7.745 9.386-9.624a1 1 0 1 1 .606 1.906c-5.576 1.772-8.246 5.121-8.001 7.514.181 1.77 1.991 3.326 3.598 4.022 4.946 2.146 13.346-2.508 21.408-11.854a1 1 0 1 1 1.514 1.306c-7.213 8.363-14.636 13.058-20.3 13.058z" fill="#1d0333"/><path d="M395.731 196.065c-11.816 1.701-16.496 20.028-17 22-1.03 4.032-3.01 11.785 1 19 .948 1.705 4.143 7.454 10 8 3.328.31 7.889-1.024 9-4 1.4-3.75-4.172-6.101-5-13-.723-6.026 2.675-11.354 5-15 4.801-7.529 9.622-8.924 9-12-.655-3.237-6.818-5.746-12-5z" fill="#e2957a"/><path d="M410.731 200.065c-2.278.609-12.333 3.563-17 13-5.681 11.488-1.181 28.142 9 32 4.818 1.826 9.82.374 13-1-.451-.497-7.905-8.969-5-19 2.582-8.916 12.225-15.19 23-14" fill="#e2957a"/><path d="M421.731 198.065c-8.597-.803-22.347 19.109-17 34 2.316 6.449 9.049 14.28 17 14 5.75-.203 9.619-4.558 10-5 10.261-11.901.092-42.057-10-43zm-60 16c-8.034 16.839-8.41 31.318-2 36 3.41 2.491 9.454 2.731 13 0 3.738-2.879 2.888-7.667 4-17 2.095-17.581 7.956-24.444 5-27-1.317-1.139-5.26-2.179-20 8z" fill="#e2957a"/><g fill="#1d0333"><path d="M390.332 245.336c-2.791 0-5.724-.613-8.2-2.471-8.102-6.076-4.541-20.351-3.371-25.042 1.593-6.382 4.694-12.242 9.218-17.416a1 1 0 1 1 1.506 1.316c-4.313 4.933-7.268 10.513-8.782 16.584-2.927 11.73-2.042 19.455 2.629 22.958 4.552 3.414 11.371 1.731 14.092.849a1 1 0 1 1 .617 1.903c-1.933.626-4.741 1.319-7.709 1.319z"/><path d="M406.792 246.463c-2.073 0-4.329-.386-6.517-1.508-5.355-2.746-8.229-8.743-8.542-17.825-.398-11.624 7.084-19.816 10.32-22.8a1 1 0 1 1 1.355 1.47c-3.033 2.797-10.047 10.465-9.679 21.231.287 8.333 2.796 13.755 7.457 16.144 4.799 2.46 10.109.794 12.17-.038a1 1 0 0 1 .748 1.855c-1.398.565-4.14 1.471-7.312 1.471z"/><path d="M420.431 246.402c-2.312 0-4.436-.495-6.184-1.462-4.836-2.677-5.999-8.28-6.495-10.672-2.581-12.436 8.107-23.769 10.276-25.914a.999.999 0 1 1 1.406 1.422c-2.04 2.018-12.095 12.662-9.724 24.086.44 2.124 1.472 7.096 5.505 9.328 2.188 1.21 5.138 1.53 8.311.896a13.783 13.783 0 0 0 4.667-1.864c4.101-2.618 7.796-8.034 6.568-12.913-.048-.189-1.195-4.623-4.237-5.266-2.593-.552-6.24 1.677-7.848 6.347a1 1 0 1 1-1.891-.651c1.763-5.122 6.226-8.483 10.152-7.653 4.178.883 5.613 6.138 5.763 6.735 1.646 6.537-3.543 12.604-7.432 15.087a15.743 15.743 0 0 1-5.342 2.138 17.932 17.932 0 0 1-3.495.356zm36.301-3.336a1 1 0 0 1-.434-1.901 87.667 87.667 0 0 0 8.897-4.944c8.631-5.476 16.284-12.463 22.747-20.77a1 1 0 1 1 1.578 1.228c-6.604 8.488-14.428 15.631-23.253 21.23a89.612 89.612 0 0 1-9.103 5.056.967.967 0 0 1-.432.101zm-90.091 10.096c-2.086 0-3.76-.886-4.378-1.213-6.306-3.338-9.188-12.925-7.522-25.02a.99.99 0 0 1 1.127-.854 1 1 0 0 1 .854 1.127c-1.523 11.07 1.02 20.09 6.478 22.98.649.344 2.375 1.259 4.354.9 4.983-.902 8.758-9.148 9.179-20.054a1 1 0 1 1 1.998.078c-.464 12.039-4.812 20.858-10.821 21.946a7.38 7.38 0 0 1-1.269.11zm24.506 26.903h-71.112a1 1 0 1 1 0-2h71.112a1 1 0 1 1 0 2zm-12.556 11h-46a1 1 0 1 1 0-2h46a1 1 0 1 1 0 2zm27.022 18H305.568a1 1 0 1 1 0-2h100.045a1 1 0 1 1 0 2z"/></g><path d="M129.731 295.065c-10.277 9.866-19.841 14.554-27 17-7.225 2.468-11.784 2.58-15 7-5.158 7.089 1.123 14.292-4 22-3.656 5.5-10.315 7.265-17 9-7.515 1.951-13.967 1.607-17.919 1.098l8 26 18.919-8.098a751.247 751.247 0 0 0 54-74z" fill="#a271cc"/><path d="M76.73 370.065a.999.999 0 0 1-.789-1.613 1914.508 1914.508 0 0 0 27.985-36.981c5.812-7.877 15.539-21.062 27.983-38.977a1520.953 1520.953 0 0 0 16.989-24.983 1 1 0 0 1 1.664 1.107 1525.027 1525.027 0 0 1-17.011 25.017c-12.46 17.938-22.198 31.137-28.017 39.023a1914.434 1914.434 0 0 1-28.015 37.019.99.99 0 0 1-.789.388z" fill="#1d0333"/><path d="M103.402 448.065a1.001 1.001 0 0 1-.448-1.895c.757-.378 1.503-.756 2.239-1.134 1.64-.84 3.246-1.678 4.834-2.507l.246-.128a540.698 540.698 0 0 0 31.933-18.187c16.984-10.468 30.253-20 39.941-26.961a832.783 832.783 0 0 0 36.183-27.537 48.057 48.057 0 0 1-10.255-2.99c-8.521-3.558-13.736-8.666-15.964-10.848-8.857-8.678-13.107-18.811-15.126-25.954a13.274 13.274 0 0 0-4.188-.761l-.131-.001c-2.941 0-5.636 1.508-11.348 4.863l-.39.229c-7.182 4.217-11.926 7.003-16.33 9.045l-.168.079c-.277.131-.829.391-2.228 1.027a793.056 793.056 0 0 0-7.948 3.677c-10.111 4.729-18.042 8.349-26.321 11.778a359.764 359.764 0 0 1-5.447 2.197c-.434.177-.869.35-1.315.522l-1.079.419c-5.438 2.106-11.601 4.493-20.075 7.026a171.523 171.523 0 0 1-8.077 2.209c-2.23.561-3.704.932-5.847 1.765-2.941 1.138-5.854 2.631-8.66 4.439a.99.99 0 0 1-.533.159h-.02a1 1 0 0 1-.979-.804 1.002 1.002 0 0 1 .573-1.117c2.881-1.845 5.873-3.373 8.896-4.542 2.257-.877 3.778-1.26 6.082-1.839 1.898-.478 4.262-1.073 7.992-2.186 8.398-2.51 14.522-4.882 19.925-6.974l1.078-.419c.438-.169.861-.336 1.295-.514a337.687 337.687 0 0 0 5.347-2.158c.021-.009.112-.043.133-.05 8.191-3.394 16.1-7.004 26.186-11.721a802.607 802.607 0 0 1 7.968-3.686c1.383-.628 1.928-.885 2.202-1.015l.181-.085c4.316-2 9.027-4.767 16.158-8.955l.389-.229c5.702-3.349 8.885-5.198 12.521-5.137 1.794.027 3.593.386 5.348 1.068.295.115.519.363.603.668 1.895 6.926 5.989 16.981 14.735 25.55 2.145 2.101 7.167 7.021 15.335 10.431a46.098 46.098 0 0 0 12.009 3.193 1 1 0 0 1 .503 1.77 834.159 834.159 0 0 1-38.045 29.035c-9.712 6.978-23.014 16.534-40.059 27.039a542.578 542.578 0 0 1-32.069 18.264l-.248.129a705.878 705.878 0 0 1-4.831 2.506c-.741.381-1.495.762-2.26 1.144a1.025 1.025 0 0 1-.446.103z" fill="#1d0333"/><path d="M326.737 104.78c-.1.79-.76 1.29-1.19 1.63-2.26 1.75-4.67.32-9.1-.08a23.27 23.27 0 0 0-2.74-.09c-3.85.1-6.08 1.09-7.25-.31-.79-.95-.52-2.35-.49-2.48.67-3.15 6.23-5.27 10.86-4.9.93.07 1.87.25 2.78.5 1.61.45 3.13 1.15 4.34 1.96 1.79 1.18 2.939 2.59 2.79 3.77zm27.29 1.41c-.07.62-.6 1.02-.95 1.28-1.82 1.38-3.77.25-7.34-.08-.68-.06-1.41-.1-2.2-.08-.11 0-.22.01-.33.01-2.91.11-4.6.8-5.52-.27-.65-.76-.43-1.86-.41-1.97.53-2.48 5.01-4.14 8.75-3.84.75.06 1.51.2 2.24.41 1.13.31 2.2.77 3.1 1.31 1.68.98 2.789 2.21 2.66 3.23z" fill="#fff"/><path d="M340.909 117.791c-1.228 0-2.876-.297-5.03-.89a.999.999 0 1 1 .53-1.928c4.66 1.281 5.419.692 5.448.666-.01-.313-.944-1.675-1.77-2.877-.853-1.241-1.913-2.786-3.077-4.766a59.745 59.745 0 0 1-3.197-6.249 1 1 0 0 1 1.832-.803 57.483 57.483 0 0 0 3.09 6.039c1.128 1.92 2.167 3.433 3.001 4.648 1.67 2.432 2.59 3.772 1.817 5.061-.439.733-1.283 1.098-2.644 1.099zm-14.172-13.011c-.1.79-.76 1.29-1.19 1.63-2.26 1.75-4.67.32-9.1-.08-.48-.04-.98-.08-1.5-.09.2-1.01.74-2.1 1.33-2.84 1.74-2.19 4.9-2.69 7.67-2.39 1.79 1.18 2.939 2.59 2.79 3.77zm27.29 1.41c-.07.62-.6 1.02-.95 1.28-1.82 1.38-3.77.25-7.34-.08-.68-.06-1.41-.1-2.2-.08-.11 0-.22.01-.33.01.27-.71.66-1.4 1.07-1.92 1.62-2.04 4.47-2.61 7.09-2.44 1.68.98 2.789 2.21 2.66 3.23zm-50.158-13.681c.682.9 4.358-2.167 9.46-3.241 7.264-1.529 12.628 1.961 13.6.203.533-.964-.673-2.865-1.929-3.779-.384-.28-1.126-.72-2.854-.925-2.085-.247-3.142.143-5.334.416-4.615.574-5.396-.472-7.584.696-1.232.658-2.249 1.665-2.827 2.237-1.196 1.184-1.687 2.044-1.915 2.491-.521 1.02-.832 1.617-.617 1.902zm48.41 3.074c-.49.517-2.966-2.74-7.302-3.418-2.693-.421-4.449.411-5.065-.59-.135-1.816.473-2.546.768-2.818 1.525-1.412 4.73.087 7.163 1.225 3.333 1.559 3.974 3.016 4.14 3.444.326.841.339 1.625.296 2.157z" fill="#1d0333"/><path d="M327.812 126.163c-4.924-1.962-6.017-6.525-8-6-1.725.456-2.365 4.294-2 7 .41 3.041 2.395 6.903 6 8 6.328 1.925 12.871-6.119 12-8-.545-1.178-3.699.714-8-1z" fill="#fff"/><path d="M270.812 76.163c6.466 6.206 10.896 6.783 13.674 6.271 8.885-1.634 10.65-16.187 22.326-18.271 2.37-.423 4.357-.191 6 0 8.641 1.007 11.904 5.835 19 5a16.836 16.836 0 0 0 4-1c5.057-1.942 6.019-5.111 9-6 1.917-.571 5.015-.303 10 4-2.438-22.599-15.292-40.284-30.206-42.854-22.746-3.92-42.15 28.723-45.794 34.854a84.229 84.229 0 0 0-8 18z" fill="#1d0333"/><path d="M366.953 35.383c-4.813-4.65-8.552-5.432-11.14-5.22-9.003.738-10.502 14.026-22 17-4.848 1.254-10.596.4-15-2-6.57-3.58-6.45-8.71-12-11-2.93-1.21-7.6-1.68-15 2 8.01-5.95 16.07-9.72 22-7 5.13 2.35 5.17 7.93 10 9 6.06 1.34 9.83-6.91 19-11 2.13-.95 4.78-1.78 8.06-2.13-.02.05-.04.09-.06.13 7.019.7 13.009 4.66 16.14 10.22z" fill="#eedcff"/><ellipse cx="307.312" cy="116.663" fill="#bf7960" rx="9.5" ry="6.5"/><path d="M354.272 122.163c-5.23-.02-9.46-2.92-9.46-6.5 0-3.25 3.47-5.93 8.02-6.42.66 4.69 1.18 8.98 1.44 12.92z" fill="#bf7960"/><path d="M320.465 455.075c0 3.87 7.34 5.935 3.47 5.935H82.465c-2.98 0-5.82-.64-8.38-1.81a19.867 19.867 0 0 1-6.5-4.77c-.35-.39-.69-.79-1.01-1.21-.32-.43-.63-.86-.92-1.31s-.56-.91-.82-1.38c-.25-.48-.49-.97-.71-1.46-.11-.25-.21-.51-.31-.76-.2-.51-.38-1.04-.54-1.57l-17.82-59.29s-29.653-98.617-33.52-111.44l15 1a6166.969 6166.969 0 0 0 30.15 100.53c0-.01 0-.01.01 0l19.59 65.17c.77 2.57 3.09 4.3 5.78 4.3h241.47c3.87.001-3.47 4.195-3.47 8.065z" fill="#fff"/><path d="m325.466 462.075-243-.065c-3.077 0-6.036-.639-8.797-1.9a20.788 20.788 0 0 1-6.827-5.01 20.868 20.868 0 0 1-1.062-1.273 24.624 24.624 0 0 1-.966-1.375 25.16 25.16 0 0 1-.854-1.437 29.435 29.435 0 0 1-.747-1.534c-.097-.222-.184-.442-.27-.657l-.057-.144c-.2-.51-.392-1.064-.568-1.651l-17.821-59.292s-29.652-98.616-33.519-111.439a1 1 0 1 1 1.914-.577c3.866 12.823 33.521 111.44 33.521 111.44l17.82 59.29c.161.534.334 1.037.513 1.492l.057.144c.077.193.155.39.238.581.209.463.439.936.681 1.399.237.428.496.869.774 1.3.278.432.576.844.882 1.256.297.389.62.768.952 1.139a18.77 18.77 0 0 0 6.171 4.528 19.029 19.029 0 0 0 7.965 1.719l243 .065a1 1 0 1 1 0 2.001z" fill="#1d0333"/><path d="m325.466 448.075-243-.065a6.987 6.987 0 0 1-6.738-5.013l-19.549-65.035a.926.926 0 0 1-.049-.127 6112.148 6112.148 0 0 1-13.813-45.29 6223.001 6223.001 0 0 1-16.341-55.257 1 1 0 1 1 1.92-.558 6152.55 6152.55 0 0 0 16.337 55.239A6134.564 6134.564 0 0 0 58 377.11c.021.045.04.093.055.141l19.59 65.17a5.001 5.001 0 0 0 4.822 3.588l243 .065a1 1 0 1 1-.001 2.001z" fill="#1d0333"/></svg></g><g transform="translate(114.0 495.0) rotate(0.0 464.0 250.5) scale(1.1585518102372034 1.1615075022720107)"><svg width="801" height="431.336" viewBox="0 0 801 431.336"><path d="M69.661 286.402c-40.082-5.751-59.72 4.245-64.755 9.519-6.417 6.721-1.79 11.309 5.094 11.57-6.414 2.364-7.043 13.465 2 16-.301.393-4.02 5.382-2 10 1.048 2.396 3.162 3.594 4 4 6.131 2.969 13.727-2.707 21-6 6.381-2.889 16.023-5.534 30-4-5.132.982-36.917 7.26-37 17-.012 1.436.668 2.496 1 3 4.939 7.488 21.319-2.405 43 0 17.522 1.944 20.667 9.942 40 10a72.122 72.122 0 0 0 17-2c.354-6.061 1.668-15.383 6.415-25.619A70.355 70.355 0 0 1 146 313.491c-31.519-18.314-59.049-24.608-76.339-27.089z" fill="#ffb5a6"/><path d="M539 173.491c-.35-3.69 3.501-6.793 5-8 12.952-10.433 41.615-7.126 43 0 1.372 7.057-23.217 21.942-39 16-1.325-.498-8.546-3.217-9-8z" fill="#1d0333"/><path d="M614 182.491c-20.01 18.33-49.73 47.1-83.75 86.47-5.46 6.33-3.41 4.11-18.25 21.53-58.06 68.19-74.56 84.81-89.44 97.67-.52.44-1.04.89-1.56 1.33-12.41 10.6-27.81 22.41-37 28-78.45 47.73-223.97-41.64-256-62 .11-4.42.44-8.39.95-11.94 2.37-16.47 8.6-24.1 14.05-28.06 23.72-17.22 51.55 21.58 117 20 15.88-.38 37.93-3.24 62 9 8.58 4.36 14.93 9.38 19 13 1.11-3.53 3.14-8.7 7-14 6.26-8.58 13.89-12.78 16-14 17.84-10.29 38.22-36.55 44-44 21.09-27.17 31.83-58.96 52-81 .98-1.07 2.6-2.8 4.97-4.7 15.14-12.15 34.75-10.66 42.03-10.3 21.15 1.04 56.76-1.6 107-7z" fill="#759ef2"/><path d="m763 421.491-55.09.86-106.91.14h-31c-3.057-9.849-7.869-23.74-15.23-39.94a381.54 381.54 0 0 0-4.77-10.06c-18.77-38.19-33.35-51.74-43.65-75.44-1.17-2.7-2.29-5.54-3.35-8.56-5.88-16.73-11.4-42.95-5-80 5.48-.72 14.68-2 26-4 81.19-14.34 108.98-38.16 137-23 7.24 3.92 13.83 12.94 27 31 9.99 13.69 19.17 29.04 28.29 49.15 1.57 3.47 3.14 7.08 4.71 10.85 8.62 20.67 15.91 42.8 21.9 63.65 11.07 38.5 17.72 72.66 20.1 85.35z" fill="#759ef2"/><path d="M480 328.491a1 1 0 0 1-.731-1.682 725.595 725.595 0 0 0 28.96-32.954 725.445 725.445 0 0 0 21.969-27.961 1 1 0 0 1 1.603 1.196 726.986 726.986 0 0 1-22.031 28.039 726.698 726.698 0 0 1-29.04 33.046.996.996 0 0 1-.73.316z" fill="#1d0333"/><path d="M555 374.491c-.08 2.84-.16 5.53-.23 8.06-1.49-3.27-3.08-6.62-4.77-10.06-18.77-38.19-33.35-51.74-43.65-75.44l23.65-29.56c11.43 10.69 14 19.58 14 26 .01 12.83-10.25 17.91-8 29 1.91 9.44 10.04 9.12 16 21 2.03 4.05 3.62 9.13 3 31z" fill="#1d0333"/><path d="M422.56 388.161c-.52.44-1.04.89-1.56 1.33-12.41 10.6-27.81 22.41-37 28-78.45 47.73-223.97-41.64-256-62 .11-4.42.44-8.39.95-11.94 5.42 3.61 13.19 7.77 23.05 9.94 20.36 4.48 29.52-3.95 43 3 11.3 5.82 7.63 13.18 22 25 13.35 10.98 28.23 14.28 36 16 20.57 4.56 24.88-1.23 40 5 12.32 5.08 12.52 10.17 24 15 14.82 6.23 28.86 3.77 39 2 16.06-2.81 39.35-13.48 66.56-31.33z" fill="#577ddd"/><path d="M128.056 356.491a1 1 0 0 1-.991-.876c-.807-6.459-.613-16.359 4.892-26.839 3.198-6.088 7.713-11.493 13.419-16.065a1 1 0 1 1 1.25 1.561c-5.489 4.399-9.829 9.592-12.897 15.435-5.265 10.021-5.45 19.486-4.679 25.661a1 1 0 0 1-.994 1.123z" fill="#1d0333"/><path d="M558.691 12.709c-9.335-2.9-20.399 5.185-26.691 9.782-2.767 2.022-10.732 8.22-24 35-12.243 24.712-18.278 37.366-14 52 1.095 3.745 2.828 9.673 8 14 14.935 12.494 48.499 3.232 65.073-15.791 26.575-30.503 11.759-88.734-8.382-94.991z" fill="#ffb5a6"/><path d="M613.64 171.961c-17.55 3.18-35.09 6.35-52.64 9.53a305.749 305.749 0 0 1-19-40c-.73-1.89-1.44-3.77-2.12-5.62-1.14-3.12-2.21-6.19-3.21-9.21a303.56 303.56 0 0 1-6.67-23.17c10.49-6.05 20.99-12.09 31.48-18.14 17.39 28.87 34.77 57.74 52.16 86.61z" fill="#ffb5a6"/><path d="M539.88 135.871c-1.14-3.12-2.21-6.19-3.21-9.21.11-.06.22-.11.33-.17 5.69-2.93 8.2-6.51 9-6 .68.43-.1 3.63-6.12 15.38z" fill="#1d0333"/><path d="M517.668 68.679c-.896 1.137-3.101-.609-8.027-.138-.367.023-.758.08-1.16.138-1.665.253-2.871.655-3.445 0-.941-1.079.769-3.95 1.148-4.593.872-1.447 2.504-4.214 4.857-4.559.103-.023.207-.023.31-.034 4.146-.231 7.787 7.314 6.317 9.186z" fill="#fff"/><path d="M512.374 65.13c-.448 1.516-1.504 2.641-2.733 3.41-.367.023-.758.08-1.16.138-1.665.253-2.871.655-3.445 0-.941-1.079.769-3.95 1.148-4.593.872-1.447 2.504-4.214 4.857-4.559 1.344.471 1.964 3.422 1.333 5.604z" fill="#1d0333"/><path d="M539 173.491c.561 1.138 1.482 2.648 3 4 3.605 3.211 10.063 5.079 34-2 24.917-7.369 31.327-13.365 31-15-.265-1.325-2.998-3.998-3-4 15.668 16.091 15 27 15 27-.5 8.171-7.896 13.849-12 17-20.896 16.043-55.615 11.992-61 0-.703-1.566-.405-1.929-2-9a188.86 188.86 0 0 0-5-18z" fill="#759ef2"/><path d="M573.34 199.003c-2.396 0-4.892-.16-7.478-.521-8.322-1.161-16.425-4.331-23.431-9.167a1.001 1.001 0 0 1 1.137-1.646c6.75 4.66 14.555 7.715 22.569 8.833 13.066 1.822 23.754-1.664 30.425-4.909a1 1 0 0 1 .875 1.799c-5.599 2.723-13.934 5.611-24.097 5.611z" fill="#1d0333"/><path d="M801 196.491c-6.63 6.6-59.36 57.47-129 46-38.09-6.27-62.8-28.15-72.37-36.87-37.4-34.08-50.1-81.73-53.63-118.13 3.43-23.21-19.85-23.43-10-53l-13 10c-3.67-6-7.33-12-11-18 4.88-4.45 37.51-33.3 77-25 22.51 4.73 36.63 19.31 42 25 5.48 5.81 9.63 11.69 12.83 17.6 4.78 8.81 7.47 17.68 9.33 26.49 4.72 22.24 4.18 43.99 18.84 62.91 12.49 16.12 38.04 32.76 96 32 .33 1.33.67 2.67 1 4a90.808 90.808 0 0 1-36 7c6.2 3.13 18.24 8.13 34 8 11.22-.1 20.23-2.76 26-5 2.67 5.67 5.33 11.33 8 17z" fill="#1d0333"/><path d="M533 75.491c8.308-10.471 29.013-9.411 32-3 1.398 3.002-1.231 6.869-2 8-7.491 11.017-29.853 10.586-32.935 4.064-1.588-3.362 2.104-8.017 2.935-9.064z" fill="#ffb5a6"/><path d="M543.379 84.553c-.114 0-.228-.002-.343-.005a1.001 1.001 0 0 1-.973-1.027c.016-.553.48-.987 1.027-.973 2.577.075 4.419-.784 5.275-1.606.372-.358.507-.661.509-.813.009-.667-1.833-2.415-5.286-2.63a1 1 0 0 1-.645-1.705c1.109-1.11 4.16-3.699 8.503-3.758a11.63 11.63 0 0 1 4.437.834.999.999 0 1 1-.74 1.858 9.422 9.422 0 0 0-3.669-.692c-2.304.031-4.183.932-5.485 1.824 3.02.786 4.907 2.646 4.887 4.294-.01.763-.398 1.533-1.123 2.23-1.426 1.37-3.789 2.169-6.374 2.169z" fill="#1d0333"/><path d="M653.16 70.581c-4.38.02-10.13-.57-16.16-3.09-11.53-4.82-15.29-13.11-21-12-3.54.69-7.78 4.69-11 19-3.71-1.06-8.3-2.85-13-6-12.62-8.47-17.4-20.98-19-26 3.15 3.77 8.33 8.96 16 13 3.62 1.9 7.04 3.16 10 4 4.57-15.33 10.38-19.85 15-21 8.62-2.15 14.93 6.94 27 6 .97-.08 1.92-.21 2.83-.4 4.78 8.81 7.47 17.68 9.33 26.49z" fill="#eedcff"/><g fill="#1d0333"><path d="M6 329.491a1 1 0 0 1-.711-1.703c5.381-5.44 11.528-9.879 18.27-13.194 15.938-7.836 31.413-7.637 41.592-6.091a1 1 0 0 1-.301 1.978c-9.892-1.503-24.935-1.698-40.408 5.909-6.541 3.216-12.507 7.525-17.73 12.806a1.007 1.007 0 0 1-.712.295zm-4.999-17a.999.999 0 0 1-.551-1.835 90.903 90.903 0 0 1 27.3-12.133c11.57-2.994 23.478-3.674 35.388-2.022a1 1 0 0 1-.275 1.981c-11.646-1.615-23.293-.95-34.612 1.978a88.909 88.909 0 0 0-26.7 11.867c-.17.111-.362.164-.55.164zm506.08-258.902c-.227-1.092 1.364-2.708 3-3 .639-.114.9.042 4 1 2.376.734 2.511.732 3 1 1.58.866 2.408 2.147 3 3 1.831 2.638 2.893 6.44 2 7-1.116.7-3.476-4.794-10-7-2.584-.874-4.766-.875-5-2z"/></g><path d="M504.081 67.589c-3.178 2.614-5.984 4.109-8 5-1.502.664-2.592 1.004-3 2-.843 2.06 1.975 5.109 4 7l7-14z" fill="#ffb5a6"/><path d="M496.081 92.589c.53 5.888 2.785 9.906 5 10 2.293.097 4.299-4.018 5-6 .973-2.749 1.226-6.453 0-7-1.137-.507-2.455 2.188-6 3-1.626.373-3.061.198-4 0z" fill="#fff"/><ellipse cx="517.581" cy="81.089" fill="#f99282" rx="9.5" ry="6.5"/></svg></g><g transform="translate(807.0 796.0) rotate(0.0 70.5 93.5) scale(1.165289256198347 1.162573826546472)"><svg width="121" height="160.85" viewBox="0 0 121 160.85"><path d="M121 8.47C65.34 57.2 46.35 135.35 41.01 160.8c-13.67.01-27.34.03-41.01.05 1.64-4.72 4.34-11.3 8.84-18.55 1.82-2.93 4.4-7.56 9.16-12.45 5.37-5.52 10.35-8.35 16-17 1.86-2.85 3.04-5.18 3.89-7.27 3.29-8.09 4.2-11.67 6.11-16.73 3.52-9.31 6.78-8.92 17-25 4.75-7.48 3.71-7.04 7-12 8.76-13.23 17.04-17.73 29-29 5.28-4.98 12.56-12.48 20.29-22.85 1.25 2.78 2.49 5.61 3.71 8.47z" fill="#1d0333"/></svg></g><g transform="translate(850.0 762.0) rotate(0.0 159.0 113.0) scale(1.173782569697954 1.1760298066315593)"><svg width="270.919" height="192.172" viewBox="0 0 270.919 192.172"><path d="M1.231 191.171C7.076 163.26 29.627 70.245 100.302 24.166c22.972-14.978 42.329-19.324 50.007-20.758 33.969-6.342 84.527-1.232 106.619 28.306 26.924 35.999 13.079 110.353-51.664 159.287l-204.033.17z" fill="#fff"/><path d="m0 192.172.253-1.206c5.66-27.034 14.407-53.628 25.296-76.908 18.911-40.429 43.878-70.955 74.207-90.73 16.167-10.541 33.585-17.769 50.369-20.903 18.56-3.465 39.756-3.209 58.155.703 22.183 4.716 39.281 14.394 49.448 27.987 27.455 36.709 12.909 111.728-51.862 160.684l-.267.202zM177.4 1.967c-9.249 0-18.374.832-26.907 2.425-16.528 3.086-33.695 10.214-49.645 20.612-30.012 19.568-54.736 49.815-73.487 89.902C16.699 137.702 8.1 163.701 2.465 190.17l202.463-.168c63.607-48.252 78.054-121.783 51.199-157.688-15.788-21.11-47.921-30.347-78.727-30.347z" fill="#1d0333"/><path d="M49.351 191.171c24.55-84.97 62.702-146.676 99.071-167.005 19.872-11.108 39.628-13.209 39.628-13.209 41.317-4.637 59.244 11.272 63.216 15.096 29.827 28.717 25.186 100.356-30.003 164.948l-171.912.17z" fill="#fff"/><path d="m48.022 192.172.369-1.279c23.795-82.359 61.938-146.579 99.543-167.6 19.822-11.08 39.811-13.31 40.011-13.331 38.83-4.359 57.707 9.297 64.016 15.37 29.598 28.496 26.567 100.187-29.936 166.318l-.3.35zM202.491 11.118c-4.432 0-9.199.257-14.33.833-.201.022-19.802 2.216-39.251 13.088-36.97 20.666-74.55 83.871-98.226 165.131l170.118-.168c55.464-65.15 58.664-135.41 29.771-163.228-5.281-5.084-19.692-15.656-48.082-15.656z" fill="#1d0333"/></svg></g><g transform="translate(642.0 984.0) rotate(0.0 342.5 1.5) translate(0.0 0.0) scale(1.4432750755875814 1.5)"><svg width="324.263" height="2" viewBox="0 0 324.263 2"><path d="M473.615 2H1a1 1 0 0 1 0-2h472.615a1 1 0 0 1 0 2z" fill="#1d0333"/></svg></g></svg>